<svg xmlns="http://www.w3.org/2000/svg" version="1.1" width="808" height="1024">
<rect x="0" y="0" width="808" height="1024" fill="#91897f" />
<g transform="scale(4.000000) translate(0.5 0.5)">
<polygon fill="#eef5f9" fill-opacity="0.501961" points="85,-16 148,271 28,271" />
<polygon fill="#3b1100" fill-opacity="0.501961" points="61,40 -16,16 8,214" />
<polygon fill="#000000" fill-opacity="0.501961" points="151,72 217,8 97,-16" />
<polygon fill="#2f1f0d" fill-opacity="0.501961" points="210,239 136,237 144,82" />
<polygon fill="#bbb1a0" fill-opacity="0.501961" points="155,237 159,10 216,67" />
<polygon fill="#e4e7ea" fill-opacity="0.501961" points="143,157 96,234 137,42" />
<polygon fill="#000000" fill-opacity="0.501961" points="212,76 143,65 217,57" />
<polygon fill="#502b06" fill-opacity="0.501961" points="19,175 52,71 47,199" />
<polygon fill="#ffffff" fill-opacity="0.501961" points="48,133 75,250 87,98" />
<polygon fill="#000000" fill-opacity="0.501961" points="146,115 161,56 141,-8" />
<polygon fill="#2d1e0b" fill-opacity="0.501961" points="-14,16 108,51 5,51" />
<polygon fill="#000000" fill-opacity="0.501961" points="101,-16 123,31 199,11" />
<polygon fill="#272819" fill-opacity="0.501961" points="85,147 86,193 104,196" />
<polygon fill="#000000" fill-opacity="0.501961" points="155,230 203,209 217,237" />
<polygon fill="#b6b3ac" fill-opacity="0.501961" points="-16,19 64,-16 150,45" />
<polygon fill="#2d2f2d" fill-opacity="0.501961" points="86,95 47,79 125,88" />
<polygon fill="#0b0e11" fill-opacity="0.501961" points="137,219 165,174 146,112" />
<polygon fill="#c8beae" fill-opacity="0.501961" points="66,196 7,271 -10,190" />
<polygon fill="#d2d5d1" fill-opacity="0.501961" points="155,142 157,62 217,131" />
<polygon fill="#e3ecf5" fill-opacity="0.501961" points="72,48 53,53 57,116" />
<polygon fill="#99764e" fill-opacity="0.501961" points="146,222 217,205 180,124" />
<polygon fill="#4e493f" fill-opacity="0.501961" points="124,25 74,49 127,59" />
<polygon fill="#44280a" fill-opacity="0.501961" points="128,123 113,130 119,73" />
<polygon fill="#c8c8c2" fill-opacity="0.501961" points="142,29 142,100 123,33" />
<polygon fill="#d7dadf" fill-opacity="0.501961" points="92,213 138,235 133,98" />
<polygon fill="#000000" fill-opacity="0.501961" points="92,117 91,143 84,120" />
<polygon fill="#0d1811" fill-opacity="0.501961" points="32,158 57,190 43,196" />
<polygon fill="#000000" fill-opacity="0.501961" points="217,57 217,27 152,-11" />
<polygon fill="#ccbba3" fill-opacity="0.501961" points="157,61 196,28 156,30" />
<polygon fill="#93643b" fill-opacity="0.501961" points="62,81 16,83 17,189" />
<polygon fill="#000000" fill-opacity="0.501961" points="155,66 215,76 210,59" />
<polygon fill="#000100" fill-opacity="0.501961" points="-16,196 8,188 6,140" />
<polygon fill="#000000" fill-opacity="0.501961" points="141,86 154,130 154,46" />
<polygon fill="#fcfffc" fill-opacity="0.501961" points="85,168 52,248 65,113" />
<polygon fill="#867b72" fill-opacity="0.501961" points="137,266 214,237 98,234" />
<polygon fill="#e7eef2" fill-opacity="0.501961" points="155,153 189,154 157,143" />
<polygon fill="#9c9386" fill-opacity="0.501961" points="51,271 13,263 48,164" />
<polygon fill="#d2d5d7" fill-opacity="0.501961" points="46,63 116,65 114,87" />
<polygon fill="#afaaa2" fill-opacity="0.501961" points="-7,13 107,47 109,-16" />
<polygon fill="#000000" fill-opacity="0.501961" points="30,174 41,182 46,154" />
<polygon fill="#152228" fill-opacity="0.501961" points="46,93 54,123 55,79" />
<polygon fill="#260b00" fill-opacity="0.501961" points="162,147 177,139 189,143" />
<polygon fill="#312f2f" fill-opacity="0.501961" points="166,155 139,237 137,156" />
<polygon fill="#e7ecec" fill-opacity="0.501961" points="46,163 108,134 48,185" />
<polygon fill="#161d18" fill-opacity="0.501961" points="3,44 14,88 1,115" />
<polygon fill="#6f4625" fill-opacity="0.501961" points="50,20 16,30 24,105" />
<polygon fill="#c8edef" fill-opacity="0.501961" points="33,186 44,182 19,181" />
<polygon fill="#d3d7d5" fill-opacity="0.501961" points="135,130 92,177 91,125" />
<polygon fill="#000000" fill-opacity="0.501961" points="210,207 160,227 199,233" />
<polygon fill="#dbdcd0" fill-opacity="0.501961" points="175,153 216,125 207,150" />
</g>
</svg>