<svg xmlns="http://www.w3.org/2000/svg" version="1.1" width="804" height="1024">
<rect x="0" y="0" width="804" height="1024" fill="#9d836f" />
<g transform="scale(4.000000) translate(0.5 0.5)">
<polygon fill="#2a1e14" fill-opacity="0.501961" points="56,271 216,250 154,29" />
<polygon fill="#f0cdb0" fill-opacity="0.501961" points="-16,1 171,-16 29,271" />
<polygon fill="#e7c8aa" fill-opacity="0.501961" points="100,16 73,263 -4,255" />
<polygon fill="#625041" fill-opacity="0.501961" points="79,147 216,14 196,271" />
<polygon fill="#e5c6ac" fill-opacity="0.501961" points="89,101 105,7 216,-7" />
<polygon fill="#503e31" fill-opacity="0.501961" points="188,271 73,223 116,80" />
<polygon fill="#ae9077" fill-opacity="0.501961" points="-6,271 78,18 -15,-11" />
<polygon fill="#867363" fill-opacity="0.501961" points="177,19 181,144 112,87" />
<polygon fill="#d7b99f" fill-opacity="0.501961" points="6,254 99,80 66,267" />
<polygon fill="#49372a" fill-opacity="0.501961" points="161,271 90,157 74,250" />
<polygon fill="#695645" fill-opacity="0.501961" points="216,87 96,119 211,225" />
<polygon fill="#98867a" fill-opacity="0.501961" points="216,61 208,1 122,68" />
<polygon fill="#e1cfb7" fill-opacity="0.501961" points="89,104 125,72 106,106" />
<polygon fill="#dfbfa8" fill-opacity="0.501961" points="209,-5 137,52 172,-16" />
<polygon fill="#b5957c" fill-opacity="0.501961" points="2,271 45,81 -14,24" />
<polygon fill="#6a5746" fill-opacity="0.501961" points="102,117 126,221 133,66" />
<polygon fill="#d4b398" fill-opacity="0.501961" points="74,271 52,85 9,244" />
<polygon fill="#baa191" fill-opacity="0.501961" points="125,5 -7,-16 69,62" />
<polygon fill="#c1a68d" fill-opacity="0.501961" points="188,220 185,205 180,204" />
<polygon fill="#cebdaa" fill-opacity="0.501961" points="76,179 79,232 61,201" />
<polygon fill="#38241c" fill-opacity="0.501961" points="174,219 181,271 193,262" />
<polygon fill="#826d5e" fill-opacity="0.501961" points="215,81 160,44 114,86" />
<polygon fill="#ccb096" fill-opacity="0.501961" points="110,96 44,146 89,154" />
<polygon fill="#443225" fill-opacity="0.501961" points="184,215 169,221 171,181" />
<polygon fill="#b69d87" fill-opacity="0.501961" points="134,220 139,220 138,238" />
<polygon fill="#baa089" fill-opacity="0.501961" points="151,242 145,235 151,249" />
<polygon fill="#8e7a68" fill-opacity="0.501961" points="86,180 77,180 85,153" />
<polygon fill="#170a02" fill-opacity="0.501961" points="198,143 214,182 203,183" />
<polygon fill="#b0957e" fill-opacity="0.501961" points="171,216 176,239 169,228" />
<polygon fill="#160801" fill-opacity="0.501961" points="190,195 198,203 190,184" />
<polygon fill="#b5977f" fill-opacity="0.501961" points="69,60 -16,254 2,80" />
<polygon fill="#755f4f" fill-opacity="0.501961" points="141,193 161,249 161,216" />
<polygon fill="#3b291e" fill-opacity="0.501961" points="161,202 174,241 163,241" />
<polygon fill="#402e23" fill-opacity="0.501961" points="81,271 84,221 130,267" />
<polygon fill="#36271b" fill-opacity="0.501961" points="168,155 170,175 184,191" />
<polygon fill="#ad988d" fill-opacity="0.501961" points="151,36 212,0 214,29" />
<polygon fill="#b59a84" fill-opacity="0.501961" points="179,222 180,212 174,212" />
<polygon fill="#c2a288" fill-opacity="0.501961" points="195,240 201,270 211,271" />
<polygon fill="#d4b9a0" fill-opacity="0.501961" points="199,200 191,185 198,191" />
<polygon fill="#000000" fill-opacity="0.501961" points="206,271 197,263 194,245" />
<polygon fill="#d4b59a" fill-opacity="0.501961" points="168,245 171,254 168,256" />
<polygon fill="#190904" fill-opacity="0.501961" points="158,235 165,260 158,258" />
<polygon fill="#564334" fill-opacity="0.501961" points="86,173 129,202 103,117" />
<polygon fill="#756050" fill-opacity="0.501961" points="115,93 142,168 140,56" />
<polygon fill="#8f7a67" fill-opacity="0.501961" points="146,263 130,238 137,265" />
<polygon fill="#d5b79b" fill-opacity="0.501961" points="152,33 61,78 62,165" />
<polygon fill="#dcc3ab" fill-opacity="0.501961" points="76,177 65,264 46,243" />
<polygon fill="#2b1d14" fill-opacity="0.501961" points="140,217 139,238 151,258" />
<polygon fill="#aa8d76" fill-opacity="0.501961" points="179,236 186,254 179,247" />
<polygon fill="#847263" fill-opacity="0.501961" points="73,261 80,230 71,225" />
</g>
</svg>