<svg version="1" xmlns="http://www.w3.org/2000/svg" width="512" height="512" viewBox="0 0 16 16"><path d="M235.7 4.5c-.1.2-4.1.5-8.8.9-4.8.3-9.3.8-10 1-.8.3-3.2.8-5.4 1-18.5 2.4-40.9 9.7-61.3 19.9-17.7 8.9-28 15.7-45.2 29.9C72 84.5 45.6 123.5 30.8 167c-3.7 11-6.9 23.2-8.2 31.5-.4 2-.8 4-1 4.4-.2.3-.7 3.1-1 6.2-.4 3.1-.9 6.7-1.1 8C17 229.5 17 276 19.4 290c.3 1.4.7 4.7 1.1 7.5.8 7.5 3.5 21.3 5.2 27.5 1.8 6.6 3.2 12 3.7 14 3.5 13.6 14 37.6 23.5 53.8 27.8 47.2 75.4 84.1 130.6 101.1 12.2 3.7 29.7 7.7 40.2 9.2 4.3.5 8.8 1.2 10.1 1.4 14.8 2.5 68.6 2.5 78.2 0 .8-.2 3.7-.6 6.4-1 56-7 110.8-35.6 144.5-75.5 2.5-3 5.4-6.4 6.4-7.5 2.1-2.3 16.5-23.6 18.2-26.9.6-1.2 2.4-4.3 3.9-7 3.3-5.9 5.1-3.9-15.2-16.9-7.8-5.1-19.9-12.9-27-17.4-7-4.5-14.9-9.6-17.7-11.3-7.6-4.6-24.8-15.8-26.2-17-.7-.5-1.4-1-1.7-1-.2 0-4.6-2.7-9.6-6.1-5.1-3.3-9.7-6.2-10.4-6.5-.7-.3-1.9 1.5-3 4.5-3.1 8.6-11.2 23.6-16.9 31.4-15 20.3-36.1 34.3-59.2 39.5-4.5 1-12.1 1.5-21.5 1.6-13.7 0-15-.2-23.3-3.1-4.8-1.7-11.3-4.6-14.5-6.4-7-4.2-22.4-19.3-27.8-27.4-9.9-14.7-18.5-34.6-21.9-51-.3-1.1-.7-3.1-1-4.5-.9-4.1-1.2-6.2-2-12-.4-3-.9-6.4-1.2-7.5-.2-1.1-.5-9.9-.7-19.5-.7-36.8 4.2-62 16.5-86 12.7-24.7 30.1-40.3 52.4-47 6.6-2 10.1-2.4 20.5-2.4 6.9.1 13.9.3 15.5.6 11.3 2.2 18.1 4.4 26.7 8.8 20.8 10.6 39.6 34.1 47.4 59.2l1.8 5.8H469l.1-6.3V17.3l-.1-2.1H364.4l.1 18.4c0 10.1-.2 18.4-.6 18.4-.3 0-1.6-1.2-3-2.6-3.5-3.8-15.4-13.4-22.7-18.3C320.3 19 296.1 9.5 275.5 6.5c-2.2-.3-5.4-.8-7-1.1-2.9-.5-32.2-1.3-32.8-.9z"/></svg>