<?xml version="1.0" standalone="no"?>
<!DOCTYPE svg PUBLIC "-//W3C//DTD SVG 1.1//EN" "http://www.w3.org/Graphics/SVG/1.1/DTD/svg11.dtd" >
<svg xmlns="http://www.w3.org/2000/svg">
<metadata></metadata>
<defs>
<font id="knilethin" horiz-adv-x="1153" >
<font-face units-per-em="2048" ascent="1536" descent="-512" />
<missing-glyph horiz-adv-x="573" />
<glyph unicode=" "  horiz-adv-x="573" />
<glyph unicode="&#x09;" horiz-adv-x="573" />
<glyph unicode="&#xa0;" horiz-adv-x="573" />
<glyph unicode="!" horiz-adv-x="532" d="M209 45q0 25 16 41t41 16t41.5 -16t16.5 -41t-16.5 -41t-41.5 -16t-41 16t-16 41zM256 311v1170h20v-1170h-20z" />
<glyph unicode="&#x22;" horiz-adv-x="520" d="M115 1481h32l-6 -416h-20zM373 1481h33l-7 -416h-20z" />
<glyph unicode="#" horiz-adv-x="1234" d="M61 440v21h256l103 491h-250v21h254l94 461h23l-95 -461h422l97 461h22l-96 -461h270v-21h-274l-101 -491h250v-21h-254l-92 -440h-22l92 440h-424l-90 -440h-23l90 440h-252zM340 461h424l100 491h-422z" />
<glyph unicode="$" horiz-adv-x="1093" d="M156 -10v383h16q33 -176 134.5 -272.5t262.5 -96.5q157 0 253 97.5t96 252.5q0 69 -32 128.5t-84 100.5t-118.5 81t-136.5 72t-136.5 72.5t-118.5 82.5t-84 102t-32 131q0 143 94 236.5t240 93.5h25v168h22v-170q118 -14 198.5 -95t116.5 -202v285h23v-367h-16 q-32 161 -126 259t-237 98q-144 0 -229.5 -85.5t-85.5 -218.5q0 -61 25.5 -113.5t68 -91.5t98.5 -74.5t117.5 -66.5t122.5 -62.5t117 -68t98.5 -77.5t68 -95.5t25.5 -118.5q0 -167 -103.5 -272.5t-265.5 -105.5h-12v-193h-22v195q-135 9 -229.5 90t-131.5 213v-295h-22z" />
<glyph unicode="%" horiz-adv-x="1409" d="M131 1165q0 127 56 200t163 73t163 -73t56 -200q0 -132 -55 -208t-164 -76t-164 76t-55 208zM154 1165q0 -264 196 -264q101 0 149 69.5t48 194.5q0 120 -48.5 186t-148.5 66t-148 -66t-48 -186zM180 0l1012 1434h27l-1012 -1434h-27zM840 281q0 127 56 199.5t163 72.5 t163 -72.5t56 -199.5q0 -132 -55 -208.5t-164 -76.5t-164 76.5t-55 208.5zM862 281q0 -125 48 -195t149 -70t148.5 70t47.5 195q0 120 -48 185.5t-148 65.5t-148.5 -66t-48.5 -185z" />
<glyph unicode="&#x26;" horiz-adv-x="1363" d="M131 369q0 135 91.5 251.5t226.5 178.5q-45 50 -74 85.5t-63 87t-51 104.5t-17 106q0 115 83.5 193.5t209.5 78.5q113 0 191 -76t112 -200v262h22v-346h-16q-81 340 -307 340q-118 0 -195.5 -73t-77.5 -177q0 -66 35 -140.5t65 -113t95 -112.5q11 -13 16 -19l500 -539 q107 178 113 402h204v-21h-182q-12 -225 -121 -397l207 -224h125v-20h-137l-207 223q-76 -113 -185 -177t-239 -64q-190 0 -307 111.5t-117 275.5zM156 371q0 -157 109 -262t288 -105q126 0 232 63t180 173l-502 542q-132 -62 -219.5 -172t-87.5 -239z" />
<glyph unicode="'" horiz-adv-x="294" d="M90 1249q73 70 82 154q-12 -6 -27 -6q-22 0 -36.5 15.5t-14.5 39.5q0 22 15.5 36.5t37.5 14.5q25 0 43.5 -22t18.5 -54q0 -102 -96 -198z" />
<glyph unicode="(" horiz-adv-x="532" d="M143 635q0 230 83.5 462t230.5 431l14 -12q-143 -195 -224 -424t-81 -457t81 -457t224 -424l-14 -12q-147 199 -230.5 431t-83.5 462z" />
<glyph unicode=")" horiz-adv-x="532" d="M61 -246q143 196 224.5 424.5t81.5 456.5t-81.5 456.5t-224.5 424.5l15 12q146 -199 229.5 -430.5t83.5 -462.5t-83.5 -462.5t-229.5 -430.5z" />
<glyph unicode="*" horiz-adv-x="747" d="M90 1008l266 153l-266 152l10 16l265 -153v305h18v-305l264 153l10 -16l-266 -152l266 -153l-10 -17l-264 154v-307h-18v307l-265 -154z" />
<glyph unicode="+" horiz-adv-x="1132" d="M123 631v18h434v459h21v-459h432v-18h-432v-463h-21v463h-434z" />
<glyph unicode="," horiz-adv-x="364" d="M123 -139q73 70 82 153q-12 -6 -27 -6q-22 0 -36.5 15.5t-14.5 39.5q0 22 15.5 37t37.5 15q25 0 43.5 -22t18.5 -54q0 -102 -97 -199z" />
<glyph unicode="-" horiz-adv-x="727" d="M102 586v22h523v-22h-523z" />
<glyph unicode="." horiz-adv-x="368" d="M123 53q0 25 18.5 43.5t42.5 18.5q25 0 43.5 -18.5t18.5 -43.5t-18.5 -43t-43.5 -18q-24 0 -42.5 18.5t-18.5 42.5z" />
<glyph unicode="/" horiz-adv-x="692" d="M49 -221l621 1757h22l-620 -1757h-23z" />
<glyph unicode="0" horiz-adv-x="1183" d="M164 727q0 135 11.5 241t41 199.5t77.5 155t123 96.5t175 35t175 -35t123 -96.5t77.5 -155t41 -199.5t11.5 -241q0 -138 -11.5 -246t-41 -203.5t-77.5 -157.5t-123 -98t-175 -36t-175 36t-123 98t-77.5 157.5t-41 203.5t-11.5 246zM186 727q0 -111 7.5 -200t24.5 -173 t47.5 -145.5t74.5 -108.5t107.5 -70.5t144.5 -23.5q97 0 169 35.5t116.5 96.5t71.5 155t37.5 197t10.5 237q0 131 -10.5 232.5t-37.5 193.5t-71.5 151.5t-116.5 94.5t-169 35t-169 -35t-117 -94.5t-72 -151.5t-37.5 -193.5t-10.5 -232.5z" />
<glyph unicode="1" horiz-adv-x="684" d="M66 1178l288 256h27v-1416h201v-18h-451v18h229v1395l-280 -250z" />
<glyph unicode="2" horiz-adv-x="980" d="M102 0v12q0 99 39 192.5t101.5 169t138 148t151.5 141t138.5 135t101.5 143t39 153.5q0 145 -87.5 242.5t-234.5 97.5q-129 0 -225.5 -86.5t-130.5 -210.5l-20 6q38 132 139 221.5t240 89.5q153 0 247.5 -103.5t94.5 -254.5q0 -80 -39 -158.5t-101 -146t-137.5 -136.5 t-151 -140.5t-138 -145t-102 -165t-40.5 -186.5h696v324h21v-342h-740z" />
<glyph unicode="3" horiz-adv-x="1058" d="M119 276l20 7q39 -128 135.5 -205.5t231.5 -77.5q166 0 278.5 112.5t112.5 282.5q0 179 -122 281t-343 102h-45l-4 10l477 627h-670v-262h-20v281h711v-23l-465 -612h26q222 0 350 -109.5t128 -292.5q0 -180 -119 -298.5t-295 -118.5q-144 0 -245.5 81.5t-141.5 214.5z " />
<glyph unicode="4" horiz-adv-x="1101" d="M82 455v12l684 971h16v-965h213v-18h-213v-437h213v-18h-475v18h242v437h-680zM111 473h651v926z" />
<glyph unicode="5" horiz-adv-x="1089" d="M127 270l20 6q42 -123 138.5 -199.5t246.5 -76.5q173 0 284.5 123.5t111.5 306.5q0 182 -110.5 301t-293.5 119q-86 0 -169 -36.5t-136 -86.5l-20 8l43 699h616v-252h-20v233h-578l-41 -663q55 49 139.5 83.5t169.5 34.5q188 0 305 -125t117 -313q0 -194 -117.5 -323 t-300.5 -129q-156 0 -260 81t-145 209z" />
<glyph unicode="6" horiz-adv-x="1150" d="M176 518v94q0 259 49 444t157.5 291.5t270.5 106.5q164 0 299 -88l-10 -18q-58 39 -135.5 62.5t-153.5 23.5q-458 0 -458 -883q29 151 143 242.5t266 91.5q186 0 297 -124t111 -317q0 -136 -43.5 -238.5t-137 -164t-227.5 -61.5q-204 0 -316 144.5t-112 393.5zM203 461 q0 -92 25.5 -174t74 -147t126.5 -102.5t175 -37.5q190 0 287.5 121.5t97.5 320.5q0 187 -104 304.5t-283 117.5q-105 0 -195 -47.5t-147 -141t-57 -214.5z" />
<glyph unicode="7" horiz-adv-x="972" d="M102 1120v314h809v-11l-598 -1423h-24l598 1415h-764v-295h-21z" />
<glyph unicode="8" horiz-adv-x="1167" d="M164 385q0 85 30 155t80 114t108 70.5t122 35.5q-119 21 -206 111.5t-87 236.5q0 154 103.5 250t269.5 96t269 -96t103 -250q0 -146 -86.5 -236.5t-205.5 -111.5q64 -9 122 -35.5t108 -70.5t80 -114t30 -155q0 -175 -114 -290t-306 -115t-306 115t-114 290zM186 385 q0 -167 107 -276t291 -109t290.5 109t106.5 276q0 165 -112 265t-285 100t-285.5 -100t-112.5 -265zM233 1108q0 -149 98.5 -244.5t252.5 -95.5q153 0 251.5 95.5t98.5 244.5q0 145 -96 235.5t-254 90.5t-254.5 -90.5t-96.5 -235.5z" />
<glyph unicode="9" horiz-adv-x="1112" d="M139 1028q0 189 109.5 307.5t292.5 118.5q185 0 290 -132t105 -355v-93q0 -205 -22.5 -361.5t-73.5 -279.5t-140 -188t-215 -65q-85 0 -165 27.5t-136 70.5l13 18q53 -42 131 -69t155 -27q121 0 206 63.5t135 188t72 290t22 388.5q-20 -148 -125 -246t-267 -98 q-175 0 -281 126.5t-106 315.5zM162 1028q0 -117 42 -211.5t127 -152.5t199 -58q118 0 205.5 58t130.5 150.5t43 205.5q0 176 -100.5 295t-265.5 119q-177 0 -279 -113.5t-102 -292.5z" />
<glyph unicode=":" horiz-adv-x="368" d="M123 57q0 25 18.5 43.5t42.5 18.5q25 0 43.5 -18.5t18.5 -43.5t-18.5 -43t-43.5 -18q-24 0 -42.5 18.5t-18.5 42.5zM123 934q0 24 18.5 42.5t42.5 18.5q25 0 43.5 -18t18.5 -43t-18.5 -43.5t-43.5 -18.5q-24 0 -42.5 19t-18.5 43z" />
<glyph unicode=";" horiz-adv-x="368" d="M123 -135q73 70 82 153q-12 -6 -27 -6q-22 0 -36.5 15.5t-14.5 40.5q0 22 15.5 36.5t37.5 14.5q25 0 43.5 -22t18.5 -54q0 -102 -97 -199zM123 934q0 24 18.5 42.5t42.5 18.5q25 0 43.5 -18t18.5 -43t-18.5 -43.5t-43.5 -18.5q-24 0 -42.5 19t-18.5 43z" />
<glyph unicode="&#x3c;" d="M156 631v20l805 373v-23l-783 -360l783 -360v-23z" />
<glyph unicode="=" horiz-adv-x="1198" d="M156 453v18h886v-18h-886zM156 788v19h886v-19h-886z" />
<glyph unicode="&#x3e;" d="M193 260v23l782 360l-782 361v22l804 -373v-20z" />
<glyph unicode="?" horiz-adv-x="856" d="M41 1247q43 103 131 172.5t217 69.5q161 0 256.5 -105t95.5 -264q0 -68 -21 -128t-55 -105.5t-74.5 -87t-81.5 -81.5t-75 -80.5t-55 -91.5t-21 -108v-121h-20v121q0 59 21 112.5t54.5 95t74.5 81.5t81.5 81t74 85t54.5 102t21 123q0 152 -89 251t-243 99q-120 0 -203 -66 t-125 -163zM287 45q0 25 15 41t40 16q26 0 42.5 -16t16.5 -41t-16.5 -41t-42.5 -16q-25 0 -40 16t-15 41z" />
<glyph unicode="@" horiz-adv-x="1927" d="M176 545q0 164 59.5 311.5t163 255t252 171t318.5 63.5q171 0 319 -60t248.5 -161.5t157.5 -236.5t57 -282q0 -203 -84 -320.5t-211 -117.5q-89 0 -141.5 67.5t-50.5 178.5q-28 -107 -112 -176.5t-206 -69.5q-139 0 -236.5 103.5t-97.5 263.5q0 158 97 258t237 100 q117 0 200.5 -66t115.5 -168v222h20v-465q0 -107 46 -167.5t130 -60.5q114 0 192.5 110.5t78.5 303.5q0 146 -55 278t-153 230.5t-242 156.5t-312 58q-165 0 -309 -61.5t-244 -167t-157.5 -248.5t-57.5 -303q0 -219 96.5 -397.5t270.5 -281t392 -102.5q102 0 208.5 26.5 t181.5 70.5l12 -19q-75 -44 -184.5 -71t-217.5 -27q-224 0 -403 105t-279 288t-100 408zM635 535q0 -152 90.5 -249.5t226.5 -97.5q130 0 220 92.5t90 254.5q0 154 -91.5 245.5t-220.5 91.5q-134 0 -224.5 -92.5t-90.5 -244.5z" />
<glyph unicode="A" horiz-adv-x="1431" d="M25 0v20h165l512 1418h25l512 -1418h168v-20h-410v20h217l-180 508h-639l-180 -508h217v-20h-407zM403 549h623l-311 868z" />
<glyph unicode="B" horiz-adv-x="1232" d="M123 0v20h184v1393h-184v21h500q156 0 265 -93.5t109 -242.5q0 -127 -75 -219.5t-183 -118.5q60 -9 115.5 -35.5t104 -69.5t77.5 -110t29 -148q0 -183 -114 -290t-283 -107h-545zM330 20h323q168 0 277.5 99.5t109.5 275.5q0 161 -110 257t-279 96h-321v-728zM330 768 h321q144 0 233 98t89 230q0 141 -102.5 229t-258.5 88h-282v-645z" />
<glyph unicode="C" horiz-adv-x="1437" d="M133 727q0 152 47 285t132 231t210.5 154.5t274.5 56.5q162 0 297.5 -96.5t191.5 -247.5v328h23v-391h-19q-53 170 -187.5 277.5t-299.5 107.5q-118 0 -221 -35.5t-180 -100t-132.5 -152t-83.5 -194t-28 -223.5q0 -149 43.5 -279.5t124.5 -229.5t205.5 -156.5 t277.5 -57.5t291 82t215 217l20 -14q-80 -136 -224 -222.5t-302 -86.5q-208 0 -363.5 102t-234 270t-78.5 375z" />
<glyph unicode="D" horiz-adv-x="1400" d="M123 0v20h184v1393h-184v21h461q145 0 270.5 -50t217.5 -140t144 -224.5t52 -296.5q0 -327 -185 -525t-485 -198h-475zM330 20h252q302 0 481.5 190t179.5 513q0 157 -50 287t-139 218t-214 136.5t-273 48.5h-237v-1393z" />
<glyph unicode="E" d="M123 0v20h184v1393h-184v21h856v-322h-23v301h-626v-655h540v-21h-540v-717h637v322h22v-342h-866z" />
<glyph unicode="F" horiz-adv-x="1124" d="M123 0v20h184v1393h-184v21h878v-322h-22v301h-649v-686h551v-20h-551v-687h243v-20h-450z" />
<glyph unicode="G" horiz-adv-x="1544" d="M133 727q0 203 81.5 368t233.5 262t347 97q168 0 307 -88.5t198 -228.5v301h23l4 -371h-18q-51 162 -191.5 262.5t-316.5 100.5q-194 0 -341.5 -94t-224.5 -253t-77 -356q0 -149 42.5 -280.5t121.5 -230t199 -155.5t267 -57q230 0 385 159t181 431h-393v22h415v-616h-22 v483q-43 -231 -196 -367t-370 -136q-151 0 -275.5 59t-207 161t-127.5 237.5t-45 289.5z" />
<glyph unicode="H" horiz-adv-x="1585" d="M123 0v20h184v1393h-184v21h391v-21h-184v-670h925v670h-192v21h399v-21h-184v-1393h184v-20h-391v20h184v703h-925v-703h184v-20h-391z" />
<glyph unicode="I" horiz-adv-x="636" d="M123 0v20h184v1393h-184v21h391v-21h-184v-1393h184v-20h-391z" />
<glyph unicode="J" horiz-adv-x="681" d="M-16 -186l4 24q55 -14 137 -14q102 0 171 68t69 186v1335h-234v21h436v-21h-180v-1339q0 -122 -75 -198.5t-183 -76.5q-72 0 -145 15z" />
<glyph unicode="K" horiz-adv-x="1290" d="M123 0v20h184v1393h-184v21h377v-21h-170v-663l712 663h-190v21h385v-21h-164l-725 -676l748 -717h174v-20h-402v20h197l-735 705v-705h178v-20h-385z" />
<glyph unicode="L" horiz-adv-x="1095" d="M123 0v20h184v1393h-184v21h409v-21h-202v-1393h637v342h22v-362h-866z" />
<glyph unicode="M" horiz-adv-x="1953" d="M123 0v20h184v1393h-184v21h215l639 -1215l639 1215h215v-21h-184v-1393h184v-20h-391v20h184v1383l-637 -1210h-20l-637 1210v-1383h184v-20h-391z" />
<glyph unicode="N" horiz-adv-x="1605" d="M123 0v20h184v1393h-184v21h209l944 -1399v1378h-193v21h400v-21h-185v-1413h-26l-942 1397v-1377h184v-20h-391z" />
<glyph unicode="O" horiz-adv-x="1593" d="M133 729q0 205 83.5 370.5t235.5 260t345 94.5t345 -94.5t235 -260t83 -370.5q0 -208 -83 -378.5t-235.5 -270.5t-344.5 -100t-345 100t-236 270.5t-83 378.5zM158 729q0 -201 78.5 -366t225.5 -262t335 -97t335 97t225.5 262t78.5 366q0 199 -78.5 358t-225 251 t-335.5 92t-335.5 -92t-225 -251t-78.5 -358z" />
<glyph unicode="P" horiz-adv-x="1144" d="M123 0v20h184v1393h-184v21h504q169 0 284 -104.5t115 -274.5q0 -182 -108 -298t-279 -116h-309v-621h221v-20h-428zM330 662h305q165 0 265.5 110t100.5 281q0 162 -107.5 261t-275.5 99h-288v-751z" />
<glyph unicode="Q" horiz-adv-x="1593" d="M133 729q0 205 83.5 370.5t235.5 260t345 94.5t345 -94.5t235 -260t83 -370.5q0 -170 -58 -317.5t-163 -251.5l191 -183l-15 -16l-190 182q-181 -163 -428 -163q-192 0 -345 100t-236 270.5t-83 378.5zM158 729q0 -201 78.5 -366t225.5 -262t335 -97q242 0 411 156 l-192 184l14 16l193 -186q102 100 157.5 244.5t55.5 310.5q0 199 -78.5 358t-225 251t-335.5 92t-335.5 -92t-225 -251t-78.5 -358z" />
<glyph unicode="R" horiz-adv-x="1236" d="M123 0v20h184v1393h-184v21h485q169 0 284.5 -100.5t115.5 -264.5q0 -165 -110 -269.5t-271 -107.5l417 -672h181v-20h-195l-426 690h-274v-670h221v-20h-428zM330 711h276q163 0 270 99t107 257q0 157 -108 251.5t-275 94.5h-270v-702z" />
<glyph unicode="S" horiz-adv-x="1105" d="M164 -10v383h16q33 -176 135 -272.5t263 -96.5q157 0 252.5 97.5t95.5 252.5q0 69 -32 128.5t-84 100.5t-118.5 81t-136.5 72t-136.5 72.5t-118.5 82.5t-84 102t-32 131q0 143 94 236.5t240 93.5q136 0 230 -83.5t133 -215.5v285h22v-367h-16q-32 161 -126 259t-237 98 q-144 0 -229.5 -85.5t-85.5 -218.5q0 -61 25.5 -113.5t68 -91.5t98.5 -74.5t117.5 -66.5t122.5 -62.5t117 -68t98.5 -77.5t68 -95.5t25.5 -118.5q0 -167 -103 -272.5t-265 -105.5q-148 0 -252.5 82.5t-143.5 222.5v-295h-22z" />
<glyph unicode="T" horiz-adv-x="1198" d="M82 1079v355h1034v-355h-22v334h-484v-1393h205v-20h-432v20h205v1393h-484v-334h-22z" />
<glyph unicode="U" horiz-adv-x="1449" d="M70 1413v21h391v-21h-193v-954q0 -130 51 -231.5t156 -162.5t250 -61t250 61t156 162.5t51 231.5v954h-193v21h391v-21h-176v-952q0 -211 -126.5 -346t-352.5 -135t-352.5 135t-126.5 346v952h-176z" />
<glyph unicode="V" horiz-adv-x="1382" d="M25 1413v21h405v-21h-219l481 -1395l482 1395h-220v21h404v-21h-162l-489 -1417h-31l-490 1417h-161z" />
<glyph unicode="W" horiz-adv-x="2107" d="M25 1413v21h426v-21h-236l403 -1395l424 1416h27l422 -1416l401 1395h-233v21h424v-21h-168l-408 -1417h-32l-420 1407l-420 -1407h-33l-412 1417h-165z" />
<glyph unicode="X" horiz-adv-x="1323" d="M25 0v20h170l452 717l-432 676h-164v21h387v-21h-196l422 -659l413 659h-196v21h387v-21h-166l-426 -680l454 -713h168v-20h-415v20h221l-445 697l-440 -697h221v-20h-415z" />
<glyph unicode="Y" horiz-adv-x="1263" d="M25 1413v21h383v-21h-201l424 -758l428 758h-201v21h381v-21h-156l-440 -778v-615h205v-20h-432v20h205v611l-439 782h-157z" />
<glyph unicode="Z" horiz-adv-x="1171" d="M115 0v12l903 1401h-830v-334h-22v355h883v-13l-902 -1401h873v353h22v-373h-927z" />
<glyph unicode="[" horiz-adv-x="520" d="M225 -250v1786h213v-18h-192v-1749h192v-19h-213z" />
<glyph unicode="\" horiz-adv-x="692" d="M0 1536h23l620 -1757h-22z" />
<glyph unicode="]" horiz-adv-x="520" d="M82 -231h192v1749h-192v18h213v-1786h-213v19z" />
<glyph unicode="^" horiz-adv-x="978" d="M102 651l377 783h21l377 -783h-23l-365 756l-364 -756h-23z" />
<glyph unicode="_" horiz-adv-x="1212" d="M74 -119h1065v-20h-1065v20z" />
<glyph unicode="`" horiz-adv-x="407" d="M123 1454h24l138 -250h-23z" />
<glyph unicode="a" horiz-adv-x="1226" d="M158 295q0 137 111 224t286 87q145 0 246 -60.5t137 -152.5v301q0 154 -95.5 242t-267.5 88q-92 0 -188.5 -27.5t-169.5 -72.5l-10 18q171 102 373 102q175 0 276.5 -93t101.5 -253v-680h179v-18h-201l2 205q-31 -95 -134.5 -160t-254.5 -65q-168 0 -279.5 86.5 t-111.5 228.5zM180 297q0 -126 98.5 -211.5t276.5 -85.5q168 0 275.5 86.5t107.5 212.5q0 120 -107 203.5t-270 83.5q-174 0 -277.5 -81.5t-103.5 -207.5z" />
<glyph unicode="b" horiz-adv-x="1374" d="M98 0v18h178v1444h-178v19h199v-813q17 73 55 138.5t96 119.5t141 86t179 32q136 0 244.5 -71t167.5 -191.5t59 -265.5q0 -146 -60.5 -268t-171 -195t-247.5 -73q-95 0 -176.5 33t-138 88t-93.5 120.5t-55 138.5v-360h-199zM297 516q0 -224 129.5 -370t329.5 -146 q102 0 189.5 42t146.5 112.5t92 164.5t33 197q0 137 -54 252t-159 185.5t-240 70.5q-203 0 -335 -143.5t-132 -364.5z" />
<glyph unicode="c" horiz-adv-x="1169" d="M135 524q0 110 41 208.5t107.5 166t152 106.5t174.5 39q148 0 251 -75t149 -199v258h20v-311h-16q-45 138 -146 222.5t-256 84.5q-84 0 -165.5 -37t-145.5 -101.5t-103.5 -159.5t-39.5 -202q0 -233 131.5 -378.5t345.5 -145.5q123 0 233.5 66t175.5 172l19 -11 q-64 -109 -181.5 -178t-250.5 -69q-220 0 -358 152.5t-138 391.5z" />
<glyph unicode="d" horiz-adv-x="1376" d="M135 516q0 146 61 266.5t171.5 191t248.5 70.5q97 0 177.5 -30.5t136 -83t92 -116.5t55.5 -138v786h-178v19h199v-1463h180v-18h-201v367q-16 -76 -53 -143.5t-93.5 -123t-140 -88t-182.5 -32.5q-137 0 -246 72.5t-168 194.5t-59 269zM158 516q0 -139 53.5 -255 t158.5 -188.5t242 -72.5q139 0 246 68.5t163 185t56 262.5q0 224 -124.5 366t-331.5 142q-138 0 -245 -70.5t-162.5 -185.5t-55.5 -252z" />
<glyph unicode="e" horiz-adv-x="1202" d="M135 530q0 146 66.5 265t175 184t235.5 65q131 0 236 -65.5t162 -175t57 -240.5v-20h-909q0 -246 129.5 -394.5t335.5 -148.5q126 0 239.5 64t177.5 172l17 -13q-66 -112 -184.5 -177.5t-254.5 -65.5q-212 0 -347.5 155t-135.5 395zM158 563h886q0 127 -53.5 231.5 t-154 167t-228.5 62.5q-175 0 -306.5 -129.5t-143.5 -331.5z" />
<glyph unicode="f" horiz-adv-x="661" d="M111 0v18h178v988h-178v18h178v223q0 114 58 178t157 64q64 0 117 -12v-21q-50 12 -113 12q-96 0 -147.5 -59t-51.5 -164v-221h258v-18h-258v-988h213v-18h-411z" />
<glyph unicode="g" horiz-adv-x="1368" d="M135 516q0 146 61 266.5t171.5 191t248.5 70.5q97 0 177.5 -30.5t136 -83t92 -116.5t55.5 -138v348h201v-18h-180v-975q0 -102 -41.5 -184t-109.5 -132t-151 -76t-171 -26q-96 0 -197 32.5t-172 80.5l10 18q71 -50 168.5 -79.5t194.5 -29.5q82 0 160 24.5t143.5 71.5 t105 124.5t39.5 173.5v338q-16 -76 -53 -143.5t-93.5 -123t-140 -88t-182.5 -32.5q-137 0 -246 72.5t-168 194.5t-59 269zM158 516q0 -139 53.5 -255t158.5 -188.5t242 -72.5q139 0 246 68.5t163 185t56 262.5q0 224 -124.5 366t-331.5 142q-138 0 -245 -70.5t-162.5 -185.5 t-55.5 -252z" />
<glyph unicode="h" horiz-adv-x="1345" d="M98 0v18h178v1444h-178v19h199v-715q34 123 144 200.5t255 77.5q172 0 276.5 -100.5t104.5 -267.5v-658h178v-18h-376v18h178v656q0 160 -99 255t-266 95q-166 0 -280.5 -105.5t-114.5 -259.5v-641h180v-18h-379z" />
<glyph unicode="i" horiz-adv-x="587" d="M111 0v18h178v988h-178v18h198v-1006h180v-18h-378zM246 1333q0 22 13.5 36.5t35.5 14.5q23 0 38 -14.5t15 -36.5t-15 -36.5t-38 -14.5q-22 0 -35.5 14.5t-13.5 36.5z" />
<glyph unicode="j" horiz-adv-x="552" d="M8 -356q49 -11 90 -11q82 0 133.5 66t51.5 186v1121h-179v18h199v-1143q0 -125 -56.5 -196.5t-148.5 -71.5q-48 0 -90 10v21zM238 1333q0 21 15 36t36 15q22 0 36.5 -14.5t14.5 -36.5t-14.5 -36.5t-36.5 -14.5q-21 0 -36 15t-15 36z" />
<glyph unicode="k" horiz-adv-x="1091" d="M98 0v18h178v1444h-178v19h199v-912l532 437h-202v18h399v-18h-168l-539 -443l580 -545h172v-18h-178l-596 559v-541h180v-18h-379z" />
<glyph unicode="l" horiz-adv-x="575" d="M98 0v18h178v1444h-178v19h199v-1463h180v-18h-379z" />
<glyph unicode="m" horiz-adv-x="1984" d="M111 0v18h178v988h-178v18h198v-256q33 123 131.5 199.5t229.5 76.5q128 0 218 -71t118 -187q34 116 135 187t231 71q151 0 247.5 -101.5t96.5 -266.5v-658h178v-18h-372v18h174v656q0 158 -90.5 254t-237.5 96q-142 0 -248 -93t-106 -222v-691h174v-18h-371v18h176v693 q0 135 -92.5 224t-234.5 89q-147 0 -252 -106.5t-105 -258.5v-641h176v-18h-374z" />
<glyph unicode="n" horiz-adv-x="1357" d="M111 0v18h178v988h-178v18h198v-258q34 123 144.5 200.5t255.5 77.5q172 0 276.5 -100.5t104.5 -267.5v-658h178v-18h-377v18h178v656q0 160 -98.5 255t-265.5 95q-166 0 -281 -105.5t-115 -259.5v-641h180v-18h-378z" />
<glyph unicode="o" horiz-adv-x="1290" d="M135 520q0 231 145.5 377.5t364.5 146.5q220 0 365 -146.5t145 -377.5q0 -150 -65.5 -273.5t-182.5 -195t-262 -71.5t-262 71.5t-182.5 195t-65.5 273.5zM158 520q0 -144 61.5 -263t173.5 -188t252 -69t252 69t174 188t62 263q0 223 -138 363.5t-350 140.5 q-211 0 -349 -141t-138 -363z" />
<glyph unicode="p" horiz-adv-x="1374" d="M98 -365h178v1371h-178v18h199v-356q17 73 55 138.5t96 119.5t141 86t179 32q136 0 244.5 -71t167.5 -191.5t59 -265.5q0 -146 -60.5 -268t-171 -195t-247.5 -73q-95 0 -176.5 32t-138 86.5t-93.5 120t-55 137.5v-721h213v-18h-412v18zM297 516q0 -224 129.5 -370 t329.5 -146q102 0 189.5 42t146.5 112.5t92 164.5t33 197q0 137 -54 252t-159 185.5t-240 70.5q-203 0 -335 -143.5t-132 -364.5z" />
<glyph unicode="q" horiz-adv-x="1376" d="M135 516q0 146 61 266.5t171.5 191t248.5 70.5q97 0 177.5 -30.5t136 -83t92 -116.5t55.5 -138v348h201v-18h-180v-1371h180v-18h-414v18h213v732q-16 -76 -53 -143.5t-93.5 -123t-140 -88t-182.5 -32.5q-137 0 -246 72.5t-168 194.5t-59 269zM158 516q0 -139 53.5 -255 t158.5 -188.5t242 -72.5q139 0 246 68.5t163 185t56 262.5q0 224 -124.5 366t-331.5 142q-138 0 -245 -70.5t-162.5 -185.5t-55.5 -252z" />
<glyph unicode="r" horiz-adv-x="806" d="M111 0v18h178v988h-178v18h198v-303q25 137 117 230t205 93q63 0 119 -12v-24q-57 14 -123 14q-90 0 -164 -62.5t-114 -160t-40 -205.5v-576h213v-18h-411z" />
<glyph unicode="s" horiz-adv-x="970" d="M135 -12v315h17q25 -138 123 -219.5t247 -81.5q126 0 210.5 70.5t84.5 189.5q0 61 -28.5 107.5t-75.5 74.5t-106.5 52t-121.5 40.5t-121.5 40t-106 50t-74.5 70.5q-27 42 -27 98q0 113 80 181t196 68q121 0 216 -60t134 -155v199h21v-270h-17q-24 119 -123.5 192.5 t-226.5 73.5q-108 0 -183 -61.5t-75 -161.5q0 -62 36.5 -107t95 -72t129 -48.5t141 -45.5t129 -54.5t95 -83t36.5 -124.5q0 -131 -92 -208.5t-226 -77.5q-137 0 -235 69t-131 180v-241h-21z" />
<glyph unicode="t" horiz-adv-x="684" d="M90 1006v18h178v231h21v-231h258v-18h-258v-768q0 -105 48.5 -163.5t133.5 -58.5q46 0 115 15v-21q-65 -14 -117 -14q-92 0 -146.5 63.5t-54.5 182.5v764h-178z" />
<glyph unicode="u" horiz-adv-x="1308" d="M90 1006v18h199v-676q0 -157 92 -251.5t248 -94.5q157 0 269 110.5t112 254.5v639h-179v18h199v-1006h180v-18h-200v262q-36 -121 -141.5 -201.5t-243.5 -80.5q-160 0 -258.5 100.5t-98.5 263.5v662h-178z" />
<glyph unicode="v" horiz-adv-x="1191" d="M20 1006v18h390v-18h-215l401 -988l401 988h-215v18h389v-18h-151l-412 -1014h-24l-412 1014h-152z" />
<glyph unicode="w" horiz-adv-x="1882" d="M20 1006v18h402v-18h-229l360 -990l375 1008h24l377 -1008l361 990h-232v18h404v-18h-150l-371 -1014h-24l-377 1005l-375 -1005h-24l-371 1014h-150z" />
<glyph unicode="x" horiz-adv-x="1161" d="M41 0v18h156l372 519l-338 469h-143v18h367v-18h-201l330 -457l329 457h-196v18h366v-18h-147l-340 -474l371 -514h153v-18h-387v18h211l-362 502l-363 -502h209v-18h-387z" />
<glyph unicode="y" horiz-adv-x="1191" d="M20 1006v18h390v-18h-215l397 -998l403 998h-213v18h389v-18h-153l-434 -1074q-64 -159 -137.5 -239t-176.5 -80q-44 0 -98 12v21q67 -13 104 -13q85 0 154.5 78t136.5 236l15 35l-410 1024h-152z" />
<glyph unicode="z" horiz-adv-x="1054" d="M135 0v14l729 992h-676v-240h-20v258h725v-14l-729 -992h727v285h20v-303h-776z" />
<glyph unicode="{" horiz-adv-x="557" d="M143 618v33q144 18 144 230v446q0 89 48 142t140 53v-19q-81 0 -124.5 -48.5t-43.5 -123.5v-454q0 -108 -38 -170t-111 -72q73 -10 111 -72t38 -170v-454q0 -75 43.5 -123.5t124.5 -48.5v-19q-92 0 -140 53t-48 142v446q0 211 -144 229z" />
<glyph unicode="|" horiz-adv-x="634" d="M307 -391v1964h21v-1964h-21z" />
<glyph unicode="}" horiz-adv-x="557" d="M82 -233q81 0 124.5 48.5t43.5 123.5v454q0 108 38 170t111 72q-73 10 -111 72t-38 170v454q0 75 -43.5 123.5t-124.5 48.5v19q92 0 140 -53t48 -142v-446q0 -212 144 -230v-33q-144 -18 -144 -229v-446q0 -89 -48 -142t-140 -53v19z" />
<glyph unicode="~" horiz-adv-x="1044" d="M102 514q6 88 62.5 147.5t140.5 59.5q53 0 113.5 -29.5t106.5 -65t106.5 -65t113.5 -29.5q71 0 121 53.5t56 131.5h20q-6 -88 -62.5 -147.5t-140.5 -59.5q-53 0 -113.5 29.5t-106.5 64.5t-106.5 64.5t-113.5 29.5q-71 0 -120.5 -53t-55.5 -131h-21z" />
<glyph unicode="&#xa1;" horiz-adv-x="532" d="M209 1053q0 25 16 41t41 16t41.5 -16t16.5 -41t-16.5 -41.5t-41.5 -16.5t-41 16.5t-16 41.5zM256 -383v1169h20v-1169h-20z" />
<glyph unicode="&#xa2;" d="M143 719q0 111 37.5 208.5t100 165t145 106.5t170.5 40v195h20v-195q141 -4 237.5 -80.5t131.5 -197.5v262h21l-2 -308h-19q-40 136 -136.5 220t-248.5 84q-83 0 -161.5 -37t-139 -101.5t-97 -159.5t-36.5 -202q0 -230 126.5 -377t330.5 -147q114 0 218.5 67t166.5 172 l18 -12q-67 -110 -176 -179t-234 -69v-174h-20v174q-201 9 -327 162t-126 383z" />
<glyph unicode="&#xa3;" horiz-adv-x="1091" d="M119 727v18h215q-10 39 -35 119.5t-38 137.5t-13 106q0 145 88 245.5t227 100.5q125 0 220.5 -82t131.5 -217v279h21v-351h-21q-26 156 -122.5 253.5t-223.5 97.5q-135 0 -217 -94t-82 -228q0 -49 13.5 -108t38 -138t34.5 -121h336v-18h-332q19 -74 19 -139 q0 -144 -53.5 -295t-132.5 -275h735v322h20v-340h-782v12q190 305 190 572q0 58 -18 143h-219z" />
<glyph unicode="&#xa5;" horiz-adv-x="1247" d="M16 1413v21h383v-21h-200l424 -758l428 758h-201v21h381v-21h-156l-430 -762h328v-20h-338v-185h338v-20h-338v-406h205v-20h-432v20h204v406h-338v20h338v185h-338v20h326l-426 762h-158z" />
<glyph unicode="&#xa7;" horiz-adv-x="1009" d="M143 635q0 101 64 173.5t168 104.5q-81 53 -125.5 119t-44.5 160q0 124 81.5 210.5t202.5 86.5q117 0 199.5 -72t110.5 -182v244h22v-322h-18q-33 152 -113.5 230.5t-195.5 78.5q-113 0 -189 -77t-76 -191q0 -78 35 -139.5t91.5 -101.5t124 -75t135.5 -70t124.5 -75.5 t91.5 -102.5t35 -142q0 -104 -59.5 -179t-159.5 -110q168 -110 168 -281q0 -135 -81 -222t-208 -87q-123 0 -210 77.5t-113 192.5v-260h-23v344h19q29 -159 115 -245.5t206 -86.5q119 0 195 78.5t76 206.5q0 77 -35.5 138.5t-93 102t-126.5 76.5l-138 72t-126.5 78t-93 105 t-35.5 143zM168 639q0 -71 27.5 -126.5t81 -97t104 -69.5t126 -65.5t118.5 -63.5q97 30 157 101t60 163q0 60 -21 110t-52 83.5t-80 66.5t-92 54t-103 51t-97 53q-102 -29 -165.5 -98t-63.5 -162z" />
<glyph unicode="&#xa8;" horiz-adv-x="704" d="M143 1325q0 19 12 32t31 13q20 0 33.5 -13t13.5 -32t-13.5 -32t-33.5 -13q-19 0 -31 13t-12 32zM471 1325q0 19 12 32t31 13q20 0 33.5 -13t13.5 -32t-13.5 -32t-33.5 -13q-19 0 -31 13t-12 32z" />
<glyph unicode="&#xa9;" horiz-adv-x="1703" d="M133 727q0 205 92.5 371t257 261t369.5 95t369.5 -95t257 -261t92.5 -371q0 -210 -90 -380t-255 -268.5t-374 -98.5t-374 98.5t-255 268.5t-90 380zM156 727q0 -206 86.5 -371t246 -259.5t363.5 -94.5t363.5 94.5t246 259.5t86.5 371q0 200 -88 360.5t-247.5 252.5 t-360.5 92t-360.5 -92t-247.5 -252.5t-88 -360.5zM512 729q0 155 97 256.5t235 101.5q94 0 161 -48.5t99 -131.5v162h20v-201h-20q-34 93 -98 146t-156 53q-135 0 -225 -95t-90 -243q0 -158 91.5 -259t237.5 -101q78 0 147.5 41t112.5 102l19 -12q-45 -66 -120 -109 t-161 -43q-152 0 -251 107.5t-99 273.5z" />
<glyph unicode="&#xaa;" horiz-adv-x="882" d="M115 909q0 93 77.5 154t194.5 61q87 0 157.5 -37t100.5 -96v211q0 98 -63.5 158.5t-175.5 60.5q-127 0 -248 -73l-11 18q133 76 263 76q117 0 186.5 -67.5t69.5 -170.5v-481h135v-18h-156v124q-33 -66 -105.5 -103.5t-156.5 -37.5q-117 0 -192.5 62.5t-75.5 158.5z M137 909q0 -89 69.5 -144.5t186.5 -55.5q100 0 177 60.5t77 139.5q0 85 -76.5 140t-177.5 55q-114 0 -185 -54.5t-71 -140.5z" />
<glyph unicode="&#xab;" horiz-adv-x="759" d="M115 588l274 356h27l-275 -356l275 -355h-27zM381 588l274 356h27l-274 -356l274 -355h-27z" />
<glyph unicode="&#xad;" horiz-adv-x="727" d="M102 586v22h523v-22h-523z" />
<glyph unicode="&#xae;" horiz-adv-x="999" d="M115 1120q0 162 106 270.5t279 108.5t279 -108.5t106 -270.5t-107 -274.5t-278 -112.5q-173 0 -279 112t-106 275zM137 1120q0 -154 99.5 -260t263.5 -106t263 106t99 260t-98.5 256.5t-263.5 102.5t-264 -102.5t-99 -256.5zM352 1303v18h152q46 0 78 -28t32 -72 q0 -41 -25.5 -71t-62.5 -36l99 -162h61v-18h-76l-104 178h-84v-160h53v-18h-121v18h47v351h-49zM422 1130h80q39 0 64.5 24.5t25.5 64.5q0 38 -25.5 61t-64.5 23h-80v-173z" />
<glyph unicode="&#xaf;" horiz-adv-x="827" d="M143 1300v19h541v-19h-541z" />
<glyph unicode="&#xb0;" horiz-adv-x="696" d="M102 1202q0 108 68 180t176 72q109 0 178.5 -72.5t69.5 -179.5q0 -111 -68.5 -185.5t-177.5 -74.5t-177.5 74.5t-68.5 185.5zM125 1202q0 -103 61.5 -171t161.5 -68t161.5 68t61.5 171q0 100 -62.5 166t-162.5 66q-99 0 -160 -66t-61 -166z" />
<glyph unicode="&#xb2;" horiz-adv-x="714" d="M131 664v10q0 52 22 101.5t56.5 89.5t76.5 78.5t84.5 74.5t77 71t56.5 75t22 79q0 82 -50.5 130t-125.5 48q-70 0 -121 -46.5t-71 -114.5l-21 6q23 76 79.5 126t135.5 50q81 0 139 -55.5t58 -141.5q0 -43 -21.5 -85t-56.5 -77.5t-77 -71.5t-84 -73.5t-77 -76t-57 -85.5 t-22 -96h389v158h20v-174h-432z" />
<glyph unicode="&#xb3;" horiz-adv-x="710" d="M119 819l20 6q25 -69 80 -109t133 -40q86 0 145.5 57t59.5 152q0 93 -65.5 144.5t-182.5 51.5h-30l-5 11l258 323h-360v-147h-20v166h403v-23l-248 -309h15q116 0 187 -59t71 -156q0 -103 -66.5 -167.5t-161.5 -64.5q-85 0 -146 45.5t-87 118.5z" />
<glyph unicode="&#xb4;" horiz-adv-x="407" d="M123 1204l137 250h25l-140 -250h-22z" />
<glyph unicode="&#xb6;" horiz-adv-x="1169" d="M164 1071q0 151 105.5 257t256.5 106h521v-19h-211v-1497h-21v1497h-262v-1497h-21v789q-155 2 -261.5 107t-106.5 257z" />
<glyph unicode="&#xb7;" horiz-adv-x="450" d="M164 606q0 24 19 43t42 19q25 0 43.5 -18.5t18.5 -43.5t-18.5 -43t-43.5 -18q-24 0 -42.5 18.5t-18.5 42.5z" />
<glyph unicode="&#xb8;" horiz-adv-x="552" d="M143 -362l4 20q36 -18 76 -18q61 0 102.5 32t41.5 82q0 47 -35.5 77t-89.5 30q-23 0 -47 -8l28 147h21l-25 -125q16 4 31 4q60 0 99.5 -36.5t39.5 -88.5q0 -57 -47.5 -96t-116.5 -39q-44 0 -82 19z" />
<glyph unicode="&#xb9;" horiz-adv-x="606" d="M102 1292l205 142h15v-752h153v-18h-338v18h164v723l-186 -129z" />
<glyph unicode="&#xba;" horiz-adv-x="925" d="M115 1071q0 162 97.5 268.5t250.5 106.5t250.5 -106.5t97.5 -268.5q0 -161 -98.5 -273.5t-249.5 -113.5q-151 1 -249.5 113.5t-98.5 273.5zM137 1071q0 -100 40.5 -183t115.5 -132.5t170 -50.5q95 1 170 50.5t115 132.5t40 183q0 155 -90 254.5t-235 99.5t-235.5 -99.5 t-90.5 -254.5z" />
<glyph unicode="&#xbb;" horiz-adv-x="759" d="M78 233l274 357l-274 354h26l275 -354l-275 -357h-26zM344 233l274 357l-274 354h27l274 -354l-274 -357h-27z" />
<glyph unicode="&#xbc;" horiz-adv-x="1630" d="M115 1292l204 142h15v-752h153v-18h-337v18h163v723l-186 -129zM344 -84l832 1602h22l-831 -1602h-23zM928 252v10l379 512h16v-504h156v-18h-156v-234h156v-18h-342v18h166v234h-375zM958 270h345v465z" />
<glyph unicode="&#xbd;" horiz-adv-x="1572" d="M115 1292l204 142h15v-752h153v-18h-337v18h163v723l-186 -129zM344 -84l832 1602h22l-831 -1602h-23zM989 0v10q0 52 22 101.5t56.5 89.5t76.5 79t84.5 75t77 71t56.5 75t22 79q0 82 -50.5 130t-125.5 48q-70 0 -121 -47t-71 -115l-21 6q23 76 79.5 126t135.5 50 q82 0 139.5 -55t57.5 -141q0 -43 -21.5 -85t-56.5 -77.5t-77 -72t-84 -74t-77 -76t-57 -85.5t-22 -96h389v158h20v-174h-432z" />
<glyph unicode="&#xbe;" horiz-adv-x="1689" d="M143 819l21 6q25 -69 80 -109t133 -40q86 0 145.5 57t59.5 152q0 93 -65.5 144.5t-182.5 51.5h-31l-4 11l258 323h-360v-147h-21v166h404v-23l-248 -309h14q116 0 187 -59t71 -156q0 -103 -66 -167.5t-161 -64.5q-85 0 -146.5 45.5t-87.5 118.5zM403 -84l832 1602h22 l-831 -1602h-23zM987 252v10l379 512h16v-504h156v-18h-156v-234h156v-18h-342v18h166v234h-375zM1018 270h344v465z" />
<glyph unicode="&#xbf;" horiz-adv-x="856" d="M115 -16q0 68 21 128t55 105.5t74.5 87t81.5 81.5t75 80.5t55 91.5t21 108v120h20v-120q0 -59 -21 -112.5t-54.5 -95t-74.5 -81.5t-81.5 -81t-74 -85t-54.5 -102t-21 -123q0 -153 89 -252t243 -99q120 0 203 66.5t125 163.5l18 -8q-43 -103 -131 -172.5t-217 -69.5 q-161 0 -256.5 105t-95.5 264zM455 1059q0 25 16.5 41t42.5 16q25 0 40 -16t15 -41t-15.5 -41.5t-39.5 -16.5q-26 0 -42.5 16.5t-16.5 41.5z" />
<glyph unicode="&#xc0;" horiz-adv-x="1431" d="M25 0v20h165l512 1418h25l512 -1418h168v-20h-410v20h217l-180 508h-639l-180 -508h217v-20h-407zM403 549h623l-311 868zM586 1823h24l138 -250h-23z" />
<glyph unicode="&#xc1;" horiz-adv-x="1431" d="M25 0v20h165l512 1418h25l512 -1418h168v-20h-410v20h217l-180 508h-639l-180 -508h217v-20h-407zM403 549h623l-311 868zM670 1593l137 250h24l-139 -250h-22z" />
<glyph unicode="&#xc2;" horiz-adv-x="1431" d="M25 0v20h165l512 1418h25l512 -1418h168v-20h-410v20h217l-180 508h-639l-180 -508h217v-20h-407zM403 549h623l-311 868zM514 1597l191 244h24l191 -244h-25l-178 230l-178 -230h-25z" />
<glyph unicode="&#xc3;" horiz-adv-x="1431" d="M25 0v20h165l512 1418h25l512 -1418h168v-20h-410v20h217l-180 508h-639l-180 -508h217v-20h-407zM403 549h623l-311 868zM451 1651q3 63 37.5 100t91.5 37q34 0 73 -18.5t68.5 -40t68.5 -40t72 -18.5q45 0 73.5 31t31.5 86h20q-3 -63 -37.5 -100t-91.5 -37 q-43 0 -92.5 29l-99 58t-91.5 29q-45 0 -73 -30.5t-31 -85.5h-20z" />
<glyph unicode="&#xc4;" horiz-adv-x="1431" d="M25 0v20h165l512 1418h25l512 -1418h168v-20h-410v20h217l-180 508h-639l-180 -508h217v-20h-407zM403 549h623l-311 868zM508 1714q0 19 12 32t31 13q20 0 33.5 -13t13.5 -32t-13.5 -32t-33.5 -13q-19 0 -31 13t-12 32zM836 1714q0 19 12 32t31 13q20 0 33.5 -13 t13.5 -32t-13.5 -32t-33.5 -13q-19 0 -31 13t-12 32z" />
<glyph unicode="&#xc5;" horiz-adv-x="1431" d="M25 0v20h165l512 1418h25l512 -1418h168v-20h-410v20h217l-180 508h-639l-180 -508h217v-20h-407zM403 549h623l-311 868zM582 1726q0 59 38 98.5t97 39.5t97 -39.5t38 -98.5q0 -62 -37.5 -101.5t-97.5 -39.5t-97.5 39.5t-37.5 101.5zM600 1726q0 -54 32.5 -89t84.5 -35 t84.5 35t32.5 89q0 52 -32.5 86.5t-84.5 34.5t-84.5 -34.5t-32.5 -86.5z" />
<glyph unicode="&#xc6;" horiz-adv-x="1832" d="M0 0v20h158l817 1414h684v-328h-23v307h-624v-678h538v-20h-538v-695h635v310h22v-330h-887v20h207v695h-405l-402 -695h207v-20h-389zM594 733h395v682z" />
<glyph unicode="&#xc7;" horiz-adv-x="1437" d="M133 727q0 152 47 285t132 231t210.5 154.5t274.5 56.5q162 0 297.5 -96.5t191.5 -247.5v328h23v-391h-19q-53 170 -187.5 277.5t-299.5 107.5q-118 0 -221 -35.5t-180 -100t-132.5 -152t-83.5 -194t-28 -223.5q0 -149 43.5 -279.5t124.5 -229.5t205.5 -156.5 t277.5 -57.5t291 82t215 217l20 -14q-80 -136 -224 -222.5t-302 -86.5q-29 0 -43 2l-21 -107q16 4 31 4q60 0 99.5 -36.5t39.5 -88.5q0 -57 -47 -96t-116 -39q-44 0 -82 19l4 20q36 -18 76 -18q61 0 102 32t41 82q0 47 -35.5 77t-89.5 30q-23 0 -47 -8l24 129 q-143 12 -259.5 75.5t-193 163.5t-118 230t-41.5 276z" />
<glyph unicode="&#xc8;" d="M123 0v20h184v1393h-184v21h856v-322h-23v301h-626v-655h540v-21h-540v-717h637v322h22v-342h-866zM467 1823h25l137 -250h-23z" />
<glyph unicode="&#xc9;" d="M123 0v20h184v1393h-184v21h856v-322h-23v301h-626v-655h540v-21h-540v-717h637v322h22v-342h-866zM551 1593l137 250h25l-140 -250h-22z" />
<glyph unicode="&#xca;" d="M123 0v20h184v1393h-184v21h856v-322h-23v301h-626v-655h540v-21h-540v-717h637v322h22v-342h-866zM395 1597l191 244h24l191 -244h-25l-178 230l-178 -230h-25z" />
<glyph unicode="&#xcb;" d="M123 0v20h184v1393h-184v21h856v-322h-23v301h-626v-655h540v-21h-540v-717h637v322h22v-342h-866zM389 1714q0 19 12 32t31 13q20 0 33.5 -13t13.5 -32t-13.5 -32t-33.5 -13q-19 0 -31 13t-12 32zM717 1714q0 19 12 32t31 13q20 0 33.5 -13t13.5 -32t-13.5 -32 t-33.5 -13q-19 0 -31 13t-12 32z" />
<glyph unicode="&#xcc;" horiz-adv-x="636" d="M123 0v20h184v1393h-184v21h391v-21h-184v-1393h184v-20h-391zM188 1823h25l137 -250h-22z" />
<glyph unicode="&#xcd;" horiz-adv-x="636" d="M123 0v20h184v1393h-184v21h391v-21h-184v-1393h184v-20h-391zM272 1593l138 250h24l-139 -250h-23z" />
<glyph unicode="&#xce;" horiz-adv-x="636" d="M117 1597l190 244h25l190 -244h-24l-179 230l-178 -230h-24zM123 0v20h184v1393h-184v21h391v-21h-184v-1393h184v-20h-391z" />
<glyph unicode="&#xcf;" horiz-adv-x="636" d="M111 1714q0 19 12 32t31 13q20 0 33.5 -13t13.5 -32t-13.5 -32t-33.5 -13q-19 0 -31 13t-12 32zM123 0v20h184v1393h-184v21h391v-21h-184v-1393h184v-20h-391zM438 1714q0 19 12 32t31 13q20 0 33.5 -13t13.5 -32t-13.5 -32t-33.5 -13q-19 0 -31 13t-12 32z" />
<glyph unicode="&#xd0;" horiz-adv-x="1421" d="M123 737v21h205v655h-185v21h461q145 0 270.5 -50t217.5 -140t144 -224.5t52 -296.5q0 -327 -185 -525t-485 -198h-475v20h185v717h-205zM350 20h252q302 0 482 190t180 513q0 157 -50 287t-139 218t-214 136.5t-273 48.5h-238v-655h434v-21h-434v-717z" />
<glyph unicode="&#xd1;" horiz-adv-x="1605" d="M123 0v20h184v1393h-184v21h209l944 -1399v1378h-193v21h400v-21h-185v-1413h-26l-942 1397v-1377h184v-20h-391zM526 1651q3 63 37.5 100t91.5 37q43 0 92.5 -29t99 -58.5t91.5 -29.5q45 0 73 31t31 86h21q-3 -63 -37.5 -100t-91.5 -37q-43 0 -92.5 29l-99 58t-91.5 29 q-45 0 -73 -30.5t-31 -85.5h-21z" />
<glyph unicode="&#xd2;" horiz-adv-x="1593" d="M133 729q0 205 83.5 370.5t235.5 260t345 94.5t345 -94.5t235 -260t83 -370.5q0 -208 -83 -378.5t-235.5 -270.5t-344.5 -100t-345 100t-236 270.5t-83 378.5zM158 729q0 -201 78.5 -366t225.5 -262t335 -97t335 97t225.5 262t78.5 366q0 199 -78.5 358t-225 251 t-335.5 92t-335.5 -92t-225 -251t-78.5 -358zM666 1823h24l137 -250h-22z" />
<glyph unicode="&#xd3;" horiz-adv-x="1593" d="M133 729q0 205 83.5 370.5t235.5 260t345 94.5t345 -94.5t235 -260t83 -370.5q0 -208 -83 -378.5t-235.5 -270.5t-344.5 -100t-345 100t-236 270.5t-83 378.5zM158 729q0 -201 78.5 -366t225.5 -262t335 -97t335 97t225.5 262t78.5 366q0 199 -78.5 358t-225 251 t-335.5 92t-335.5 -92t-225 -251t-78.5 -358zM750 1593l137 250h24l-139 -250h-22z" />
<glyph unicode="&#xd4;" horiz-adv-x="1593" d="M133 729q0 205 83.5 370.5t235.5 260t345 94.5t345 -94.5t235 -260t83 -370.5q0 -208 -83 -378.5t-235.5 -270.5t-344.5 -100t-345 100t-236 270.5t-83 378.5zM158 729q0 -201 78.5 -366t225.5 -262t335 -97t335 97t225.5 262t78.5 366q0 199 -78.5 358t-225 251 t-335.5 92t-335.5 -92t-225 -251t-78.5 -358zM594 1597l190 244h25l190 -244h-24l-178 230l-179 -230h-24z" />
<glyph unicode="&#xd5;" horiz-adv-x="1593" d="M133 729q0 205 83.5 370.5t235.5 260t345 94.5t345 -94.5t235 -260t83 -370.5q0 -208 -83 -378.5t-235.5 -270.5t-344.5 -100t-345 100t-236 270.5t-83 378.5zM158 729q0 -201 78.5 -366t225.5 -262t335 -97t335 97t225.5 262t78.5 366q0 199 -78.5 358t-225 251 t-335.5 92t-335.5 -92t-225 -251t-78.5 -358zM530 1651q3 63 37.5 100t91.5 37q43 0 92.5 -29t99 -58.5t91.5 -29.5q45 0 73.5 31t31.5 86h20q-3 -63 -37.5 -100t-91.5 -37q-43 0 -92.5 29l-99 58t-91.5 29q-45 0 -73 -30.5t-31 -85.5h-21z" />
<glyph unicode="&#xd6;" horiz-adv-x="1593" d="M133 729q0 205 83.5 370.5t235.5 260t345 94.5t345 -94.5t235 -260t83 -370.5q0 -208 -83 -378.5t-235.5 -270.5t-344.5 -100t-345 100t-236 270.5t-83 378.5zM158 729q0 -201 78.5 -366t225.5 -262t335 -97t335 97t225.5 262t78.5 366q0 199 -78.5 358t-225 251 t-335.5 92t-335.5 -92t-225 -251t-78.5 -358zM588 1714q0 19 12 32t31 13q20 0 33.5 -13t13.5 -32t-13.5 -32t-33.5 -13q-19 0 -31 13t-12 32zM915 1714q0 19 12 32t31 13q20 0 34 -13t14 -32t-14 -32t-34 -13q-19 0 -31 13t-12 32z" />
<glyph unicode="&#xd7;" horiz-adv-x="1073" d="M156 246l366 393l-366 391l16 14l365 -391l364 391l17 -14l-367 -391l367 -393l-17 -15l-364 392l-365 -392z" />
<glyph unicode="&#xd8;" horiz-adv-x="1593" d="M133 729q0 205 83.5 370.5t235.5 260t345 94.5q266 0 448 -176l154 186l18 -14l-155 -188q95 -99 146.5 -236t51.5 -297q0 -208 -83 -378.5t-235.5 -270.5t-344.5 -100q-262 0 -445 180l-157 -191l-19 15l160 192q-97 103 -150 246.5t-53 306.5zM158 729 q0 -159 49.5 -296.5t142.5 -237.5l881 1065q-178 170 -434 170q-189 0 -335.5 -92t-225 -251t-78.5 -358zM367 178q174 -174 430 -174q188 0 335 97t225.5 262t78.5 366q0 154 -49.5 286.5t-139.5 227.5z" />
<glyph unicode="&#xd9;" horiz-adv-x="1449" d="M70 1413v21h391v-21h-193v-954q0 -130 51 -231.5t156 -162.5t250 -61t250 61t156 162.5t51 231.5v954h-193v21h391v-21h-176v-952q0 -211 -126.5 -346t-352.5 -135t-352.5 135t-126.5 346v952h-176zM592 1823h24l138 -250h-23z" />
<glyph unicode="&#xda;" horiz-adv-x="1449" d="M70 1413v21h391v-21h-193v-954q0 -130 51 -231.5t156 -162.5t250 -61t250 61t156 162.5t51 231.5v954h-193v21h391v-21h-176v-952q0 -211 -126.5 -346t-352.5 -135t-352.5 135t-126.5 346v952h-176zM676 1593l137 250h25l-140 -250h-22z" />
<glyph unicode="&#xdb;" horiz-adv-x="1449" d="M70 1413v21h391v-21h-193v-954q0 -130 51 -231.5t156 -162.5t250 -61t250 61t156 162.5t51 231.5v954h-193v21h391v-21h-176v-952q0 -211 -126.5 -346t-352.5 -135t-352.5 135t-126.5 346v952h-176zM520 1597l191 244h24l191 -244h-25l-178 230l-178 -230h-25z" />
<glyph unicode="&#xdc;" horiz-adv-x="1449" d="M70 1413v21h391v-21h-193v-954q0 -130 51 -231.5t156 -162.5t250 -61t250 61t156 162.5t51 231.5v954h-193v21h391v-21h-176v-952q0 -211 -126.5 -346t-352.5 -135t-352.5 135t-126.5 346v952h-176zM514 1714q0 19 12 32t31 13q20 0 33.5 -13t13.5 -32t-13.5 -32 t-33.5 -13q-19 0 -31 13t-12 32zM842 1714q0 19 12 32t31 13q20 0 33.5 -13t13.5 -32t-13.5 -32t-33.5 -13q-19 0 -31 13t-12 32z" />
<glyph unicode="&#xdd;" horiz-adv-x="1263" d="M25 1413v21h383v-21h-201l424 -758l428 758h-201v21h381v-21h-156l-440 -778v-615h205v-20h-432v20h205v611l-439 782h-157zM586 1593l137 250h25l-140 -250h-22z" />
<glyph unicode="&#xde;" horiz-adv-x="1134" d="M123 0v20h192v1393h-192v21h432v-21h-217v-340h297q165 0 273 -91t108 -239q0 -149 -108.5 -244.5t-272.5 -95.5h-297v-383h217v-20h-432zM338 424h293q158 0 259 90.5t101 226.5q0 140 -99.5 226t-260.5 86h-293v-629z" />
<glyph unicode="&#xdf;" horiz-adv-x="1206" d="M78 0v20h178v1096q0 170 87 271.5t232 101.5q139 0 229.5 -89t90.5 -216q0 -108 -76 -192.5t-190 -104.5q180 -14 305 -138t125 -300q0 -193 -128.5 -321t-318.5 -128h-8v20q185 0 307.5 121.5t122.5 300.5q0 177 -122.5 294.5t-311.5 135.5v23q119 27 194.5 103.5 t75.5 179.5q0 124 -83 206t-212 82q-136 0 -216 -96.5t-80 -255.5v-1094h137v-20h-338z" />
<glyph unicode="&#xe0;" horiz-adv-x="1226" d="M158 295q0 137 111 224t286 87q145 0 246 -60.5t137 -152.5v301q0 154 -95.5 242t-267.5 88q-92 0 -188.5 -27.5t-169.5 -72.5l-10 18q171 102 373 102q175 0 276.5 -93t101.5 -253v-680h179v-18h-201l2 205q-31 -95 -134.5 -160t-254.5 -65q-168 0 -279.5 86.5 t-111.5 228.5zM180 297q0 -126 98.5 -211.5t276.5 -85.5q168 0 275.5 86.5t107.5 212.5q0 120 -107 203.5t-270 83.5q-174 0 -277.5 -81.5t-103.5 -207.5zM477 1434h25l137 -250h-23z" />
<glyph unicode="&#xe1;" horiz-adv-x="1226" d="M158 295q0 137 111 224t286 87q145 0 246 -60.5t137 -152.5v301q0 154 -95.5 242t-267.5 88q-92 0 -188.5 -27.5t-169.5 -72.5l-10 18q171 102 373 102q175 0 276.5 -93t101.5 -253v-680h179v-18h-201l2 205q-31 -95 -134.5 -160t-254.5 -65q-168 0 -279.5 86.5 t-111.5 228.5zM180 297q0 -126 98.5 -211.5t276.5 -85.5q168 0 275.5 86.5t107.5 212.5q0 120 -107 203.5t-270 83.5q-174 0 -277.5 -81.5t-103.5 -207.5zM561 1204l137 250h25l-139 -250h-23z" />
<glyph unicode="&#xe2;" horiz-adv-x="1226" d="M158 295q0 137 111 224t286 87q145 0 246 -60.5t137 -152.5v301q0 154 -95.5 242t-267.5 88q-92 0 -188.5 -27.5t-169.5 -72.5l-10 18q171 102 373 102q175 0 276.5 -93t101.5 -253v-680h179v-18h-201l2 205q-31 -95 -134.5 -160t-254.5 -65q-168 0 -279.5 86.5 t-111.5 228.5zM180 297q0 -126 98.5 -211.5t276.5 -85.5q168 0 275.5 86.5t107.5 212.5q0 120 -107 203.5t-270 83.5q-174 0 -277.5 -81.5t-103.5 -207.5zM406 1208l190 244h25l190 -244h-25l-178 230l-178 -230h-24z" />
<glyph unicode="&#xe3;" horiz-adv-x="1226" d="M158 295q0 137 111 224t286 87q145 0 246 -60.5t137 -152.5v301q0 154 -95.5 242t-267.5 88q-92 0 -188.5 -27.5t-169.5 -72.5l-10 18q171 102 373 102q175 0 276.5 -93t101.5 -253v-680h179v-18h-201l2 205q-31 -95 -134.5 -160t-254.5 -65q-168 0 -279.5 86.5 t-111.5 228.5zM180 297q0 -126 98.5 -211.5t276.5 -85.5q168 0 275.5 86.5t107.5 212.5q0 120 -107 203.5t-270 83.5q-174 0 -277.5 -81.5t-103.5 -207.5zM342 1262q3 63 37.5 100t91.5 37q34 0 73 -18.5t69 -40t69 -40t72 -18.5q45 0 73 31t31 86h21q-3 -63 -37.5 -100 t-91.5 -37q-43 0 -92.5 29l-99 58t-91.5 29q-45 0 -73.5 -30.5t-31.5 -85.5h-20z" />
<glyph unicode="&#xe4;" horiz-adv-x="1226" d="M158 295q0 137 111 224t286 87q145 0 246 -60.5t137 -152.5v301q0 154 -95.5 242t-267.5 88q-92 0 -188.5 -27.5t-169.5 -72.5l-10 18q171 102 373 102q175 0 276.5 -93t101.5 -253v-680h179v-18h-201l2 205q-31 -95 -134.5 -160t-254.5 -65q-168 0 -279.5 86.5 t-111.5 228.5zM180 297q0 -126 98.5 -211.5t276.5 -85.5q168 0 275.5 86.5t107.5 212.5q0 120 -107 203.5t-270 83.5q-174 0 -277.5 -81.5t-103.5 -207.5zM399 1325q0 19 12 32t31 13q20 0 33.5 -13t13.5 -32t-13.5 -32t-33.5 -13q-19 0 -31 13t-12 32zM727 1325q0 19 12 32 t31 13q20 0 33.5 -13t13.5 -32t-13.5 -32t-33.5 -13q-19 0 -31 13t-12 32z" />
<glyph unicode="&#xe5;" horiz-adv-x="1226" d="M158 295q0 137 111 224t286 87q145 0 246 -60.5t137 -152.5v301q0 154 -95.5 242t-267.5 88q-92 0 -188.5 -27.5t-169.5 -72.5l-10 18q171 102 373 102q175 0 276.5 -93t101.5 -253v-680h179v-18h-201l2 205q-31 -95 -134.5 -160t-254.5 -65q-168 0 -279.5 86.5 t-111.5 228.5zM180 297q0 -126 98.5 -211.5t276.5 -85.5q168 0 275.5 86.5t107.5 212.5q0 120 -107 203.5t-270 83.5q-174 0 -277.5 -81.5t-103.5 -207.5zM473 1337q0 59 38 98.5t97 39.5t97 -39.5t38 -98.5q0 -62 -37.5 -101.5t-97.5 -39.5t-97.5 39.5t-37.5 101.5z M492 1337q0 -55 32 -90t84 -35t84.5 35.5t32.5 89.5q0 52 -32.5 86.5t-84.5 34.5t-84 -34.5t-32 -86.5z" />
<glyph unicode="&#xe6;" horiz-adv-x="1970" d="M158 295q0 137 111 224t288 87q146 0 246.5 -58.5t136.5 -146.5v238q0 165 -99 275t-266 110q-90 0 -187 -30t-171 -76l-10 18q177 108 373 108q163 0 266.5 -105.5t111.5 -268.5q41 168 163.5 271t275.5 103q190 0 314 -140.5t124 -340.5v-20h-877v-23 q0 -231 125.5 -375.5t323.5 -144.5q122 0 229 62.5t170 170.5l19 -10q-65 -113 -176.5 -178t-243.5 -65q-166 0 -286.5 102.5t-160.5 275.5v-49q-3 -139 -117 -234t-290 -95q-169 0 -281 86.5t-112 228.5zM180 297q0 -126 98.5 -211.5t276.5 -85.5q163 0 273 91.5t110 223.5 q0 114 -107.5 192.5t-269.5 78.5q-174 0 -277.5 -81.5t-103.5 -207.5zM961 563h851q0 195 -117 328t-302 133q-107 0 -202.5 -58t-158 -165t-71.5 -238z" />
<glyph unicode="&#xe7;" horiz-adv-x="1169" d="M135 524q0 110 41 208.5t107.5 166t152 106.5t174.5 39q148 0 251 -75t149 -199v258h20v-311h-16q-45 138 -146 222.5t-256 84.5q-84 0 -165.5 -37t-145.5 -101.5t-103.5 -159.5t-39.5 -202q0 -233 131.5 -378.5t345.5 -145.5q123 0 233.5 66t175.5 172l19 -11 q-64 -109 -181.5 -178t-250.5 -69h-31l-20 -105q16 4 30 4q60 0 100 -36.5t40 -88.5q0 -57 -47.5 -96t-116.5 -39q-44 0 -82 19l4 20q36 -18 76 -18q61 0 102 32t41 82q0 47 -35.5 77t-89.5 30q-23 0 -47 -8l25 129q-200 19 -322.5 168.5t-122.5 373.5z" />
<glyph unicode="&#xe8;" horiz-adv-x="1202" d="M135 530q0 146 66.5 265t175 184t235.5 65q131 0 236 -65.5t162 -175t57 -240.5v-20h-909q0 -246 129.5 -394.5t335.5 -148.5q126 0 239.5 64t177.5 172l17 -13q-66 -112 -184.5 -177.5t-254.5 -65.5q-212 0 -347.5 155t-135.5 395zM158 563h886q0 127 -53.5 231.5 t-154 167t-228.5 62.5q-175 0 -306.5 -129.5t-143.5 -331.5zM479 1434h25l137 -250h-23z" />
<glyph unicode="&#xe9;" horiz-adv-x="1202" d="M135 530q0 146 66.5 265t175 184t235.5 65q131 0 236 -65.5t162 -175t57 -240.5v-20h-909q0 -246 129.5 -394.5t335.5 -148.5q126 0 239.5 64t177.5 172l17 -13q-66 -112 -184.5 -177.5t-254.5 -65.5q-212 0 -347.5 155t-135.5 395zM158 563h886q0 127 -53.5 231.5 t-154 167t-228.5 62.5q-175 0 -306.5 -129.5t-143.5 -331.5zM563 1204l137 250h25l-139 -250h-23z" />
<glyph unicode="&#xea;" horiz-adv-x="1202" d="M135 530q0 146 66.5 265t175 184t235.5 65q131 0 236 -65.5t162 -175t57 -240.5v-20h-909q0 -246 129.5 -394.5t335.5 -148.5q126 0 239.5 64t177.5 172l17 -13q-66 -112 -184.5 -177.5t-254.5 -65.5q-212 0 -347.5 155t-135.5 395zM158 563h886q0 127 -53.5 231.5 t-154 167t-228.5 62.5q-175 0 -306.5 -129.5t-143.5 -331.5zM408 1208l190 244h25l190 -244h-25l-178 230l-178 -230h-24z" />
<glyph unicode="&#xeb;" horiz-adv-x="1202" d="M135 530q0 146 66.5 265t175 184t235.5 65q131 0 236 -65.5t162 -175t57 -240.5v-20h-909q0 -246 129.5 -394.5t335.5 -148.5q126 0 239.5 64t177.5 172l17 -13q-66 -112 -184.5 -177.5t-254.5 -65.5q-212 0 -347.5 155t-135.5 395zM158 563h886q0 127 -53.5 231.5 t-154 167t-228.5 62.5q-175 0 -306.5 -129.5t-143.5 -331.5zM401 1325q0 19 12 32t31 13q20 0 34 -13t14 -32t-14 -32t-34 -13q-19 0 -31 13t-12 32zM729 1325q0 19 12 32t31 13q20 0 33.5 -13t13.5 -32t-13.5 -32t-33.5 -13q-19 0 -31 13t-12 32z" />
<glyph unicode="&#xec;" horiz-adv-x="587" d="M111 0v18h178v988h-178v18h198v-1006h180v-18h-378zM164 1434h24l138 -250h-23z" />
<glyph unicode="&#xed;" horiz-adv-x="587" d="M111 0v18h178v988h-178v18h198v-1006h180v-18h-378zM248 1204l137 250h25l-140 -250h-22z" />
<glyph unicode="&#xee;" horiz-adv-x="587" d="M92 1208l191 244h24l191 -244h-25l-178 230l-178 -230h-25zM111 0v18h178v988h-178v18h198v-1006h180v-18h-378z" />
<glyph unicode="&#xef;" horiz-adv-x="559" d="M90 0v18h178v988h-178v18h199v-1006h180v-18h-379zM90 1325q0 17 11 29t28 12q19 0 31 -12t12 -29t-12 -29t-31 -12q-17 0 -28 12t-11 29zM356 1325q0 17 11 29t28 12q19 0 31 -12t12 -29t-12 -29t-31 -12q-17 0 -28 12t-11 29z" />
<glyph unicode="&#xf0;" horiz-adv-x="1228" d="M137 514q0 224 132.5 367t334.5 143q168 0 293 -93.5t160 -250.5q-26 216 -128.5 371.5t-281.5 265.5l-328 -152l-8 19l316 145q-128 73 -293 129l8 23q184 -66 309 -142l303 140l9 -19l-291 -133q204 -130 308.5 -321.5t104.5 -468.5q0 -250 -130.5 -403.5 t-342.5 -153.5q-211 0 -343 149.5t-132 384.5zM160 514q0 -226 125.5 -370t326.5 -144q200 0 325.5 146t125.5 372q0 217 -129.5 351.5t-323.5 134.5q-198 0 -324 -137t-126 -353z" />
<glyph unicode="&#xf1;" horiz-adv-x="1357" d="M111 0v18h178v988h-178v18h198v-258q34 123 144.5 200.5t255.5 77.5q172 0 276.5 -100.5t104.5 -267.5v-658h178v-18h-377v18h178v656q0 160 -98.5 255t-265.5 95q-166 0 -281 -105.5t-115 -259.5v-641h180v-18h-378zM416 1262q3 63 37.5 100t91.5 37q34 0 73 -18.5 t68.5 -40t68.5 -40t72 -18.5q45 0 73.5 31t31.5 86h20q-3 -63 -37.5 -100t-91.5 -37q-43 0 -92.5 29t-98.5 58t-91 29q-45 0 -73.5 -30.5t-31.5 -85.5h-20z" />
<glyph unicode="&#xf2;" horiz-adv-x="1290" d="M135 520q0 231 145.5 377.5t364.5 146.5q220 0 365 -146.5t145 -377.5q0 -150 -65.5 -273.5t-182.5 -195t-262 -71.5t-262 71.5t-182.5 195t-65.5 273.5zM158 520q0 -144 61.5 -263t173.5 -188t252 -69t252 69t174 188t62 263q0 223 -138 363.5t-350 140.5 q-211 0 -349 -141t-138 -363zM508 1434h24l138 -250h-23z" />
<glyph unicode="&#xf3;" horiz-adv-x="1290" d="M135 520q0 231 145.5 377.5t364.5 146.5q220 0 365 -146.5t145 -377.5q0 -150 -65.5 -273.5t-182.5 -195t-262 -71.5t-262 71.5t-182.5 195t-65.5 273.5zM158 520q0 -144 61.5 -263t173.5 -188t252 -69t252 69t174 188t62 263q0 223 -138 363.5t-350 140.5 q-211 0 -349 -141t-138 -363zM592 1204l137 250h25l-140 -250h-22z" />
<glyph unicode="&#xf4;" horiz-adv-x="1290" d="M135 520q0 231 145.5 377.5t364.5 146.5q220 0 365 -146.5t145 -377.5q0 -150 -65.5 -273.5t-182.5 -195t-262 -71.5t-262 71.5t-182.5 195t-65.5 273.5zM158 520q0 -144 61.5 -263t173.5 -188t252 -69t252 69t174 188t62 263q0 223 -138 363.5t-350 140.5 q-211 0 -349 -141t-138 -363zM436 1208l191 244h24l191 -244h-25l-178 230l-178 -230h-25z" />
<glyph unicode="&#xf5;" horiz-adv-x="1290" d="M135 520q0 231 145.5 377.5t364.5 146.5q220 0 365 -146.5t145 -377.5q0 -150 -65.5 -273.5t-182.5 -195t-262 -71.5t-262 71.5t-182.5 195t-65.5 273.5zM158 520q0 -144 61.5 -263t173.5 -188t252 -69t252 69t174 188t62 263q0 223 -138 363.5t-350 140.5 q-211 0 -349 -141t-138 -363zM373 1262q3 63 37.5 100t91.5 37q34 0 73 -18.5t68.5 -40t68.5 -40t72 -18.5q45 0 73.5 31t31.5 86h20q-3 -63 -37.5 -100t-91.5 -37q-43 0 -92.5 29t-98.5 58t-91 29q-45 0 -73.5 -30.5t-31.5 -85.5h-20z" />
<glyph unicode="&#xf6;" horiz-adv-x="1290" d="M135 520q0 231 145.5 377.5t364.5 146.5q220 0 365 -146.5t145 -377.5q0 -150 -65.5 -273.5t-182.5 -195t-262 -71.5t-262 71.5t-182.5 195t-65.5 273.5zM158 520q0 -144 61.5 -263t173.5 -188t252 -69t252 69t174 188t62 263q0 223 -138 363.5t-350 140.5 q-211 0 -349 -141t-138 -363zM430 1325q0 19 12 32t31 13q20 0 33.5 -13t13.5 -32t-13.5 -32t-33.5 -13q-19 0 -31 13t-12 32zM758 1325q0 19 12 32t31 13q20 0 33.5 -13t13.5 -32t-13.5 -32t-33.5 -13q-19 0 -31 13t-12 32z" />
<glyph unicode="&#xf7;" horiz-adv-x="1132" d="M123 639v18h887v-18h-887zM516 340q0 22 13.5 36.5t35.5 14.5q23 0 38 -14.5t15 -36.5t-15 -36.5t-38 -14.5q-22 0 -35.5 14.5t-13.5 36.5zM516 956q0 22 14 37t35 15q23 0 38 -15t15 -37t-15 -36.5t-38 -14.5q-22 0 -35.5 14.5t-13.5 36.5z" />
<glyph unicode="&#xf8;" horiz-adv-x="1290" d="M135 520q0 231 145.5 377.5t364.5 146.5q191 0 328 -112l96 117l16 -13l-96 -116q166 -153 166 -400q0 -150 -65.5 -273.5t-182.5 -195t-262 -71.5q-194 0 -332 122l-104 -127l-16 13l106 129q-78 75 -121 179t-43 224zM158 520q0 -116 40.5 -216t114.5 -171l648 782 q-131 109 -316 109q-211 0 -349 -141t-138 -363zM328 119q132 -119 317 -119q140 0 252 69t174 188t62 263q0 118 -41.5 216t-116.5 167z" />
<glyph unicode="&#xf9;" horiz-adv-x="1308" d="M90 1006v18h199v-676q0 -157 92 -251.5t248 -94.5q157 0 269 110.5t112 254.5v639h-179v18h199v-1006h180v-18h-200v262q-36 -121 -141.5 -201.5t-243.5 -80.5q-160 0 -258.5 100.5t-98.5 263.5v662h-178zM506 1434h24l138 -250h-23z" />
<glyph unicode="&#xfa;" horiz-adv-x="1308" d="M90 1006v18h199v-676q0 -157 92 -251.5t248 -94.5q157 0 269 110.5t112 254.5v639h-179v18h199v-1006h180v-18h-200v262q-36 -121 -141.5 -201.5t-243.5 -80.5q-160 0 -258.5 100.5t-98.5 263.5v662h-178zM590 1204l137 250h25l-140 -250h-22z" />
<glyph unicode="&#xfb;" horiz-adv-x="1308" d="M90 1006v18h199v-676q0 -157 92 -251.5t248 -94.5q157 0 269 110.5t112 254.5v639h-179v18h199v-1006h180v-18h-200v262q-36 -121 -141.5 -201.5t-243.5 -80.5q-160 0 -258.5 100.5t-98.5 263.5v662h-178zM434 1208l191 244h24l191 -244h-25l-178 230l-178 -230h-25z" />
<glyph unicode="&#xfc;" horiz-adv-x="1308" d="M90 1006v18h199v-676q0 -157 92 -251.5t248 -94.5q157 0 269 110.5t112 254.5v639h-179v18h199v-1006h180v-18h-200v262q-36 -121 -141.5 -201.5t-243.5 -80.5q-160 0 -258.5 100.5t-98.5 263.5v662h-178zM428 1325q0 19 12 32t31 13q20 0 33.5 -13t13.5 -32t-13.5 -32 t-33.5 -13q-19 0 -31 13t-12 32zM756 1325q0 19 12 32t31 13q20 0 33.5 -13t13.5 -32t-13.5 -32t-33.5 -13q-19 0 -31 13t-12 32z" />
<glyph unicode="&#xfd;" horiz-adv-x="1191" d="M20 1006v18h390v-18h-215l397 -998l403 998h-213v18h389v-18h-153l-434 -1074q-64 -159 -137.5 -239t-176.5 -80q-44 0 -98 12v21q67 -13 104 -13q85 0 154.5 78t136.5 236l15 35l-410 1024h-152zM553 1204l137 250h25l-140 -250h-22z" />
<glyph unicode="&#xfe;" horiz-adv-x="1374" d="M98 -365h178v1827h-178v19h199v-813q17 73 55 138.5t96 119.5t141 86t179 32q136 0 244.5 -71t167.5 -191.5t59 -265.5q0 -146 -60.5 -268t-171 -195t-247.5 -73q-95 0 -176.5 32t-138 86.5t-93.5 120t-55 137.5v-721h213v-18h-412v18zM297 516q0 -224 129.5 -370 t329.5 -146q102 0 189.5 42t146.5 112.5t92 164.5t33 197q0 137 -54 252t-159 185.5t-240 70.5q-203 0 -335 -143.5t-132 -364.5z" />
<glyph unicode="&#xff;" horiz-adv-x="1191" d="M20 1006v18h390v-18h-215l397 -998l403 998h-213v18h389v-18h-153l-434 -1074q-64 -159 -137.5 -239t-176.5 -80q-44 0 -98 12v21q67 -13 104 -13q85 0 154.5 78t136.5 236l15 35l-410 1024h-152zM391 1325q0 19 12 32t31 13q20 0 33.5 -13t13.5 -32t-13.5 -32t-33.5 -13 q-19 0 -31 13t-12 32zM719 1325q0 19 12 32t31 13q20 0 33.5 -13t13.5 -32t-13.5 -32t-33.5 -13q-19 0 -31 13t-12 32z" />
<glyph unicode="&#x100;" horiz-adv-x="1431" d="M25 0v20h165l512 1418h25l512 -1418h168v-20h-410v20h217l-180 508h-639l-180 -508h217v-20h-407zM403 549h623l-311 868zM446 1690v18h541v-18h-541z" />
<glyph unicode="&#x101;" horiz-adv-x="1226" d="M158 295q0 137 111 224t286 87q145 0 246 -60.5t137 -152.5v301q0 154 -95.5 242t-267.5 88q-92 0 -188.5 -27.5t-169.5 -72.5l-10 18q171 102 373 102q175 0 276.5 -93t101.5 -253v-680h179v-18h-201l2 205q-31 -95 -134.5 -160t-254.5 -65q-168 0 -279.5 86.5 t-111.5 228.5zM180 297q0 -126 98.5 -211.5t276.5 -85.5q168 0 275.5 86.5t107.5 212.5q0 120 -107 203.5t-270 83.5q-174 0 -277.5 -81.5t-103.5 -207.5zM338 1300v19h541v-19h-541z" />
<glyph unicode="&#x102;" horiz-adv-x="1431" d="M25 0v20h165l512 1418h25l512 -1418h168v-20h-410v20h217l-180 508h-639l-180 -508h217v-20h-407zM403 549h623l-311 868zM522 1802h21q0 -78 43.5 -127t130.5 -49t130.5 49t43.5 127h20q0 -87 -50 -140.5t-144 -53.5t-144.5 54t-50.5 140z" />
<glyph unicode="&#x103;" horiz-adv-x="1226" d="M158 295q0 137 111 224t286 87q145 0 246 -60.5t137 -152.5v301q0 154 -95.5 242t-267.5 88q-92 0 -188.5 -27.5t-169.5 -72.5l-10 18q171 102 373 102q175 0 276.5 -93t101.5 -253v-680h179v-18h-201l2 205q-31 -95 -134.5 -160t-254.5 -65q-168 0 -279.5 86.5 t-111.5 228.5zM180 297q0 -126 98.5 -211.5t276.5 -85.5q168 0 275.5 86.5t107.5 212.5q0 120 -107 203.5t-270 83.5q-174 0 -277.5 -81.5t-103.5 -207.5zM414 1413h20q0 -78 43.5 -127t130.5 -49t130.5 49t43.5 127h21q0 -86 -50.5 -140t-144.5 -54t-144 53.5t-50 140.5z " />
<glyph unicode="&#x104;" horiz-adv-x="1431" d="M25 0v20h165l512 1418h25l512 -1418h168v-20h-113q-174 -101 -174 -225q0 -60 39 -96.5t98 -36.5q65 0 123 45l11 -17q-58 -49 -138 -49q-64 0 -109.5 43t-45.5 107q0 68 45 127t119 102h-265v20h217l-180 508h-639l-180 -508h217v-20h-407zM403 549h623l-311 868z" />
<glyph unicode="&#x105;" horiz-adv-x="1226" d="M158 295q0 137 111 224t286 87q145 0 246 -60.5t137 -152.5v301q0 154 -95.5 242t-267.5 88q-92 0 -188.5 -27.5t-169.5 -72.5l-10 18q171 102 373 102q175 0 276.5 -93t101.5 -253v-680h179v-18h-176q-175 -102 -175 -225q0 -60 39.5 -96.5t98.5 -36.5q65 0 123 45 l10 -17q-58 -49 -137 -49q-64 0 -110 43t-46 107q0 70 47.5 130t124.5 103l2 201q-31 -95 -134.5 -160t-254.5 -65q-168 0 -279.5 86.5t-111.5 228.5zM180 297q0 -126 98.5 -211.5t276.5 -85.5q168 0 275.5 86.5t107.5 212.5q0 120 -107 203.5t-270 83.5 q-174 0 -277.5 -81.5t-103.5 -207.5z" />
<glyph unicode="&#x106;" horiz-adv-x="1437" d="M133 727q0 152 47 285t132 231t210.5 154.5t274.5 56.5q162 0 297.5 -96.5t191.5 -247.5v328h23v-391h-19q-53 170 -187.5 277.5t-299.5 107.5q-118 0 -221 -35.5t-180 -100t-132.5 -152t-83.5 -194t-28 -223.5q0 -149 43.5 -279.5t124.5 -229.5t205.5 -156.5 t277.5 -57.5t291 82t215 217l20 -14q-80 -136 -224 -222.5t-302 -86.5q-208 0 -363.5 102t-234 270t-78.5 375zM715 1593l137 250h25l-140 -250h-22z" />
<glyph unicode="&#x107;" horiz-adv-x="1169" d="M135 524q0 110 41 208.5t107.5 166t152 106.5t174.5 39q148 0 251 -75t149 -199v258h20v-311h-16q-45 138 -146 222.5t-256 84.5q-84 0 -165.5 -37t-145.5 -101.5t-103.5 -159.5t-39.5 -202q0 -233 131.5 -378.5t345.5 -145.5q123 0 233.5 66t175.5 172l19 -11 q-64 -109 -181.5 -178t-250.5 -69q-220 0 -358 152.5t-138 391.5zM549 1204l137 250h25l-140 -250h-22z" />
<glyph unicode="&#x108;" horiz-adv-x="1437" d="M133 727q0 152 47 285t132 231t210.5 154.5t274.5 56.5q162 0 297.5 -96.5t191.5 -247.5v328h23v-391h-19q-53 170 -187.5 277.5t-299.5 107.5q-118 0 -221 -35.5t-180 -100t-132.5 -152t-83.5 -194t-28 -223.5q0 -149 43.5 -279.5t124.5 -229.5t205.5 -156.5 t277.5 -57.5t291 82t215 217l20 -14q-80 -136 -224 -222.5t-302 -86.5q-208 0 -363.5 102t-234 270t-78.5 375zM559 1597l191 244h24l191 -244h-25l-178 230l-178 -230h-25z" />
<glyph unicode="&#x109;" horiz-adv-x="1169" d="M135 524q0 110 41 208.5t107.5 166t152 106.5t174.5 39q148 0 251 -75t149 -199v258h20v-311h-16q-45 138 -146 222.5t-256 84.5q-84 0 -165.5 -37t-145.5 -101.5t-103.5 -159.5t-39.5 -202q0 -233 131.5 -378.5t345.5 -145.5q123 0 233.5 66t175.5 172l19 -11 q-64 -109 -181.5 -178t-250.5 -69q-220 0 -358 152.5t-138 391.5zM393 1208l191 244h24l191 -244h-25l-178 230l-178 -230h-25z" />
<glyph unicode="&#x10a;" horiz-adv-x="1437" d="M133 727q0 152 47 285t132 231t210.5 154.5t274.5 56.5q162 0 297.5 -96.5t191.5 -247.5v328h23v-391h-19q-53 170 -187.5 277.5t-299.5 107.5q-118 0 -221 -35.5t-180 -100t-132.5 -152t-83.5 -194t-28 -223.5q0 -149 43.5 -279.5t124.5 -229.5t205.5 -156.5 t277.5 -57.5t291 82t215 217l20 -14q-80 -136 -224 -222.5t-302 -86.5q-208 0 -363.5 102t-234 270t-78.5 375zM711 1722q0 22 14 37t35 15q23 0 38 -15t15 -37t-15 -36.5t-38 -14.5q-22 0 -35.5 14.5t-13.5 36.5z" />
<glyph unicode="&#x10b;" horiz-adv-x="1169" d="M135 524q0 110 41 208.5t107.5 166t152 106.5t174.5 39q148 0 251 -75t149 -199v258h20v-311h-16q-45 138 -146 222.5t-256 84.5q-84 0 -165.5 -37t-145.5 -101.5t-103.5 -159.5t-39.5 -202q0 -233 131.5 -378.5t345.5 -145.5q123 0 233.5 66t175.5 172l19 -11 q-64 -109 -181.5 -178t-250.5 -69q-220 0 -358 152.5t-138 391.5zM545 1333q0 22 13.5 36.5t35.5 14.5q23 0 38 -14.5t15 -36.5t-15 -36.5t-38 -14.5q-22 0 -35.5 14.5t-13.5 36.5z" />
<glyph unicode="&#x10c;" horiz-adv-x="1437" d="M133 727q0 152 47 285t132 231t210.5 154.5t274.5 56.5q162 0 297.5 -96.5t191.5 -247.5v328h23v-391h-19q-53 170 -187.5 277.5t-299.5 107.5q-118 0 -221 -35.5t-180 -100t-132.5 -152t-83.5 -194t-28 -223.5q0 -149 43.5 -279.5t124.5 -229.5t205.5 -156.5 t277.5 -57.5t291 82t215 217l20 -14q-80 -136 -224 -222.5t-302 -86.5q-208 0 -363.5 102t-234 270t-78.5 375zM621 1851h24l178 -229l178 229h25l-190 -243h-25z" />
<glyph unicode="&#x10d;" horiz-adv-x="1169" d="M135 524q0 110 41 208.5t107.5 166t152 106.5t174.5 39q148 0 251 -75t149 -199v258h20v-311h-16q-45 138 -146 222.5t-256 84.5q-84 0 -165.5 -37t-145.5 -101.5t-103.5 -159.5t-39.5 -202q0 -233 131.5 -378.5t345.5 -145.5q123 0 233.5 66t175.5 172l19 -11 q-64 -109 -181.5 -178t-250.5 -69q-220 0 -358 152.5t-138 391.5zM455 1462h24l178 -229l179 229h24l-190 -243h-25z" />
<glyph unicode="&#x10e;" horiz-adv-x="1400" d="M123 0v20h184v1393h-184v21h461q145 0 270.5 -50t217.5 -140t144 -224.5t52 -296.5q0 -327 -185 -525t-485 -198h-475zM330 20h252q302 0 481.5 190t179.5 513q0 157 -50 287t-139 218t-214 136.5t-273 48.5h-237v-1393zM561 1851h25l178 -229l178 229h25l-191 -243h-24z " />
<glyph unicode="&#x10f;" horiz-adv-x="1372" d="M135 516q0 146 61 266.5t171.5 191t248.5 70.5q97 0 177.5 -30.5t136 -83t92 -116.5t55.5 -138v786h-178v19h199v-1463h180v-18h-201v367q-16 -76 -53 -143.5t-93.5 -123t-140 -88t-182.5 -32.5q-137 0 -246 72.5t-168 194.5t-59 269zM158 516q0 -139 53.5 -255 t158.5 -188.5t242 -72.5q139 0 246 68.5t163 185t56 262.5q0 224 -124.5 366t-331.5 142q-138 0 -245 -70.5t-162.5 -185.5t-55.5 -252zM1280 1133l29 348h22l-31 -348h-20z" />
<glyph unicode="&#x110;" horiz-adv-x="1421" d="M123 737v21h205v655h-185v21h461q145 0 270.5 -50t217.5 -140t144 -224.5t52 -296.5q0 -327 -185 -525t-485 -198h-475v20h185v717h-205zM350 20h252q302 0 482 190t180 513q0 157 -50 287t-139 218t-214 136.5t-273 48.5h-238v-655h434v-21h-434v-717z" />
<glyph unicode="&#x111;" horiz-adv-x="1376" d="M135 516q0 146 61 266.5t171.5 191t248.5 70.5q97 0 177.5 -30.5t136 -83t92 -116.5t55.5 -138v555h-368v18h368v213h-178v19h199v-232h180v-18h-180v-1213h180v-18h-201v367q-16 -76 -53 -143.5t-93.5 -123t-140 -88t-182.5 -32.5q-137 0 -246 72.5t-168 194.5t-59 269z M158 516q0 -139 53.5 -255t158.5 -188.5t242 -72.5q139 0 246 68.5t163 185t56 262.5q0 224 -124.5 366t-331.5 142q-138 0 -245 -70.5t-162.5 -185.5t-55.5 -252z" />
<glyph unicode="&#x112;" d="M123 0v20h184v1393h-184v21h856v-322h-23v301h-626v-655h540v-21h-540v-717h637v322h22v-342h-866zM328 1690v18h540v-18h-540z" />
<glyph unicode="&#x113;" horiz-adv-x="1202" d="M135 530q0 146 66.5 265t175 184t235.5 65q131 0 236 -65.5t162 -175t57 -240.5v-20h-909q0 -246 129.5 -394.5t335.5 -148.5q126 0 239.5 64t177.5 172l17 -13q-66 -112 -184.5 -177.5t-254.5 -65.5q-212 0 -347.5 155t-135.5 395zM158 563h886q0 127 -53.5 231.5 t-154 167t-228.5 62.5q-175 0 -306.5 -129.5t-143.5 -331.5zM340 1300v19h541v-19h-541z" />
<glyph unicode="&#x114;" d="M123 0v20h184v1393h-184v21h856v-322h-23v301h-626v-655h540v-21h-540v-717h637v322h22v-342h-866zM403 1802h21q0 -78 43.5 -127t130.5 -49t130.5 49t43.5 127h21q0 -86 -50.5 -140t-144.5 -54t-144.5 54t-50.5 140z" />
<glyph unicode="&#x115;" horiz-adv-x="1202" d="M135 530q0 146 66.5 265t175 184t235.5 65q131 0 236 -65.5t162 -175t57 -240.5v-20h-909q0 -246 129.5 -394.5t335.5 -148.5q126 0 239.5 64t177.5 172l17 -13q-66 -112 -184.5 -177.5t-254.5 -65.5q-212 0 -347.5 155t-135.5 395zM158 563h886q0 127 -53.5 231.5 t-154 167t-228.5 62.5q-175 0 -306.5 -129.5t-143.5 -331.5zM416 1413h20q0 -78 43.5 -127t130.5 -49t130.5 49t43.5 127h21q0 -86 -50.5 -140t-144.5 -54t-144 53.5t-50 140.5z" />
<glyph unicode="&#x116;" d="M123 0v20h184v1393h-184v21h856v-322h-23v301h-626v-655h540v-21h-540v-717h637v322h22v-342h-866zM547 1722q0 22 14 37t35 15q23 0 38 -15t15 -37t-15 -36.5t-38 -14.5q-22 0 -35.5 14.5t-13.5 36.5z" />
<glyph unicode="&#x117;" horiz-adv-x="1202" d="M135 530q0 146 66.5 265t175 184t235.5 65q131 0 236 -65.5t162 -175t57 -240.5v-20h-909q0 -246 129.5 -394.5t335.5 -148.5q126 0 239.5 64t177.5 172l17 -13q-66 -112 -184.5 -177.5t-254.5 -65.5q-212 0 -347.5 155t-135.5 395zM158 563h886q0 127 -53.5 231.5 t-154 167t-228.5 62.5q-175 0 -306.5 -129.5t-143.5 -331.5zM559 1333q0 22 13.5 36.5t35.5 14.5q23 0 38.5 -14.5t15.5 -36.5t-15.5 -36.5t-38.5 -14.5q-22 0 -35.5 14.5t-13.5 36.5z" />
<glyph unicode="&#x118;" d="M123 0v20h184v1393h-184v21h856v-322h-23v301h-626v-655h540v-21h-540v-717h637v322h22v-342h-33q-174 -101 -174 -225q0 -60 39.5 -96.5t98.5 -36.5q64 0 122 45l11 -17q-58 -49 -138 -49q-64 0 -109.5 43t-45.5 107q0 68 45 127t119 102h-801z" />
<glyph unicode="&#x119;" horiz-adv-x="1202" d="M135 530q0 146 66.5 265t175 184t235.5 65q131 0 236 -65.5t162 -175t57 -240.5v-20h-909q0 -246 129.5 -394.5t335.5 -148.5q126 0 239.5 64t177.5 172l17 -13q-67 -113 -187 -178q-172 -133 -172 -258q0 -65 37.5 -105t95.5 -40q69 0 127 45l11 -17q-58 -49 -142 -49 q-63 0 -107 46.5t-44 115.5q0 121 133 231q-87 -34 -191 -34q-212 0 -347.5 155t-135.5 395zM158 563h886q0 127 -53.5 231.5t-154 167t-228.5 62.5q-175 0 -306.5 -129.5t-143.5 -331.5z" />
<glyph unicode="&#x11a;" d="M123 0v20h184v1393h-184v21h856v-322h-23v301h-626v-655h540v-21h-540v-717h637v322h22v-342h-866zM457 1851h24l178 -229l179 229h24l-190 -243h-25z" />
<glyph unicode="&#x11b;" horiz-adv-x="1202" d="M135 530q0 146 66.5 265t175 184t235.5 65q131 0 236 -65.5t162 -175t57 -240.5v-20h-909q0 -246 129.5 -394.5t335.5 -148.5q126 0 239.5 64t177.5 172l17 -13q-66 -112 -184.5 -177.5t-254.5 -65.5q-212 0 -347.5 155t-135.5 395zM158 563h886q0 127 -53.5 231.5 t-154 167t-228.5 62.5q-175 0 -306.5 -129.5t-143.5 -331.5zM469 1462h25l178 -229l178 229h24l-190 -243h-25z" />
<glyph unicode="&#x11c;" horiz-adv-x="1544" d="M133 727q0 203 81.5 368t233.5 262t347 97q168 0 307 -88.5t198 -228.5v301h23l4 -371h-18q-51 162 -191.5 262.5t-316.5 100.5q-194 0 -341.5 -94t-224.5 -253t-77 -356q0 -149 42.5 -280.5t121.5 -230t199 -155.5t267 -57q230 0 385 159t181 431h-393v22h415v-616h-22 v483q-43 -231 -196 -367t-370 -136q-151 0 -275.5 59t-207 161t-127.5 237.5t-45 289.5zM578 1597l190 244h25l190 -244h-25l-178 230l-178 -230h-24z" />
<glyph unicode="&#x11d;" horiz-adv-x="1368" d="M135 516q0 146 61 266.5t171.5 191t248.5 70.5q97 0 177.5 -30.5t136 -83t92 -116.5t55.5 -138v348h201v-18h-180v-975q0 -102 -41.5 -184t-109.5 -132t-151 -76t-171 -26q-96 0 -197 32.5t-172 80.5l10 18q71 -50 168.5 -79.5t194.5 -29.5q82 0 160 24.5t143.5 71.5 t105 124.5t39.5 173.5v338q-16 -76 -53 -143.5t-93.5 -123t-140 -88t-182.5 -32.5q-137 0 -246 72.5t-168 194.5t-59 269zM158 516q0 -139 53.5 -255t158.5 -188.5t242 -72.5q139 0 246 68.5t163 185t56 262.5q0 224 -124.5 366t-331.5 142q-138 0 -245 -70.5t-162.5 -185.5 t-55.5 -252zM420 1208l190 244h25l190 -244h-24l-178 230l-179 -230h-24z" />
<glyph unicode="&#x11e;" horiz-adv-x="1544" d="M133 727q0 203 81.5 368t233.5 262t347 97q168 0 307 -88.5t198 -228.5v301h23l4 -371h-18q-51 162 -191.5 262.5t-316.5 100.5q-194 0 -341.5 -94t-224.5 -253t-77 -356q0 -149 42.5 -280.5t121.5 -230t199 -155.5t267 -57q230 0 385 159t181 431h-393v22h415v-616h-22 v483q-43 -231 -196 -367t-370 -136q-151 0 -275.5 59t-207 161t-127.5 237.5t-45 289.5zM586 1802h20q0 -78 43.5 -127t130.5 -49t130.5 49t43.5 127h21q0 -86 -50.5 -140t-144.5 -54t-144 53.5t-50 140.5z" />
<glyph unicode="&#x11f;" horiz-adv-x="1368" d="M135 516q0 146 61 266.5t171.5 191t248.5 70.5q97 0 177.5 -30.5t136 -83t92 -116.5t55.5 -138v348h201v-18h-180v-975q0 -102 -41.5 -184t-109.5 -132t-151 -76t-171 -26q-96 0 -197 32.5t-172 80.5l10 18q71 -50 168.5 -79.5t194.5 -29.5q82 0 160 24.5t143.5 71.5 t105 124.5t39.5 173.5v338q-16 -76 -53 -143.5t-93.5 -123t-140 -88t-182.5 -32.5q-137 0 -246 72.5t-168 194.5t-59 269zM158 516q0 -139 53.5 -255t158.5 -188.5t242 -72.5q139 0 246 68.5t163 185t56 262.5q0 224 -124.5 366t-331.5 142q-138 0 -245 -70.5t-162.5 -185.5 t-55.5 -252zM428 1413h21q0 -78 43.5 -127t130.5 -49t130.5 49t43.5 127h20q0 -87 -50 -140.5t-144 -53.5t-144.5 54t-50.5 140z" />
<glyph unicode="&#x120;" horiz-adv-x="1544" d="M133 727q0 203 81.5 368t233.5 262t347 97q168 0 307 -88.5t198 -228.5v301h23l4 -371h-18q-51 162 -191.5 262.5t-316.5 100.5q-194 0 -341.5 -94t-224.5 -253t-77 -356q0 -149 42.5 -280.5t121.5 -230t199 -155.5t267 -57q230 0 385 159t181 431h-393v22h415v-616h-22 v483q-43 -231 -196 -367t-370 -136q-151 0 -275.5 59t-207 161t-127.5 237.5t-45 289.5zM729 1722q0 22 14 37t35 15q23 0 38 -15t15 -37t-15 -36.5t-38 -14.5q-22 0 -35.5 14.5t-13.5 36.5z" />
<glyph unicode="&#x121;" horiz-adv-x="1368" d="M135 516q0 146 61 266.5t171.5 191t248.5 70.5q97 0 177.5 -30.5t136 -83t92 -116.5t55.5 -138v348h201v-18h-180v-975q0 -102 -41.5 -184t-109.5 -132t-151 -76t-171 -26q-96 0 -197 32.5t-172 80.5l10 18q71 -50 168.5 -79.5t194.5 -29.5q82 0 160 24.5t143.5 71.5 t105 124.5t39.5 173.5v338q-16 -76 -53 -143.5t-93.5 -123t-140 -88t-182.5 -32.5q-137 0 -246 72.5t-168 194.5t-59 269zM158 516q0 -139 53.5 -255t158.5 -188.5t242 -72.5q139 0 246 68.5t163 185t56 262.5q0 224 -124.5 366t-331.5 142q-138 0 -245 -70.5t-162.5 -185.5 t-55.5 -252zM571 1333q0 22 14 36.5t36 14.5q23 0 38 -14.5t15 -36.5t-15 -36.5t-38 -14.5q-22 0 -36 14.5t-14 36.5z" />
<glyph unicode="&#x122;" horiz-adv-x="1544" d="M133 727q0 203 81.5 368t233.5 262t347 97q168 0 307 -88.5t198 -228.5v301h23l4 -371h-18q-51 162 -191.5 262.5t-316.5 100.5q-194 0 -341.5 -94t-224.5 -253t-77 -356q0 -149 42.5 -280.5t121.5 -230t199 -155.5t267 -57q230 0 385 159t181 431h-393v22h415v-616h-22 v483q-43 -231 -196 -367t-370 -136q-151 0 -275.5 59t-207 161t-127.5 237.5t-45 289.5zM715 -358q75 65 78 149q-12 -4 -23 -4q-21 0 -34 14t-13 37q0 21 14 36t35 15q23 0 38 -20t15 -49q0 -117 -94 -195z" />
<glyph unicode="&#x123;" horiz-adv-x="1368" d="M135 516q0 146 61 266.5t171.5 191t248.5 70.5q97 0 177.5 -30.5t136 -83t92 -116.5t55.5 -138v348h201v-18h-180v-975q0 -102 -41.5 -184t-109.5 -132t-151 -76t-171 -26q-96 0 -197 32.5t-172 80.5l10 18q71 -50 168.5 -79.5t194.5 -29.5q82 0 160 24.5t143.5 71.5 t105 124.5t39.5 173.5v338q-16 -76 -53 -143.5t-93.5 -123t-140 -88t-182.5 -32.5q-137 0 -246 72.5t-168 194.5t-59 269zM158 516q0 -139 53.5 -255t158.5 -188.5t242 -72.5q139 0 246 68.5t163 185t56 262.5q0 224 -124.5 366t-331.5 142q-138 0 -245 -70.5t-162.5 -185.5 t-55.5 -252zM578 1204q0 117 94 195l16 -17q-75 -65 -78 -149q12 4 23 4q21 0 34 -14t13 -37q0 -21 -14 -36t-35 -15q-23 0 -38 20t-15 49z" />
<glyph unicode="&#x124;" horiz-adv-x="1585" d="M123 0v20h184v1393h-184v21h391v-21h-184v-670h925v670h-192v21h399v-21h-184v-1393h184v-20h-391v20h184v703h-925v-703h184v-20h-391zM590 1597l190 244h25l190 -244h-24l-178 230l-179 -230h-24z" />
<glyph unicode="&#x125;" horiz-adv-x="1345" d="M98 0v18h178v1444h-178v19h199v-715q34 123 144 200.5t255 77.5q172 0 276.5 -100.5t104.5 -267.5v-658h178v-18h-376v18h178v656q0 160 -99 255t-266 95q-166 0 -280.5 -105.5t-114.5 -259.5v-641h180v-18h-379zM477 1497l191 244h24l191 -244h-25l-178 229l-178 -229 h-25z" />
<glyph unicode="&#x126;" horiz-adv-x="1585" d="M123 0v20h184v1053h-184v21h184v319h-184v21h391v-21h-184v-319h925v319h-192v21h399v-21h-184v-319h184v-21h-184v-1053h184v-20h-391v20h184v703h-925v-703h184v-20h-391zM330 743h925v330h-925v-330z" />
<glyph unicode="&#x127;" horiz-adv-x="1345" d="M98 0v18h178v1213h-178v18h178v213h-178v19h199v-232h342v-18h-342v-465q34 123 144 200.5t255 77.5q172 0 276.5 -100.5t104.5 -267.5v-658h178v-18h-376v18h178v656q0 160 -99 255t-266 95q-166 0 -280.5 -105.5t-114.5 -259.5v-641h180v-18h-379z" />
<glyph unicode="&#x128;" horiz-adv-x="636" d="M53 1651q3 63 37.5 100t91.5 37q43 0 92.5 -29t99 -58.5t91.5 -29.5q45 0 73 31t31 86h21q-3 -63 -37.5 -100t-91.5 -37q-43 0 -92.5 29l-99 58t-91.5 29q-45 0 -73 -30.5t-31 -85.5h-21zM123 0v20h184v1393h-184v21h391v-21h-184v-1393h184v-20h-391z" />
<glyph unicode="&#x129;" horiz-adv-x="587" d="M29 1262q3 63 37.5 100t91.5 37q34 0 73 -18.5t68.5 -40t68.5 -40t72 -18.5q45 0 73.5 31t31.5 86h20q-3 -63 -37.5 -100t-91.5 -37q-43 0 -92.5 29t-98.5 58t-91 29q-45 0 -73.5 -30.5t-31.5 -85.5h-20zM111 0v18h178v988h-178v18h198v-1006h180v-18h-378z" />
<glyph unicode="&#x12a;" horiz-adv-x="636" d="M49 1690v18h541v-18h-541zM123 0v20h184v1393h-184v21h391v-21h-184v-1393h184v-20h-391z" />
<glyph unicode="&#x12b;" horiz-adv-x="587" d="M25 1300v19h540v-19h-540zM111 0v18h178v988h-178v18h198v-1006h180v-18h-378z" />
<glyph unicode="&#x12c;" horiz-adv-x="636" d="M123 0v20h184v1393h-184v21h391v-21h-184v-1393h184v-20h-391zM125 1802h20q0 -78 43.5 -127t130.5 -49t131 49t44 127h20q0 -86 -50.5 -140t-144.5 -54t-144 53.5t-50 140.5z" />
<glyph unicode="&#x12d;" horiz-adv-x="587" d="M100 1413h21q0 -78 43.5 -127t130.5 -49t130.5 49t43.5 127h20q0 -87 -50 -140.5t-144 -53.5t-144.5 54t-50.5 140zM111 0v18h178v988h-178v18h198v-1006h180v-18h-378z" />
<glyph unicode="&#x12e;" horiz-adv-x="636" d="M123 0v20h184v1393h-184v21h391v-21h-184v-1393h184v-20h-94q-174 -101 -174 -225q0 -60 39 -96.5t98 -36.5q65 0 123 45l10 -17q-58 -49 -137 -49q-64 0 -110 43t-46 107q0 68 45 127t119 102h-264z" />
<glyph unicode="&#x12f;" horiz-adv-x="587" d="M111 0v18h178v988h-178v18h198v-1006h180v-18h-104q-174 -101 -174 -225q0 -60 39 -96.5t98 -36.5q65 0 123 45l10 -17q-58 -49 -137 -49q-64 0 -110 43t-46 107q0 68 45 127t119 102h-241zM246 1333q0 22 13.5 36.5t35.5 14.5q23 0 38 -14.5t15 -36.5t-15 -36.5 t-38 -14.5q-22 0 -35.5 14.5t-13.5 36.5z" />
<glyph unicode="&#x130;" horiz-adv-x="636" d="M123 0v20h184v1393h-184v21h391v-21h-184v-1393h184v-20h-391zM268 1722q0 22 14 37t35 15q23 0 38.5 -15t15.5 -37t-15.5 -36.5t-38.5 -14.5q-22 0 -35.5 14.5t-13.5 36.5z" />
<glyph unicode="&#x131;" horiz-adv-x="587" d="M111 0v18h178v988h-178v18h198v-1006h180v-18h-378z" />
<glyph unicode="&#x132;" horiz-adv-x="1318" d="M123 0v20h184v1393h-184v21h391v-21h-184v-1393h184v-20h-391zM621 -186l4 24q55 -14 137 -14q101 0 170 68t69 186v1335h-233v21h436v-21h-180v-1339q0 -122 -75 -198.5t-183 -76.5q-72 0 -145 15z" />
<glyph unicode="&#x133;" horiz-adv-x="1140" d="M111 0v18h178v988h-178v18h198v-1006h180v-18h-378zM246 1333q0 22 13.5 36.5t35.5 14.5q23 0 38 -14.5t15 -36.5t-15 -36.5t-38 -14.5q-22 0 -35.5 14.5t-13.5 36.5zM596 -356q50 -11 90 -11q82 0 133 66t51 186v1121h-178v18h199v-1143q0 -125 -56.5 -196.5 t-148.5 -71.5q-48 0 -90 10v21zM825 1333q0 21 15.5 36t36.5 15q22 0 36.5 -14.5t14.5 -36.5t-14.5 -36.5t-36.5 -14.5q-21 0 -36.5 15t-15.5 36z" />
<glyph unicode="&#x134;" horiz-adv-x="681" d="M-16 -186l4 24q55 -14 137 -14q102 0 171 68t69 186v1335h-234v21h436v-21h-180v-1339q0 -122 -75 -198.5t-183 -76.5q-72 0 -145 15zM145 1618l191 244h24l191 -244h-25l-178 229l-178 -229h-25z" />
<glyph unicode="&#x135;" horiz-adv-x="516" d="M8 -360q51 -7 90 -7q82 0 133.5 62t51.5 170v1141h-179v18h199v-1163q0 -114 -57 -181t-148 -67q-56 0 -90 6v21zM86 1208l190 244h25l191 -244h-25l-178 230l-178 -230h-25z" />
<glyph unicode="&#x136;" horiz-adv-x="1290" d="M123 0v20h184v1393h-184v21h377v-21h-170v-663l712 663h-190v21h385v-21h-164l-725 -676l748 -717h174v-20h-402v20h197l-735 705v-705h178v-20h-385zM596 -358q75 65 78 149q-12 -4 -23 -4q-21 0 -34 14t-13 37q0 21 14 36t35 15q23 0 38.5 -20t15.5 -49 q0 -116 -95 -195z" />
<glyph unicode="&#x137;" horiz-adv-x="1091" d="M98 0v18h178v1444h-178v19h199v-912l532 437h-202v18h399v-18h-168l-539 -443l580 -545h172v-18h-178l-596 559v-541h180v-18h-379zM520 -358q75 65 78 149q-12 -4 -23 -4q-21 0 -34 14t-13 37q0 21 14.5 36t35.5 15q23 0 38 -20t15 -49q0 -117 -94 -195z" />
<glyph unicode="&#x138;" horiz-adv-x="1091" d="M111 0v18h178v988h-178v18h198v-455l520 437h-198v18h395v-18h-168l-526 -443l569 -545h170v-18h-178l-584 559v-541h185v-18h-383z" />
<glyph unicode="&#x139;" horiz-adv-x="1095" d="M123 0v20h184v1393h-184v21h409v-21h-202v-1393h637v342h22v-362h-866zM293 1593l137 250h25l-140 -250h-22z" />
<glyph unicode="&#x13a;" horiz-adv-x="575" d="M98 0v18h178v1444h-178v19h199v-1463h180v-18h-379zM246 1640l137 250h25l-140 -250h-22z" />
<glyph unicode="&#x13b;" horiz-adv-x="1095" d="M123 0v20h184v1393h-184v21h409v-21h-202v-1393h637v342h22v-362h-866zM553 -358q75 65 78 149q-12 -4 -23 -4q-21 0 -34 14t-13 37q0 21 14 36t35 15q23 0 38.5 -20t15.5 -49q0 -116 -95 -195z" />
<glyph unicode="&#x13c;" horiz-adv-x="575" d="M98 0v18h178v1444h-178v19h199v-1463h180v-18h-379zM227 -358q75 65 78 149q-12 -4 -22 -4q-21 0 -34 14t-13 37q0 21 14 36t35 15q23 0 38 -20t15 -49q0 -117 -94 -195z" />
<glyph unicode="&#x13d;" horiz-adv-x="1095" d="M123 0v20h184v1393h-184v21h409v-21h-202v-1393h637v342h22v-362h-866zM707 1133l28 348h23l-31 -348h-20z" />
<glyph unicode="&#x13e;" horiz-adv-x="569" d="M98 0v18h178v1444h-178v19h199v-1463h180v-18h-379zM477 1133l29 348h22l-30 -348h-21z" />
<glyph unicode="&#x13f;" horiz-adv-x="1173" d="M123 0v20h184v1393h-184v21h409v-21h-202v-1393h637v342h22v-362h-866zM891 709q0 24 18.5 42.5t42.5 18.5q25 0 43.5 -18t18.5 -43t-18.5 -43.5t-43.5 -18.5q-24 0 -42.5 18.5t-18.5 43.5z" />
<glyph unicode="&#x140;" horiz-adv-x="757" d="M98 0v18h178v1444h-178v19h199v-1463h180v-18h-379zM594 709q0 24 18.5 42.5t42.5 18.5q25 0 43.5 -18t18.5 -43t-18.5 -43.5t-43.5 -18.5q-23 0 -42 18.5t-19 43.5z" />
<glyph unicode="&#x141;" d="M123 602v23l242 110v678h-185v21h410v-21h-203v-668l350 160v-22l-350 -160v-703h637v342h23v-362h-867v20h185v693z" />
<glyph unicode="&#x142;" horiz-adv-x="602" d="M49 651v23l246 139v649h-178v19h198v-658l246 140v-23l-246 -139v-783h181v-18h-379v18h178v773z" />
<glyph unicode="&#x143;" horiz-adv-x="1605" d="M123 0v20h184v1393h-184v21h209l944 -1399v1378h-193v21h400v-21h-185v-1413h-26l-942 1397v-1377h184v-20h-391zM745 1593l138 250h24l-139 -250h-23z" />
<glyph unicode="&#x144;" horiz-adv-x="1357" d="M111 0v18h178v988h-178v18h198v-258q34 123 144.5 200.5t255.5 77.5q172 0 276.5 -100.5t104.5 -267.5v-658h178v-18h-377v18h178v656q0 160 -98.5 255t-265.5 95q-166 0 -281 -105.5t-115 -259.5v-641h180v-18h-378zM635 1204l137 250h25l-140 -250h-22z" />
<glyph unicode="&#x145;" horiz-adv-x="1605" d="M123 0v20h184v1393h-184v21h209l944 -1399v1378h-193v21h400v-21h-185v-1413h-26l-942 1397v-1377h184v-20h-391zM735 -358q75 65 78 149q-12 -4 -22 -4q-21 0 -34.5 14t-13.5 37q0 21 14.5 36t35.5 15q23 0 38 -20t15 -49q0 -117 -94 -195z" />
<glyph unicode="&#x146;" horiz-adv-x="1357" d="M111 0v18h178v988h-178v18h198v-258q34 123 144.5 200.5t255.5 77.5q172 0 276.5 -100.5t104.5 -267.5v-658h178v-18h-377v18h178v656q0 160 -98.5 255t-265.5 95q-166 0 -281 -105.5t-115 -259.5v-641h180v-18h-378zM637 -358q75 65 78 149q-12 -4 -23 -4q-21 0 -34 14 t-13 37q0 21 14 36t35 15q23 0 38.5 -20t15.5 -49q0 -116 -95 -195z" />
<glyph unicode="&#x147;" horiz-adv-x="1605" d="M123 0v20h184v1393h-184v21h209l944 -1399v1378h-193v21h400v-21h-185v-1413h-26l-942 1397v-1377h184v-20h-391zM651 1851h25l178 -229l178 229h25l-191 -243h-24z" />
<glyph unicode="&#x148;" horiz-adv-x="1357" d="M111 0v18h178v988h-178v18h198v-258q34 123 144.5 200.5t255.5 77.5q172 0 276.5 -100.5t104.5 -267.5v-658h178v-18h-377v18h178v656q0 160 -98.5 255t-265.5 95q-166 0 -281 -105.5t-115 -259.5v-641h180v-18h-378zM541 1462h24l178 -229l179 229h24l-190 -243h-25z " />
<glyph unicode="&#x149;" horiz-adv-x="1357" d="M-33 1147q73 70 82 153q-12 -6 -26 -6q-22 0 -37 16t-15 40q0 21 16 36t38 15q25 0 43 -22t18 -54q0 -103 -96 -199zM111 0v18h178v988h-178v18h198v-258q34 123 144.5 200.5t255.5 77.5q172 0 276.5 -100.5t104.5 -267.5v-658h178v-18h-377v18h178v656q0 160 -98.5 255 t-265.5 95q-166 0 -281 -105.5t-115 -259.5v-641h180v-18h-378z" />
<glyph unicode="&#x14a;" horiz-adv-x="1607" d="M123 0v20h184v1393h-184v21h209l946 -1401v1380h-193v21h400v-21h-185v-1532q0 -126 -56 -197t-148 -71q-48 0 -90 10v21q50 -11 90 -11q81 0 131.5 65.5t50.5 184.5v111l-948 1403v-1377h184v-20h-391z" />
<glyph unicode="&#x14b;" horiz-adv-x="1302" d="M111 0v18h178v988h-178v18h198v-258q34 123 144.5 200.5t255.5 77.5q172 0 276.5 -100.5t104.5 -267.5v-795q0 -125 -56.5 -196.5t-148.5 -71.5q-48 0 -90 10v21q49 -11 90 -11q82 0 133 66t51 186v789q0 160 -98.5 255t-265.5 95q-166 0 -281 -105.5t-115 -259.5v-641 h180v-18h-378z" />
<glyph unicode="&#x14c;" horiz-adv-x="1593" d="M133 729q0 205 83.5 370.5t235.5 260t345 94.5t345 -94.5t235 -260t83 -370.5q0 -208 -83 -378.5t-235.5 -270.5t-344.5 -100t-345 100t-236 270.5t-83 378.5zM158 729q0 -201 78.5 -366t225.5 -262t335 -97t335 97t225.5 262t78.5 366q0 199 -78.5 358t-225 251 t-335.5 92t-335.5 -92t-225 -251t-78.5 -358zM526 1690v18h541v-18h-541z" />
<glyph unicode="&#x14d;" horiz-adv-x="1290" d="M135 520q0 231 145.5 377.5t364.5 146.5q220 0 365 -146.5t145 -377.5q0 -150 -65.5 -273.5t-182.5 -195t-262 -71.5t-262 71.5t-182.5 195t-65.5 273.5zM158 520q0 -144 61.5 -263t173.5 -188t252 -69t252 69t174 188t62 263q0 223 -138 363.5t-350 140.5 q-211 0 -349 -141t-138 -363zM369 1300v19h540v-19h-540z" />
<glyph unicode="&#x14e;" horiz-adv-x="1593" d="M133 729q0 205 83.5 370.5t235.5 260t345 94.5t345 -94.5t235 -260t83 -370.5q0 -208 -83 -378.5t-235.5 -270.5t-344.5 -100t-345 100t-236 270.5t-83 378.5zM158 729q0 -201 78.5 -366t225.5 -262t335 -97t335 97t225.5 262t78.5 366q0 199 -78.5 358t-225 251 t-335.5 92t-335.5 -92t-225 -251t-78.5 -358zM602 1802h21q0 -78 43.5 -127t130.5 -49t130.5 49t43.5 127h20q0 -87 -50 -140.5t-144 -53.5t-144.5 54t-50.5 140z" />
<glyph unicode="&#x14f;" horiz-adv-x="1290" d="M135 520q0 231 145.5 377.5t364.5 146.5q220 0 365 -146.5t145 -377.5q0 -150 -65.5 -273.5t-182.5 -195t-262 -71.5t-262 71.5t-182.5 195t-65.5 273.5zM158 520q0 -144 61.5 -263t173.5 -188t252 -69t252 69t174 188t62 263q0 223 -138 363.5t-350 140.5 q-211 0 -349 -141t-138 -363zM444 1413h21q0 -78 43.5 -127t130.5 -49t130.5 49t43.5 127h21q0 -86 -50.5 -140t-144.5 -54t-144.5 54t-50.5 140z" />
<glyph unicode="&#x150;" horiz-adv-x="1593" d="M133 729q0 205 83.5 370.5t235.5 260t345 94.5t345 -94.5t235 -260t83 -370.5q0 -208 -83 -378.5t-235.5 -270.5t-344.5 -100t-345 100t-236 270.5t-83 378.5zM158 729q0 -201 78.5 -366t225.5 -262t335 -97t335 97t225.5 262t78.5 366q0 199 -78.5 358t-225 251 t-335.5 92t-335.5 -92t-225 -251t-78.5 -358zM664 1606l133 237h24l-135 -237h-22zM874 1606l134 237h24l-135 -237h-23z" />
<glyph unicode="&#x151;" horiz-adv-x="1290" d="M135 520q0 231 145.5 377.5t364.5 146.5q220 0 365 -146.5t145 -377.5q0 -150 -65.5 -273.5t-182.5 -195t-262 -71.5t-262 71.5t-182.5 195t-65.5 273.5zM158 520q0 -144 61.5 -263t173.5 -188t252 -69t252 69t174 188t62 263q0 223 -138 363.5t-350 140.5 q-211 0 -349 -141t-138 -363zM506 1217l133 237h25l-136 -237h-22zM717 1217l133 237h24l-135 -237h-22z" />
<glyph unicode="&#x152;" horiz-adv-x="2238" d="M133 729q0 154 48 288t132.5 230t206.5 151.5t264 55.5q89 0 162 -20h1118v-322h-22v301h-1034q182 -72 291 -247t116 -408h541v-21h-541q0 -255 -111.5 -448.5t-302.5 -268.5h1051v322h23v-342h-1135q-70 -20 -156 -20q-188 0 -338 100t-231.5 270.5t-81.5 378.5z M158 729q0 -201 77.5 -366t221.5 -262t327 -97t323 99t212 262.5t72 363.5q0 199 -73.5 358t-212.5 251t-321 92q-184 0 -327.5 -91.5t-221 -251t-77.5 -358.5z" />
<glyph unicode="&#x153;" horiz-adv-x="2148" d="M135 520q0 227 140.5 375.5t355.5 148.5q190 0 319 -122.5t154 -317.5q26 192 160 316t307 124q127 0 229 -65.5t157.5 -175t55.5 -240.5v-20h-897q0 -241 131.5 -392t333.5 -151q123 0 233 64t173 172l16 -13q-64 -112 -179 -177.5t-247 -65.5q-186 0 -316 128.5 t-155 331.5q-17 -130 -79.5 -234t-166 -165t-229.5 -61q-141 0 -255 71.5t-177.5 195t-63.5 273.5zM158 520q0 -143 60 -262t169 -188.5t244 -69.5q132 0 238.5 70t165.5 188.5t59 261.5q0 216 -131 360t-332 144q-206 0 -339.5 -143t-133.5 -361zM1118 563h873 q0 194 -118.5 327.5t-305.5 133.5q-171 0 -304 -132.5t-145 -328.5z" />
<glyph unicode="&#x154;" horiz-adv-x="1236" d="M123 0v20h184v1393h-184v21h485q169 0 284.5 -100.5t115.5 -264.5q0 -165 -110 -269.5t-271 -107.5l417 -672h181v-20h-195l-426 690h-274v-670h221v-20h-428zM330 711h276q163 0 270 99t107 257q0 157 -108 251.5t-275 94.5h-270v-702zM563 1593l137 250h25l-139 -250 h-23z" />
<glyph unicode="&#x155;" horiz-adv-x="806" d="M111 0v18h178v988h-178v18h198v-303q25 137 117 230t205 93q63 0 119 -12v-24q-57 14 -123 14q-90 0 -164 -62.5t-114 -160t-40 -205.5v-576h213v-18h-411zM455 1204l137 250h24l-139 -250h-22z" />
<glyph unicode="&#x156;" horiz-adv-x="1236" d="M123 0v20h184v1393h-184v21h485q169 0 284.5 -100.5t115.5 -264.5q0 -165 -110 -269.5t-271 -107.5l417 -672h181v-20h-195l-426 690h-274v-670h221v-20h-428zM330 711h276q163 0 270 99t107 257q0 157 -108 251.5t-275 94.5h-270v-702zM590 -358q75 65 78 149 q-12 -4 -23 -4q-21 0 -34 14t-13 37q0 21 14 36t35 15q23 0 38 -20t15 -49q0 -117 -94 -195z" />
<glyph unicode="&#x157;" horiz-adv-x="806" d="M111 0v18h178v988h-178v18h198v-303q25 137 117 230t205 93q63 0 119 -12v-24q-57 14 -123 14q-90 0 -164 -62.5t-114 -160t-40 -205.5v-576h213v-18h-411zM256 -358q75 65 78 149q-12 -4 -23 -4q-21 0 -34 14t-13 37q0 21 14 36t35 15q23 0 38.5 -20t15.5 -49 q0 -116 -95 -195z" />
<glyph unicode="&#x158;" horiz-adv-x="1236" d="M123 0v20h184v1393h-184v21h485q169 0 284.5 -100.5t115.5 -264.5q0 -165 -110 -269.5t-271 -107.5l417 -672h181v-20h-195l-426 690h-274v-670h221v-20h-428zM330 711h276q163 0 270 99t107 257q0 157 -108 251.5t-275 94.5h-270v-702zM469 1851h25l178 -229l178 229h24 l-190 -243h-25z" />
<glyph unicode="&#x159;" horiz-adv-x="806" d="M111 0v18h178v988h-178v18h198v-303q25 137 117 230t205 93q63 0 119 -12v-24q-57 14 -123 14q-90 0 -164 -62.5t-114 -160t-40 -205.5v-576h213v-18h-411zM360 1462h25l178 -229l178 229h25l-191 -243h-24z" />
<glyph unicode="&#x15a;" horiz-adv-x="1105" d="M164 -10v383h16q33 -176 135 -272.5t263 -96.5q157 0 252.5 97.5t95.5 252.5q0 69 -32 128.5t-84 100.5t-118.5 81t-136.5 72t-136.5 72.5t-118.5 82.5t-84 102t-32 131q0 143 94 236.5t240 93.5q136 0 230 -83.5t133 -215.5v285h22v-367h-16q-32 161 -126 259t-237 98 q-144 0 -229.5 -85.5t-85.5 -218.5q0 -61 25.5 -113.5t68 -91.5t98.5 -74.5t117.5 -66.5t122.5 -62.5t117 -68t98.5 -77.5t68 -95.5t25.5 -118.5q0 -167 -103 -272.5t-265 -105.5q-148 0 -252.5 82.5t-143.5 222.5v-295h-22zM510 1593l137 250h25l-140 -250h-22z" />
<glyph unicode="&#x15b;" horiz-adv-x="970" d="M135 -12v315h17q25 -138 123 -219.5t247 -81.5q126 0 210.5 70.5t84.5 189.5q0 61 -28.5 107.5t-75.5 74.5t-106.5 52t-121.5 40.5t-121.5 40t-106 50t-74.5 70.5t-27 102q1 110 80.5 177.5t195.5 67.5q121 0 216 -60t134 -155v199h21v-270h-17q-24 119 -123.5 192.5 t-226.5 73.5q-108 0 -183 -61.5t-75 -161.5q0 -62 36.5 -107t95 -72t129 -48.5t141 -45.5t129 -54.5t95 -83t36.5 -124.5q0 -131 -92 -208.5t-226 -77.5q-137 0 -235 69t-131 180v-241h-21zM438 1204l137 250h25l-139 -250h-23z" />
<glyph unicode="&#x15c;" horiz-adv-x="1105" d="M164 -10v383h16q33 -176 135 -272.5t263 -96.5q157 0 252.5 97.5t95.5 252.5q0 69 -32 128.5t-84 100.5t-118.5 81t-136.5 72t-136.5 72.5t-118.5 82.5t-84 102t-32 131q0 143 94 236.5t240 93.5q136 0 230 -83.5t133 -215.5v285h22v-367h-16q-32 161 -126 259t-237 98 q-144 0 -229.5 -85.5t-85.5 -218.5q0 -61 25.5 -113.5t68 -91.5t98.5 -74.5t117.5 -66.5t122.5 -62.5t117 -68t98.5 -77.5t68 -95.5t25.5 -118.5q0 -167 -103 -272.5t-265 -105.5q-148 0 -252.5 82.5t-143.5 222.5v-295h-22zM354 1597l191 244h24l191 -244h-25l-178 230 l-178 -230h-25z" />
<glyph unicode="&#x15d;" horiz-adv-x="970" d="M135 -12v315h17q25 -138 123 -219.5t247 -81.5q126 0 210.5 70.5t84.5 189.5q0 61 -28.5 107.5t-75.5 74.5t-106.5 52t-121.5 40.5t-121.5 40t-106 50t-74.5 70.5t-27 102q1 110 80.5 177.5t195.5 67.5q121 0 216 -60t134 -155v199h21v-270h-17q-24 119 -123.5 192.5 t-226.5 73.5q-108 0 -183 -61.5t-75 -161.5q0 -62 36.5 -107t95 -72t129 -48.5t141 -45.5t129 -54.5t95 -83t36.5 -124.5q0 -131 -92 -208.5t-226 -77.5q-137 0 -235 69t-131 180v-241h-21zM283 1208l190 244h25l190 -244h-24l-179 230l-178 -230h-24z" />
<glyph unicode="&#x15e;" horiz-adv-x="1105" d="M164 -10v383h16q33 -176 135 -272.5t263 -96.5q157 0 252.5 97.5t95.5 252.5q0 69 -32 128.5t-84 100.5t-118.5 81t-136.5 72t-136.5 72.5t-118.5 82.5t-84 102t-32 131q0 143 94 236.5t240 93.5q136 0 230 -83.5t133 -215.5v285h22v-367h-16q-32 161 -126 259t-237 98 q-144 0 -229.5 -85.5t-85.5 -218.5q0 -61 25.5 -113.5t68 -91.5t98.5 -74.5t117.5 -66.5t122.5 -62.5t117 -68t98.5 -77.5t68 -95.5t25.5 -118.5q0 -167 -103 -272.5t-265 -105.5h-19l-20 -105q16 4 30 4q60 0 100 -36.5t40 -88.5q0 -57 -47.5 -96t-116.5 -39q-44 0 -82 19 l4 20q36 -18 76 -18q61 0 102 32t41 82q0 47 -35.5 77t-89.5 30q-23 0 -47 -8l25 129q-133 10 -227 91t-130 212v-295h-22z" />
<glyph unicode="&#x15f;" horiz-adv-x="970" d="M135 -12v315h17q25 -138 123 -219.5t247 -81.5q126 0 210.5 70.5t84.5 189.5q0 61 -28.5 107.5t-75.5 74.5t-106.5 52t-121.5 40.5t-121.5 40t-106 50t-74.5 70.5t-27 102q1 110 80.5 177.5t195.5 67.5q121 0 216 -60t134 -155v199h21v-270h-17q-24 119 -123.5 192.5 t-226.5 73.5q-108 0 -183 -61.5t-75 -161.5q0 -62 36.5 -107t95 -72t129 -48.5t141 -45.5t129 -54.5t95 -83t36.5 -124.5q0 -131 -92 -208.5t-226 -77.5q-23 0 -33 2l-20 -107q16 4 31 4q60 0 99.5 -36.5t39.5 -88.5q0 -57 -47.5 -96t-116.5 -39q-44 0 -82 19l4 20 q36 -18 76 -18q61 0 102 32t41 82q0 47 -35 77t-89 30q-24 0 -48 -8l25 129q-118 13 -200.5 80t-112.5 167v-241h-21z" />
<glyph unicode="&#x160;" horiz-adv-x="1105" d="M164 -10v383h16q33 -176 135 -272.5t263 -96.5q157 0 252.5 97.5t95.5 252.5q0 69 -32 128.5t-84 100.5t-118.5 81t-136.5 72t-136.5 72.5t-118.5 82.5t-84 102t-32 131q0 143 94 236.5t240 93.5q136 0 230 -83.5t133 -215.5v285h22v-367h-16q-32 161 -126 259t-237 98 q-144 0 -229.5 -85.5t-85.5 -218.5q0 -61 25.5 -113.5t68 -91.5t98.5 -74.5t117.5 -66.5t122.5 -62.5t117 -68t98.5 -77.5t68 -95.5t25.5 -118.5q0 -167 -103 -272.5t-265 -105.5q-148 0 -252.5 82.5t-143.5 222.5v-295h-22zM416 1851h24l178 -229l179 229h24l-190 -243h-25 z" />
<glyph unicode="&#x161;" horiz-adv-x="970" d="M135 -12v315h17q25 -138 123 -219.5t247 -81.5q126 0 210.5 70.5t84.5 189.5q0 61 -28.5 107.5t-75.5 74.5t-106.5 52t-121.5 40.5t-121.5 40t-106 50t-74.5 70.5t-27 102q1 110 80.5 177.5t195.5 67.5q121 0 216 -60t134 -155v199h21v-270h-17q-24 119 -123.5 192.5 t-226.5 73.5q-108 0 -183 -61.5t-75 -161.5q0 -62 36.5 -107t95 -72t129 -48.5t141 -45.5t129 -54.5t95 -83t36.5 -124.5q0 -131 -92 -208.5t-226 -77.5q-137 0 -235 69t-131 180v-241h-21zM344 1462h25l178 -229l178 229h25l-191 -243h-24z" />
<glyph unicode="&#x162;" horiz-adv-x="1198" d="M82 1079v355h1034v-355h-22v334h-484v-1393h205v-20h-207l-24 -125q16 4 30 4q60 0 100 -36.5t40 -88.5q0 -57 -47.5 -96t-116.5 -39q-44 0 -82 19l4 20q36 -18 76 -18q61 0 102 32t41 82q0 47 -35.5 77t-89.5 30q-23 0 -47 -8l29 147h-205v20h205v1393h-484v-334h-22z " />
<glyph unicode="&#x163;" horiz-adv-x="684" d="M90 1006v18h178v231h21v-231h258v-18h-258v-768q0 -105 48.5 -163.5t133.5 -58.5q46 0 115 15v-21q-65 -14 -117 -14q-19 0 -27 2l-24 -123q16 4 31 4q60 0 99.5 -36.5t39.5 -88.5q0 -57 -47.5 -96t-116.5 -39q-44 0 -82 19l4 20q36 -18 76 -18q61 0 102 32t41 82 q0 47 -35.5 77t-89.5 30q-23 0 -47 -8l29 147h4q-74 14 -116 76t-42 166v764h-178z" />
<glyph unicode="&#x164;" horiz-adv-x="1198" d="M82 1079v355h1034v-355h-22v334h-484v-1393h205v-20h-432v20h205v1393h-484v-334h-22zM459 1851h24l179 -229l178 229h24l-190 -243h-25z" />
<glyph unicode="&#x165;" horiz-adv-x="684" d="M90 1006v18h178v231h21v-231h258v-18h-258v-768q0 -105 48.5 -163.5t133.5 -58.5q46 0 115 15v-21q-65 -14 -117 -14q-92 0 -146.5 63.5t-54.5 182.5v764h-178zM522 1133l29 348h22l-30 -348h-21z" />
<glyph unicode="&#x166;" horiz-adv-x="1198" d="M82 1079v355h1034v-355h-22v334h-484v-680h299v-20h-299v-693h205v-20h-432v20h205v693h-299v20h299v680h-484v-334h-22z" />
<glyph unicode="&#x167;" horiz-adv-x="684" d="M90 633v18h178v355h-178v18h178v231h21v-231h258v-18h-258v-355h258v-18h-258v-395q0 -105 48.5 -163.5t133.5 -58.5q46 0 115 15v-21q-65 -14 -117 -14q-92 0 -146.5 63.5t-54.5 182.5v391h-178z" />
<glyph unicode="&#x168;" horiz-adv-x="1449" d="M70 1413v21h391v-21h-193v-954q0 -130 51 -231.5t156 -162.5t250 -61t250 61t156 162.5t51 231.5v954h-193v21h391v-21h-176v-952q0 -211 -126.5 -346t-352.5 -135t-352.5 135t-126.5 346v952h-176zM457 1651q3 63 37.5 100t91.5 37q34 0 73 -18.5t68.5 -40t68.5 -40 t72 -18.5q45 0 73.5 31t31.5 86h20q-3 -63 -37.5 -100t-91.5 -37q-43 0 -92.5 29t-98.5 58t-91 29q-45 0 -73.5 -30.5t-31.5 -85.5h-20z" />
<glyph unicode="&#x169;" horiz-adv-x="1308" d="M90 1006v18h199v-676q0 -157 92 -251.5t248 -94.5q157 0 269 110.5t112 254.5v639h-179v18h199v-1006h180v-18h-200v262q-36 -121 -141.5 -201.5t-243.5 -80.5q-160 0 -258.5 100.5t-98.5 263.5v662h-178zM371 1262q3 63 37.5 100t91.5 37q34 0 73 -18.5t68.5 -40 t68.5 -40t72 -18.5q45 0 73.5 31t31.5 86h20q-3 -63 -37.5 -100t-91.5 -37q-43 0 -92.5 29t-98.5 58t-91 29q-45 0 -73.5 -30.5t-31.5 -85.5h-20z" />
<glyph unicode="&#x16a;" horiz-adv-x="1449" d="M70 1413v21h391v-21h-193v-954q0 -130 51 -231.5t156 -162.5t250 -61t250 61t156 162.5t51 231.5v954h-193v21h391v-21h-176v-952q0 -211 -126.5 -346t-352.5 -135t-352.5 135t-126.5 346v952h-176zM453 1690v18h540v-18h-540z" />
<glyph unicode="&#x16b;" horiz-adv-x="1308" d="M90 1006v18h199v-676q0 -157 92 -251.5t248 -94.5q157 0 269 110.5t112 254.5v639h-179v18h199v-1006h180v-18h-200v262q-36 -121 -141.5 -201.5t-243.5 -80.5q-160 0 -258.5 100.5t-98.5 263.5v662h-178zM367 1300v19h540v-19h-540z" />
<glyph unicode="&#x16c;" horiz-adv-x="1449" d="M70 1413v21h391v-21h-193v-954q0 -130 51 -231.5t156 -162.5t250 -61t250 61t156 162.5t51 231.5v954h-193v21h391v-21h-176v-952q0 -211 -126.5 -346t-352.5 -135t-352.5 135t-126.5 346v952h-176zM528 1802h21q0 -78 43.5 -127t130.5 -49t130.5 49t43.5 127h21 q0 -86 -50.5 -140t-144.5 -54t-144.5 54t-50.5 140z" />
<glyph unicode="&#x16d;" horiz-adv-x="1308" d="M90 1006v18h199v-676q0 -157 92 -251.5t248 -94.5q157 0 269 110.5t112 254.5v639h-179v18h199v-1006h180v-18h-200v262q-36 -121 -141.5 -201.5t-243.5 -80.5q-160 0 -258.5 100.5t-98.5 263.5v662h-178zM442 1413h21q0 -78 43.5 -127t130.5 -49t130.5 49t43.5 127h20 q0 -87 -50 -140.5t-144 -53.5t-144.5 54t-50.5 140z" />
<glyph unicode="&#x16e;" horiz-adv-x="1449" d="M70 1413v21h391v-21h-193v-954q0 -130 51 -231.5t156 -162.5t250 -61t250 61t156 162.5t51 231.5v954h-193v21h391v-21h-176v-952q0 -211 -126.5 -346t-352.5 -135t-352.5 135t-126.5 346v952h-176zM588 1726q0 59 38 98.5t97 39.5t97 -39.5t38 -98.5q0 -62 -37.5 -101.5 t-97.5 -39.5t-97.5 39.5t-37.5 101.5zM606 1726q0 -54 32.5 -89t84.5 -35t84.5 35t32.5 89q0 52 -32.5 86.5t-84.5 34.5t-84.5 -34.5t-32.5 -86.5z" />
<glyph unicode="&#x16f;" horiz-adv-x="1308" d="M90 1006v18h199v-676q0 -157 92 -251.5t248 -94.5q157 0 269 110.5t112 254.5v639h-179v18h199v-1006h180v-18h-200v262q-36 -121 -141.5 -201.5t-243.5 -80.5q-160 0 -258.5 100.5t-98.5 263.5v662h-178zM502 1337q0 59 38 98.5t97 39.5t97 -39.5t38 -98.5 q0 -62 -37.5 -101.5t-97.5 -39.5t-97.5 39.5t-37.5 101.5zM520 1337q0 -54 32.5 -89.5t84.5 -35.5t84.5 35.5t32.5 89.5q0 52 -32.5 86.5t-84.5 34.5t-84.5 -34.5t-32.5 -86.5z" />
<glyph unicode="&#x170;" horiz-adv-x="1449" d="M70 1413v21h391v-21h-193v-954q0 -130 51 -231.5t156 -162.5t250 -61t250 61t156 162.5t51 231.5v954h-193v21h391v-21h-176v-952q0 -211 -126.5 -346t-352.5 -135t-352.5 135t-126.5 346v952h-176zM590 1606l133 237h25l-136 -237h-22zM801 1606l133 237h24l-135 -237 h-22z" />
<glyph unicode="&#x171;" horiz-adv-x="1308" d="M90 1006v18h199v-676q0 -157 92 -251.5t248 -94.5q157 0 269 110.5t112 254.5v639h-179v18h199v-1006h180v-18h-200v262q-36 -121 -141.5 -201.5t-243.5 -80.5q-160 0 -258.5 100.5t-98.5 263.5v662h-178zM504 1217l133 237h25l-136 -237h-22zM715 1217l133 237h24 l-135 -237h-22z" />
<glyph unicode="&#x172;" horiz-adv-x="1449" d="M70 1413v21h391v-21h-193v-954q0 -130 51 -231.5t156 -162.5t250 -61t250 61t156 162.5t51 231.5v954h-193v21h391v-21h-176v-952q0 -176 -90.5 -303t-255.5 -164q-164 -98 -164 -219q0 -60 39 -96.5t98 -36.5q65 0 123 45l11 -17q-58 -49 -138 -49q-64 0 -109.5 43 t-45.5 107q0 124 141 215q-43 -6 -88 -6q-226 0 -352.5 135t-126.5 346v952h-176z" />
<glyph unicode="&#x173;" horiz-adv-x="1308" d="M90 1006v18h199v-676q0 -157 92 -251.5t248 -94.5q157 0 269 110.5t112 254.5v639h-179v18h199v-1006h180v-18h-180q-174 -101 -174 -225q0 -60 39 -96.5t98 -36.5q65 0 123 45l10 -17q-58 -49 -137 -49q-64 0 -109.5 43t-45.5 107q0 71 48.5 131.5t127.5 103.5v256 q-36 -121 -141.5 -201.5t-243.5 -80.5q-160 0 -258.5 100.5t-98.5 263.5v662h-178z" />
<glyph unicode="&#x174;" horiz-adv-x="2107" d="M25 1413v21h426v-21h-236l403 -1395l424 1416h27l422 -1416l401 1395h-233v21h424v-21h-168l-408 -1417h-32l-420 1407l-420 -1407h-33l-412 1417h-165zM852 1597l190 244h25l190 -244h-24l-178 230l-178 -230h-25z" />
<glyph unicode="&#x175;" horiz-adv-x="1882" d="M20 1006v18h402v-18h-229l360 -990l375 1008h24l377 -1008l361 990h-232v18h404v-18h-150l-371 -1014h-24l-377 1005l-375 -1005h-24l-371 1014h-150zM743 1208l191 244h24l191 -244h-25l-178 230l-178 -230h-25z" />
<glyph unicode="&#x176;" horiz-adv-x="1263" d="M25 1413v21h383v-21h-201l424 -758l428 758h-201v21h381v-21h-156l-440 -778v-615h205v-20h-432v20h205v611l-439 782h-157zM430 1597l191 244h24l191 -244h-25l-178 230l-178 -230h-25z" />
<glyph unicode="&#x177;" horiz-adv-x="1191" d="M20 1006v18h390v-18h-215l397 -998l403 998h-213v18h389v-18h-153l-434 -1074q-64 -159 -137.5 -239t-176.5 -80q-44 0 -98 12v21q67 -13 104 -13q85 0 154.5 78t136.5 236l15 35l-410 1024h-152zM397 1208l191 244h24l191 -244h-25l-178 230l-178 -230h-25z" />
<glyph unicode="&#x178;" horiz-adv-x="1263" d="M25 1413v21h383v-21h-201l424 -758l428 758h-201v21h381v-21h-156l-440 -778v-615h205v-20h-432v20h205v611l-439 782h-157zM424 1714q0 19 12 32t31 13q20 0 33.5 -13t13.5 -32t-13.5 -32t-33.5 -13q-19 0 -31 13t-12 32zM752 1714q0 19 12 32t31 13q20 0 33.5 -13 t13.5 -32t-13.5 -32t-33.5 -13q-19 0 -31 13t-12 32z" />
<glyph unicode="&#x179;" horiz-adv-x="1171" d="M115 0v12l903 1401h-830v-334h-22v355h883v-13l-902 -1401h873v353h22v-373h-927zM539 1593l137 250h24l-139 -250h-22z" />
<glyph unicode="&#x17a;" horiz-adv-x="1054" d="M135 0v14l729 992h-676v-240h-20v258h725v-14l-729 -992h727v285h20v-303h-776zM477 1204l137 250h25l-139 -250h-23z" />
<glyph unicode="&#x17b;" horiz-adv-x="1171" d="M115 0v12l903 1401h-830v-334h-22v355h883v-13l-902 -1401h873v353h22v-373h-927zM535 1722q0 22 14 37t35 15q23 0 38 -15t15 -37t-15 -36.5t-38 -14.5q-22 0 -35.5 14.5t-13.5 36.5z" />
<glyph unicode="&#x17c;" horiz-adv-x="1054" d="M135 0v14l729 992h-676v-240h-20v258h725v-14l-729 -992h727v285h20v-303h-776zM473 1333q0 22 13.5 36.5t35.5 14.5q23 0 38 -14.5t15 -36.5t-15 -36.5t-38 -14.5q-22 0 -35.5 14.5t-13.5 36.5z" />
<glyph unicode="&#x17d;" horiz-adv-x="1171" d="M115 0v12l903 1401h-830v-334h-22v355h883v-13l-902 -1401h873v353h22v-373h-927zM444 1851h25l178 -229l178 229h25l-191 -243h-24z" />
<glyph unicode="&#x17e;" horiz-adv-x="1054" d="M135 0v14l729 992h-676v-240h-20v258h725v-14l-729 -992h727v285h20v-303h-776zM383 1462h25l178 -229l178 229h24l-190 -243h-25z" />
<glyph unicode="&#x192;" horiz-adv-x="927" d="M-82 -371l6 23q59 -19 117 -19q98 0 164.5 68t87.5 211l127 883h-172v20h174l41 295q47 332 282 332q56 0 121 -17l-4 -22q-60 18 -117 18q-217 0 -262 -329l-39 -277h261v-20h-263l-127 -885q-22 -155 -96 -226t-178 -71q-73 0 -123 16z" />
<glyph unicode="&#x1fa;" horiz-adv-x="1431" d="M25 0v20h165l506 1401q-51 6 -83.5 40.5t-32.5 80.5q0 48 38.5 82.5t96.5 34.5t96.5 -34.5t38.5 -82.5q0 -46 -33 -80.5t-84 -40.5l506 -1401h168v-20h-410v20h217l-180 508h-639l-180 -508h217v-20h-407zM403 549h623l-311 868zM598 1542q0 -45 33 -74.5t84 -29.5 t83.5 29.5t32.5 74.5q0 42 -33 71t-83 29t-83.5 -29t-33.5 -71zM672 1700l155 188h25l-160 -188h-20z" />
<glyph unicode="&#x1fb;" horiz-adv-x="1226" d="M158 295q0 137 111 224t286 87q145 0 246 -60.5t137 -152.5v301q0 154 -95.5 242t-267.5 88q-92 0 -188.5 -27.5t-169.5 -72.5l-10 18q171 102 373 102q175 0 276.5 -93t101.5 -253v-680h179v-18h-201l2 205q-31 -95 -134.5 -160t-254.5 -65q-168 0 -279.5 86.5 t-111.5 228.5zM180 297q0 -126 98.5 -211.5t276.5 -85.5q168 0 275.5 86.5t107.5 212.5q0 120 -107 203.5t-270 83.5q-174 0 -277.5 -81.5t-103.5 -207.5zM473 1270q0 59 38 98t97 39t97 -39t38 -98q0 -62 -37.5 -102t-97.5 -40t-97.5 40t-37.5 102zM492 1270q0 -55 32 -90 t84 -35t84.5 35.5t32.5 89.5q0 52 -32.5 86.5t-84.5 34.5t-84 -34.5t-32 -86.5zM563 1448l131 242h23l-133 -242h-21z" />
<glyph unicode="&#x1fc;" horiz-adv-x="1832" d="M0 0v20h158l817 1414h684v-328h-23v307h-624v-678h538v-20h-538v-695h635v310h22v-330h-887v20h207v695h-405l-402 -695h207v-20h-389zM594 733h395v682zM1092 1593l137 250h24l-139 -250h-22z" />
<glyph unicode="&#x1fd;" horiz-adv-x="1970" d="M158 295q0 137 111 224t288 87q146 0 246.5 -58.5t136.5 -146.5v238q0 165 -99 275t-266 110q-90 0 -187 -30t-171 -76l-10 18q177 108 373 108q163 0 266.5 -105.5t111.5 -268.5q41 168 163.5 271t275.5 103q190 0 314 -140.5t124 -340.5v-20h-877v-23 q0 -231 125.5 -375.5t323.5 -144.5q122 0 229 62.5t170 170.5l19 -10q-65 -113 -176.5 -178t-243.5 -65q-166 0 -286.5 102.5t-160.5 275.5v-49q-3 -139 -117 -234t-290 -95q-169 0 -281 86.5t-112 228.5zM180 297q0 -126 98.5 -211.5t276.5 -85.5q163 0 273 91.5t110 223.5 q0 114 -107.5 192.5t-269.5 78.5q-174 0 -277.5 -81.5t-103.5 -207.5zM936 1204l137 250h25l-140 -250h-22zM961 563h851q0 195 -117 328t-302 133q-107 0 -202.5 -58t-158 -165t-71.5 -238z" />
<glyph unicode="&#x1fe;" horiz-adv-x="1593" d="M133 729q0 205 83.5 370.5t235.5 260t345 94.5q266 0 448 -176l154 186l18 -14l-155 -188q95 -99 146.5 -236t51.5 -297q0 -208 -83 -378.5t-235.5 -270.5t-344.5 -100q-262 0 -445 180l-157 -191l-19 15l160 192q-97 103 -150 246.5t-53 306.5zM158 729 q0 -159 49.5 -296.5t142.5 -237.5l881 1065q-178 170 -434 170q-189 0 -335.5 -92t-225 -251t-78.5 -358zM367 178q174 -174 430 -174q188 0 335 97t225.5 262t78.5 366q0 154 -49.5 286.5t-139.5 227.5zM750 1593l137 250h24l-139 -250h-22z" />
<glyph unicode="&#x1ff;" horiz-adv-x="1290" d="M135 520q0 231 145.5 377.5t364.5 146.5q191 0 328 -112l96 117l16 -13l-96 -116q166 -153 166 -400q0 -150 -65.5 -273.5t-182.5 -195t-262 -71.5q-194 0 -332 122l-104 -127l-16 13l106 129q-78 75 -121 179t-43 224zM158 520q0 -116 40.5 -216t114.5 -171l648 782 q-131 109 -316 109q-211 0 -349 -141t-138 -363zM328 119q132 -119 317 -119q140 0 252 69t174 188t62 263q0 118 -41.5 216t-116.5 167zM592 1204l137 250h25l-140 -250h-22z" />
<glyph unicode="&#x218;" horiz-adv-x="1105" d="M164 -10v383h16q33 -176 135 -272.5t263 -96.5q157 0 252.5 97.5t95.5 252.5q0 69 -32 128.5t-84 100.5t-118.5 81t-136.5 72t-136.5 72.5t-118.5 82.5t-84 102t-32 131q0 143 94 236.5t240 93.5q136 0 230 -83.5t133 -215.5v285h22v-367h-16q-32 161 -126 259t-237 98 q-144 0 -229.5 -85.5t-85.5 -218.5q0 -61 25.5 -113.5t68 -91.5t98.5 -74.5t117.5 -66.5t122.5 -62.5t117 -68t98.5 -77.5t68 -95.5t25.5 -118.5q0 -167 -103 -272.5t-265 -105.5q-148 0 -252.5 82.5t-143.5 222.5v-295h-22zM506 -358q75 65 78 149q-12 -4 -23 -4 q-21 0 -34 14t-13 37q0 21 14 36t35 15q23 0 38 -20t15 -49q0 -117 -94 -195z" />
<glyph unicode="&#x219;" horiz-adv-x="970" d="M135 -12v315h17q25 -138 123 -219.5t247 -81.5q126 0 210.5 70.5t84.5 189.5q0 61 -28.5 107.5t-75.5 74.5t-106.5 52t-121.5 40.5t-121.5 40t-106 50t-74.5 70.5t-27 102q1 110 80.5 177.5t195.5 67.5q121 0 216 -60t134 -155v199h21v-270h-17q-24 119 -123.5 192.5 t-226.5 73.5q-108 0 -183 -61.5t-75 -161.5q0 -62 36.5 -107t95 -72t129 -48.5t141 -45.5t129 -54.5t95 -83t36.5 -124.5q0 -131 -92 -208.5t-226 -77.5q-137 0 -235 69t-131 180v-241h-21zM432 -358q75 65 78 149q-12 -4 -23 -4q-21 0 -34 14t-13 37q0 21 14 36t35 15 q23 0 38.5 -20t15.5 -49q0 -117 -94 -195z" />
<glyph unicode="&#x21a;" horiz-adv-x="1198" d="M82 1079v355h1034v-355h-22v334h-484v-1393h205v-20h-432v20h205v1393h-484v-334h-22zM547 -358q75 65 78 149q-12 -4 -23 -4q-21 0 -34 14t-13 37q0 21 14 36t35 15q23 0 38 -20t15 -49q0 -117 -94 -195z" />
<glyph unicode="&#x21b;" horiz-adv-x="684" d="M90 1006v18h178v231h21v-231h258v-18h-258v-768q0 -105 48.5 -163.5t133.5 -58.5q46 0 115 15v-21q-65 -14 -117 -14q-92 0 -146.5 63.5t-54.5 182.5v764h-178zM381 -358q75 65 78 149q-12 -4 -23 -4q-21 0 -34 14t-13 37q0 21 14 36t35 15q23 0 38.5 -20t15.5 -49 q0 -116 -95 -195z" />
<glyph unicode="&#x237;" horiz-adv-x="516" d="M8 -360q51 -7 90 -7q82 0 133.5 62t51.5 170v1141h-179v18h199v-1163q0 -114 -57 -181t-148 -67q-56 0 -90 6v21z" />
<glyph unicode="&#x2c6;" horiz-adv-x="610" d="M102 1208l191 244h24l191 -244h-25l-178 230l-178 -230h-25z" />
<glyph unicode="&#x2c7;" horiz-adv-x="610" d="M102 1462h25l178 -229l178 229h25l-191 -243h-24z" />
<glyph unicode="&#x2d8;" horiz-adv-x="675" d="M143 1413h21q0 -78 43.5 -127t130.5 -49t130.5 49t43.5 127h20q0 -87 -50 -140.5t-144 -53.5t-144.5 54t-50.5 140z" />
<glyph unicode="&#x2d9;" horiz-adv-x="389" d="M143 1333q0 22 14 36.5t36 14.5q23 0 38 -14.5t15 -36.5t-15 -36.5t-38 -14.5q-22 0 -36 14.5t-14 36.5z" />
<glyph unicode="&#x2da;" horiz-adv-x="557" d="M143 1337q0 59 38.5 98.5t97.5 39.5t97 -39.5t38 -98.5q0 -62 -37.5 -101.5t-97.5 -39.5t-98 39.5t-38 101.5zM162 1337q0 -54 32.5 -89.5t84.5 -35.5t84 35t32 90q0 52 -32 86.5t-84 34.5t-84.5 -34.5t-32.5 -86.5z" />
<glyph unicode="&#x2db;" horiz-adv-x="600" d="M164 -229q0 74 53 137t137 106l15 -10q-183 -102 -183 -229q0 -60 39.5 -96.5t98.5 -36.5q64 0 122 45l11 -17q-58 -49 -138 -49q-64 0 -109.5 43t-45.5 107z" />
<glyph unicode="&#x2dc;" horiz-adv-x="823" d="M143 1262q3 63 37.5 100t91.5 37q34 0 73 -18.5t69 -40t69 -40t72 -18.5q45 0 73 31t31 86h21q-3 -63 -37.5 -100t-91.5 -37q-43 0 -92.5 29l-99 58t-91.5 29q-45 0 -73 -30.5t-31 -85.5h-21z" />
<glyph unicode="&#x2dd;" horiz-adv-x="614" d="M123 1217l133 237h25l-136 -237h-22zM334 1217l133 237h25l-136 -237h-22z" />
<glyph unicode="&#x1e80;" horiz-adv-x="2107" d="M25 1413v21h426v-21h-236l403 -1395l424 1416h27l422 -1416l401 1395h-233v21h424v-21h-168l-408 -1417h-32l-420 1407l-420 -1407h-33l-412 1417h-165zM924 1823h24l137 -250h-22z" />
<glyph unicode="&#x1e81;" horiz-adv-x="1882" d="M20 1006v18h402v-18h-229l360 -990l375 1008h24l377 -1008l361 990h-232v18h404v-18h-150l-371 -1014h-24l-377 1005l-375 -1005h-24l-371 1014h-150zM815 1434h25l137 -250h-23z" />
<glyph unicode="&#x1e82;" horiz-adv-x="2107" d="M25 1413v21h426v-21h-236l403 -1395l424 1416h27l422 -1416l401 1395h-233v21h424v-21h-168l-408 -1417h-32l-420 1407l-420 -1407h-33l-412 1417h-165zM1008 1593l137 250h24l-139 -250h-22z" />
<glyph unicode="&#x1e83;" horiz-adv-x="1882" d="M20 1006v18h402v-18h-229l360 -990l375 1008h24l377 -1008l361 990h-232v18h404v-18h-150l-371 -1014h-24l-377 1005l-375 -1005h-24l-371 1014h-150zM899 1204l137 250h25l-139 -250h-23z" />
<glyph unicode="&#x1e84;" horiz-adv-x="2107" d="M25 1413v21h426v-21h-236l403 -1395l424 1416h27l422 -1416l401 1395h-233v21h424v-21h-168l-408 -1417h-32l-420 1407l-420 -1407h-33l-412 1417h-165zM846 1714q0 19 12 32t31 13q20 0 33.5 -13t13.5 -32t-13.5 -32t-33.5 -13q-19 0 -31 13t-12 32zM1174 1714 q0 19 12 32t31 13q20 0 33.5 -13t13.5 -32t-13.5 -32t-33.5 -13q-19 0 -31 13t-12 32z" />
<glyph unicode="&#x1e85;" horiz-adv-x="1882" d="M20 1006v18h402v-18h-229l360 -990l375 1008h24l377 -1008l361 990h-232v18h404v-18h-150l-371 -1014h-24l-377 1005l-375 -1005h-24l-371 1014h-150zM737 1325q0 19 12 32t31 13q20 0 33.5 -13t13.5 -32t-13.5 -32t-33.5 -13q-19 0 -31 13t-12 32zM1065 1325q0 19 12 32 t31 13q20 0 33.5 -13t13.5 -32t-13.5 -32t-33.5 -13q-19 0 -31 13t-12 32z" />
<glyph unicode="&#x1ef2;" horiz-adv-x="1263" d="M25 1413v21h383v-21h-201l424 -758l428 758h-201v21h381v-21h-156l-440 -778v-615h205v-20h-432v20h205v611l-439 782h-157zM502 1823h24l138 -250h-23z" />
<glyph unicode="&#x1ef3;" horiz-adv-x="1191" d="M20 1006v18h390v-18h-215l397 -998l403 998h-213v18h389v-18h-153l-434 -1074q-64 -159 -137.5 -239t-176.5 -80q-44 0 -98 12v21q67 -13 104 -13q85 0 154.5 78t136.5 236l15 35l-410 1024h-152zM469 1434h25l137 -250h-23z" />
<glyph unicode="&#x2000;" horiz-adv-x="945" />
<glyph unicode="&#x2001;" horiz-adv-x="1890" />
<glyph unicode="&#x2002;" horiz-adv-x="945" />
<glyph unicode="&#x2003;" horiz-adv-x="1890" />
<glyph unicode="&#x2004;" horiz-adv-x="630" />
<glyph unicode="&#x2005;" horiz-adv-x="472" />
<glyph unicode="&#x2006;" horiz-adv-x="315" />
<glyph unicode="&#x2007;" horiz-adv-x="315" />
<glyph unicode="&#x2008;" horiz-adv-x="236" />
<glyph unicode="&#x2009;" horiz-adv-x="378" />
<glyph unicode="&#x200a;" horiz-adv-x="105" />
<glyph unicode="&#x2010;" horiz-adv-x="727" d="M102 586v22h523v-22h-523z" />
<glyph unicode="&#x2011;" horiz-adv-x="727" d="M102 586v22h523v-22h-523z" />
<glyph unicode="&#x2012;" horiz-adv-x="727" d="M102 586v22h523v-22h-523z" />
<glyph unicode="&#x2013;" horiz-adv-x="1163" d="M102 586v20h959v-20h-959z" />
<glyph unicode="&#x2014;" horiz-adv-x="1726" d="M102 586v20h1522v-20h-1522z" />
<glyph unicode="&#x2018;" horiz-adv-x="364" d="M123 1307q0 102 96 198l23 -20q-73 -70 -82 -154q12 6 26 6q22 0 37 -15.5t15 -39.5q0 -21 -16 -36t-38 -15q-25 0 -43 22t-18 54z" />
<glyph unicode="&#x2019;" horiz-adv-x="364" d="M123 1249q73 70 82 154q-12 -6 -27 -6q-22 0 -36.5 15.5t-14.5 39.5q0 22 15.5 36.5t37.5 14.5q25 0 43.5 -22t18.5 -54q0 -101 -97 -198z" />
<glyph unicode="&#x201a;" horiz-adv-x="364" d="M123 -141q73 70 82 153q-12 -6 -27 -6q-22 0 -36.5 15.5t-14.5 39.5q0 22 15.5 37t37.5 15q25 0 43.5 -22t18.5 -54q0 -102 -97 -199z" />
<glyph unicode="&#x201c;" horiz-adv-x="581" d="M123 1307q0 102 96 198l23 -20q-73 -70 -82 -154q12 6 26 6q22 0 37 -15.5t15 -39.5q0 -21 -16 -36t-38 -15q-25 0 -43 22t-18 54zM340 1307q0 102 96 198l23 -20q-73 -70 -82 -154q12 6 26 6q22 0 37 -15.5t15 -39.5q0 -21 -16 -36t-38 -15q-25 0 -43 22t-18 54z" />
<glyph unicode="&#x201d;" horiz-adv-x="581" d="M123 1249q73 70 82 154q-12 -6 -27 -6q-22 0 -36.5 15.5t-14.5 39.5q0 22 15.5 36.5t37.5 14.5q25 0 43.5 -22t18.5 -54q0 -101 -97 -198zM340 1249q73 70 82 154q-12 -6 -27 -6q-22 0 -36.5 15.5t-14.5 39.5q0 22 15.5 36.5t37.5 14.5q25 0 43.5 -22t18.5 -54 q0 -101 -97 -198z" />
<glyph unicode="&#x201e;" horiz-adv-x="581" d="M123 -143q73 70 82 153q-12 -6 -27 -6q-22 0 -36.5 15.5t-14.5 39.5q0 22 15.5 37t37.5 15q25 0 43.5 -22t18.5 -54q0 -102 -97 -199zM340 -143q73 70 82 153q-12 -6 -27 -6q-22 0 -36.5 15.5t-14.5 39.5q0 22 15.5 37t37.5 15q25 0 43.5 -22t18.5 -54q0 -102 -97 -199z " />
<glyph unicode="&#x2020;" horiz-adv-x="909" d="M143 985v19h301v430h21v-430h301v-19h-301v-1098h-21v1098h-301z" />
<glyph unicode="&#x2021;" horiz-adv-x="909" d="M143 444v19h301v522h-301v19h301v430h21v-430h301v-19h-301v-522h301v-19h-301v-557h-21v557h-301z" />
<glyph unicode="&#x2022;" horiz-adv-x="794" d="M225 672q0 68 53 120t119 52q69 0 120.5 -51.5t51.5 -120.5t-51.5 -120.5t-120.5 -51.5q-66 0 -119 52t-53 120z" />
<glyph unicode="&#x2026;" horiz-adv-x="1228" d="M123 57q0 25 18.5 43.5t42.5 18.5q25 0 43.5 -18.5t18.5 -43.5t-18.5 -43t-43.5 -18q-24 0 -42.5 18.5t-18.5 42.5zM553 57q0 25 18.5 43.5t42.5 18.5q25 0 43.5 -18.5t18.5 -43.5t-18.5 -43t-43.5 -18q-24 0 -42.5 18.5t-18.5 42.5zM983 57q0 25 18.5 43.5t42.5 18.5 q25 0 43.5 -18.5t18.5 -43.5t-18.5 -43t-43.5 -18q-24 0 -42.5 18.5t-18.5 42.5z" />
<glyph unicode="&#x202f;" horiz-adv-x="378" />
<glyph unicode="&#x2030;" horiz-adv-x="2035" d="M131 1165q0 127 56 200t163 73t163 -73t56 -200q0 -132 -55 -208t-164 -76t-164 76t-55 208zM154 1165q0 -264 196 -264q101 0 149 69.5t48 194.5q0 120 -48.5 186t-148.5 66t-148 -66t-48 -186zM180 0l1012 1434h27l-1012 -1434h-27zM840 281q0 127 56 199.5t163 72.5 t163 -72.5t56 -199.5q0 -132 -55 -208.5t-164 -76.5t-164 76.5t-55 208.5zM862 281q0 -125 48 -195t149 -70t148.5 70t47.5 195q0 120 -48 185.5t-148 65.5t-148.5 -66t-48.5 -185zM1466 281q0 127 56.5 199.5t163.5 72.5t163 -72.5t56 -199.5q0 -132 -55 -208.5t-164 -76.5 t-164.5 76.5t-55.5 208.5zM1489 281q0 -125 48 -195t149 -70t148.5 70t47.5 195q0 120 -48 185.5t-148 65.5t-148.5 -66t-48.5 -185z" />
<glyph unicode="&#x2039;" horiz-adv-x="493" d="M115 588l274 356h27l-275 -356l275 -355h-27z" />
<glyph unicode="&#x203a;" horiz-adv-x="493" d="M78 233l274 357l-274 354h26l275 -354l-275 -357h-26z" />
<glyph unicode="&#x2044;" horiz-adv-x="854" d="M0 -84l831 1602h23l-831 -1602h-23z" />
<glyph unicode="&#x205f;" horiz-adv-x="472" />
<glyph unicode="&#x2074;" horiz-adv-x="772" d="M90 915v11l379 512h16v-504h156v-19h-156v-233h156v-18h-342v18h166v233h-375zM121 934h344v465z" />
<glyph unicode="&#x20ac;" horiz-adv-x="1327" d="M57 590l4 20h209q-6 61 -6 127q0 41 4 115h-211l4 20h209q27 265 155 423.5t333 158.5q145 0 250.5 -83t152.5 -222v285h23v-342h-19q-45 155 -151.5 247.5t-251.5 92.5q-198 0 -320 -151.5t-149 -408.5h629l-4 -20h-627q-4 -74 -4 -115q0 -65 6 -127h581l-4 -20h-575 q13 -129 49.5 -234t96.5 -183.5t147.5 -121.5t197.5 -43q136 0 245 77t159 202l22 -8q-54 -131 -167.5 -212t-256.5 -81q-153 0 -265 79.5t-172.5 212.5t-78.5 312h-215z" />
<glyph unicode="&#x2116;" horiz-adv-x="2363" d="M123 0v20h184v1393h-184v21h209l944 -1399v1378h-193v21h400v-21h-185v-1413h-26l-942 1397v-1377h184v-20h-391zM1647 1133q0 136 85 224.5t216 88.5t216 -88.5t85 -224.5q0 -138 -85.5 -234t-215.5 -96t-215.5 96t-85.5 234zM1665 606v21h565v-21h-565zM1669 1133 q0 -131 79 -220.5t200 -89.5t199.5 89.5t78.5 220.5q0 128 -77.5 210t-200.5 82t-201 -82t-78 -210z" />
<glyph unicode="&#x2122;" horiz-adv-x="1828" d="M127 1284v197h532v-197h-20v178h-236v-643h142v-16h-303v16h141v643h-236v-178h-20zM764 803v18h115v641h-115v19h147l306 -559l305 559h147v-19h-115v-641h115v-18h-262v18h127v639l-307 -561h-21l-307 561v-639h115v-18h-250z" />
<glyph unicode="&#x2212;" horiz-adv-x="1132" d="M123 639v18h887v-18h-887z" />
<glyph unicode="&#x25fc;" horiz-adv-x="1024" d="M0 0v1024h1024v-1024h-1024z" />
<glyph unicode="&#xf6c3;" horiz-adv-x="0" d="M-254 -358q75 65 78 149q-12 -4 -23 -4q-21 0 -34 14t-13 37q0 21 14 36t35 15q23 0 38.5 -20t15.5 -49q0 -116 -95 -195z" />
<glyph horiz-adv-x="727" d="M102 709v22h523v-22h-523z" />
<glyph horiz-adv-x="1163" d="M102 709v20h959v-20h-959z" />
<glyph horiz-adv-x="1726" d="M102 709v20h1522v-20h-1522z" />
<glyph horiz-adv-x="759" d="M115 702l274 357h27l-275 -357l275 -354h-27zM381 702l274 357h27l-274 -357l274 -354h-27z" />
<glyph horiz-adv-x="759" d="M78 332l274 356l-274 354h26l275 -354l-275 -356h-26zM344 332l274 356l-274 354h27l274 -354l-274 -356h-27z" />
<glyph horiz-adv-x="493" d="M115 711l274 356h27l-275 -356l275 -355h-27z" />
<glyph horiz-adv-x="493" d="M78 356l274 357l-274 354h26l275 -354l-275 -357h-26z" />
<glyph horiz-adv-x="532" d="M143 717q0 230 83.5 462t230.5 431l14 -13q-143 -195 -224 -423.5t-81 -456.5t81 -457t224 -424l-14 -12q-147 199 -230.5 431t-83.5 462z" />
<glyph horiz-adv-x="532" d="M61 -164q143 196 224.5 424.5t81.5 456.5t-81.5 456t-224.5 424l15 13q146 -199 229.5 -430.5t83.5 -462.5t-83.5 -462.5t-229.5 -430.5z" />
<glyph horiz-adv-x="520" d="M225 -176v1786h213v-19h-192v-1749h192v-18h-213z" />
<glyph horiz-adv-x="520" d="M82 -158h192v1749h-192v19h213v-1786h-213v18z" />
<glyph horiz-adv-x="557" d="M143 700v33q144 18 144 230v446q0 89 48 142t140 53v-19q-81 0 -124.5 -48.5t-43.5 -123.5v-455q0 -108 -38 -169.5t-111 -71.5q73 -10 111 -72t38 -170v-455q0 -75 43.5 -123.5t124.5 -48.5v-18q-92 0 -140 53t-48 142v446q0 211 -144 229z" />
<glyph horiz-adv-x="634" d="M307 -305v1964h21v-1964h-21z" />
<glyph horiz-adv-x="557" d="M82 -152q81 0 124.5 48.5t43.5 123.5v455q0 108 38 170t111 72q-73 10 -111 71.5t-38 169.5v455q0 75 -43.5 123.5t-124.5 48.5v19q92 0 140 -53t48 -142v-446q0 -212 144 -230v-33q-144 -18 -144 -229v-446q0 -89 -48 -142t-140 -53v18z" />
<glyph horiz-adv-x="692" d="M49 -160l621 1757h22l-620 -1757h-23z" />
<glyph horiz-adv-x="692" d="M0 1597h23l620 -1757h-22z" />
<glyph horiz-adv-x="532" d="M209 1413q0 25 16 41t41 16t41.5 -16t16.5 -41t-16.5 -41t-41.5 -16t-41 16t-16 41zM256 -23v1170h20v-1170h-20z" />
<glyph horiz-adv-x="856" d="M115 350q0 68 21 128t55 105.5t74.5 87t81.5 81.5t75 80.5t55 91.5t21 108v121h20v-121q0 -59 -21 -112.5t-54.5 -95t-74.5 -81.5t-81.5 -81t-74 -85t-54.5 -102t-21 -123q0 -152 89 -251t243 -99q120 0 203 66t125 163l18 -8q-43 -103 -131 -172t-217 -69 q-161 0 -256.5 104.5t-95.5 263.5zM455 1425q0 25 16.5 41.5t42.5 16.5q24 0 39.5 -16.5t15.5 -41.5t-15 -41t-40 -16q-26 0 -42.5 16t-16.5 41z" />
<glyph horiz-adv-x="450" d="M164 707q0 24 18.5 42.5t42.5 18.5q25 0 43.5 -18t18.5 -43t-18.5 -43.5t-43.5 -18.5q-23 0 -42 18.5t-19 43.5z" />
<glyph horiz-adv-x="794" d="M225 745q0 68 53.5 120.5t118.5 52.5q69 0 120.5 -52t51.5 -121t-51.5 -120.5t-120.5 -51.5q-66 0 -119 52t-53 120z" />
<glyph horiz-adv-x="1142" d="M164 727q0 115 6.5 204.5t23 175.5t46 146.5t74 107.5t109 70t148.5 23t149 -23t109 -70t74 -108t46.5 -146.5t23 -175t6.5 -204.5q0 -142 -9.5 -247.5t-36 -202.5t-71 -158t-118 -97t-173.5 -36q-84 0 -148.5 23.5t-109 71.5t-74 110t-46 149.5t-23 178.5t-6.5 208z M186 727q0 -96 4 -173t15 -154t29 -134.5t47.5 -108t69.5 -82.5t95.5 -50.5t124.5 -18.5t124.5 18.5t95.5 50.5t69.5 82.5t47.5 108t29 134.5t15 154t4 173q0 95 -4 170t-15 150.5t-29 132t-47.5 106t-69.5 81t-95.5 49.5t-124.5 18t-124.5 -18t-95.5 -49.5t-69.5 -81 t-47.5 -106t-29 -132t-15 -150.5t-4 -170z" />
<glyph horiz-adv-x="1142" d="M193 1145l450 297l25 -6v-1418h364v-18h-782v18h397v1403l-444 -293z" />
<glyph horiz-adv-x="1142" d="M172 0v12q0 99 39 192.5t101.5 169t138 148t151.5 141t138.5 135t101.5 143t39 153.5q0 145 -87.5 242.5t-234.5 97.5q-129 0 -225.5 -86.5t-130.5 -210.5l-21 6q38 132 139 221.5t240 89.5q153 0 247.5 -103.5t94.5 -254.5q0 -80 -39 -158.5t-101 -146t-137 -136.5 t-150.5 -140.5t-138 -145t-102 -165t-40.5 -186.5h696v324h20v-342h-739z" />
<glyph horiz-adv-x="1142" d="M147 276l21 7q39 -128 135.5 -205.5t231.5 -77.5q166 0 278.5 112.5t112.5 282.5q0 179 -122 281t-343 102h-45l-4 10l477 627h-670v-262h-20v281h710v-23l-465 -612h27q222 0 349.5 -109.5t127.5 -292.5q0 -180 -118.5 -298.5t-294.5 -118.5q-144 0 -246 81.5 t-142 214.5z" />
<glyph horiz-adv-x="1142" d="M102 455v12l684 971h17v-965h213v-18h-213v-437h213v-18h-475v18h241v437h-680zM131 473h651v926z" />
<glyph horiz-adv-x="1142" d="M147 270l21 6q42 -123 138.5 -199.5t246.5 -76.5q173 0 284 123t111 307q0 182 -110 301t-293 119q-86 0 -169 -36.5t-136 -86.5l-21 8l43 699h617v-252h-21v233h-577l-41 -663q55 49 139.5 83.5t169.5 34.5q188 0 305 -125t117 -313q0 -194 -117.5 -323t-300.5 -129 q-156 0 -260.5 81t-145.5 209z" />
<glyph horiz-adv-x="1142" d="M160 518v94q0 259 49 444t157.5 291.5t270.5 106.5q164 0 299 -88l-10 -18q-58 39 -135.5 62.5t-153.5 23.5q-459 0 -459 -883q29 151 143.5 242.5t266.5 91.5q186 0 296.5 -124t110.5 -317q0 -101 -25 -185t-74.5 -146.5t-128 -97.5t-179.5 -35q-204 0 -316 144.5 t-112 393.5zM186 461q0 -92 25.5 -174t74.5 -147t127 -102.5t175 -37.5q190 0 287.5 121.5t97.5 320.5q0 187 -104 304.5t-283 117.5q-78 0 -150 -28.5t-127.5 -79t-89 -127.5t-33.5 -168z" />
<glyph horiz-adv-x="1142" d="M162 1092v342h850v-11l-598 -1423h-25l598 1415h-805v-323h-20z" />
<glyph horiz-adv-x="1142" d="M164 385q0 85 29 155t77 114t104.5 70.5t117.5 35.5q-53 10 -102 36t-89.5 68t-65 105.5t-24.5 138.5q0 154 100 250t260 96t260.5 -96t100.5 -250q0 -75 -24.5 -138.5t-65 -105.5t-89.5 -68t-102 -36q61 -9 117.5 -35.5t104.5 -70.5t77 -114t29 -155q0 -175 -111 -290 t-297 -115t-296.5 115t-110.5 290zM186 385q0 -167 103.5 -276t281.5 -109t281.5 109t103.5 276q0 165 -108.5 265t-276.5 100t-276.5 -100t-108.5 -265zM233 1108q0 -149 95 -244.5t243 -95.5t243 95.5t95 244.5q0 145 -93 235.5t-245 90.5t-245 -90.5t-93 -235.5z" />
<glyph horiz-adv-x="1142" d="M162 1028q0 190 109 308t292 118q185 0 290 -132t105 -355v-93q0 -205 -22.5 -361.5t-73 -279.5t-139.5 -188t-215 -65q-85 0 -165 27.5t-136 70.5l12 18q53 -41 131.5 -68.5t155.5 -27.5q121 0 206 63.5t134.5 188t71.5 290t22 388.5q-20 -148 -124.5 -246t-266.5 -98 q-175 0 -281 126.5t-106 315.5zM184 1028q0 -180 99 -301t270 -121q118 0 205.5 58t130.5 150.5t43 205.5q0 176 -101 295t-266 119q-177 0 -279 -113.5t-102 -292.5z" />
</font>
</defs>
</svg>
