<svg version="1.1" id="Layer_1" xmlns="http://www.w3.org/2000/svg" xmlns:xlink="http://www.w3.org/1999/xlink" x="0px" y="0px"
	 viewBox="0 0 512 165.7" style="enable-background:new 0 0 512 165.7;" xml:space="preserve" class="logo">
    <g>
        <path d="M140.3,8.3v49.4h-4.1c-3.1-12.9-6.5-22.8-14.9-29.6c-8.4-6.9-17.9-10.3-28.6-10.3c-8.9,0-17.1,2.6-24.5,7.7
            C60.8,30.6,55.4,37.3,52,45.5c-4.4,10.6-6.6,22.4-6.6,35.3c0,12.8,1.6,24.4,4.8,34.8c3.2,10.5,8.3,18.4,15.1,23.8
            c6.9,5.4,15.8,8,26.7,8c9,0,17.1-2.1,24.6-5.9c10.2-5.2,17.7-11.5,23.6-20.3c1.1-1.5,3.3-1.7,4.6-0.9c1.4,0.8,1.6,2.9,1,4.2
            c-5.3,10.2-17.3,21.3-30.6,27.1c-8.6,3.8-18.8,5.6-30.3,5.6c-15.2,0-28.7-3-40.5-9.1c-11.8-6.1-20.9-14.9-27.3-26.3
            c-6.4-11.4-9.6-23.6-9.6-36.5c0-13.6,3.6-26.5,10.7-38.7C25.3,34.6,34.9,25.1,47,18.4S71.9,8.3,85.5,8.3c10,0,20.6,2.2,31.7,6.5
            c6.4,2.5,8.2,3.8,10,3.8c2.2,0,4.2-0.8,5.8-2.5c1.6-1.6,2.7-4.3,3.2-7.8H140.3z"/>
        <path d="M196.3,8.5v122.3c0,6.9,0.8,11.4,2.4,13.3c1.6,1.9,4.8,3,9.5,3.3v6.8h-53.1v-6.8c4.3-0.1,7.6-1.4,9.7-3.8
            c1.4-1.6,2.1-5.9,2.1-12.8V32c0-6.9,0-12.7-2.3-15.9c-1.5-2-4.8-3.5-9.4-3.8V8.5H196.3z"/>
        <path d="M272.8,139.8c-11.1,10.9-22.7,17.3-32.3,17.3c-5.6,0-10.3-1.9-14-5.6c-3.7-3.7-5.6-8.4-5.6-14c0-7.6,3.2-14.5,9.7-20.6
            c6.4-6.1,20.5-14.2,42.1-24.3v-10c0-7.5-0.4-12.3-1.2-14.3c-0.8-2-2.3-3.7-4.6-5.1c-2.2-1.5-4.8-2.2-7.6-2.2c-4.6,0-8.3,1-11.2,3.1
            c-1.8,1.3-2.7,2.8-2.7,4.5c0,1.5,1,3.3,2.9,5.6c2.7,3.1,4,6,4,8.9c0,3.5-1.3,6.5-3.8,8.9c-2.6,2.5-5.9,3.7-10,3.7
            c-4.4,0-8.1-1.4-11.1-4.1c-3-2.7-4.5-5.9-4.5-9.5c0-5.1,2-10,6-14.7c4-4.7,9.6-8.2,16.7-10.7c7.1-2.5,14.6-3.7,22.3-3.7
            c9.3,0,16.7,2,22.1,6c5.4,4,9,8.4,10.6,13.1c1,3,1.5,9.9,1.5,20.6v38.8c0,4.6,0.2,7.4,0.5,8.6c0.4,1.2,0.9,2,1.6,2.6
            c0.7,0.6,1.5,0.9,2.4,0.9c1.8,0,3.8-1.4,5.6-4c0.5-0.7,1.8-1,2.8-0.3c0.8,0.7,1,1.7,0.4,2.8c-2.3,4.5-6.8,9.2-10.9,11.5
            c-3.9,2.2-8,3.6-12.8,3.6c-5.6,0-10-1.3-13.1-4C275.4,150.4,273.5,145.2,272.8,139.8z M272.8,132.1V99.8
            c-8.5,5.1-14.8,10.5-18.9,16.2c-2.7,3.8-4.1,7.7-4.1,11.6c0,3.3,1.2,6.2,3.5,8.6c1.8,1.9,4.2,2.9,7.4,2.9
            C264.1,139.2,269.4,136.2,272.8,132.1z"/>
        <path d="M412.6,55.8v73.9c0,7.5,0.7,12.2,2,14c1.4,1.9,4.1,3,8.3,3.5v6.8h-39v-14.3c-3.8,6.2-9.2,10.9-13.7,13.4
            c-4.6,2.6-9.7,3.8-15.4,3.8c-5.4,0-10.2-1.7-14.4-5.1s-7-7.4-8.5-11.9c-1.4-4.6-2.2-12.5-2.2-23.9v-39c0-7.4-0.7-12.1-2-13.9
            c-1.3-1.8-4.1-3-8.4-3.6v-3.9h39V123c0,7,0.3,11.5,1,13.6c0.6,2,1.7,3.6,3.1,4.6c1.4,1.1,3,1.6,4.9,1.6c2.5,0,4.7-0.7,6.7-2
            c2.7-1.8,6.1-4.5,9.8-12.1V77.2c0-7.4-0.7-12.1-2-13.9c-1.3-1.8-4.1-3-8.4-3.6v-3.9H412.6z"/>
        <path d="M497.8,53.1v33.5h-3.6c-2.7-10.9-7.1-16.7-11.7-20.4c-4.6-3.6-9.2-5.5-13.7-5.5c-2.9,0-5.3,1-7.4,2.9c-2,1.9-3,4.2-3,6.7
            c0,1.9,0.7,3.7,2.1,5.5c2.2,2.9,8.5,7.8,18.8,14.8c10.3,7,17.1,12.9,20.3,17.8c3.3,4.9,4.9,10.3,4.9,16.3c0,5.5-1.4,10.8-4.1,16.1
            c-2.7,5.3-6.6,9.3-11.6,12.1s-10.5,4.2-16.5,4.2c-10.8,0-18.4-8.2-23.1-8.2c-3.4,0-7.2,1.8-8.8,5.3H437v-35.3h3.6
            c3.2,9.2,8.8,18.8,14.3,23.4c5.5,4.6,10.7,6.9,15.6,6.9c3.4,0,6.1-1,8.3-3.1c2.1-2.1,3.2-4.6,3.2-7.5c0-3.4-1.1-6.3-3.2-8.7
            c-2.1-2.5-6.8-6.2-14.1-11.1c-10.7-7.4-17.7-12.4-20.9-16.4c-4.6-5.7-8.6-12.6-8.8-19.5c-0.3-9.3,4.3-16.2,9.1-21.1
            c5.6-5.6,13.4-8.8,23.3-8.8c5.3,0,10.5,1.3,15.5,3.9c1.9,1.1,3.4,1.6,4.6,1.6c1.3,0,2.3-0.3,3-0.8c0.8-0.5,2-2,3.7-4.5H497.8z"/>
    </g>
</svg>
