<svg xmlns="http://www.w3.org/2000/svg" version="1.1" width="1024" height="732">
<rect x="0" y="0" width="1024" height="732" fill="#44403c" />
<g transform="scale(4.000000) translate(0.5 0.5)">
<polygon fill="#ffc589" fill-opacity="0.501961" points="123,43 110,141 42,85" />
<polygon fill="#ffdb97" fill-opacity="0.501961" points="160,190 172,98 221,153" />
<polygon fill="#081826" fill-opacity="0.501961" points="231,111 14,-2 271,-1" />
<polygon fill="#ffb07e" fill-opacity="0.501961" points="192,111 158,151 219,198" />
<polygon fill="#ffffd5" fill-opacity="0.501961" points="101,83 72,89 97,128" />
<polygon fill="#846c49" fill-opacity="0.501961" points="49,38 88,71 30,149" />
<polygon fill="#00192a" fill-opacity="0.501961" points="28,138 -16,8 47,-16" />
<polygon fill="#0d1924" fill-opacity="0.501961" points="73,84 62,-6 98,82" />
<polygon fill="#061828" fill-opacity="0.501961" points="180,85 149,179 127,59" />
<polygon fill="#7f6044" fill-opacity="0.501961" points="101,91 95,198 151,104" />
<polygon fill="#071b2a" fill-opacity="0.501961" points="81,110 103,194 -15,188" />
<polygon fill="#081724" fill-opacity="0.501961" points="261,192 203,147 232,97" />
<polygon fill="#ffba80" fill-opacity="0.501961" points="92,112 97,48 125,52" />
<polygon fill="#151f27" fill-opacity="0.501961" points="185,198 127,185 104,109" />
<polygon fill="#ffdca5" fill-opacity="0.501961" points="210,138 161,131 169,115" />
<polygon fill="#ffcd81" fill-opacity="0.501961" points="110,101 117,124 128,118" />
<polygon fill="#be8c5f" fill-opacity="0.501961" points="70,122 79,80 40,29" />
<polygon fill="#9e9574" fill-opacity="0.501961" points="122,150 117,196 92,154" />
<polygon fill="#563c2b" fill-opacity="0.501961" points="214,120 164,28 173,118" />
<polygon fill="#85653f" fill-opacity="0.501961" points="231,59 243,129 271,117" />
<polygon fill="#ba7549" fill-opacity="0.501961" points="176,166 220,143 200,193" />
<polygon fill="#6f6244" fill-opacity="0.501961" points="76,83 55,117 15,77" />
<polygon fill="#180313" fill-opacity="0.501961" points="123,88 108,109 100,100" />
<polygon fill="#83523b" fill-opacity="0.501961" points="143,13 148,51 124,25" />
<polygon fill="#ffe1aa" fill-opacity="0.501961" points="77,83 64,104 113,90" />
<polygon fill="#161e29" fill-opacity="0.501961" points="71,152 97,144 75,101" />
<polygon fill="#6e7c6c" fill-opacity="0.501961" points="42,153 49,81 20,157" />
<polygon fill="#0f212c" fill-opacity="0.501961" points="228,-16 271,8 249,114" />
<polygon fill="#c2734f" fill-opacity="0.501961" points="94,62 126,70 113,95" />
<polygon fill="#ffe5a7" fill-opacity="0.501961" points="90,118 82,118 79,94" />
<polygon fill="#08212f" fill-opacity="0.501961" points="-16,122 8,198 39,169" />
<polygon fill="#0b1d2c" fill-opacity="0.501961" points="39,90 36,44 53,71" />
<polygon fill="#3e3531" fill-opacity="0.501961" points="65,101 106,38 92,-16" />
<polygon fill="#ffffc5" fill-opacity="0.501961" points="66,110 71,93 71,114" />
<polygon fill="#644126" fill-opacity="0.501961" points="114,81 140,95 139,169" />
<polygon fill="#0f222f" fill-opacity="0.501961" points="154,198 135,125 168,92" />
<polygon fill="#cec59f" fill-opacity="0.501961" points="106,146 110,127 103,110" />
<polygon fill="#f6ab85" fill-opacity="0.501961" points="160,142 171,176 197,151" />
<polygon fill="#5b3326" fill-opacity="0.501961" points="172,138 191,150 184,139" />
<polygon fill="#0c232f" fill-opacity="0.501961" points="251,129 252,189 210,162" />
<polygon fill="#0d1925" fill-opacity="0.501961" points="105,180 188,179 124,198" />
<polygon fill="#bb6e47" fill-opacity="0.501961" points="89,102 88,125 96,132" />
<polygon fill="#ffcf9c" fill-opacity="0.501961" points="168,116 186,143 204,127" />
<polygon fill="#fff0be" fill-opacity="0.501961" points="93,130 90,85 100,107" />
<polygon fill="#0f222f" fill-opacity="0.501961" points="54,-4 271,-16 245,40" />
<polygon fill="#74543c" fill-opacity="0.501961" points="225,73 259,109 239,61" />
<polygon fill="#664837" fill-opacity="0.501961" points="209,76 160,37 174,73" />
<polygon fill="#1d242c" fill-opacity="0.501961" points="44,116 105,146 62,178" />
<polygon fill="#f7c08a" fill-opacity="0.501961" points="102,61 129,65 106,46" />
<polygon fill="#202a32" fill-opacity="0.501961" points="124,48 243,90 123,91" />
</g>
</svg>