<svg xmlns="http://www.w3.org/2000/svg" viewBox="0 0 128.72 300.78"><defs><style>.a{fill:#1d1d1b;}</style></defs><title>poe-logo-full</title><path class="a" d="M36.43,153.38H11.7V11.65H118V71.81H47.13V47.08H93.27V36.38H36.43v117Z"/><path class="a" d="M118,82.51v70.87H47.13V82.51ZM93.27,107.24H71.87v21.4h21.4Z"/><path class="a" d="M11.82,295.06V272.27h4.89a7.11,7.11,0,0,1,2.37.36,4.61,4.61,0,0,1,1.86,1.24,4.92,4.92,0,0,1,1.15,2.1,13.26,13.26,0,0,1,.32,3.25,15.73,15.73,0,0,1-.18,2.59,5.2,5.2,0,0,1-.75,2,4.77,4.77,0,0,1-1.79,1.75,6.11,6.11,0,0,1-2.94.62H15.08v8.9Zm3.26-19.71v7.74h1.57a3.4,3.4,0,0,0,1.54-.29,1.82,1.82,0,0,0,.8-.8,2.88,2.88,0,0,0,.3-1.18c0-.47.05-1,.05-1.57s0-1,0-1.52a3.24,3.24,0,0,0-.29-1.26,1.8,1.8,0,0,0-.77-.84,3.07,3.07,0,0,0-1.47-.28Z"/><path class="a" d="M24.65,277.65a5.79,5.79,0,0,1,.48-2.43,5.13,5.13,0,0,1,1.28-1.76,5.45,5.45,0,0,1,1.74-1,5.72,5.72,0,0,1,3.94,0,6,6,0,0,1,1.78,1,5.17,5.17,0,0,1,1.24,1.76,5.79,5.79,0,0,1,.48,2.43v12a5.82,5.82,0,0,1-.48,2.47,5,5,0,0,1-1.24,1.69,5.68,5.68,0,0,1-1.78,1.06,5.72,5.72,0,0,1-3.94,0,5.19,5.19,0,0,1-1.74-1.06,5,5,0,0,1-1.28-1.69,5.82,5.82,0,0,1-.48-2.47Zm3.27,12a2.18,2.18,0,0,0,.65,1.75,2.34,2.34,0,0,0,1.55.55,2.3,2.3,0,0,0,1.55-.55,2.18,2.18,0,0,0,.66-1.75v-12a2.18,2.18,0,0,0-.66-1.75,2.3,2.3,0,0,0-1.55-.55,2.34,2.34,0,0,0-1.55.55,2.18,2.18,0,0,0-.65,1.75Z"/><path class="a" d="M44.43,295.06V272.27h9.72v3.08H47.69V282h5.63v3.08H47.69v6.68h6.46v3.27Z"/><path class="a" d="M67.34,272.27l-4.67,22.79H59.79l-4.64-22.79H58.6l2.59,15.91h.07l2.62-15.91Z"/><path class="a" d="M69.29,295.06V272.27H79v3.08H72.55V282h5.64v3.08H72.55v6.68H79v3.27Z"/><path class="a" d="M81,295.06V272.27h3.14L89.07,286h.06V272.27h3.26v22.79H89.32l-5-13.7h-.06v13.7Z"/><path class="a" d="M97.48,295.06V275.35H93.71v-3.08h10.81v3.08h-3.77v19.71Z"/><path class="a" d="M116.52,278.83h-3.26v-.73a3.52,3.52,0,0,0-.53-1.94,2,2,0,0,0-1.78-.81,2.07,2.07,0,0,0-1.09.25,2.16,2.16,0,0,0-.67.64,2.63,2.63,0,0,0-.35.95,6.43,6.43,0,0,0-.1,1.1c0,.45,0,.82.05,1.12a2,2,0,0,0,.24.8,1.9,1.9,0,0,0,.56.61,5.22,5.22,0,0,0,1,.51l2.5,1a6.2,6.2,0,0,1,1.76,1,4.17,4.17,0,0,1,1,1.29,5.85,5.85,0,0,1,.48,1.75,16.39,16.39,0,0,1,.13,2.22,11.81,11.81,0,0,1-.29,2.67,5.6,5.6,0,0,1-.93,2.1,4.48,4.48,0,0,1-1.76,1.41,6.2,6.2,0,0,1-2.65.51,5.76,5.76,0,0,1-2.21-.42,5.17,5.17,0,0,1-1.76-1.15,5.65,5.65,0,0,1-1.17-1.71,5.17,5.17,0,0,1-.43-2.13v-1.21h3.26v1a2.71,2.71,0,0,0,.53,1.62,2.06,2.06,0,0,0,1.78.71,3,3,0,0,0,1.29-.23,1.71,1.71,0,0,0,.72-.69,2.53,2.53,0,0,0,.31-1.08c0-.41.05-.87.05-1.39a12,12,0,0,0-.07-1.47,2.72,2.72,0,0,0-.25-.93,1.82,1.82,0,0,0-.6-.57,7.29,7.29,0,0,0-1-.48l-2.34-1a5.18,5.18,0,0,1-2.83-2.29,7.88,7.88,0,0,1-.72-3.57,8.45,8.45,0,0,1,.35-2.43,5.67,5.67,0,0,1,1.06-2,4.91,4.91,0,0,1,1.71-1.32,5.71,5.71,0,0,1,2.48-.5,5.37,5.37,0,0,1,2.22.45,5.68,5.68,0,0,1,1.75,1.18,5,5,0,0,1,1.47,3.52Z"/></svg>