<svg xmlns="http://www.w3.org/2000/svg" viewBox="0 0 512 512">
  <path d="M288.28 235.33L473.89 60.98H38.11l186.64 175.33L33.38 129.16l26.33 321.86h392.58l32.68-328.21-196.69 112.52" fill-opacity="0.09"/>
  <path d="M59.71 155.49V451H24.14A24.14 24.14 0 0 1 0 426.88V112l39 1 20.71 42.46zM512 112v314.88A24.14 24.14 0 0 1 487.85 451h-35.56V155.49L472 109l40 3z"/>
  <path d="M512 85.12V112l-59.71 43.52L256 298.56 59.71 155.49 0 112V85.12A24.14 24.14 0 0 1 24.14 61h14L256 219.79 473.89 61h14A24.14 24.14 0 0 1 512 85.12z"/>
  <path d="M59.71 155.49L0 146.24V112"/>
</svg>