<?xml version="1.0" standalone="no"?>
<!DOCTYPE svg PUBLIC "-//W3C//DTD SVG 1.1//EN" "http://www.w3.org/Graphics/SVG/1.1/DTD/svg11.dtd" >
<svg xmlns="http://www.w3.org/2000/svg">
<metadata></metadata>
<defs>
<font id="knileextralight" horiz-adv-x="1161" >
<font-face units-per-em="2048" ascent="1536" descent="-512" />
<missing-glyph horiz-adv-x="577" />
<glyph unicode=" "  horiz-adv-x="577" />
<glyph unicode="&#x09;" horiz-adv-x="577" />
<glyph unicode="&#xa0;" horiz-adv-x="577" />
<glyph unicode="!" horiz-adv-x="546" d="M203 63q0 29 20 48.5t49 19.5q31 0 50.5 -19.5t19.5 -48.5q0 -31 -19.5 -51t-50.5 -20q-29 0 -49 20t-20 51zM246 1481h55l-4 -1155h-47z" />
<glyph unicode="&#x22;" horiz-adv-x="538" d="M102 1481h58l-6 -416h-45zM379 1481h57l-6 -416h-45z" />
<glyph unicode="#" horiz-adv-x="1251" d="M59 430v45h258l97 467h-246v45h256l94 463h49l-94 -463h395l93 447h49l-92 -447h262v-45h-273l-96 -467h250v-45h-258l-90 -430h-49l90 430h-398l-88 -430h-49l88 430h-248zM367 475h395l96 467h-395z" />
<glyph unicode="$" horiz-adv-x="1093" d="M150 -4v387h40q33 -168 130.5 -261t248.5 -93q148 0 237 89.5t89 235.5q0 61 -24.5 112.5t-66.5 90t-96.5 73t-114 65t-119.5 61t-114.5 66.5t-96.5 77t-66.5 96t-24.5 119q0 145 94.5 240.5t241.5 95.5h14v184h49v-188q101 -18 176 -84t109 -162v234h49v-371h-41 q-32 153 -122.5 245.5t-225.5 92.5q-134 0 -213.5 -78.5t-79.5 -202.5q0 -59 25 -109.5t67 -88t96 -71.5t114.5 -64t120.5 -60.5t114 -66.5t96 -77t67 -97t25 -121q0 -170 -105 -277.5t-272 -107.5v-187h-49v189q-115 12 -199.5 80t-123.5 176v-242h-49z" />
<glyph unicode="%" horiz-adv-x="1433" d="M129 1159q0 132 60 207.5t173 75.5q115 0 174.5 -75.5t59.5 -207.5q0 -136 -59 -214.5t-175 -78.5q-115 0 -174 79t-59 214zM178 0l1012 1434h57l-1011 -1434h-58zM180 1159q0 -248 182 -248q185 0 185 248q0 113 -45.5 175.5t-139.5 62.5q-182 0 -182 -238zM838 285 q0 132 60 207t173 75q115 0 174.5 -75t59.5 -207q0 -136 -59 -214.5t-175 -78.5q-115 0 -174 79t-59 214zM889 285q0 -248 182 -248q184 0 184 248q0 237 -184 237q-182 0 -182 -237z" />
<glyph unicode="&#x26;" horiz-adv-x="1376" d="M127 375q0 133 89 247.5t220 176.5q-89 95 -142.5 184.5t-53.5 187.5q0 120 86 202.5t217 82.5q102 0 177.5 -63.5t113.5 -169.5v215h49v-353h-41q-74 324 -293 324q-112 0 -184 -68t-72 -167q0 -50 16.5 -99.5t49.5 -98.5t59.5 -81.5t70.5 -79.5l492 -528 q100 160 106 383h220v-43h-170q-18 -212 -121 -377l188 -207h129v-43h-157l-191 205q-79 -106 -187.5 -165.5t-234.5 -59.5q-196 0 -316 114.5t-120 280.5zM182 379q0 -150 104.5 -250t274.5 -100q118 0 218.5 56t172.5 157l-483 520q-125 -57 -206 -159.5t-81 -223.5z" />
<glyph unicode="'" horiz-adv-x="280" d="M82 1219q75 72 84 155q-9 -6 -21 -6q-27 0 -45 20t-18 48q0 29 20 48t48 19q31 0 52 -26t21 -66q0 -119 -110 -221z" />
<glyph unicode="(" horiz-adv-x="559" d="M145 635q0 235 86 467.5t240 429.5l31 -25q-142 -196 -221.5 -421.5t-79.5 -450.5t79.5 -451t221.5 -422l-31 -24q-154 197 -240 429.5t-86 467.5z" />
<glyph unicode=")" horiz-adv-x="559" d="M57 -238q142 196 221.5 422t79.5 451t-79.5 450.5t-221.5 421.5l31 25q154 -197 240 -429.5t86 -467.5t-86 -467.5t-240 -429.5z" />
<glyph unicode="*" horiz-adv-x="765" d="M88 1008l256 147l-256 145l23 35l251 -147v293h41v-293l252 147l23 -35l-256 -145l256 -147l-23 -35l-252 147v-295h-41v295l-251 -147z" />
<glyph unicode="+" horiz-adv-x="1148" d="M123 618v44h428v454h49v-454h426v-44h-426v-458h-49v458h-428z" />
<glyph unicode="," horiz-adv-x="346" d="M102 70q0 27 20 46t48 19q30 0 52 -26t22 -64q0 -116 -111 -223l-31 28q72 69 84 156q-6 -4 -22 -4q-26 0 -44 19.5t-18 48.5z" />
<glyph unicode="-" horiz-adv-x="751" d="M115 573v54h522v-54h-522z" />
<glyph unicode="." horiz-adv-x="356" d="M102 68q0 30 23 52.5t53 22.5q31 0 53.5 -22t22.5 -53q0 -30 -23 -53t-53 -23q-29 0 -52.5 23.5t-23.5 52.5z" />
<glyph unicode="/" horiz-adv-x="718" d="M49 -221l621 1757h49l-621 -1757h-49z" />
<glyph unicode="0" horiz-adv-x="1198" d="M160 727q0 138 12.5 245.5t43.5 200.5t80.5 154t126 95t177.5 34t177.5 -34t125.5 -95t79.5 -154t43 -200.5t12.5 -245.5q0 -141 -12.5 -250.5t-43 -205t-79.5 -157.5t-125.5 -97t-177.5 -35t-177.5 35t-126 97t-80.5 157t-43.5 205.5t-12.5 250.5zM213 727 q0 -130 9.5 -229.5t35.5 -190.5t68.5 -150t111.5 -93.5t162 -34.5q77 0 137.5 23t102.5 69t70.5 105.5t44.5 141t23 167.5t7 192q0 126 -9.5 223.5t-35.5 186.5t-68.5 146.5t-111 91.5t-160.5 34q-93 0 -162 -34t-111.5 -91.5t-68.5 -146.5t-35.5 -186.5t-9.5 -223.5z" />
<glyph unicode="1" horiz-adv-x="706" d="M61 1176l293 258h58v-1391h196v-43h-473v43h225v1335l-266 -237z" />
<glyph unicode="2" horiz-adv-x="993" d="M100 0v23q0 97 38.5 189.5t100 167t136.5 146.5t149.5 140t136 133.5t100 139.5t38.5 148q0 140 -83 231t-222 91q-123 0 -215.5 -83.5t-126.5 -203.5l-46 19q39 135 143 225t247 90q159 0 258.5 -105t99.5 -259q0 -80 -38 -158.5t-99 -146t-134.5 -135.5t-148 -138 t-136.5 -140.5t-102 -156t-42 -172.5h661v303h49v-348h-764z" />
<glyph unicode="3" horiz-adv-x="1067" d="M111 279l49 18q38 -127 129.5 -200.5t222.5 -73.5q157 0 263 107t106 269q0 165 -115.5 264t-319.5 99h-61l-10 26l465 603h-627v-246h-49v289h729v-48l-447 -579h23q207 0 337 -112.5t130 -293.5q0 -184 -121.5 -305t-302.5 -121q-151 0 -256.5 83t-144.5 221z" />
<glyph unicode="4" horiz-adv-x="1112" d="M82 436v37l668 965h51v-957h209v-45h-209v-393h209v-43h-500v43h240v393h-668zM141 481h609v881z" />
<glyph unicode="5" horiz-adv-x="1095" d="M121 274l49 17q41 -122 133.5 -195t235.5 -73q164 0 268 117.5t104 293.5q0 174 -105 287t-276 113q-84 0 -162 -35t-130 -84l-45 16l43 703h638v-263h-49v220h-542l-41 -621q55 47 135 79t162 32q186 0 307 -127t121 -316q0 -198 -120.5 -330.5t-307.5 -132.5 q-161 0 -267.5 82t-150.5 217z" />
<glyph unicode="6" horiz-adv-x="1163" d="M172 553v78q0 188 29 338t87.5 260t152.5 169.5t218 59.5q172 0 308 -90l-25 -45q-131 88 -283 88q-438 0 -438 -809q34 133 141 213t252 80q188 0 301 -125.5t113 -320.5q0 -213 -108.5 -343.5t-309.5 -130.5q-213 0 -325.5 151t-112.5 427zM229 463q0 -116 41.5 -214 t130 -162t209.5 -64q179 0 271 117t92 306q0 178 -97 290t-268 112q-154 0 -266.5 -108t-112.5 -277z" />
<glyph unicode="7" horiz-adv-x="985" d="M98 1114v320h830v-35l-588 -1399h-59l587 1389h-721v-275h-49z" />
<glyph unicode="8" horiz-adv-x="1177" d="M158 391q0 82 28.5 150.5t75.5 112.5t102 71t115 37q-52 11 -99.5 38t-87 68.5t-63.5 102t-24 131.5q0 159 107.5 256.5t277.5 97.5t276.5 -97.5t106.5 -256.5q0 -138 -81.5 -227t-193.5 -113q60 -10 115.5 -37t103 -71.5t75.5 -112.5t28 -150q0 -182 -117 -299 t-313 -117q-197 0 -314.5 117t-117.5 299zM213 391q0 -159 101 -263.5t276 -104.5t275 104.5t100 263.5q0 157 -105.5 251.5t-269.5 94.5q-165 0 -271 -94.5t-106 -251.5zM260 1102q0 -139 92.5 -229.5t237.5 -90.5q142 0 236 91t94 229q0 136 -91.5 222.5t-238.5 86.5 q-148 0 -239 -86.5t-91 -222.5z" />
<glyph unicode="9" horiz-adv-x="1128" d="M135 1018q0 195 113.5 316.5t298.5 121.5q195 0 301 -137.5t106 -384.5v-76q0 -160 -14 -290.5t-47.5 -243t-85.5 -188t-131 -118.5t-182 -43q-178 0 -314 103l31 43q53 -43 128.5 -70.5t152.5 -27.5q113 0 193.5 57.5t128.5 170t69.5 265t21.5 356.5q-25 -133 -125 -216 t-248 -83q-179 0 -288 127t-109 318zM190 1020q0 -173 93.5 -286t257.5 -113q102 0 185 55.5t127 145t44 192.5q0 167 -95 281t-251 114q-168 0 -264.5 -108.5t-96.5 -280.5z" />
<glyph unicode=":" horiz-adv-x="389" d="M119 68q0 30 23 52.5t53 22.5q31 0 53 -22t22 -53q0 -30 -22.5 -53t-52.5 -23q-29 0 -52.5 23.5t-23.5 52.5zM119 924q0 29 23 51t53 22q31 0 53 -22t22 -51q0 -31 -22 -53.5t-53 -22.5q-30 0 -53 23t-23 53z" />
<glyph unicode=";" horiz-adv-x="389" d="M119 924q0 29 23 51t53 22q31 0 53 -22t22 -51q0 -31 -22 -53.5t-53 -22.5q-30 0 -53 23t-23 53zM123 -150q74 71 86 156q-8 -4 -23 -4q-27 0 -44 19t-17 49q0 28 18.5 46.5t46.5 18.5q31 0 53.5 -26t22.5 -64q0 -119 -112 -223z" />
<glyph unicode="&#x3c;" horiz-adv-x="1155" d="M154 618v46l811 374v-51l-758 -346l758 -346v-51z" />
<glyph unicode="=" horiz-adv-x="1208" d="M154 436v45h903v-45h-903zM154 778v45h903v-45h-903z" />
<glyph unicode="&#x3e;" horiz-adv-x="1155" d="M190 246v51l758 346l-758 346v51l811 -374v-45z" />
<glyph unicode="?" horiz-adv-x="872" d="M37 1247q43 104 134.5 174t223.5 70q163 0 265 -106.5t102 -264.5q0 -67 -21 -127t-54.5 -105t-74.5 -87t-81.5 -81t-74 -78.5t-54.5 -88.5t-21 -102v-119h-51v121q0 59 21 112t54 94t73.5 80t80.5 79t73 82.5t54 98t21 117.5q0 143 -86.5 235.5t-227.5 92.5 q-79 0 -144 -34t-102.5 -79.5t-62.5 -103.5zM283 61q0 30 19.5 50t49.5 20t50 -20t20 -50q0 -29 -20 -49t-50 -20t-49.5 19.5t-19.5 49.5z" />
<glyph unicode="@" horiz-adv-x="1931" d="M168 545q0 224 102 408.5t286.5 292.5t414.5 108q141 0 266.5 -39t221 -108.5t165 -162t105.5 -204t36 -230.5q0 -209 -87 -329.5t-220 -120.5q-88 0 -141.5 60t-56.5 159q-31 -97 -112.5 -158t-199.5 -61q-145 0 -245.5 105.5t-100.5 269.5q0 162 100 264t246 102 q112 0 192 -57.5t113 -145.5v191h47v-479q0 -95 42 -151t118 -56q108 0 181 106t73 293q0 144 -53.5 273.5t-149 225.5t-236 152t-304.5 56q-162 0 -302.5 -60.5t-238 -163.5t-153.5 -243.5t-56 -296.5q0 -161 55 -302t151.5 -243t235 -160.5t298.5 -58.5q104 0 207.5 25.5 t179.5 70.5l24 -39q-77 -47 -187 -74.5t-224 -27.5q-225 0 -406.5 104.5t-284 290t-102.5 414.5zM653 535q0 -145 86 -238.5t215 -93.5q125 0 212 90.5t87 241.5q0 144 -88 233.5t-213 89.5q-126 0 -212.5 -89.5t-86.5 -233.5z" />
<glyph unicode="A" horiz-adv-x="1581" d="M102 0v43h158l502 1395h57l502 -1395h158v-43h-422v43h209l-168 475h-617l-170 -475h209v-43h-418zM498 563h583l-293 823z" />
<glyph unicode="B" horiz-adv-x="1241" d="M119 0v43h184v1348h-184v43h516q163 0 272 -94.5t109 -245.5q0 -126 -70 -215.5t-176 -116.5q59 -11 112.5 -37.5t99.5 -69.5t73.5 -109t27.5 -145q0 -185 -114.5 -293t-290.5 -108h-559zM356 43h303q159 0 263 96t104 260q0 154 -104.5 245t-264.5 91h-301v-692z M356 780h299q135 0 220.5 92t85.5 220q0 134 -96.5 216.5t-241.5 82.5h-267v-611z" />
<glyph unicode="C" horiz-adv-x="1439" d="M133 727q0 153 48.5 287t134 232t210.5 155t271 57q152 0 278.5 -83t190.5 -220v279h49v-396h-41q-49 164 -179 266.5t-288 102.5q-138 0 -254.5 -52.5t-195.5 -143.5t-123 -215.5t-44 -266.5q0 -194 72 -352t214 -254t331 -96q148 0 280 78.5t209 211.5l45 -28 q-80 -141 -225.5 -227.5t-308.5 -86.5q-153 0 -281 59.5t-213.5 161.5t-132.5 239t-47 292z" />
<glyph unicode="D" horiz-adv-x="1421" d="M121 0v43h184v1348h-184v43h479q149 0 275.5 -49.5t218 -140t143 -224.5t51.5 -297q0 -329 -183.5 -526t-490.5 -197h-493zM358 43h234q293 0 466 184t173 496q0 308 -180 488t-471 180h-222v-1348z" />
<glyph unicode="E" d="M119 0v43h184v1348h-184v43h874v-326h-49v283h-588v-619h521v-47h-521v-682h596v305h49v-348h-882z" />
<glyph unicode="F" horiz-adv-x="1128" d="M121 0v43h184v1348h-184v43h895v-326h-49v283h-609v-652h529v-47h-529v-649h238v-43h-475z" />
<glyph unicode="G" horiz-adv-x="1552" d="M131 729q0 153 49 287t135.5 231t210.5 153t269 56q162 0 295 -80t200 -211v273h49l2 -379h-41q-53 154 -189 250t-308 96q-182 0 -323 -88.5t-216.5 -242t-75.5 -345.5q0 -145 42 -272.5t118.5 -222.5t191.5 -150t253 -55q219 0 367.5 149.5t174.5 407.5h-377v47h428 v-633h-51v403q-57 -198 -203.5 -312t-343.5 -114q-198 0 -349 102t-229.5 272t-78.5 378z" />
<glyph unicode="H" horiz-adv-x="1597" d="M117 0v43h184v1348h-184v43h422v-43h-185v-635h889v635h-184v43h422v-43h-185v-1348h185v-43h-422v43h184v666h-889v-666h185v-43h-422z" />
<glyph unicode="I" horiz-adv-x="655" d="M117 0v43h184v1348h-184v43h422v-43h-185v-1348h185v-43h-422z" />
<glyph unicode="J" horiz-adv-x="688" d="M-23 -188l15 51q73 -25 133 -25q96 0 160.5 64.5t64.5 177.5v1311h-227v43h459v-43h-179v-1317q0 -130 -78.5 -208.5t-197.5 -78.5q-80 0 -150 25z" />
<glyph unicode="K" horiz-adv-x="1306" d="M117 0v43h184v1348h-184v43h401v-43h-164v-639l676 641h-186v41h407v-43h-157l-688 -652l718 -696h162v-43h-428v43h195l-699 680v-680h172v-43h-409z" />
<glyph unicode="L" horiz-adv-x="1101" d="M117 0v43h184v1348h-184v43h436v-43h-199v-1348h596v328h49v-371h-882z" />
<glyph unicode="M" horiz-adv-x="1964" d="M117 0v43h184v1348h-184v43h258l608 -1186l608 1186h256v-43h-184v-1348h184v-43h-420v43h185v1325l-608 -1186h-46l-606 1186v-1325h185v-43h-420z" />
<glyph unicode="N" horiz-adv-x="1632" d="M117 0v43h184v1348h-184v43h241l922 -1354v1311h-186v43h422v-43h-185v-1391h-61l-918 1356v-1313h187v-43h-422z" />
<glyph unicode="O" horiz-adv-x="1605" d="M133 729q0 206 84 371.5t237.5 260.5t348.5 95t348.5 -95t237.5 -260.5t84 -371.5q0 -209 -83.5 -380t-237.5 -271.5t-349 -100.5t-349 100.5t-237.5 271.5t-83.5 380zM190 729q0 -194 75 -352.5t216 -253t322 -94.5t322 94.5t215.5 253t74.5 352.5q0 189 -74.5 342.5 t-215.5 243.5t-322 90t-322 -90t-216 -243.5t-75 -342.5z" />
<glyph unicode="P" horiz-adv-x="1146" d="M117 0v43h184v1348h-184v43h518q174 0 288.5 -101.5t114.5 -275.5q0 -171 -111.5 -281t-285.5 -110h-287v-623h219v-43h-456zM354 709h279q149 0 248.5 98.5t99.5 249.5q0 148 -100 241t-256 93h-271v-682z" />
<glyph unicode="Q" horiz-adv-x="1609" d="M133 729q0 154 49.5 289t136.5 232t213 152.5t273 55.5t273 -55.5t213 -152.5t136.5 -232t49.5 -289q0 -166 -55 -311t-156 -248l184 -178l-33 -37l-186 180q-181 -160 -426 -160q-195 0 -349.5 100.5t-238.5 272t-84 381.5zM190 729q0 -196 76.5 -355.5t217.5 -253 t321 -93.5q227 0 389 143l-186 180l34 37l187 -182q91 96 140.5 230.5t49.5 293.5q0 145 -44.5 270t-124.5 215t-195 141.5t-250 51.5q-180 0 -321 -88t-217.5 -242.5t-76.5 -347.5z" />
<glyph unicode="R" horiz-adv-x="1251" d="M117 0v43h184v1348h-184v43h504q172 0 288.5 -102.5t116.5 -268.5q0 -158 -102.5 -264t-259.5 -117l393 -639h180v-43h-217l-408 674h-258v-631h209v-43h-446zM354 721h254q151 0 256 96t105 244q0 147 -102 238.5t-257 91.5h-256v-670z" />
<glyph unicode="S" horiz-adv-x="1107" d="M156 -8v391h41q34 -168 133 -262t248 -94q146 0 236.5 91t90.5 236q0 61 -25 113.5t-67.5 91t-97 73t-115 65t-121.5 61.5t-115.5 67t-97 76.5t-67.5 96t-25 120.5q0 144 96.5 242t245.5 98q122 0 214 -72.5t134 -185.5v234h49v-369h-41q-32 153 -123 247.5t-225 94.5 q-130 0 -212.5 -81.5t-82.5 -203.5q0 -74 40.5 -135.5t105 -105t142.5 -83t156 -81.5t142.5 -89t105 -115t40.5 -151q0 -171 -105 -279t-272 -108q-135 0 -234.5 71.5t-144.5 193.5v-248h-49z" />
<glyph unicode="T" horiz-adv-x="1206" d="M78 1069v365h1050v-365h-49v322h-448v-1348h200v-43h-454v43h201v1348h-451v-322h-49z" />
<glyph unicode="U" horiz-adv-x="1462" d="M70 1391v43h419v-43h-190v-922q0 -196 113.5 -319t318.5 -123t318.5 123t113.5 319v922h-190v43h420v-43h-176v-918q0 -144 -55 -255.5t-166 -177t-265 -65.5t-265 65.5t-165.5 177t-54.5 255.5v918h-176z" />
<glyph unicode="V" horiz-adv-x="1402" d="M27 1391v43h434v-43h-215l459 -1332l456 1332h-215v43h430v-43h-164l-483 -1395h-53l-486 1395h-163z" />
<glyph unicode="W" horiz-adv-x="2123" d="M29 1391v43h450v-43h-233l381 -1338l407 1381h62l403 -1379l379 1336h-233v43h448v-43h-164l-399 -1395h-64l-403 1366l-406 -1366h-63l-401 1395h-164z" />
<glyph unicode="X" horiz-adv-x="1329" d="M27 0v43h166l440 694l-420 654h-162v43h410v-43h-189l394 -613l387 613h-189v43h406v-43h-164l-414 -656l445 -692h166v-43h-437v43h211l-418 651l-411 -651h211v-43h-432z" />
<glyph unicode="Y" horiz-adv-x="1277" d="M25 1391v43h407v-43h-192l401 -715l403 715h-192v43h401v-43h-155l-432 -760v-588h200v-43h-454v43h200v586l-432 762h-155z" />
<glyph unicode="Z" horiz-adv-x="1181" d="M109 0v37l884 1352h-784v-318h-49v363h901v-37l-885 -1352h832v338h49v-383h-948z" />
<glyph unicode="[" horiz-adv-x="536" d="M221 -260v1796h238v-45h-187v-1706h187v-45h-238z" />
<glyph unicode="\" horiz-adv-x="718" d="M0 1536h49l621 -1757h-49z" />
<glyph unicode="]" horiz-adv-x="536" d="M78 -215h186v1706h-186v45h237v-1796h-237v45z" />
<glyph unicode="^" horiz-adv-x="983" d="M94 651l375 783h45l375 -783h-51l-346 727l-347 -727h-51z" />
<glyph unicode="_" horiz-adv-x="1236" d="M82 -109h1073v-43h-1073v43z" />
<glyph unicode="`" horiz-adv-x="442" d="M115 1464h63l139 -258h-51z" />
<glyph unicode="a" horiz-adv-x="1228" d="M150 301q0 140 114 231t291 91q131 0 225.5 -54.5t137.5 -138.5v264q0 144 -91.5 229t-251.5 85q-86 0 -178.5 -29t-165.5 -74l-24 41q180 109 377 109q179 0 282 -95.5t103 -257.5v-659h174v-43h-223v182q-37 -90 -136.5 -147.5t-240.5 -57.5q-169 0 -281 91.5 t-112 232.5zM203 303q0 -118 96 -199t258 -81q154 0 258.5 82t104.5 200q0 111 -104 192t-253 81q-158 0 -259 -79t-101 -196z" />
<glyph unicode="b" horiz-adv-x="1374" d="M94 0v43h174v1395h-174v43h225v-764q19 66 57.5 126t94 108.5t133.5 77t168 28.5q206 0 341.5 -155.5t135.5 -379.5q0 -230 -138.5 -388.5t-350.5 -158.5q-87 0 -163 29t-130 78t-91 108t-57 125v-315h-225zM317 520q0 -208 126.5 -352.5t312.5 -144.5q129 0 230 67 t154.5 180t53.5 250q0 207 -119 348.5t-313 141.5q-123 0 -225.5 -65.5t-161 -178t-58.5 -246.5z" />
<glyph unicode="c" horiz-adv-x="1165" d="M127 530q0 111 40.5 210.5t106.5 168t152 108.5t176 40q135 0 235 -65t146 -171v211h47v-315h-37q-41 131 -138.5 212t-244.5 81q-82 0 -159.5 -35.5t-137 -97.5t-95.5 -153t-36 -194q0 -224 124.5 -365.5t324.5 -141.5q116 0 219 62t166 163l41 -25 q-67 -114 -180.5 -181t-249.5 -67q-218 0 -359 156t-141 399z" />
<glyph unicode="d" horiz-adv-x="1374" d="M127 522q0 146 62.5 268.5t174.5 194.5t250 72q171 0 286 -97t157 -239v717h-174v43h225v-1438h174v-43h-225v317q-19 -68 -56.5 -128t-92.5 -108.5t-133.5 -77t-170.5 -28.5q-137 0 -246.5 72.5t-170 197.5t-60.5 277zM182 522q0 -137 51 -249.5t150.5 -181t228.5 -68.5 q99 0 183.5 39t142 106.5t89.5 159t32 194.5q0 134 -55.5 245.5t-156.5 177t-226 65.5q-129 0 -230.5 -68.5t-155 -179t-53.5 -240.5z" />
<glyph unicode="e" horiz-adv-x="1202" d="M125 532q0 114 39.5 213t106.5 166.5t157 106.5t188 39q135 0 241 -66.5t163 -178t57 -245.5v-32h-897q0 -227 124 -369.5t319 -142.5q119 0 227.5 60.5t171.5 162.5l39 -27q-69 -115 -187.5 -179.5t-257.5 -64.5q-214 0 -352.5 158.5t-138.5 398.5zM180 582h842 q0 181 -114 304.5t-296 123.5q-167 0 -295 -123t-137 -305z" />
<glyph unicode="f" horiz-adv-x="669" d="M106 0v43h175v946h-175v43h175v203q0 120 64.5 188t174.5 68q52 0 113 -14v-50q-66 17 -109 17q-91 0 -141.5 -55.5t-50.5 -153.5v-203h250v-43h-250v-946h207v-43h-433z" />
<glyph unicode="g" horiz-adv-x="1368" d="M127 522q0 146 62.5 268.5t174.5 194.5t250 72q171 0 286 -97t157 -239v311h225v-43h-174v-948q0 -106 -41.5 -190t-112.5 -135.5t-159.5 -78t-188.5 -26.5q-101 0 -200 31t-166 82l26 40q66 -50 157 -78t189 -28q85 0 163 24t142 69t102 118.5t38 163.5v284 q-19 -68 -56.5 -128t-92.5 -108.5t-133.5 -77t-170.5 -28.5q-137 0 -246.5 72.5t-170 197.5t-60.5 277zM182 522q0 -137 51 -249.5t150.5 -181t228.5 -68.5q99 0 183.5 39t142 106.5t89.5 159t32 194.5q0 134 -55.5 245.5t-156.5 177t-226 65.5q-129 0 -230.5 -68.5 t-155 -179t-53.5 -240.5z" />
<glyph unicode="h" horiz-adv-x="1361" d="M106 0v43h175v1348h-175v43h226v-639q37 117 143 189.5t244 72.5q172 0 277.5 -102.5t105.5 -272.5v-639h174v-43h-397v43h172v633q0 152 -94 242t-252 90q-154 0 -263.5 -103t-109.5 -248v-614h172v-43h-398z" />
<glyph unicode="i" horiz-adv-x="598" d="M106 0v43h175v946h-175v43h226v-989h174v-43h-400zM238 1339q0 28 17.5 47t43.5 19q29 0 48.5 -19t19.5 -47q0 -26 -19.5 -44.5t-48.5 -18.5q-26 0 -43.5 18.5t-17.5 44.5z" />
<glyph unicode="j" horiz-adv-x="561" d="M6 -332q42 -10 86 -10q78 0 129 64t51 176v1091h-174v43h226v-1138q0 -130 -66 -206.5t-164 -76.5q-50 0 -88 10v47zM227 1339q0 28 19 47t45 19q28 0 46.5 -19t18.5 -47q0 -26 -18.5 -44.5t-46.5 -18.5q-26 0 -45 18.5t-19 44.5z" />
<glyph unicode="k" horiz-adv-x="1101" d="M94 0v43h174v1395h-174v43h225v-906l492 416h-186v41h419v-43h-167l-502 -422l540 -524h170v-43h-198l-568 557v-514h173v-43h-398z" />
<glyph unicode="l" horiz-adv-x="587" d="M94 0v43h174v1395h-174v43h225v-1438h175v-43h-400z" />
<glyph unicode="m" horiz-adv-x="1980" d="M106 0v43h175v946h-175v43h224v-237q34 117 130 189.5t222 72.5q123 0 211.5 -67.5t116.5 -174.5q38 105 137 173.5t225 68.5q153 0 250.5 -102.5t97.5 -270.5v-641h174v-43h-393v43h168v635q0 149 -85.5 239.5t-223.5 90.5q-135 0 -234.5 -88.5t-99.5 -212.5v-664h168 v-43h-387v43h168v676q0 125 -85.5 207t-219.5 82q-139 0 -238.5 -104.5t-99.5 -250.5v-610h168v-43h-394z" />
<glyph unicode="n" horiz-adv-x="1361" d="M106 0v43h175v946h-175v43h224v-237q37 116 144 189t245 73q172 0 277.5 -102.5t105.5 -272.5v-639h174v-43h-397v43h172v633q0 152 -94 242t-252 90q-154 0 -263.5 -102.5t-109.5 -248.5v-614h172v-43h-398z" />
<glyph unicode="o" horiz-adv-x="1290" d="M125 526q0 114 40.5 213.5t110 169t165.5 109t204 39.5q222 0 371 -150t149 -381q0 -154 -67.5 -280t-187 -198.5t-265.5 -72.5t-265.5 72.5t-187 198.5t-67.5 280zM180 526q0 -215 132.5 -359t332.5 -144t332.5 144t132.5 359q0 212 -132.5 348t-332.5 136 q-130 0 -236 -61t-167.5 -172t-61.5 -251z" />
<glyph unicode="p" horiz-adv-x="1374" d="M92 -340h174v1329h-174v43h225v-315q19 66 57.5 126t94 108.5t133.5 77t168 28.5q206 0 341.5 -155.5t135.5 -379.5q0 -230 -138.5 -388.5t-350.5 -158.5q-87 0 -163 29t-130 78t-91 108t-57 125v-655h207v-43h-432v43zM315 520q0 -208 126.5 -352.5t312.5 -144.5 q129 0 230 67t154.5 180t53.5 250q0 207 -119 348.5t-313 141.5q-123 0 -225.5 -65.5t-161 -178t-58.5 -246.5z" />
<glyph unicode="q" horiz-adv-x="1374" d="M127 522q0 146 62.5 268.5t174.5 194.5t250 72q171 0 286 -97t157 -239v311h225v-43h-174v-1329h174v-43h-432v43h207v657q-19 -68 -56.5 -128t-92.5 -108.5t-133.5 -77t-170.5 -28.5q-137 0 -246.5 72.5t-170 197.5t-60.5 277zM182 522q0 -137 51 -249.5t150.5 -181 t228.5 -68.5q99 0 183.5 39t142 106.5t89.5 159t32 194.5q0 134 -55.5 245.5t-156.5 177t-226 65.5q-129 0 -230.5 -68.5t-155 -179t-53.5 -240.5z" />
<glyph unicode="r" horiz-adv-x="815" d="M106 0v43h175v946h-175v43h224v-278q28 131 115.5 217t201.5 86q59 0 117 -10v-54q-76 13 -119 13q-87 0 -160 -60.5t-113 -155t-40 -198.5v-549h207v-43h-433z" />
<glyph unicode="s" horiz-adv-x="983" d="M133 -8v315h39q31 -130 126.5 -206t229.5 -76q115 0 196 68.5t81 172.5q0 61 -36 107.5t-93.5 74.5t-127 52t-139 48.5t-126.5 54.5q-57 29 -93 79q-35 48 -34 111q0 117 82 190q81 72 200 72q111 0 200.5 -53.5t131.5 -139.5v170h47v-274h-39q-26 113 -121 182.5 t-215 69.5q-98 0 -166.5 -59.5t-68.5 -149.5q0 -56 36 -98t93 -68.5t126.5 -50t138.5 -49t126 -57t93 -83.5t36 -121q0 -131 -94.5 -214t-231.5 -83q-122 0 -214.5 60.5t-135.5 159.5v-205h-47z" />
<glyph unicode="t" horiz-adv-x="688" d="M82 989v43h174v230h51v-230h254v-43h-254v-739q0 -94 45 -150.5t123 -56.5q57 0 119 16v-47q-67 -18 -123 -18q-97 0 -156 67.5t-59 186.5v741h-174z" />
<glyph unicode="u" horiz-adv-x="1310" d="M82 989v43h225v-670q0 -150 87 -243.5t229 -93.5q149 0 258.5 108.5t109.5 243.5v612h-174v43h225v-989h175v-43h-226v238q-41 -115 -145 -189t-238 -74q-156 0 -254 106.5t-98 272.5v635h-174z" />
<glyph unicode="v" horiz-adv-x="1189" d="M18 989v43h408v-43h-205l375 -940l379 940h-205v43h404v-43h-148l-405 -997h-54l-401 997h-148z" />
<glyph unicode="w" horiz-adv-x="1871" d="M18 989v43h420v-43h-217l332 -936l354 979h58l356 -979l332 936h-217v43h417v-43h-149l-358 -995h-52l-360 977l-356 -977h-52l-358 995h-150z" />
<glyph unicode="x" d="M41 0v43h147l363 496l-330 450h-143v43h381v-41h-180l307 -422l307 422h-180v41h377v-43h-144l-334 -454l359 -492h147v-43h-399v43h194l-335 459l-336 -459h194v-43h-395z" />
<glyph unicode="y" horiz-adv-x="1191" d="M18 989v43h406v-43h-205l375 -948l379 948h-205v43h403v-43h-147l-428 -1059q-63 -156 -142.5 -236.5t-185.5 -80.5q-55 0 -100 10v49q54 -12 102 -12q85 0 155 73.5t132 217.5l12 29l-403 1009h-148z" />
<glyph unicode="z" horiz-adv-x="1062" d="M133 0v35l705 956h-625v-225h-47v266h739v-35l-704 -952h673v262h48v-307h-789z" />
<glyph unicode="{" horiz-adv-x="579" d="M137 608v58q146 12 146 225v422q0 106 56 164.5t163 58.5v-45q-83 0 -125.5 -48t-42.5 -124v-434q0 -108 -39.5 -172t-112.5 -76q73 -12 112.5 -76t39.5 -172v-432q0 -76 42.5 -124t125.5 -48v-45q-107 0 -163 58.5t-56 164.5v420q0 213 -146 225z" />
<glyph unicode="|" horiz-adv-x="636" d="M295 -397v1976h49v-1976h-49z" />
<glyph unicode="}" horiz-adv-x="579" d="M78 -215q83 0 125.5 48t42.5 124v434q0 108 39.5 172t111.5 76q-72 12 -111.5 76t-39.5 172v432q0 76 -42.5 124t-125.5 48v45q107 0 163 -58.5t56 -164.5v-420q0 -213 145 -225v-58q-145 -12 -145 -225v-422q0 -106 -56 -164.5t-163 -58.5v45z" />
<glyph unicode="~" horiz-adv-x="1060" d="M102 508q6 95 65 159t152 64q55 0 115.5 -28t105.5 -62t102 -62t106 -28q68 0 113 52t50 124h47q-6 -95 -65 -159t-152 -64q-45 0 -92.5 18.5t-88 45t-80 53t-83.5 45t-84 18.5q-68 0 -113 -52t-50 -124h-48z" />
<glyph unicode="&#xa1;" horiz-adv-x="546" d="M203 1034q0 31 19.5 51.5t49.5 20.5q29 0 49.5 -20.5t20.5 -51.5q0 -29 -20 -48t-50 -19q-31 0 -50 19t-19 48zM244 -383l4 1155h47l4 -1155h-55z" />
<glyph unicode="&#xa2;" horiz-adv-x="1150" d="M137 717q0 109 36.5 206.5t97.5 165.5t141.5 109t167.5 45v207h49v-207q120 -7 209 -73t127 -166v219h47v-316h-39q-48 135 -144 212t-225 77q-166 0 -288.5 -137.5t-122.5 -341.5q0 -221 118 -362.5t312 -141.5q112 0 208 60t158 161l41 -26q-61 -107 -168.5 -173 t-232.5 -69v-191h-49v193q-199 13 -321 167t-122 382z" />
<glyph unicode="&#xa3;" horiz-adv-x="1103" d="M117 717v43h205q-8 32 -32 111t-35 131.5t-11 99.5q0 150 89.5 252t235.5 102q114 0 205 -69.5t133 -186.5v234h47v-357h-45q-25 148 -118 239t-216 91q-126 0 -202 -86.5t-76 -212.5q0 -47 11 -100.5t35 -134.5t32 -113h330v-43h-320q14 -75 14 -125q0 -141 -50 -286 t-126 -263h695v303h49v-346h-807v37q188 284 188 547q0 61 -16 133h-215z" />
<glyph unicode="&#xa5;" horiz-adv-x="1249" d="M18 1391v43h402v-43h-189l394 -713l397 713h-188v43h397v-43h-156l-403 -719h321v-41h-344v-176h344v-41h-344v-371h203v-43h-457v43h203v371h-344v41h344v176h-344v41h319l-399 719h-156z" />
<glyph unicode="&#xa7;" horiz-adv-x="1026" d="M139 627q0 102 59.5 175.5t157.5 110.5q-155 110 -155 275q0 129 84 216t211 87q106 0 184.5 -62.5t107.5 -160.5v211h48v-328h-41q-35 145 -109.5 219t-181.5 74q-109 0 -180.5 -72t-71.5 -176q0 -59 21.5 -107.5t58.5 -83.5t84.5 -65.5t100.5 -56.5t105.5 -52.5 t100 -58t84.5 -69t58.5 -89.5t21.5 -114q0 -105 -56.5 -182t-152.5 -115q71 -49 113.5 -118.5t42.5 -154.5q0 -140 -83.5 -229.5t-211.5 -89.5q-118 0 -202.5 67.5t-111.5 171.5v-225h-47v350h41q29 -149 112.5 -232t194.5 -83q112 0 185 72.5t73 189.5q0 58 -22 106.5 t-59.5 83.5t-86 66t-101.5 58.5t-106.5 54.5t-102 60t-86 71t-59.5 90.5t-22 114.5zM193 637q0 -57 20.5 -105t51.5 -80.5t80 -65t92.5 -53.5t102.5 -51t97 -53q89 33 143 101t54 155q0 57 -20 105t-50.5 80t-78 64t-89.5 52t-100 49.5t-95 51.5q-93 -32 -150.5 -98 t-57.5 -152z" />
<glyph unicode="&#xa8;" horiz-adv-x="737" d="M139 1331q0 26 17.5 44t42.5 18q27 0 45 -17.5t18 -44.5q0 -25 -18 -43t-45 -18q-25 0 -42.5 18t-17.5 43zM475 1331q0 26 17 44t43 18q27 0 45 -17.5t18 -44.5q0 -25 -18 -43t-45 -18q-26 0 -43 18t-17 43z" />
<glyph unicode="&#xa9;" horiz-adv-x="1705" d="M125 727q0 205 93 372t260.5 263t375.5 96q207 0 374.5 -96t261 -263t93.5 -372q0 -211 -91.5 -382t-259 -270.5t-378.5 -99.5q-159 0 -295.5 58t-231.5 158.5t-148.5 239t-53.5 296.5zM178 727q0 -198 84.5 -358.5t239.5 -253t352 -92.5q196 0 351 92.5t240 253 t85 358.5q0 192 -86.5 348t-241.5 246t-348 90q-194 0 -349 -90t-241 -246t-86 -348zM506 729q0 156 99 259.5t239 103.5q88 0 153.5 -43.5t94.5 -114.5v139h43v-211h-39q-30 84 -94 134.5t-150 50.5q-124 0 -209.5 -90.5t-85.5 -227.5q0 -148 86 -245t217 -97 q73 0 143 40.5t109 100.5l39 -28q-44 -69 -124 -113.5t-169 -44.5q-154 0 -253 109t-99 278z" />
<glyph unicode="&#xaa;" horiz-adv-x="894" d="M111 907q0 96 80 159.5t200 63.5q81 0 149 -32.5t99 -85.5v182q2 93 -60 151t-167 58q-125 0 -248 -74l-19 37q138 80 273 80q121 0 193.5 -70t72.5 -176v-469h129v-37h-172v115q-35 -62 -106 -97.5t-152 -35.5q-120 0 -196 65t-76 166zM160 907q0 -83 65 -135.5 t174 -52.5q96 0 169 56.5t73 131.5q0 81 -71.5 132t-170.5 51q-106 0 -172.5 -50.5t-66.5 -132.5z" />
<glyph unicode="&#xab;" horiz-adv-x="784" d="M109 588l270 360h55l-270 -360l270 -359h-55zM387 588l270 360h56l-271 -360l271 -359h-56z" />
<glyph unicode="&#xad;" horiz-adv-x="751" d="M115 573v54h522v-54h-522z" />
<glyph unicode="&#xae;" horiz-adv-x="1005" d="M111 1116q0 165 108 276t285 111q176 0 284.5 -111t108.5 -276q0 -164 -109.5 -278.5t-283.5 -114.5q-118 0 -208.5 54t-137.5 143t-47 196zM152 1116q0 -150 96.5 -253t255.5 -103t255.5 103t96.5 253t-96 250t-256 100t-256 -100t-96 -250zM352 1294v29h158 q48 0 82.5 -29.5t34.5 -74.5q0 -42 -25 -71.5t-63 -37.5l92 -154h59v-28h-86l-100 178h-72v-150h49v-28h-127v28h43v338h-45zM432 1133h70q35 0 59.5 23t24.5 61q0 36 -23.5 56.5t-58.5 20.5h-72v-161z" />
<glyph unicode="&#xaf;" horiz-adv-x="845" d="M143 1288v45h559v-45h-559z" />
<glyph unicode="&#xb0;" horiz-adv-x="706" d="M94 1194q0 111 71.5 186.5t186.5 75.5q114 0 187 -75.5t73 -186.5q0 -114 -72.5 -191t-187.5 -77q-114 0 -186 77t-72 191zM145 1194q0 -94 57.5 -158.5t149.5 -64.5q93 0 151 64.5t58 158.5q0 92 -58.5 154.5t-150.5 62.5q-93 0 -150 -62t-57 -155z" />
<glyph unicode="&#xb2;" horiz-adv-x="718" d="M125 1268q25 77 83.5 126.5t143.5 49.5q89 0 150 -57t61 -144q0 -61 -39 -119t-94.5 -106t-111.5 -95.5t-96 -105.5t-42 -119h348v142h50v-185h-451v19q0 56 21 108t55 93t74.5 79t81.5 73t75 68t55 71t21 75q0 72 -46 115t-114 43q-63 0 -110 -43.5t-66 -104.5z" />
<glyph unicode="&#xb3;" horiz-adv-x="714" d="M109 811l47 18q23 -63 74 -101t122 -38q78 0 133.5 52.5t55.5 138.5t-60.5 134t-165.5 48h-41l-14 27l252 301h-322v-129h-49v172h424v-45l-239 -285h14q113 0 183.5 -60.5t70.5 -160.5q0 -105 -70 -171.5t-172 -66.5q-90 0 -153.5 46.5t-89.5 119.5z" />
<glyph unicode="&#xb4;" horiz-adv-x="442" d="M125 1206l139 258h64l-152 -258h-51z" />
<glyph unicode="&#xb6;" horiz-adv-x="1181" d="M156 1067q0 153 106 260t258 107h545v-43h-207v-1475h-45v1475h-240v-1475h-47v784q-157 1 -263.5 107t-106.5 260z" />
<glyph unicode="&#xb7;" horiz-adv-x="468" d="M160 610q0 30 23 53t53 23t51.5 -22.5t21.5 -53.5t-21 -53t-52 -22q-30 0 -53 22.5t-23 52.5z" />
<glyph unicode="&#xb8;" horiz-adv-x="571" d="M143 -377l11 47q40 -24 82 -24q55 0 89.5 29.5t34.5 76.5q0 41 -30.5 66.5t-81.5 25.5q-32 0 -60 -8l37 168h43l-26 -123q12 4 28 4q62 0 102 -39t40 -94q0 -68 -48.5 -108.5t-125.5 -40.5q-53 0 -95 20z" />
<glyph unicode="&#xb9;" horiz-adv-x="610" d="M96 1292l205 142h43v-738h145v-41h-352v41h158v682l-176 -121z" />
<glyph unicode="&#xba;" horiz-adv-x="935" d="M111 1067q0 164 100.5 271.5t257.5 107.5t256.5 -107.5t99.5 -271.5q0 -165 -100 -278.5t-256 -114.5t-257 113t-101 280zM160 1065q0 -148 86.5 -247.5t222.5 -100.5q136 1 221.5 100.5t85.5 247.5q0 149 -85 243.5t-222 94.5t-223 -94.5t-86 -243.5z" />
<glyph unicode="&#xbb;" horiz-adv-x="784" d="M72 229l268 361l-268 358h53l270 -358l-270 -361h-53zM350 229l271 361l-271 358h56l270 -358l-270 -361h-56z" />
<glyph unicode="&#xbc;" horiz-adv-x="1630" d="M106 1292l205 142h43v-738h146v-41h-353v41h158v682l-176 -121zM330 -84l825 1602h53l-825 -1602h-53zM918 242v28l380 512h45v-499h148v-41h-148v-201h148v-41h-358v41h161v201h-376zM979 283h315v426z" />
<glyph unicode="&#xbd;" horiz-adv-x="1583" d="M106 1292l205 142h43v-738h146v-41h-353v41h158v682l-176 -121zM332 -84l825 1602h53l-825 -1602h-53zM991 612q25 77 84 126.5t144 49.5q89 0 150 -56.5t61 -143.5q0 -61 -39 -119t-94.5 -106t-111.5 -95.5t-96 -105.5t-42 -119h348v141h49v-184h-451v18q0 56 21 108 t55 93t75 79.5t81.5 73.5t74.5 68t55 71t21 75q0 72 -45.5 114.5t-113.5 42.5q-64 0 -111 -43t-66 -104z" />
<glyph unicode="&#xbe;" horiz-adv-x="1705" d="M131 811l47 18q23 -62 74.5 -100.5t122.5 -38.5q78 0 133 52.5t55 138.5t-60 134t-165 48h-41l-14 27l252 301h-322v-129h-49v172h424v-45l-240 -285h14q113 0 183.5 -60.5t70.5 -160.5q0 -105 -69.5 -171.5t-171.5 -66.5q-90 0 -154 46.5t-90 119.5zM410 -84l825 1602 h53l-825 -1602h-53zM993 242v28l381 512h45v-499h148v-41h-148v-201h148v-41h-359v41h162v201h-377zM1055 283h315v426z" />
<glyph unicode="&#xbf;" horiz-adv-x="872" d="M111 -14q0 67 21 127t54.5 105t74.5 87t81.5 81t74 78.5t54.5 88.5t21 102v119h51v-121q0 -59 -21 -112t-54 -94t-73 -80t-80.5 -79t-73.5 -82.5t-54 -98t-21 -117.5q0 -143 86 -235.5t227 -92.5q79 0 144 34t102.5 79.5t62.5 103.5l48 -20q-43 -103 -135 -173.5 t-224 -70.5q-163 0 -264.5 106.5t-101.5 264.5zM451 1044q0 30 19.5 50t49.5 20t50 -20t20 -50t-20 -49.5t-50 -19.5t-49.5 19.5t-19.5 49.5z" />
<glyph unicode="&#xc0;" horiz-adv-x="1581" d="M102 0v43h158l502 1395h57l502 -1395h158v-43h-422v43h209l-168 475h-617l-170 -475h209v-43h-418zM498 563h583l-293 823zM659 1845h64l139 -258h-51z" />
<glyph unicode="&#xc1;" horiz-adv-x="1581" d="M102 0v43h158l502 1395h57l502 -1395h158v-43h-422v43h209l-168 475h-617l-170 -475h209v-43h-418zM498 563h583l-293 823zM719 1587l139 258h64l-152 -258h-51z" />
<glyph unicode="&#xc2;" horiz-adv-x="1581" d="M102 0v43h158l502 1395h57l502 -1395h158v-43h-422v43h209l-168 475h-617l-170 -475h209v-43h-418zM498 563h583l-293 823zM571 1589l193 250h55l191 -250h-54l-165 217l-166 -217h-54z" />
<glyph unicode="&#xc3;" horiz-adv-x="1581" d="M102 0v43h158l502 1395h57l502 -1395h158v-43h-422v43h209l-168 475h-617l-170 -475h209v-43h-418zM498 563h583l-293 823zM508 1620q3 69 43.5 112.5t103.5 43.5q35 0 75 -17.5t69.5 -38t66 -38t66.5 -17.5q41 0 67 31.5t29 77.5h47q-3 -70 -43.5 -113t-103.5 -43 q-35 0 -75 17.5t-69 38t-66.5 38t-68.5 17.5q-40 0 -65.5 -31.5t-28.5 -77.5h-47z" />
<glyph unicode="&#xc4;" horiz-adv-x="1581" d="M102 0v43h158l502 1395h57l502 -1395h158v-43h-422v43h209l-168 475h-617l-170 -475h209v-43h-418zM498 563h583l-293 823zM561 1712q0 26 17.5 44t42.5 18q27 0 45 -18t18 -44q0 -25 -18 -43t-45 -18q-25 0 -42.5 18t-17.5 43zM897 1712q0 27 16.5 44.5t42.5 17.5 q28 0 46 -18t18 -44q0 -25 -18.5 -43t-45.5 -18q-26 0 -42.5 18t-16.5 43z" />
<glyph unicode="&#xc5;" horiz-adv-x="1437" d="M102 0v43h158l502 1395h57l502 -1395h158v-43h-422v43h209l-168 475h-617l-170 -475h209v-43h-418zM498 563h583l-293 823zM567 1702q0 65 43 108t109 43q65 0 107 -43t42 -108q0 -67 -42 -110.5t-107 -43.5q-66 0 -109 44t-43 110zM614 1702q0 -50 29.5 -82.5 t75.5 -32.5q45 0 73.5 32.5t28.5 82.5q0 48 -28.5 79t-73.5 31q-46 0 -75.5 -31.5t-29.5 -78.5z" />
<glyph unicode="&#xc6;" horiz-adv-x="1835" d="M0 0v43h147l799 1391h719v-334h-49v291h-584v-641h516v-48h-516v-659h594v293h49v-336h-899v43h203v659h-399l-377 -659h198v-43h-401zM604 748h375v651z" />
<glyph unicode="&#xc7;" horiz-adv-x="1439" d="M133 727q0 153 48.5 287t134 232t210.5 155t271 57q152 0 278.5 -83t190.5 -220v279h49v-396h-41q-49 164 -179 266.5t-288 102.5q-138 0 -254.5 -52.5t-195.5 -143.5t-123 -215.5t-44 -266.5q0 -194 72 -352t214 -254t331 -96q148 0 280 78.5t209 211.5l45 -28 q-80 -141 -225.5 -227.5t-308.5 -86.5q-31 0 -47 2l-21 -96q12 4 29 4q62 0 101.5 -39t39.5 -94q0 -68 -48.5 -108.5t-125.5 -40.5q-52 0 -94 20l10 47q40 -24 82 -24q56 0 90.5 29.5t34.5 76.5q0 41 -31 66.5t-82 25.5q-31 0 -59 -8l31 146q-178 21 -312 126t-203 266 t-69 353z" />
<glyph unicode="&#xc8;" d="M119 0v43h184v1348h-184v43h874v-326h-49v283h-588v-619h521v-47h-521v-682h596v305h49v-348h-882zM481 1845h64l139 -258h-51z" />
<glyph unicode="&#xc9;" d="M119 0v43h184v1348h-184v43h874v-326h-49v283h-588v-619h521v-47h-521v-682h596v305h49v-348h-882zM541 1587l139 258h63l-151 -258h-51z" />
<glyph unicode="&#xca;" d="M119 0v43h184v1348h-184v43h874v-326h-49v283h-588v-619h521v-47h-521v-682h596v305h49v-348h-882zM393 1589l193 250h55l190 -250h-53l-166 217l-166 -217h-53z" />
<glyph unicode="&#xcb;" d="M119 0v43h184v1348h-184v43h874v-326h-49v283h-588v-619h521v-47h-521v-682h596v305h49v-348h-882zM383 1712q0 26 17 44t42 18q28 0 46 -18t18 -44q0 -25 -18.5 -43t-45.5 -18q-25 0 -42 18t-17 43zM719 1712q0 27 16.5 44.5t42.5 17.5q28 0 46 -18t18 -44 q0 -25 -18.5 -43t-45.5 -18q-26 0 -42.5 18t-16.5 43z" />
<glyph unicode="&#xcc;" horiz-adv-x="655" d="M117 0v43h184v1348h-184v43h422v-43h-185v-1348h185v-43h-422zM197 1845h63l139 -258h-51z" />
<glyph unicode="&#xcd;" horiz-adv-x="655" d="M117 0v43h184v1348h-184v43h422v-43h-185v-1348h185v-43h-422zM256 1587l139 258h64l-152 -258h-51z" />
<glyph unicode="&#xce;" horiz-adv-x="655" d="M109 1589l192 250h55l191 -250h-53l-166 217l-166 -217h-53zM117 0v43h184v1348h-184v43h422v-43h-185v-1348h185v-43h-422z" />
<glyph unicode="&#xcf;" horiz-adv-x="655" d="M98 1712q0 26 17.5 44t42.5 18q28 0 45.5 -18t17.5 -44q0 -25 -18 -43t-45 -18q-25 0 -42.5 18t-17.5 43zM117 0v43h184v1348h-184v43h422v-43h-185v-1348h185v-43h-422zM434 1712q0 26 17 44t43 18q28 0 45.5 -18t17.5 -44q0 -25 -18 -43t-45 -18q-26 0 -43 18t-17 43z " />
<glyph unicode="&#xd0;" horiz-adv-x="1443" d="M121 727v43h207v621h-185v43h480q149 0 275.5 -49.5t218 -140t143 -224.5t51.5 -297q0 -329 -183.5 -526t-490.5 -197h-494v43h185v684h-207zM381 43h233q293 0 466 184t173 496q0 308 -180 488t-471 180h-221v-621h410v-43h-410v-684z" />
<glyph unicode="&#xd1;" horiz-adv-x="1632" d="M117 0v43h184v1348h-184v43h241l922 -1354v1311h-186v43h422v-43h-185v-1391h-61l-918 1356v-1313h187v-43h-422zM535 1620q3 69 43.5 112.5t103.5 43.5q45 0 95 -28t97 -55.5t84 -27.5q41 0 67.5 31.5t29.5 77.5h47q-3 -70 -44 -113t-104 -43q-35 0 -74.5 17.5t-69 38 t-66.5 38t-68 17.5q-40 0 -65.5 -31.5t-28.5 -77.5h-47z" />
<glyph unicode="&#xd2;" horiz-adv-x="1605" d="M133 729q0 206 84 371.5t237.5 260.5t348.5 95t348.5 -95t237.5 -260.5t84 -371.5q0 -209 -83.5 -380t-237.5 -271.5t-349 -100.5t-349 100.5t-237.5 271.5t-83.5 380zM190 729q0 -194 75 -352.5t216 -253t322 -94.5t322 94.5t215.5 253t74.5 352.5q0 189 -74.5 342.5 t-215.5 243.5t-322 90t-322 -90t-216 -243.5t-75 -342.5zM672 1845h63l139 -258h-51z" />
<glyph unicode="&#xd3;" horiz-adv-x="1605" d="M133 729q0 206 84 371.5t237.5 260.5t348.5 95t348.5 -95t237.5 -260.5t84 -371.5q0 -209 -83.5 -380t-237.5 -271.5t-349 -100.5t-349 100.5t-237.5 271.5t-83.5 380zM190 729q0 -194 75 -352.5t216 -253t322 -94.5t322 94.5t215.5 253t74.5 352.5q0 189 -74.5 342.5 t-215.5 243.5t-322 90t-322 -90t-216 -243.5t-75 -342.5zM731 1587l139 258h64l-152 -258h-51z" />
<glyph unicode="&#xd4;" horiz-adv-x="1605" d="M133 729q0 206 84 371.5t237.5 260.5t348.5 95t348.5 -95t237.5 -260.5t84 -371.5q0 -209 -83.5 -380t-237.5 -271.5t-349 -100.5t-349 100.5t-237.5 271.5t-83.5 380zM190 729q0 -194 75 -352.5t216 -253t322 -94.5t322 94.5t215.5 253t74.5 352.5q0 189 -74.5 342.5 t-215.5 243.5t-322 90t-322 -90t-216 -243.5t-75 -342.5zM584 1589l192 250h55l191 -250h-53l-166 217l-166 -217h-53z" />
<glyph unicode="&#xd5;" horiz-adv-x="1605" d="M133 729q0 206 84 371.5t237.5 260.5t348.5 95t348.5 -95t237.5 -260.5t84 -371.5q0 -209 -83.5 -380t-237.5 -271.5t-349 -100.5t-349 100.5t-237.5 271.5t-83.5 380zM190 729q0 -194 75 -352.5t216 -253t322 -94.5t322 94.5t215.5 253t74.5 352.5q0 189 -74.5 342.5 t-215.5 243.5t-322 90t-322 -90t-216 -243.5t-75 -342.5zM520 1620q3 69 44 112.5t104 43.5q45 0 95 -28t97 -55.5t84 -27.5q41 0 67 31.5t29 77.5h47q-3 -70 -43.5 -113t-103.5 -43q-35 0 -74.5 17.5t-69 38t-66.5 38t-68 17.5q-40 0 -66 -31.5t-29 -77.5h-47z" />
<glyph unicode="&#xd6;" horiz-adv-x="1605" d="M133 729q0 206 84 371.5t237.5 260.5t348.5 95t348.5 -95t237.5 -260.5t84 -371.5q0 -209 -83.5 -380t-237.5 -271.5t-349 -100.5t-349 100.5t-237.5 271.5t-83.5 380zM190 729q0 -194 75 -352.5t216 -253t322 -94.5t322 94.5t215.5 253t74.5 352.5q0 189 -74.5 342.5 t-215.5 243.5t-322 90t-322 -90t-216 -243.5t-75 -342.5zM573 1712q0 26 17.5 44t42.5 18q27 0 45 -18t18 -44q0 -25 -18 -43t-45 -18q-25 0 -42.5 18t-17.5 43zM909 1712q0 26 17 44t43 18q27 0 45 -18t18 -44q0 -25 -18 -43t-45 -18q-26 0 -43 18t-17 43z" />
<glyph unicode="&#xd7;" horiz-adv-x="1099" d="M154 248l364 391l-364 389l34 33l363 -387l360 387l35 -33l-364 -389l364 -391l-35 -33l-360 387l-363 -387z" />
<glyph unicode="&#xd8;" horiz-adv-x="1605" d="M133 729q0 206 84 371.5t237.5 260.5t348.5 95q255 0 438 -162l137 166l37 -30l-139 -170q95 -99 146 -236t51 -295q0 -209 -83.5 -380t-237.5 -271.5t-349 -100.5q-262 0 -441 173l-145 -177l-37 33l148 178q-93 104 -144 244.5t-51 300.5zM190 729q0 -148 44.5 -277.5 t127.5 -224.5l844 1024q-164 154 -403 154q-181 0 -322 -90t-216 -243.5t-75 -342.5zM397 193q164 -164 406 -164q181 0 322 94.5t215.5 253t74.5 352.5q0 145 -45 271t-129 217z" />
<glyph unicode="&#xd9;" horiz-adv-x="1462" d="M70 1391v43h419v-43h-190v-922q0 -196 113.5 -319t318.5 -123t318.5 123t113.5 319v922h-190v43h420v-43h-176v-918q0 -144 -55 -255.5t-166 -177t-265 -65.5t-265 65.5t-165.5 177t-54.5 255.5v918h-176zM600 1845h64l139 -258h-51z" />
<glyph unicode="&#xda;" horiz-adv-x="1462" d="M70 1391v43h419v-43h-190v-922q0 -196 113.5 -319t318.5 -123t318.5 123t113.5 319v922h-190v43h420v-43h-176v-918q0 -144 -55 -255.5t-166 -177t-265 -65.5t-265 65.5t-165.5 177t-54.5 255.5v918h-176zM659 1587l140 258h63l-151 -258h-52z" />
<glyph unicode="&#xdb;" horiz-adv-x="1462" d="M70 1391v43h419v-43h-190v-922q0 -196 113.5 -319t318.5 -123t318.5 123t113.5 319v922h-190v43h420v-43h-176v-918q0 -144 -55 -255.5t-166 -177t-265 -65.5t-265 65.5t-165.5 177t-54.5 255.5v918h-176zM512 1589l193 250h55l190 -250h-53l-166 217l-166 -217h-53z" />
<glyph unicode="&#xdc;" horiz-adv-x="1462" d="M70 1391v43h419v-43h-190v-922q0 -196 113.5 -319t318.5 -123t318.5 123t113.5 319v922h-190v43h420v-43h-176v-918q0 -144 -55 -255.5t-166 -177t-265 -65.5t-265 65.5t-165.5 177t-54.5 255.5v918h-176zM502 1712q0 26 17 44t42 18q28 0 46 -18t18 -44q0 -25 -18.5 -43 t-45.5 -18q-25 0 -42 18t-17 43zM838 1712q0 27 16.5 44.5t42.5 17.5q28 0 46 -18t18 -44q0 -25 -18.5 -43t-45.5 -18q-26 0 -42.5 18t-16.5 43z" />
<glyph unicode="&#xdd;" horiz-adv-x="1277" d="M25 1391v43h407v-43h-192l401 -715l403 715h-192v43h401v-43h-155l-432 -760v-588h200v-43h-454v43h200v586l-432 762h-155zM567 1587l140 258h63l-152 -258h-51z" />
<glyph unicode="&#xde;" horiz-adv-x="1144" d="M119 0v43h190v1348h-190v43h459v-43h-216v-308h283q172 0 282.5 -92.5t110.5 -247.5q0 -160 -111.5 -257t-281.5 -97h-283v-346h218v-43h-461zM362 434h277q150 0 246 86.5t96 220.5q0 135 -94.5 216t-247.5 81h-277v-604z" />
<glyph unicode="&#xdf;" horiz-adv-x="1218" d="M78 0v43h174v1073q0 170 90 271.5t240 101.5q144 0 236.5 -89t92.5 -216q0 -108 -70.5 -189.5t-178.5 -105.5q174 -19 294.5 -141.5t120.5 -292.5q0 -196 -130.5 -325.5t-323.5 -129.5h-15v43q177 0 295.5 116.5t118.5 286.5q0 169 -121 284t-305 130v45 q115 24 188.5 97.5t73.5 171.5q0 117 -77.5 192.5t-198.5 75.5q-127 0 -203 -90t-76 -240v-1069h129v-43h-354z" />
<glyph unicode="&#xe0;" horiz-adv-x="1228" d="M150 301q0 140 114 231t291 91q131 0 225.5 -54.5t137.5 -138.5v264q0 144 -91.5 229t-251.5 85q-86 0 -178.5 -29t-165.5 -74l-24 41q180 109 377 109q179 0 282 -95.5t103 -257.5v-659h174v-43h-223v182q-37 -90 -136.5 -147.5t-240.5 -57.5q-169 0 -281 91.5 t-112 232.5zM203 303q0 -118 96 -199t258 -81q154 0 258.5 82t104.5 200q0 111 -104 192t-253 81q-158 0 -259 -79t-101 -196zM483 1464h64l139 -258h-51z" />
<glyph unicode="&#xe1;" horiz-adv-x="1228" d="M150 301q0 140 114 231t291 91q131 0 225.5 -54.5t137.5 -138.5v264q0 144 -91.5 229t-251.5 85q-86 0 -178.5 -29t-165.5 -74l-24 41q180 109 377 109q179 0 282 -95.5t103 -257.5v-659h174v-43h-223v182q-37 -90 -136.5 -147.5t-240.5 -57.5q-169 0 -281 91.5 t-112 232.5zM203 303q0 -118 96 -199t258 -81q154 0 258.5 82t104.5 200q0 111 -104 192t-253 81q-158 0 -259 -79t-101 -196zM543 1206l139 258h63l-151 -258h-51z" />
<glyph unicode="&#xe2;" horiz-adv-x="1228" d="M150 301q0 140 114 231t291 91q131 0 225.5 -54.5t137.5 -138.5v264q0 144 -91.5 229t-251.5 85q-86 0 -178.5 -29t-165.5 -74l-24 41q180 109 377 109q179 0 282 -95.5t103 -257.5v-659h174v-43h-223v182q-37 -90 -136.5 -147.5t-240.5 -57.5q-169 0 -281 91.5 t-112 232.5zM203 303q0 -118 96 -199t258 -81q154 0 258.5 82t104.5 200q0 111 -104 192t-253 81q-158 0 -259 -79t-101 -196zM395 1208l193 250h55l191 -250h-54l-166 217l-165 -217h-54z" />
<glyph unicode="&#xe3;" horiz-adv-x="1228" d="M150 301q0 140 114 231t291 91q131 0 225.5 -54.5t137.5 -138.5v264q0 144 -91.5 229t-251.5 85q-86 0 -178.5 -29t-165.5 -74l-24 41q180 109 377 109q179 0 282 -95.5t103 -257.5v-659h174v-43h-223v182q-37 -90 -136.5 -147.5t-240.5 -57.5q-169 0 -281 91.5 t-112 232.5zM203 303q0 -118 96 -199t258 -81q154 0 258.5 82t104.5 200q0 111 -104 192t-253 81q-158 0 -259 -79t-101 -196zM332 1239q3 69 43.5 112.5t103.5 43.5q35 0 75 -17.5t69.5 -38t66 -38t66.5 -17.5q41 0 67 31.5t29 77.5h47q-3 -70 -43.5 -113t-103.5 -43 q-35 0 -75 17.5t-69 38t-66.5 38t-68.5 17.5q-40 0 -65.5 -31.5t-28.5 -77.5h-47z" />
<glyph unicode="&#xe4;" horiz-adv-x="1228" d="M150 301q0 140 114 231t291 91q131 0 225.5 -54.5t137.5 -138.5v264q0 144 -91.5 229t-251.5 85q-86 0 -178.5 -29t-165.5 -74l-24 41q180 109 377 109q179 0 282 -95.5t103 -257.5v-659h174v-43h-223v182q-37 -90 -136.5 -147.5t-240.5 -57.5q-169 0 -281 91.5 t-112 232.5zM203 303q0 -118 96 -199t258 -81q154 0 258.5 82t104.5 200q0 111 -104 192t-253 81q-158 0 -259 -79t-101 -196zM385 1331q0 26 17 44t42 18q28 0 46 -18t18 -44q0 -25 -18.5 -43t-45.5 -18q-25 0 -42 18t-17 43zM721 1331q0 27 16.5 44.5t42.5 17.5 q28 0 46 -18t18 -44q0 -25 -18.5 -43t-45.5 -18q-26 0 -42.5 18t-16.5 43z" />
<glyph unicode="&#xe5;" horiz-adv-x="1228" d="M150 301q0 140 114 231t291 91q131 0 225.5 -54.5t137.5 -138.5v264q0 144 -91.5 229t-251.5 85q-86 0 -178.5 -29t-165.5 -74l-24 41q180 109 377 109q179 0 282 -95.5t103 -257.5v-659h174v-43h-223v182q-37 -90 -136.5 -147.5t-240.5 -57.5q-169 0 -281 91.5 t-112 232.5zM203 303q0 -118 96 -199t258 -81q154 0 258.5 82t104.5 200q0 111 -104 192t-253 81q-158 0 -259 -79t-101 -196zM463 1341q0 65 42.5 108.5t108.5 43.5q65 0 107.5 -43.5t42.5 -108.5q0 -66 -42 -109.5t-108 -43.5t-108.5 43.5t-42.5 109.5zM510 1341 q0 -50 29 -82t75 -32t74.5 32t28.5 82q0 48 -29 79.5t-74 31.5t-74.5 -31.5t-29.5 -79.5z" />
<glyph unicode="&#xe6;" horiz-adv-x="1959" d="M150 301q0 143 112.5 232.5t290.5 89.5q133 0 229 -50.5t138 -130.5v211q0 153 -94.5 254t-250.5 101q-177 0 -348 -103l-24 41q175 109 381 109q150 0 250 -89.5t124 -228.5q53 144 169.5 232t261.5 88q132 0 234.5 -67t157 -179t54.5 -248v-33h-866v-10 q0 -224 119 -360.5t313 -136.5q116 0 218 58.5t165 162.5l39 -27q-67 -115 -179.5 -178.5t-246.5 -63.5q-151 0 -265 82t-169 224q-21 -134 -134 -220t-280 -86q-174 0 -286.5 90t-112.5 236zM203 303q0 -119 94.5 -199.5t259.5 -80.5q154 0 258.5 86.5t104.5 209.5 q0 106 -103 182.5t-256 76.5q-161 0 -259.5 -78t-98.5 -197zM971 578h811q0 119 -48.5 217t-140 156.5t-209.5 58.5q-156 0 -276 -121.5t-137 -310.5z" />
<glyph unicode="&#xe7;" horiz-adv-x="1165" d="M127 530q0 111 40.5 210.5t106.5 168t152 108.5t176 40q135 0 235 -65t146 -171v211h47v-315h-37q-41 131 -138.5 212t-244.5 81q-82 0 -159.5 -35.5t-137 -97.5t-95.5 -153t-36 -194q0 -224 124.5 -365.5t324.5 -141.5q116 0 219 62t166 163l41 -25 q-67 -114 -180.5 -181t-249.5 -67h-13l-20 -94q12 4 29 4q62 0 101.5 -39t39.5 -94q0 -68 -48.5 -108.5t-125.5 -40.5q-52 0 -94 20l10 47q40 -24 82 -24q56 0 90.5 29.5t34.5 76.5q0 41 -31 66.5t-82 25.5q-31 0 -59 -8l30 141q-197 22 -320.5 174.5t-123.5 378.5z" />
<glyph unicode="&#xe8;" horiz-adv-x="1202" d="M125 532q0 114 39.5 213t106.5 166.5t157 106.5t188 39q135 0 241 -66.5t163 -178t57 -245.5v-32h-897q0 -227 124 -369.5t319 -142.5q119 0 227.5 60.5t171.5 162.5l39 -27q-69 -115 -187.5 -179.5t-257.5 -64.5q-214 0 -352.5 158.5t-138.5 398.5zM180 582h842 q0 181 -114 304.5t-296 123.5q-167 0 -295 -123t-137 -305zM471 1464h64l139 -258h-51z" />
<glyph unicode="&#xe9;" horiz-adv-x="1202" d="M125 532q0 114 39.5 213t106.5 166.5t157 106.5t188 39q135 0 241 -66.5t163 -178t57 -245.5v-32h-897q0 -227 124 -369.5t319 -142.5q119 0 227.5 60.5t171.5 162.5l39 -27q-69 -115 -187.5 -179.5t-257.5 -64.5q-214 0 -352.5 158.5t-138.5 398.5zM180 582h842 q0 181 -114 304.5t-296 123.5q-167 0 -295 -123t-137 -305zM530 1206l140 258h63l-151 -258h-52z" />
<glyph unicode="&#xea;" horiz-adv-x="1202" d="M125 532q0 114 39.5 213t106.5 166.5t157 106.5t188 39q135 0 241 -66.5t163 -178t57 -245.5v-32h-897q0 -227 124 -369.5t319 -142.5q119 0 227.5 60.5t171.5 162.5l39 -27q-69 -115 -187.5 -179.5t-257.5 -64.5q-214 0 -352.5 158.5t-138.5 398.5zM180 582h842 q0 181 -114 304.5t-296 123.5q-167 0 -295 -123t-137 -305zM383 1208l192 250h56l190 -250h-53l-166 217l-166 -217h-53z" />
<glyph unicode="&#xeb;" horiz-adv-x="1202" d="M125 532q0 114 39.5 213t106.5 166.5t157 106.5t188 39q135 0 241 -66.5t163 -178t57 -245.5v-32h-897q0 -227 124 -369.5t319 -142.5q119 0 227.5 60.5t171.5 162.5l39 -27q-69 -115 -187.5 -179.5t-257.5 -64.5q-214 0 -352.5 158.5t-138.5 398.5zM180 582h842 q0 181 -114 304.5t-296 123.5q-167 0 -295 -123t-137 -305zM373 1331q0 26 17 44t42 18q28 0 46 -18t18 -44q0 -25 -18.5 -43t-45.5 -18q-25 0 -42 18t-17 43zM709 1331q0 27 16.5 44.5t42.5 17.5q28 0 45.5 -17.5t17.5 -44.5q0 -25 -18 -43t-45 -18q-26 0 -42.5 18 t-16.5 43z" />
<glyph unicode="&#xec;" horiz-adv-x="598" d="M106 0v43h175v946h-175v43h226v-989h174v-43h-400zM164 1464h63l140 -258h-52z" />
<glyph unicode="&#xed;" horiz-adv-x="598" d="M106 0v43h175v946h-175v43h226v-989h174v-43h-400zM223 1206l139 258h64l-152 -258h-51z" />
<glyph unicode="&#xee;" horiz-adv-x="598" d="M76 1208l192 250h56l190 -250h-53l-166 217l-166 -217h-53zM106 0v43h175v946h-175v43h226v-989h174v-43h-400z" />
<glyph unicode="&#xef;" horiz-adv-x="598" d="M90 1331q0 26 17.5 44t42.5 18q28 0 45.5 -17.5t17.5 -44.5q0 -25 -18 -43t-45 -18q-25 0 -42.5 18t-17.5 43zM106 0v43h175v946h-175v43h226v-989h174v-43h-400zM369 1331q0 27 16.5 44.5t42.5 17.5q28 0 46 -18t18 -44q0 -25 -18.5 -43t-45.5 -18q-26 0 -42.5 18 t-16.5 43z" />
<glyph unicode="&#xf0;" horiz-adv-x="1236" d="M129 512q0 223 135 366.5t340 143.5q151 0 267.5 -80t160.5 -213q-61 357 -385 567l-328 -151l-16 39l299 137q-109 65 -276 123l20 45q165 -55 309 -143l303 139l17 -39l-279 -127q199 -131 300.5 -322t101.5 -460q0 -253 -132 -407.5t-350 -154.5q-217 0 -352 150.5 t-135 386.5zM184 512q0 -214 120 -351.5t310 -137.5t310 139t120 354q0 201 -124.5 331t-307.5 130q-188 0 -308 -130.5t-120 -334.5z" />
<glyph unicode="&#xf1;" horiz-adv-x="1361" d="M106 0v43h175v946h-175v43h224v-237q37 116 144 189t245 73q172 0 277.5 -102.5t105.5 -272.5v-639h174v-43h-397v43h172v633q0 152 -94 242t-252 90q-154 0 -263.5 -102.5t-109.5 -248.5v-614h172v-43h-398zM403 1239q3 69 44 112.5t104 43.5q35 0 75 -17.5t69 -38 t65.5 -38t66.5 -17.5q41 0 67.5 31.5t29.5 77.5h47q-3 -70 -44 -113t-104 -43q-35 0 -74.5 17.5t-69 38t-66.5 38t-68 17.5q-40 0 -65.5 -31.5t-28.5 -77.5h-48z" />
<glyph unicode="&#xf2;" horiz-adv-x="1290" d="M125 526q0 114 40.5 213.5t110 169t165.5 109t204 39.5q222 0 371 -150t149 -381q0 -154 -67.5 -280t-187 -198.5t-265.5 -72.5t-265.5 72.5t-187 198.5t-67.5 280zM180 526q0 -215 132.5 -359t332.5 -144t332.5 144t132.5 359q0 212 -132.5 348t-332.5 136 q-130 0 -236 -61t-167.5 -172t-61.5 -251zM514 1464h64l139 -258h-51z" />
<glyph unicode="&#xf3;" horiz-adv-x="1290" d="M125 526q0 114 40.5 213.5t110 169t165.5 109t204 39.5q222 0 371 -150t149 -381q0 -154 -67.5 -280t-187 -198.5t-265.5 -72.5t-265.5 72.5t-187 198.5t-67.5 280zM180 526q0 -215 132.5 -359t332.5 -144t332.5 144t132.5 359q0 212 -132.5 348t-332.5 136 q-130 0 -236 -61t-167.5 -172t-61.5 -251zM573 1206l140 258h63l-151 -258h-52z" />
<glyph unicode="&#xf4;" horiz-adv-x="1290" d="M125 526q0 114 40.5 213.5t110 169t165.5 109t204 39.5q222 0 371 -150t149 -381q0 -154 -67.5 -280t-187 -198.5t-265.5 -72.5t-265.5 72.5t-187 198.5t-67.5 280zM180 526q0 -215 132.5 -359t332.5 -144t332.5 144t132.5 359q0 212 -132.5 348t-332.5 136 q-130 0 -236 -61t-167.5 -172t-61.5 -251zM426 1208l192 250h56l190 -250h-53l-166 217l-166 -217h-53z" />
<glyph unicode="&#xf5;" horiz-adv-x="1290" d="M125 526q0 114 40.5 213.5t110 169t165.5 109t204 39.5q222 0 371 -150t149 -381q0 -154 -67.5 -280t-187 -198.5t-265.5 -72.5t-265.5 72.5t-187 198.5t-67.5 280zM180 526q0 -215 132.5 -359t332.5 -144t332.5 144t132.5 359q0 212 -132.5 348t-332.5 136 q-130 0 -236 -61t-167.5 -172t-61.5 -251zM362 1239q3 69 44 112.5t104 43.5q36 0 75.5 -17.5t68.5 -38t65.5 -38t66.5 -17.5q41 0 67.5 31.5t29.5 77.5h47q-3 -70 -44 -113t-104 -43q-35 0 -74.5 17.5t-69 38t-66.5 38t-68 17.5q-40 0 -65.5 -31.5t-28.5 -77.5h-48z" />
<glyph unicode="&#xf6;" horiz-adv-x="1290" d="M125 526q0 114 40.5 213.5t110 169t165.5 109t204 39.5q222 0 371 -150t149 -381q0 -154 -67.5 -280t-187 -198.5t-265.5 -72.5t-265.5 72.5t-187 198.5t-67.5 280zM180 526q0 -215 132.5 -359t332.5 -144t332.5 144t132.5 359q0 212 -132.5 348t-332.5 136 q-130 0 -236 -61t-167.5 -172t-61.5 -251zM416 1331q0 26 17 44t42 18q28 0 46 -18t18 -44q0 -25 -18.5 -43t-45.5 -18q-25 0 -42 18t-17 43zM752 1331q0 27 16.5 44.5t42.5 17.5q27 0 45 -17.5t18 -44.5q0 -25 -18 -43t-45 -18q-26 0 -42.5 18t-16.5 43z" />
<glyph unicode="&#xf7;" horiz-adv-x="1148" d="M123 623v45h903v-45h-903zM510 328q0 27 18 46t45 19q29 0 48.5 -19t19.5 -46q0 -28 -19.5 -47t-48.5 -19q-27 0 -45 19t-18 47zM510 965q0 28 17.5 46.5t45.5 18.5q29 0 48.5 -18.5t19.5 -46.5t-19.5 -47t-48.5 -19q-27 0 -45 19t-18 47z" />
<glyph unicode="&#xf8;" horiz-adv-x="1290" d="M125 526q0 114 40.5 213.5t110 169t165.5 109t204 39.5q187 0 322 -107l94 113l37 -31l-94 -112q76 -72 118.5 -173.5t42.5 -220.5q0 -154 -67.5 -280t-187 -198.5t-265.5 -72.5q-185 0 -326 115l-98 -119l-37 31l101 121q-76 76 -118 179.5t-42 223.5zM180 526 q0 -217 137 -364l619 749q-123 99 -291 99q-130 0 -236 -61t-167.5 -172t-61.5 -251zM352 129q122 -106 293 -106q200 0 332.5 144t132.5 359q0 219 -139 355z" />
<glyph unicode="&#xf9;" horiz-adv-x="1310" d="M82 989v43h225v-670q0 -150 87 -243.5t229 -93.5q149 0 258.5 108.5t109.5 243.5v612h-174v43h225v-989h175v-43h-226v238q-41 -115 -145 -189t-238 -74q-156 0 -254 106.5t-98 272.5v635h-174zM496 1464h63l139 -258h-51z" />
<glyph unicode="&#xfa;" horiz-adv-x="1310" d="M82 989v43h225v-670q0 -150 87 -243.5t229 -93.5q149 0 258.5 108.5t109.5 243.5v612h-174v43h225v-989h175v-43h-226v238q-41 -115 -145 -189t-238 -74q-156 0 -254 106.5t-98 272.5v635h-174zM555 1206l139 258h64l-152 -258h-51z" />
<glyph unicode="&#xfb;" horiz-adv-x="1310" d="M82 989v43h225v-670q0 -150 87 -243.5t229 -93.5q149 0 258.5 108.5t109.5 243.5v612h-174v43h225v-989h175v-43h-226v238q-41 -115 -145 -189t-238 -74q-156 0 -254 106.5t-98 272.5v635h-174zM408 1208l192 250h55l191 -250h-53l-166 217l-166 -217h-53z" />
<glyph unicode="&#xfc;" horiz-adv-x="1310" d="M82 989v43h225v-670q0 -150 87 -243.5t229 -93.5q149 0 258.5 108.5t109.5 243.5v612h-174v43h225v-989h175v-43h-226v238q-41 -115 -145 -189t-238 -74q-156 0 -254 106.5t-98 272.5v635h-174zM397 1331q0 26 17.5 44t42.5 18q27 0 45 -17.5t18 -44.5q0 -25 -18 -43 t-45 -18q-25 0 -42.5 18t-17.5 43zM733 1331q0 26 17 44t43 18q27 0 45 -17.5t18 -44.5q0 -25 -18 -43t-45 -18q-26 0 -43 18t-17 43z" />
<glyph unicode="&#xfd;" horiz-adv-x="1191" d="M18 989v43h406v-43h-205l375 -948l379 948h-205v43h403v-43h-147l-428 -1059q-63 -156 -142.5 -236.5t-185.5 -80.5q-55 0 -100 10v49q54 -12 102 -12q85 0 155 73.5t132 217.5l12 29l-403 1009h-148zM524 1206l140 258h63l-152 -258h-51z" />
<glyph unicode="&#xfe;" horiz-adv-x="1376" d="M94 -340h174v1731h-174v43h225v-717q19 66 57.5 126t94 108.5t133.5 77t168 28.5q206 0 341.5 -155.5t135.5 -379.5q0 -230 -138.5 -388.5t-350.5 -158.5q-87 0 -163 29t-130 78t-91 108t-57 125v-655h207v-43h-432v43zM317 520q0 -208 126.5 -352.5t312.5 -144.5 q129 0 230 67t154.5 180t53.5 250q0 207 -119 348.5t-313 141.5q-123 0 -225.5 -65.5t-161 -178t-58.5 -246.5z" />
<glyph unicode="&#xff;" horiz-adv-x="1191" d="M18 989v43h406v-43h-205l375 -948l379 948h-205v43h403v-43h-147l-428 -1059q-63 -156 -142.5 -236.5t-185.5 -80.5q-55 0 -100 10v49q54 -12 102 -12q85 0 155 73.5t132 217.5l12 29l-403 1009h-148zM367 1331q0 26 17 44t42 18q28 0 45.5 -17.5t17.5 -44.5 q0 -25 -18 -43t-45 -18q-25 0 -42 18t-17 43zM702 1331q0 26 17 44t43 18q28 0 45.5 -17.5t17.5 -44.5q0 -25 -18 -43t-45 -18q-26 0 -43 18t-17 43z" />
<glyph unicode="&#x100;" horiz-adv-x="1581" d="M102 0v43h158l502 1395h57l502 -1395h158v-43h-422v43h209l-168 475h-617l-170 -475h209v-43h-418zM498 563h583l-293 823zM510 1669v45h559v-45h-559z" />
<glyph unicode="&#x101;" horiz-adv-x="1228" d="M150 301q0 140 114 231t291 91q131 0 225.5 -54.5t137.5 -138.5v264q0 144 -91.5 229t-251.5 85q-86 0 -178.5 -29t-165.5 -74l-24 41q180 109 377 109q179 0 282 -95.5t103 -257.5v-659h174v-43h-223v182q-37 -90 -136.5 -147.5t-240.5 -57.5q-169 0 -281 91.5 t-112 232.5zM203 303q0 -118 96 -199t258 -81q154 0 258.5 82t104.5 200q0 111 -104 192t-253 81q-158 0 -259 -79t-101 -196zM334 1288v45h559v-45h-559z" />
<glyph unicode="&#x102;" horiz-adv-x="1581" d="M102 0v43h158l502 1395h57l502 -1395h158v-43h-422v43h209l-168 475h-617l-170 -475h209v-43h-418zM498 563h583l-293 823zM580 1804h45q0 -75 43 -122.5t123 -47.5q79 0 121 47.5t42 122.5h47q0 -96 -54.5 -154.5t-155.5 -58.5q-102 0 -156.5 58.5t-54.5 154.5z" />
<glyph unicode="&#x103;" horiz-adv-x="1228" d="M150 301q0 140 114 231t291 91q131 0 225.5 -54.5t137.5 -138.5v264q0 144 -91.5 229t-251.5 85q-86 0 -178.5 -29t-165.5 -74l-24 41q180 109 377 109q179 0 282 -95.5t103 -257.5v-659h174v-43h-223v182q-37 -90 -136.5 -147.5t-240.5 -57.5q-169 0 -281 91.5 t-112 232.5zM203 303q0 -118 96 -199t258 -81q154 0 258.5 82t104.5 200q0 111 -104 192t-253 81q-158 0 -259 -79t-101 -196zM403 1423h46q0 -75 42.5 -122.5t122.5 -47.5q79 0 121.5 47.5t42.5 122.5h47q0 -95 -55 -154t-156 -59q-102 0 -156.5 58.5t-54.5 154.5z" />
<glyph unicode="&#x104;" horiz-adv-x="1581" d="M102 0v43h158l502 1395h57l502 -1395h158v-43h-111q-75 -40 -121.5 -97t-46.5 -118q0 -56 35 -90.5t88 -34.5q59 0 115 49l28 -33q-62 -59 -149 -59q-70 0 -119 45.5t-49 114.5q0 65 42 124t109 99h-243v43h209l-168 475h-617l-170 -475h209v-43h-418zM498 563h583 l-293 823z" />
<glyph unicode="&#x105;" horiz-adv-x="1228" d="M150 301q0 140 114 231t291 91q131 0 225.5 -54.5t137.5 -138.5v264q0 144 -91.5 229t-251.5 85q-86 0 -178.5 -29t-165.5 -74l-24 41q180 109 377 109q179 0 282 -95.5t103 -257.5v-659h174v-43h-158q-75 -40 -121.5 -97t-46.5 -118q0 -56 35 -90.5t88 -34.5 q59 0 115 49l28 -33q-62 -59 -149 -59q-70 0 -119 45.5t-49 114.5q0 66 42.5 124.5t111.5 100.5v180q-37 -90 -136.5 -147.5t-240.5 -57.5q-169 0 -281 91.5t-112 232.5zM203 303q0 -118 96 -199t258 -81q154 0 258.5 82t104.5 200q0 111 -104 192t-253 81q-158 0 -259 -79 t-101 -196z" />
<glyph unicode="&#x106;" horiz-adv-x="1439" d="M133 727q0 153 48.5 287t134 232t210.5 155t271 57q152 0 278.5 -83t190.5 -220v279h49v-396h-41q-49 164 -179 266.5t-288 102.5q-138 0 -254.5 -52.5t-195.5 -143.5t-123 -215.5t-44 -266.5q0 -194 72 -352t214 -254t331 -96q148 0 280 78.5t209 211.5l45 -28 q-80 -141 -225.5 -227.5t-308.5 -86.5q-153 0 -281 59.5t-213.5 161.5t-132.5 239t-47 292zM674 1587l139 258h64l-152 -258h-51z" />
<glyph unicode="&#x107;" horiz-adv-x="1165" d="M127 530q0 111 40.5 210.5t106.5 168t152 108.5t176 40q135 0 235 -65t146 -171v211h47v-315h-37q-41 131 -138.5 212t-244.5 81q-82 0 -159.5 -35.5t-137 -97.5t-95.5 -153t-36 -194q0 -224 124.5 -365.5t324.5 -141.5q116 0 219 62t166 163l41 -25 q-67 -114 -180.5 -181t-249.5 -67q-218 0 -359 156t-141 399zM512 1206l139 258h64l-152 -258h-51z" />
<glyph unicode="&#x108;" horiz-adv-x="1439" d="M133 727q0 153 48.5 287t134 232t210.5 155t271 57q152 0 278.5 -83t190.5 -220v279h49v-396h-41q-49 164 -179 266.5t-288 102.5q-138 0 -254.5 -52.5t-195.5 -143.5t-123 -215.5t-44 -266.5q0 -194 72 -352t214 -254t331 -96q148 0 280 78.5t209 211.5l45 -28 q-80 -141 -225.5 -227.5t-308.5 -86.5q-153 0 -281 59.5t-213.5 161.5t-132.5 239t-47 292zM526 1589l193 250h55l191 -250h-54l-166 217l-165 -217h-54z" />
<glyph unicode="&#x109;" horiz-adv-x="1165" d="M127 530q0 111 40.5 210.5t106.5 168t152 108.5t176 40q135 0 235 -65t146 -171v211h47v-315h-37q-41 131 -138.5 212t-244.5 81q-82 0 -159.5 -35.5t-137 -97.5t-95.5 -153t-36 -194q0 -224 124.5 -365.5t324.5 -141.5q116 0 219 62t166 163l41 -25 q-67 -114 -180.5 -181t-249.5 -67q-218 0 -359 156t-141 399zM365 1208l192 250h55l191 -250h-53l-166 217l-166 -217h-53z" />
<glyph unicode="&#x10a;" horiz-adv-x="1439" d="M133 727q0 153 48.5 287t134 232t210.5 155t271 57q152 0 278.5 -83t190.5 -220v279h49v-396h-41q-49 164 -179 266.5t-288 102.5q-138 0 -254.5 -52.5t-195.5 -143.5t-123 -215.5t-44 -266.5q0 -194 72 -352t214 -254t331 -96q148 0 280 78.5t209 211.5l45 -28 q-80 -141 -225.5 -227.5t-308.5 -86.5q-153 0 -281 59.5t-213.5 161.5t-132.5 239t-47 292zM682 1720q0 28 18 47t45 19q28 0 47 -19t19 -47q0 -26 -19 -44.5t-47 -18.5q-27 0 -45 18t-18 45z" />
<glyph unicode="&#x10b;" horiz-adv-x="1165" d="M127 530q0 111 40.5 210.5t106.5 168t152 108.5t176 40q135 0 235 -65t146 -171v211h47v-315h-37q-41 131 -138.5 212t-244.5 81q-82 0 -159.5 -35.5t-137 -97.5t-95.5 -153t-36 -194q0 -224 124.5 -365.5t324.5 -141.5q116 0 219 62t166 163l41 -25 q-67 -114 -180.5 -181t-249.5 -67q-218 0 -359 156t-141 399zM520 1339q0 28 18 47t46 19t46.5 -19t18.5 -47q0 -26 -18.5 -44.5t-46.5 -18.5t-46 18t-18 45z" />
<glyph unicode="&#x10c;" horiz-adv-x="1439" d="M133 727q0 153 48.5 287t134 232t210.5 155t271 57q152 0 278.5 -83t190.5 -220v279h49v-396h-41q-49 164 -179 266.5t-288 102.5q-138 0 -254.5 -52.5t-195.5 -143.5t-123 -215.5t-44 -266.5q0 -194 72 -352t214 -254t331 -96q148 0 280 78.5t209 211.5l45 -28 q-80 -141 -225.5 -227.5t-308.5 -86.5q-153 0 -281 59.5t-213.5 161.5t-132.5 239t-47 292zM526 1839h54l165 -217l166 217h54l-193 -250h-55z" />
<glyph unicode="&#x10d;" horiz-adv-x="1165" d="M127 530q0 111 40.5 210.5t106.5 168t152 108.5t176 40q135 0 235 -65t146 -171v211h47v-315h-37q-41 131 -138.5 212t-244.5 81q-82 0 -159.5 -35.5t-137 -97.5t-95.5 -153t-36 -194q0 -224 124.5 -365.5t324.5 -141.5q116 0 219 62t166 163l41 -25 q-67 -114 -180.5 -181t-249.5 -67q-218 0 -359 156t-141 399zM365 1458h53l166 -217l166 217h53l-193 -250h-55z" />
<glyph unicode="&#x10e;" horiz-adv-x="1421" d="M121 0v43h184v1348h-184v43h479q149 0 275.5 -49.5t218 -140t143 -224.5t51.5 -297q0 -329 -183.5 -526t-490.5 -197h-493zM358 43h234q293 0 466 184t173 496q0 308 -180 488t-471 180h-222v-1348zM492 1839h53l166 -217l166 217h53l-193 -250h-55z" />
<glyph unicode="&#x10f;" horiz-adv-x="1382" d="M127 522q0 146 62.5 268.5t174.5 194.5t250 72q171 0 286 -97t157 -239v717h-174v43h225v-1438h174v-43h-225v317q-19 -68 -56.5 -128t-92.5 -108.5t-133.5 -77t-170.5 -28.5q-137 0 -246.5 72.5t-170 197.5t-60.5 277zM182 522q0 -137 51 -249.5t150.5 -181t228.5 -68.5 q99 0 183.5 39t142 106.5t89.5 159t32 194.5q0 134 -55.5 245.5t-156.5 177t-226 65.5q-129 0 -230.5 -68.5t-155 -179t-53.5 -240.5zM1280 1133l29 348h53l-41 -348h-41z" />
<glyph unicode="&#x110;" horiz-adv-x="1443" d="M121 727v43h207v621h-185v43h480q149 0 275.5 -49.5t218 -140t143 -224.5t51.5 -297q0 -329 -183.5 -526t-490.5 -197h-494v43h185v684h-207zM381 43h233q293 0 466 184t173 496q0 308 -180 488t-471 180h-221v-621h410v-43h-410v-684z" />
<glyph unicode="&#x111;" horiz-adv-x="1374" d="M127 522q0 146 62.5 268.5t174.5 194.5t250 72q171 0 286 -97t157 -239v487h-355v43h355v187h-174v43h225v-230h174v-43h-174v-1165h174v-43h-225v317q-19 -68 -56.5 -128t-92.5 -108.5t-133.5 -77t-170.5 -28.5q-137 0 -246.5 72.5t-170 197.5t-60.5 277zM182 522 q0 -137 51 -249.5t150.5 -181t228.5 -68.5q99 0 183.5 39t142 106.5t89.5 159t32 194.5q0 134 -55.5 245.5t-156.5 177t-226 65.5q-129 0 -230.5 -68.5t-155 -179t-53.5 -240.5z" />
<glyph unicode="&#x112;" d="M119 0v43h184v1348h-184v43h874v-326h-49v283h-588v-619h521v-47h-521v-682h596v305h49v-348h-882zM332 1669v45h559v-45h-559z" />
<glyph unicode="&#x113;" horiz-adv-x="1202" d="M125 532q0 114 39.5 213t106.5 166.5t157 106.5t188 39q135 0 241 -66.5t163 -178t57 -245.5v-32h-897q0 -227 124 -369.5t319 -142.5q119 0 227.5 60.5t171.5 162.5l39 -27q-69 -115 -187.5 -179.5t-257.5 -64.5q-214 0 -352.5 158.5t-138.5 398.5zM180 582h842 q0 181 -114 304.5t-296 123.5q-167 0 -295 -123t-137 -305zM322 1288v45h559v-45h-559z" />
<glyph unicode="&#x114;" d="M119 0v43h184v1348h-184v43h874v-326h-49v283h-588v-619h521v-47h-521v-682h596v305h49v-348h-882zM401 1804h45q0 -75 43 -122.5t123 -47.5q79 0 121.5 47.5t42.5 122.5h47q0 -95 -55 -154t-156 -59q-102 0 -156.5 58.5t-54.5 154.5z" />
<glyph unicode="&#x115;" horiz-adv-x="1202" d="M125 532q0 114 39.5 213t106.5 166.5t157 106.5t188 39q135 0 241 -66.5t163 -178t57 -245.5v-32h-897q0 -227 124 -369.5t319 -142.5q119 0 227.5 60.5t171.5 162.5l39 -27q-69 -115 -187.5 -179.5t-257.5 -64.5q-214 0 -352.5 158.5t-138.5 398.5zM180 582h842 q0 181 -114 304.5t-296 123.5q-167 0 -295 -123t-137 -305zM391 1423h45q0 -75 43 -122.5t123 -47.5q79 0 121.5 47.5t42.5 122.5h47q0 -95 -55 -154t-156 -59q-102 0 -156.5 58.5t-54.5 154.5z" />
<glyph unicode="&#x116;" d="M119 0v43h184v1348h-184v43h874v-326h-49v283h-588v-619h521v-47h-521v-682h596v305h49v-348h-882zM549 1720q0 28 18 47t45 19q28 0 47 -19t19 -47q0 -26 -19 -44.5t-47 -18.5q-27 0 -45 18t-18 45z" />
<glyph unicode="&#x117;" horiz-adv-x="1202" d="M125 532q0 114 39.5 213t106.5 166.5t157 106.5t188 39q135 0 241 -66.5t163 -178t57 -245.5v-32h-897q0 -227 124 -369.5t319 -142.5q119 0 227.5 60.5t171.5 162.5l39 -27q-69 -115 -187.5 -179.5t-257.5 -64.5q-214 0 -352.5 158.5t-138.5 398.5zM180 582h842 q0 181 -114 304.5t-296 123.5q-167 0 -295 -123t-137 -305zM539 1339q0 28 18 47t45 19q28 0 47 -19t19 -47q0 -26 -19 -44.5t-47 -18.5q-27 0 -45 18t-18 45z" />
<glyph unicode="&#x118;" d="M119 0v43h184v1348h-184v43h874v-326h-49v283h-588v-619h521v-47h-521v-682h596v305h49v-348h-28q-75 -40 -121.5 -97t-46.5 -118q0 -56 35 -90.5t88 -34.5q58 0 114 49l29 -33q-62 -59 -149 -59q-70 0 -119 45.5t-49 114.5q0 65 42 124t109 99h-786z" />
<glyph unicode="&#x119;" horiz-adv-x="1202" d="M125 532q0 114 39.5 213t106.5 166.5t157 106.5t188 39q135 0 241 -66.5t163 -178t57 -245.5v-32h-897q0 -227 124 -369.5t319 -142.5q119 0 227.5 60.5t171.5 162.5l39 -27q-61 -101 -162 -164q-182 -136 -182 -270q0 -56 35 -90.5t88 -34.5q58 0 114 49l29 -33 q-62 -59 -149 -59q-70 0 -119 45t-49 113q0 111 120 227q-89 -27 -170 -27q-214 0 -352.5 158.5t-138.5 398.5zM180 582h842q0 181 -114 304.5t-296 123.5q-167 0 -295 -123t-137 -305z" />
<glyph unicode="&#x11a;" d="M119 0v43h184v1348h-184v43h874v-326h-49v283h-588v-619h521v-47h-521v-682h596v305h49v-348h-882zM393 1839h53l166 -217l166 217h53l-192 -250h-55z" />
<glyph unicode="&#x11b;" horiz-adv-x="1202" d="M125 532q0 114 39.5 213t106.5 166.5t157 106.5t188 39q135 0 241 -66.5t163 -178t57 -245.5v-32h-897q0 -227 124 -369.5t319 -142.5q119 0 227.5 60.5t171.5 162.5l39 -27q-69 -115 -187.5 -179.5t-257.5 -64.5q-214 0 -352.5 158.5t-138.5 398.5zM180 582h842 q0 181 -114 304.5t-296 123.5q-167 0 -295 -123t-137 -305zM383 1458h53l166 -217l166 217h53l-192 -250h-56z" />
<glyph unicode="&#x11c;" horiz-adv-x="1552" d="M131 729q0 153 49 287t135.5 231t210.5 153t269 56q162 0 295 -80t200 -211v273h49l2 -379h-41q-53 154 -189 250t-308 96q-182 0 -323 -88.5t-216.5 -242t-75.5 -345.5q0 -145 42 -272.5t118.5 -222.5t191.5 -150t253 -55q219 0 367.5 149.5t174.5 407.5h-377v47h428 v-633h-51v403q-57 -198 -203.5 -312t-343.5 -114q-198 0 -349 102t-229.5 272t-78.5 378zM557 1589l193 250h55l190 -250h-53l-166 217l-166 -217h-53z" />
<glyph unicode="&#x11d;" horiz-adv-x="1368" d="M127 522q0 146 62.5 268.5t174.5 194.5t250 72q171 0 286 -97t157 -239v311h225v-43h-174v-948q0 -106 -41.5 -190t-112.5 -135.5t-159.5 -78t-188.5 -26.5q-101 0 -200 31t-166 82l26 40q66 -50 157 -78t189 -28q85 0 163 24t142 69t102 118.5t38 163.5v284 q-19 -68 -56.5 -128t-92.5 -108.5t-133.5 -77t-170.5 -28.5q-137 0 -246.5 72.5t-170 197.5t-60.5 277zM182 522q0 -137 51 -249.5t150.5 -181t228.5 -68.5q99 0 183.5 39t142 106.5t89.5 159t32 194.5q0 134 -55.5 245.5t-156.5 177t-226 65.5q-129 0 -230.5 -68.5 t-155 -179t-53.5 -240.5zM422 1208l192 250h56l190 -250h-53l-166 217l-166 -217h-53z" />
<glyph unicode="&#x11e;" horiz-adv-x="1552" d="M131 729q0 153 49 287t135.5 231t210.5 153t269 56q162 0 295 -80t200 -211v273h49l2 -379h-41q-53 154 -189 250t-308 96q-182 0 -323 -88.5t-216.5 -242t-75.5 -345.5q0 -145 42 -272.5t118.5 -222.5t191.5 -150t253 -55q219 0 367.5 149.5t174.5 407.5h-377v47h428 v-633h-51v403q-57 -198 -203.5 -312t-343.5 -114q-198 0 -349 102t-229.5 272t-78.5 378zM565 1804h45q0 -75 43 -122.5t123 -47.5q79 0 121.5 47.5t42.5 122.5h47q0 -95 -55 -154t-156 -59q-102 0 -156.5 58.5t-54.5 154.5z" />
<glyph unicode="&#x11f;" horiz-adv-x="1368" d="M127 522q0 146 62.5 268.5t174.5 194.5t250 72q171 0 286 -97t157 -239v311h225v-43h-174v-948q0 -106 -41.5 -190t-112.5 -135.5t-159.5 -78t-188.5 -26.5q-101 0 -200 31t-166 82l26 40q66 -50 157 -78t189 -28q85 0 163 24t142 69t102 118.5t38 163.5v284 q-19 -68 -56.5 -128t-92.5 -108.5t-133.5 -77t-170.5 -28.5q-137 0 -246.5 72.5t-170 197.5t-60.5 277zM182 522q0 -137 51 -249.5t150.5 -181t228.5 -68.5q99 0 183.5 39t142 106.5t89.5 159t32 194.5q0 134 -55.5 245.5t-156.5 177t-226 65.5q-129 0 -230.5 -68.5 t-155 -179t-53.5 -240.5zM430 1423h45q0 -75 43 -122.5t123 -47.5q79 0 121.5 47.5t42.5 122.5h47q0 -95 -55 -154t-156 -59q-102 0 -156.5 58.5t-54.5 154.5z" />
<glyph unicode="&#x120;" horiz-adv-x="1552" d="M131 729q0 153 49 287t135.5 231t210.5 153t269 56q162 0 295 -80t200 -211v273h49l2 -379h-41q-53 154 -189 250t-308 96q-182 0 -323 -88.5t-216.5 -242t-75.5 -345.5q0 -145 42 -272.5t118.5 -222.5t191.5 -150t253 -55q219 0 367.5 149.5t174.5 407.5h-377v47h428 v-633h-51v403q-57 -198 -203.5 -312t-343.5 -114q-198 0 -349 102t-229.5 272t-78.5 378zM713 1720q0 28 18 47t45 19q28 0 47 -19t19 -47q0 -26 -19 -44.5t-47 -18.5q-27 0 -45 18t-18 45z" />
<glyph unicode="&#x121;" horiz-adv-x="1368" d="M127 522q0 146 62.5 268.5t174.5 194.5t250 72q171 0 286 -97t157 -239v311h225v-43h-174v-948q0 -106 -41.5 -190t-112.5 -135.5t-159.5 -78t-188.5 -26.5q-101 0 -200 31t-166 82l26 40q66 -50 157 -78t189 -28q85 0 163 24t142 69t102 118.5t38 163.5v284 q-19 -68 -56.5 -128t-92.5 -108.5t-133.5 -77t-170.5 -28.5q-137 0 -246.5 72.5t-170 197.5t-60.5 277zM182 522q0 -137 51 -249.5t150.5 -181t228.5 -68.5q99 0 183.5 39t142 106.5t89.5 159t32 194.5q0 134 -55.5 245.5t-156.5 177t-226 65.5q-129 0 -230.5 -68.5 t-155 -179t-53.5 -240.5zM578 1339q0 28 18 47t45 19q28 0 47 -19t19 -47q0 -26 -19 -44.5t-47 -18.5q-27 0 -45 18t-18 45z" />
<glyph unicode="&#x122;" horiz-adv-x="1552" d="M131 729q0 153 49 287t135.5 231t210.5 153t269 56q162 0 295 -80t200 -211v273h49l2 -379h-41q-53 154 -189 250t-308 96q-182 0 -323 -88.5t-216.5 -242t-75.5 -345.5q0 -145 42 -272.5t118.5 -222.5t191.5 -150t253 -55q219 0 367.5 149.5t174.5 407.5h-377v47h428 v-633h-51v403q-57 -198 -203.5 -312t-343.5 -114q-198 0 -349 102t-229.5 272t-78.5 378zM705 -371q73 63 79 146q-3 0 -9.5 -1t-10.5 -1q-23 0 -39 17.5t-16 43.5q0 25 17.5 43.5t43.5 18.5q28 0 47 -24t19 -60q0 -118 -107 -207z" />
<glyph unicode="&#x123;" horiz-adv-x="1368" d="M127 522q0 146 62.5 268.5t174.5 194.5t250 72q171 0 286 -97t157 -239v311h225v-43h-174v-948q0 -106 -41.5 -190t-112.5 -135.5t-159.5 -78t-188.5 -26.5q-101 0 -200 31t-166 82l26 40q66 -50 157 -78t189 -28q85 0 163 24t142 69t102 118.5t38 163.5v284 q-19 -68 -56.5 -128t-92.5 -108.5t-133.5 -77t-170.5 -28.5q-137 0 -246.5 72.5t-170 197.5t-60.5 277zM182 522q0 -137 51 -249.5t150.5 -181t228.5 -68.5q99 0 183.5 39t142 106.5t89.5 159t32 194.5q0 134 -55.5 245.5t-156.5 177t-226 65.5q-129 0 -230.5 -68.5 t-155 -179t-53.5 -240.5zM582 1221q0 118 106 206l25 -24q-74 -64 -80 -146q3 0 9.5 1.5t10.5 1.5q23 0 39.5 -18t16.5 -44q0 -25 -18 -43t-44 -18q-28 0 -46.5 23.5t-18.5 60.5z" />
<glyph unicode="&#x124;" horiz-adv-x="1597" d="M117 0v43h184v1348h-184v43h422v-43h-185v-635h889v635h-184v43h422v-43h-185v-1348h185v-43h-422v43h184v666h-889v-666h185v-43h-422zM580 1589l192 250h55l191 -250h-53l-166 217l-166 -217h-53z" />
<glyph unicode="&#x125;" horiz-adv-x="1361" d="M106 0v43h175v1348h-175v43h226v-639q37 117 143 189.5t244 72.5q172 0 277.5 -102.5t105.5 -272.5v-639h174v-43h-397v43h172v633q0 152 -94 242t-252 90q-154 0 -263.5 -103t-109.5 -248v-614h172v-43h-398zM459 1524l192 250h56l190 -250h-53l-166 217l-166 -217h-53z " />
<glyph unicode="&#x126;" horiz-adv-x="1597" d="M117 0v43h184v1010h-184v43h184v295h-184v43h422v-43h-185v-295h889v295h-184v43h422v-43h-185v-295h185v-43h-185v-1010h185v-43h-422v43h184v666h-889v-666h185v-43h-422zM354 756h889v297h-889v-297z" />
<glyph unicode="&#x127;" horiz-adv-x="1361" d="M106 -6v43h175v1171h-175v43h175v133h-175v43h226v-176h354v-43h-354v-420q37 117 143 190t244 73q172 0 277.5 -102.5t105.5 -272.5v-639h174v-43h-397v43h172v633q0 152 -94 241.5t-252 89.5q-154 0 -263.5 -102.5t-109.5 -247.5v-614h172v-43h-398z" />
<glyph unicode="&#x128;" horiz-adv-x="655" d="M45 1620q3 69 44 112.5t104 43.5q45 0 95 -28t97 -55.5t84 -27.5q41 0 67 31.5t29 77.5h47q-3 -70 -43.5 -113t-103.5 -43q-35 0 -75 17.5t-69 38t-66.5 38t-68.5 17.5q-40 0 -65.5 -31.5t-28.5 -77.5h-47zM117 0v43h184v1348h-184v43h422v-43h-185v-1348h185v-43h-422z " />
<glyph unicode="&#x129;" horiz-adv-x="598" d="M12 1239q3 69 44 112.5t104 43.5q35 0 75 -17.5t69 -38t65.5 -38t66.5 -17.5q41 0 67 31.5t29 77.5h48q-3 -70 -44 -113t-104 -43q-35 0 -74.5 17.5t-69 38t-66.5 38t-68 17.5q-40 0 -66 -31.5t-29 -77.5h-47zM106 0v43h175v946h-175v43h226v-989h174v-43h-400z" />
<glyph unicode="&#x12a;" horiz-adv-x="655" d="M47 1669v45h559v-45h-559zM117 0v43h184v1348h-184v43h422v-43h-185v-1348h185v-43h-422z" />
<glyph unicode="&#x12b;" horiz-adv-x="598" d="M14 1288v45h559v-45h-559zM106 0v43h175v946h-175v43h226v-989h174v-43h-400z" />
<glyph unicode="&#x12c;" horiz-adv-x="655" d="M117 0v43h184v1348h-184v43h422v-43h-185v-1348h185v-43h-422zM117 1804h45q0 -75 43 -122.5t123 -47.5q79 0 121.5 47.5t42.5 122.5h47q0 -95 -55 -154t-156 -59q-102 0 -156.5 58.5t-54.5 154.5z" />
<glyph unicode="&#x12d;" horiz-adv-x="598" d="M84 1423h45q0 -75 43 -122.5t123 -47.5q79 0 121.5 47.5t42.5 122.5h47q0 -95 -55 -154t-156 -59q-102 0 -156.5 58.5t-54.5 154.5zM106 0v43h175v946h-175v43h226v-989h174v-43h-400z" />
<glyph unicode="&#x12e;" horiz-adv-x="655" d="M117 0v43h184v1348h-184v43h422v-43h-185v-1348h185v-43h-90q-75 -40 -121.5 -97t-46.5 -118q0 -56 34.5 -90.5t87.5 -34.5q59 0 115 49l29 -33q-62 -59 -150 -59q-70 0 -119 45.5t-49 114.5q0 65 42 124t110 99h-264z" />
<glyph unicode="&#x12f;" horiz-adv-x="598" d="M106 0v43h175v946h-175v43h226v-989h174v-43h-94q-75 -40 -121.5 -97t-46.5 -118q0 -56 35 -90.5t88 -34.5q58 0 114 49l29 -33q-62 -59 -150 -59q-70 0 -118.5 45.5t-48.5 114.5q0 65 42 124t109 99h-238zM238 1339q0 28 17.5 47t43.5 19q29 0 48.5 -19t19.5 -47 q0 -26 -19.5 -44.5t-48.5 -18.5q-26 0 -43.5 18.5t-17.5 44.5z" />
<glyph unicode="&#x130;" horiz-adv-x="655" d="M117 0v43h184v1348h-184v43h422v-43h-185v-1348h185v-43h-422zM264 1720q0 28 18 47t46 19t46.5 -19t18.5 -47q0 -26 -18.5 -44.5t-46.5 -18.5t-46 18.5t-18 44.5z" />
<glyph unicode="&#x131;" horiz-adv-x="598" d="M106 0v43h175v946h-175v43h226v-989h174v-43h-400z" />
<glyph unicode="&#x132;" horiz-adv-x="1343" d="M117 0v43h184v1348h-184v43h422v-43h-185v-1348h185v-43h-422zM633 -188l14 51q73 -25 133 -25q96 0 161 64.5t65 177.5v1311h-228v43h459v-43h-178v-1317q0 -130 -79 -208.5t-198 -78.5q-79 0 -149 25z" />
<glyph unicode="&#x133;" horiz-adv-x="1159" d="M106 0v43h175v946h-175v43h226v-989h174v-43h-400zM238 1339q0 28 17.5 47t43.5 19q29 0 48.5 -19t19.5 -47q0 -26 -19.5 -44.5t-48.5 -18.5q-26 0 -43.5 18.5t-17.5 44.5zM604 -332q42 -10 86 -10q78 0 129 64t51 176v1091h-174v43h226v-1138q0 -130 -66 -206.5 t-164 -76.5q-50 0 -88 10v47zM825 1339q0 28 19 47t45 19q28 0 46.5 -19t18.5 -47q0 -26 -18.5 -44.5t-46.5 -18.5q-26 0 -45 18.5t-19 44.5z" />
<glyph unicode="&#x134;" horiz-adv-x="688" d="M-23 -188l15 51q73 -25 133 -25q96 0 160.5 64.5t64.5 177.5v1311h-227v43h459v-43h-179v-1317q0 -130 -78.5 -208.5t-197.5 -78.5q-80 0 -150 25zM135 1589l193 250h55l190 -250h-53l-166 217l-166 -217h-53z" />
<glyph unicode="&#x135;" horiz-adv-x="528" d="M6 -332q42 -10 86 -10q78 0 129 64t51 176v1091h-174v43h226v-1138q0 -130 -66 -206.5t-164 -76.5q-50 0 -88 10v47zM61 1208l193 250h55l191 -250h-54l-165 217l-166 -217h-54z" />
<glyph unicode="&#x136;" horiz-adv-x="1306" d="M117 0v43h184v1348h-184v43h401v-43h-164v-639l676 641h-186v41h407v-43h-157l-688 -652l718 -696h162v-43h-428v43h195l-699 680v-680h172v-43h-409zM621 -371q73 63 79 146q-3 0 -9.5 -1t-10.5 -1q-23 0 -39 17.5t-16 43.5q0 25 17.5 43.5t43.5 18.5q28 0 47 -24 t19 -60q0 -118 -107 -207z" />
<glyph unicode="&#x137;" horiz-adv-x="1101" d="M94 0v43h174v1395h-174v43h225v-906l492 416h-186v41h419v-43h-167l-502 -422l540 -524h170v-43h-198l-568 557v-514h173v-43h-398zM539 -371q73 63 79 146q-3 0 -9.5 -1t-10.5 -1q-23 0 -39 17.5t-16 43.5q0 25 17.5 43.5t43.5 18.5q28 0 47 -24t19 -60 q0 -118 -107 -207z" />
<glyph unicode="&#x138;" horiz-adv-x="1114" d="M106 0v43h175v946h-175v43h226v-457l491 416h-186v41h420v-43h-168l-502 -422l541 -524h170v-43h-199l-567 557v-514h172v-43h-398z" />
<glyph unicode="&#x139;" horiz-adv-x="1101" d="M117 0v43h184v1348h-184v43h436v-43h-199v-1348h596v328h49v-371h-882zM274 1608l140 258h63l-151 -258h-52z" />
<glyph unicode="&#x13a;" horiz-adv-x="587" d="M94 0v43h174v1395h-174v43h225v-1438h175v-43h-400zM223 1614l139 258h64l-152 -258h-51z" />
<glyph unicode="&#x13b;" horiz-adv-x="1101" d="M117 0v43h184v1348h-184v43h436v-43h-199v-1348h596v328h49v-371h-882zM479 -371q74 64 80 146q-3 0 -9.5 -1t-10.5 -1q-23 0 -39.5 17.5t-16.5 43.5q0 25 18 43.5t44 18.5q28 0 46.5 -23.5t18.5 -60.5q0 -119 -106 -207z" />
<glyph unicode="&#x13c;" horiz-adv-x="587" d="M94 0v43h174v1395h-174v43h225v-1438h175v-43h-400zM223 -371q74 64 80 146q-3 0 -9.5 -1t-10.5 -1q-23 0 -39.5 17.5t-16.5 43.5q0 25 18 43.5t44 18.5q28 0 46.5 -23.5t18.5 -60.5q0 -119 -106 -207z" />
<glyph unicode="&#x13d;" horiz-adv-x="1101" d="M117 0v43h184v1348h-184v43h436v-43h-199v-1348h596v328h49v-371h-882zM727 1133l29 348h53l-41 -348h-41z" />
<glyph unicode="&#x13e;" horiz-adv-x="589" d="M94 0v43h174v1395h-174v43h225v-1438h175v-43h-400zM487 1133l29 348h53l-41 -348h-41z" />
<glyph unicode="&#x13f;" horiz-adv-x="1177" d="M117 0v43h184v1348h-184v43h436v-43h-199v-1348h596v328h49v-371h-882zM885 713q0 30 23 52.5t53 22.5q31 0 52 -22t21 -53t-21.5 -53.5t-51.5 -22.5t-53 23t-23 53z" />
<glyph unicode="&#x140;" horiz-adv-x="784" d="M94 0v43h174v1395h-174v43h225v-1438h175v-43h-400zM598 713q0 30 23 52.5t53 22.5q31 0 52.5 -22t21.5 -53t-21.5 -53.5t-52.5 -22.5q-30 0 -53 23t-23 53z" />
<glyph unicode="&#x141;" horiz-adv-x="1146" d="M117 592v49l229 102v648h-184v43h436v-43h-199v-625l349 156v-50l-349 -155v-674h596v328h49v-371h-882v43h184v651z" />
<glyph unicode="&#x142;" horiz-adv-x="624" d="M51 641v49l242 133v615h-174v43h225v-629l240 131v-49l-240 -131v-760h174v-43h-399v43h174v731z" />
<glyph unicode="&#x143;" horiz-adv-x="1632" d="M117 0v43h184v1348h-184v43h241l922 -1354v1311h-186v43h422v-43h-185v-1391h-61l-918 1356v-1313h187v-43h-422zM745 1587l140 258h63l-151 -258h-52z" />
<glyph unicode="&#x144;" horiz-adv-x="1361" d="M106 0v43h175v946h-175v43h224v-237q37 116 144 189t245 73q172 0 277.5 -102.5t105.5 -272.5v-639h174v-43h-397v43h172v633q0 152 -94 242t-252 90q-154 0 -263.5 -102.5t-109.5 -248.5v-614h172v-43h-398zM614 1206l140 258h63l-151 -258h-52z" />
<glyph unicode="&#x145;" horiz-adv-x="1632" d="M117 0v43h184v1348h-184v43h241l922 -1354v1311h-186v43h422v-43h-185v-1391h-61l-918 1356v-1313h187v-43h-422zM745 -371q74 64 80 146q-3 0 -9.5 -1t-10.5 -1q-23 0 -39 17.5t-16 43.5q0 25 17.5 43.5t43.5 18.5q28 0 47 -24t19 -60q0 -118 -107 -207z" />
<glyph unicode="&#x146;" horiz-adv-x="1361" d="M106 0v43h175v946h-175v43h224v-237q37 116 144 189t245 73q172 0 277.5 -102.5t105.5 -272.5v-639h174v-43h-397v43h172v633q0 152 -94 242t-252 90q-154 0 -263.5 -102.5t-109.5 -248.5v-614h172v-43h-398zM610 -371q74 64 80 146q-3 0 -9.5 -1t-10.5 -1 q-23 0 -39.5 17.5t-16.5 43.5q0 25 18 43.5t44 18.5q28 0 46.5 -23.5t18.5 -60.5q0 -119 -106 -207z" />
<glyph unicode="&#x147;" horiz-adv-x="1632" d="M117 0v43h184v1348h-184v43h241l922 -1354v1311h-186v43h422v-43h-185v-1391h-61l-918 1356v-1313h187v-43h-422zM598 1839h53l166 -217l166 217h53l-192 -250h-56z" />
<glyph unicode="&#x148;" horiz-adv-x="1361" d="M106 0v43h175v946h-175v43h224v-237q37 116 144 189t245 73q172 0 277.5 -102.5t105.5 -272.5v-639h174v-43h-397v43h172v633q0 152 -94 242t-252 90q-154 0 -263.5 -102.5t-109.5 -248.5v-614h172v-43h-398zM467 1458h53l166 -217l166 217h53l-192 -250h-56z" />
<glyph unicode="&#x149;" horiz-adv-x="1345" d="M-37 1116q75 72 84 156q-9 -6 -20 -6q-27 0 -45.5 19.5t-18.5 47.5q0 29 20 48.5t48 19.5q31 0 52 -26t21 -66q0 -120 -110 -222zM90 0v43h174v946h-174v43h223v-237q37 116 144 189t245 73q172 0 277.5 -102.5t105.5 -272.5v-639h175v-43h-398v43h172v633q0 152 -94 242 t-252 90q-154 0 -263.5 -102.5t-109.5 -248.5v-614h172v-43h-397z" />
<glyph unicode="&#x14a;" horiz-adv-x="1603" d="M117 0v43h184v1348h-184v43h241l893 -1352v1309h-184v43h420v-43h-184v-1497q0 -130 -66 -206.5t-164 -76.5q-50 0 -88 10v47q42 -10 86 -10q78 0 129 64t51 176v92l-899 1362v-1309h185v-43h-420z" />
<glyph unicode="&#x14b;" horiz-adv-x="1306" d="M106 0v43h175v946h-175v43h224v-237q37 116 144 189t245 73q172 0 277.5 -102.5t105.5 -272.5v-788q0 -130 -66 -206.5t-164 -76.5q-50 0 -88 10v47q42 -10 86 -10q78 0 129.5 64t51.5 176v778q0 152 -94 242t-252 90q-154 0 -263.5 -102.5t-109.5 -248.5v-614h172v-43 h-398z" />
<glyph unicode="&#x14c;" horiz-adv-x="1605" d="M133 729q0 206 84 371.5t237.5 260.5t348.5 95t348.5 -95t237.5 -260.5t84 -371.5q0 -209 -83.5 -380t-237.5 -271.5t-349 -100.5t-349 100.5t-237.5 271.5t-83.5 380zM190 729q0 -194 75 -352.5t216 -253t322 -94.5t322 94.5t215.5 253t74.5 352.5q0 189 -74.5 342.5 t-215.5 243.5t-322 90t-322 -90t-216 -243.5t-75 -342.5zM522 1669v45h559v-45h-559z" />
<glyph unicode="&#x14d;" horiz-adv-x="1290" d="M125 526q0 114 40.5 213.5t110 169t165.5 109t204 39.5q222 0 371 -150t149 -381q0 -154 -67.5 -280t-187 -198.5t-265.5 -72.5t-265.5 72.5t-187 198.5t-67.5 280zM180 526q0 -215 132.5 -359t332.5 -144t332.5 144t132.5 359q0 212 -132.5 348t-332.5 136 q-130 0 -236 -61t-167.5 -172t-61.5 -251zM365 1288v45h559v-45h-559z" />
<glyph unicode="&#x14e;" horiz-adv-x="1605" d="M133 729q0 206 84 371.5t237.5 260.5t348.5 95t348.5 -95t237.5 -260.5t84 -371.5q0 -209 -83.5 -380t-237.5 -271.5t-349 -100.5t-349 100.5t-237.5 271.5t-83.5 380zM190 729q0 -194 75 -352.5t216 -253t322 -94.5t322 94.5t215.5 253t74.5 352.5q0 189 -74.5 342.5 t-215.5 243.5t-322 90t-322 -90t-216 -243.5t-75 -342.5zM592 1804h45q0 -75 43 -122.5t123 -47.5q79 0 121.5 47.5t42.5 122.5h47q0 -95 -55 -154t-156 -59q-102 0 -156.5 58.5t-54.5 154.5z" />
<glyph unicode="&#x14f;" horiz-adv-x="1290" d="M125 526q0 114 40.5 213.5t110 169t165.5 109t204 39.5q222 0 371 -150t149 -381q0 -154 -67.5 -280t-187 -198.5t-265.5 -72.5t-265.5 72.5t-187 198.5t-67.5 280zM180 526q0 -215 132.5 -359t332.5 -144t332.5 144t132.5 359q0 212 -132.5 348t-332.5 136 q-130 0 -236 -61t-167.5 -172t-61.5 -251zM434 1423h45q0 -75 43 -122.5t123 -47.5q79 0 121.5 47.5t42.5 122.5h47q0 -95 -55 -154t-156 -59q-102 0 -156.5 58.5t-54.5 154.5z" />
<glyph unicode="&#x150;" horiz-adv-x="1605" d="M133 729q0 206 84 371.5t237.5 260.5t348.5 95t348.5 -95t237.5 -260.5t84 -371.5q0 -209 -83.5 -380t-237.5 -271.5t-349 -100.5t-349 100.5t-237.5 271.5t-83.5 380zM190 729q0 -194 75 -352.5t216 -253t322 -94.5t322 94.5t215.5 253t74.5 352.5q0 189 -74.5 342.5 t-215.5 243.5t-322 90t-322 -90t-216 -243.5t-75 -342.5zM631 1587l133 258h57l-143 -258h-47zM858 1587l133 258h58l-144 -258h-47z" />
<glyph unicode="&#x151;" horiz-adv-x="1290" d="M125 526q0 114 40.5 213.5t110 169t165.5 109t204 39.5q222 0 371 -150t149 -381q0 -154 -67.5 -280t-187 -198.5t-265.5 -72.5t-265.5 72.5t-187 198.5t-67.5 280zM180 526q0 -215 132.5 -359t332.5 -144t332.5 144t132.5 359q0 212 -132.5 348t-332.5 136 q-130 0 -236 -61t-167.5 -172t-61.5 -251zM473 1206l133 258h58l-144 -258h-47zM700 1206l134 258h57l-143 -258h-48z" />
<glyph unicode="&#x152;" horiz-adv-x="2236" d="M131 729q0 154 48.5 288t134.5 231t209.5 152.5t267.5 55.5q86 0 172 -22h1103v-326h-49v281h-940q156 -82 250 -245.5t103 -371.5h522v-49h-522q-2 -226 -98 -408t-261 -270h957v303h49v-348h-1119q-87 -23 -167 -23q-144 0 -267.5 58.5t-209.5 159.5t-134.5 239.5 t-48.5 294.5zM188 729q0 -195 74.5 -354t213 -252.5t315.5 -93.5q132 0 242.5 54.5t184.5 149t115 222.5t41 274q0 193 -70.5 346t-204 241.5t-308.5 88.5q-178 0 -316 -87.5t-212.5 -241.5t-74.5 -347z" />
<glyph unicode="&#x153;" horiz-adv-x="2134" d="M125 524q0 229 143 381t361 152q174 0 299.5 -102t169.5 -269q43 164 171 267.5t292 103.5q131 0 233.5 -68t157.5 -180.5t55 -247.5v-29l-883 -2q0 -221 124.5 -364t320.5 -143q117 0 221 59.5t166 161.5l39 -27q-67 -114 -182 -178t-248 -64q-171 0 -297.5 105.5 t-169.5 279.5q-44 -173 -169 -279t-300 -106q-143 0 -259 72.5t-180.5 198t-64.5 278.5zM180 524q0 -214 127.5 -357.5t323.5 -143.5q126 0 227.5 66.5t157 181t55.5 253.5q0 209 -124 347.5t-316 138.5q-197 0 -324 -138t-127 -348zM1126 578h826q0 119 -48.5 217 t-140 156.5t-209.5 58.5q-104 0 -198.5 -54t-157.5 -154.5t-72 -223.5z" />
<glyph unicode="&#x154;" horiz-adv-x="1251" d="M117 0v43h184v1348h-184v43h504q172 0 288.5 -102.5t116.5 -268.5q0 -158 -102.5 -264t-259.5 -117l393 -639h180v-43h-217l-408 674h-258v-631h209v-43h-446zM354 721h254q151 0 256 96t105 244q0 147 -102 238.5t-257 91.5h-256v-670zM555 1587l139 258h64l-152 -258 h-51z" />
<glyph unicode="&#x155;" horiz-adv-x="815" d="M106 0v43h175v946h-175v43h224v-278q28 131 115.5 217t201.5 86q59 0 117 -10v-54q-76 13 -119 13q-87 0 -160 -60.5t-113 -155t-40 -198.5v-549h207v-43h-433zM418 1206l139 258h64l-152 -258h-51z" />
<glyph unicode="&#x156;" horiz-adv-x="1251" d="M117 0v43h184v1348h-184v43h504q172 0 288.5 -102.5t116.5 -268.5q0 -158 -102.5 -264t-259.5 -117l393 -639h180v-43h-217l-408 674h-258v-631h209v-43h-446zM354 721h254q151 0 256 96t105 244q0 147 -102 238.5t-257 91.5h-256v-670zM555 -371q74 64 80 146 q-3 0 -10 -1t-11 -1q-23 0 -39 17.5t-16 43.5q0 25 18 43.5t44 18.5q28 0 46.5 -23.5t18.5 -60.5q0 -119 -106 -207z" />
<glyph unicode="&#x157;" horiz-adv-x="815" d="M106 0v43h175v946h-175v43h224v-278q28 131 115.5 217t201.5 86q59 0 117 -10v-54q-76 13 -119 13q-87 0 -160 -60.5t-113 -155t-40 -198.5v-549h207v-43h-433zM336 -371q74 64 80 146q-3 0 -10 -1t-11 -1q-23 0 -39 17.5t-16 43.5q0 25 17.5 43.5t43.5 18.5q28 0 47 -24 t19 -60q0 -118 -107 -207z" />
<glyph unicode="&#x158;" horiz-adv-x="1251" d="M117 0v43h184v1348h-184v43h504q172 0 288.5 -102.5t116.5 -268.5q0 -158 -102.5 -264t-259.5 -117l393 -639h180v-43h-217l-408 674h-258v-631h209v-43h-446zM354 721h254q151 0 256 96t105 244q0 147 -102 238.5t-257 91.5h-256v-670zM408 1839h53l166 -217l166 217h53 l-193 -250h-55z" />
<glyph unicode="&#x159;" horiz-adv-x="815" d="M106 0v43h175v946h-175v43h224v-278q28 131 115.5 217t201.5 86q59 0 117 -10v-54q-76 13 -119 13q-87 0 -160 -60.5t-113 -155t-40 -198.5v-549h207v-43h-433zM270 1458h54l165 -217l166 217h54l-193 -250h-55z" />
<glyph unicode="&#x15a;" horiz-adv-x="1107" d="M156 -8v391h41q34 -168 133 -262t248 -94q146 0 236.5 91t90.5 236q0 61 -25 113.5t-67.5 91t-97 73t-115 65t-121.5 61.5t-115.5 67t-97 76.5t-67.5 96t-25 120.5q0 144 96.5 242t245.5 98q122 0 214 -72.5t134 -185.5v234h49v-369h-41q-32 153 -123 247.5t-225 94.5 q-130 0 -212.5 -81.5t-82.5 -203.5q0 -74 40.5 -135.5t105 -105t142.5 -83t156 -81.5t142.5 -89t105 -115t40.5 -151q0 -171 -105 -279t-272 -108q-135 0 -234.5 71.5t-144.5 193.5v-248h-49zM483 1587l140 258h63l-151 -258h-52z" />
<glyph unicode="&#x15b;" horiz-adv-x="983" d="M133 -8v315h39q31 -130 126.5 -206t229.5 -76q115 0 196 68.5t81 172.5q0 61 -36 107.5t-93.5 74.5t-127 52t-139 48.5t-126.5 54.5t-92.5 79.5t-34.5 114.5q1 114 82 186t200 72q111 0 200.5 -53.5t131.5 -139.5v170h47v-274h-39q-26 113 -121 182.5t-215 69.5 q-98 0 -166.5 -59.5t-68.5 -149.5q0 -56 36 -98t93 -68.5t126.5 -50t138.5 -49t126 -57t93 -83.5t36 -121q0 -131 -94.5 -214t-231.5 -83q-122 0 -214.5 60.5t-135.5 159.5v-205h-47zM420 1206l139 258h64l-152 -258h-51z" />
<glyph unicode="&#x15c;" horiz-adv-x="1107" d="M156 -8v391h41q34 -168 133 -262t248 -94q146 0 236.5 91t90.5 236q0 61 -25 113.5t-67.5 91t-97 73t-115 65t-121.5 61.5t-115.5 67t-97 76.5t-67.5 96t-25 120.5q0 144 96.5 242t245.5 98q122 0 214 -72.5t134 -185.5v234h49v-369h-41q-32 153 -123 247.5t-225 94.5 q-130 0 -212.5 -81.5t-82.5 -203.5q0 -74 40.5 -135.5t105 -105t142.5 -83t156 -81.5t142.5 -89t105 -115t40.5 -151q0 -171 -105 -279t-272 -108q-135 0 -234.5 71.5t-144.5 193.5v-248h-49zM336 1589l192 250h56l190 -250h-53l-166 217l-166 -217h-53z" />
<glyph unicode="&#x15d;" horiz-adv-x="983" d="M133 -8v315h39q31 -130 126.5 -206t229.5 -76q115 0 196 68.5t81 172.5q0 61 -36 107.5t-93.5 74.5t-127 52t-139 48.5t-126.5 54.5t-92.5 79.5t-34.5 114.5q1 114 82 186t200 72q111 0 200.5 -53.5t131.5 -139.5v170h47v-274h-39q-26 113 -121 182.5t-215 69.5 q-98 0 -166.5 -59.5t-68.5 -149.5q0 -56 36 -98t93 -68.5t126.5 -50t138.5 -49t126 -57t93 -83.5t36 -121q0 -131 -94.5 -214t-231.5 -83q-122 0 -214.5 60.5t-135.5 159.5v-205h-47zM272 1208l193 250h55l191 -250h-54l-165 217l-166 -217h-54z" />
<glyph unicode="&#x15e;" horiz-adv-x="1107" d="M156 -8v391h41q34 -168 133 -262t248 -94q146 0 236.5 91t90.5 236q0 61 -25 113.5t-67.5 91t-97 73t-115 65t-121.5 61.5t-115.5 67t-97 76.5t-67.5 96t-25 120.5q0 144 96.5 242t245.5 98q122 0 214 -72.5t134 -185.5v234h49v-369h-41q-32 153 -123 247.5t-225 94.5 q-130 0 -212.5 -81.5t-82.5 -203.5q0 -74 40.5 -135.5t105 -105t142.5 -83t156 -81.5t142.5 -89t105 -115t40.5 -151q0 -171 -105 -279t-272 -108h-19l-20 -94q12 4 28 4q62 0 102 -39t40 -94q0 -68 -48.5 -108.5t-125.5 -40.5q-53 0 -95 20l11 47q40 -24 82 -24 q56 0 90.5 29.5t34.5 76.5q0 41 -31 66.5t-82 25.5q-31 0 -59 -8l30 144q-112 15 -194.5 83.5t-122.5 176.5v-248h-49z" />
<glyph unicode="&#x15f;" horiz-adv-x="983" d="M133 -8v315h39q31 -130 126.5 -206t229.5 -76q115 0 196 68.5t81 172.5q0 61 -36 107.5t-93.5 74.5t-127 52t-139 48.5t-126.5 54.5t-92.5 79.5t-34.5 114.5q1 114 82 186t200 72q111 0 200.5 -53.5t131.5 -139.5v170h47v-274h-39q-26 113 -121 182.5t-215 69.5 q-98 0 -166.5 -59.5t-68.5 -149.5q0 -56 36 -98t93 -68.5t126.5 -50t138.5 -49t126 -57t93 -83.5t36 -121q0 -131 -94.5 -214t-231.5 -83h-24l-21 -96q12 4 29 4q62 0 101.5 -39t39.5 -94q0 -68 -48.5 -108.5t-125.5 -40.5q-52 0 -94 20l10 47q40 -24 82 -24q56 0 90.5 29.5 t34.5 76.5q0 41 -30.5 66.5t-81.5 25.5q-32 0 -60 -8l33 146q-100 17 -174.5 74t-110.5 141v-205h-47z" />
<glyph unicode="&#x160;" horiz-adv-x="1107" d="M156 -8v391h41q34 -168 133 -262t248 -94q146 0 236.5 91t90.5 236q0 61 -25 113.5t-67.5 91t-97 73t-115 65t-121.5 61.5t-115.5 67t-97 76.5t-67.5 96t-25 120.5q0 144 96.5 242t245.5 98q122 0 214 -72.5t134 -185.5v234h49v-369h-41q-32 153 -123 247.5t-225 94.5 q-130 0 -212.5 -81.5t-82.5 -203.5q0 -74 40.5 -135.5t105 -105t142.5 -83t156 -81.5t142.5 -89t105 -115t40.5 -151q0 -171 -105 -279t-272 -108q-135 0 -234.5 71.5t-144.5 193.5v-248h-49zM336 1839h53l166 -217l166 217h53l-192 -250h-56z" />
<glyph unicode="&#x161;" horiz-adv-x="983" d="M133 -8v315h39q31 -130 126.5 -206t229.5 -76q115 0 196 68.5t81 172.5q0 61 -36 107.5t-93.5 74.5t-127 52t-139 48.5t-126.5 54.5t-92.5 79.5t-34.5 114.5q1 114 82 186t200 72q111 0 200.5 -53.5t131.5 -139.5v170h47v-274h-39q-26 113 -121 182.5t-215 69.5 q-98 0 -166.5 -59.5t-68.5 -149.5q0 -56 36 -98t93 -68.5t126.5 -50t138.5 -49t126 -57t93 -83.5t36 -121q0 -131 -94.5 -214t-231.5 -83q-122 0 -214.5 60.5t-135.5 159.5v-205h-47zM272 1458h54l166 -217l165 217h54l-193 -250h-55z" />
<glyph unicode="&#x162;" horiz-adv-x="1206" d="M78 1069v365h1050v-365h-49v322h-448v-1348h200v-43h-210l-27 -119q12 4 29 4q62 0 101.5 -39t39.5 -94q0 -68 -48.5 -108.5t-125.5 -40.5q-52 0 -94 20l10 47q40 -24 82 -24q56 0 90.5 29.5t34.5 76.5q0 41 -31 66.5t-82 25.5q-31 0 -59 -8l37 164h-201v43h201v1348 h-451v-322h-49z" />
<glyph unicode="&#x163;" horiz-adv-x="688" d="M82 989v43h174v230h51v-230h254v-43h-254v-739q0 -94 45 -150.5t123 -56.5q57 0 119 16v-47q-67 -18 -123 -18q-21 0 -31 2l-24 -115q12 4 28 4q62 0 102 -39t40 -94q0 -68 -48.5 -108.5t-125.5 -40.5q-53 0 -95 20l11 47q40 -24 82 -24q56 0 90.5 29.5t34.5 76.5 q0 41 -31 66.5t-82 25.5q-32 0 -60 -8l37 168h2q-68 22 -106.5 85t-38.5 159v741h-174z" />
<glyph unicode="&#x164;" horiz-adv-x="1206" d="M78 1069v365h1050v-365h-49v322h-448v-1348h200v-43h-454v43h201v1348h-451v-322h-49zM385 1839h53l166 -217l166 217h53l-192 -250h-56z" />
<glyph unicode="&#x165;" horiz-adv-x="688" d="M82 989v43h174v230h51v-230h254v-43h-254v-739q0 -94 45 -150.5t123 -56.5q57 0 119 16v-47q-67 -18 -123 -18q-97 0 -156 67.5t-59 186.5v741h-174zM516 1133l29 348h53l-41 -348h-41z" />
<glyph unicode="&#x166;" horiz-adv-x="1206" d="M78 1069v365h1050v-365h-49v322h-448v-646h289v-43h-289v-659h200v-43h-454v43h201v659h-289v43h289v646h-451v-322h-49z" />
<glyph unicode="&#x167;" horiz-adv-x="688" d="M82 621v43h174v325h-174v43h174v230h51v-230h254v-43h-254v-325h254v-43h-254v-371q0 -94 45 -150.5t123 -56.5q57 0 119 16v-47q-67 -18 -123 -18q-97 0 -156 67.5t-59 186.5v373h-174z" />
<glyph unicode="&#x168;" horiz-adv-x="1462" d="M70 1391v43h419v-43h-190v-922q0 -196 113.5 -319t318.5 -123t318.5 123t113.5 319v922h-190v43h420v-43h-176v-918q0 -144 -55 -255.5t-166 -177t-265 -65.5t-265 65.5t-165.5 177t-54.5 255.5v918h-176zM449 1620q3 69 43.5 112.5t103.5 43.5q45 0 95 -28t97 -55.5 t84 -27.5q41 0 67.5 31.5t29.5 77.5h47q-3 -70 -44 -113t-104 -43q-35 0 -74.5 17.5t-69 38t-66.5 38t-68 17.5q-40 0 -65.5 -31.5t-28.5 -77.5h-47z" />
<glyph unicode="&#x169;" horiz-adv-x="1310" d="M82 989v43h225v-670q0 -150 87 -243.5t229 -93.5q149 0 258.5 108.5t109.5 243.5v612h-174v43h225v-989h175v-43h-226v238q-41 -115 -145 -189t-238 -74q-156 0 -254 106.5t-98 272.5v635h-174zM344 1239q3 69 44 112.5t104 43.5q36 0 75.5 -17.5t68.5 -38t65.5 -38 t66.5 -17.5q41 0 67 31.5t29 77.5h47q-3 -70 -43.5 -113t-103.5 -43q-35 0 -75 17.5t-69 38t-66.5 38t-68.5 17.5q-40 0 -65.5 -31.5t-28.5 -77.5h-47z" />
<glyph unicode="&#x16a;" horiz-adv-x="1462" d="M70 1391v43h419v-43h-190v-922q0 -196 113.5 -319t318.5 -123t318.5 123t113.5 319v922h-190v43h420v-43h-176v-918q0 -144 -55 -255.5t-166 -177t-265 -65.5t-265 65.5t-165.5 177t-54.5 255.5v918h-176zM451 1669v45h559v-45h-559z" />
<glyph unicode="&#x16b;" horiz-adv-x="1310" d="M82 989v43h225v-670q0 -150 87 -243.5t229 -93.5q149 0 258.5 108.5t109.5 243.5v612h-174v43h225v-989h175v-43h-226v238q-41 -115 -145 -189t-238 -74q-156 0 -254 106.5t-98 272.5v635h-174zM346 1288v45h559v-45h-559z" />
<glyph unicode="&#x16c;" horiz-adv-x="1462" d="M70 1391v43h419v-43h-190v-922q0 -196 113.5 -319t318.5 -123t318.5 123t113.5 319v922h-190v43h420v-43h-176v-918q0 -144 -55 -255.5t-166 -177t-265 -65.5t-265 65.5t-165.5 177t-54.5 255.5v918h-176zM520 1804h45q0 -75 43 -122.5t123 -47.5q79 0 121.5 47.5 t42.5 122.5h47q0 -95 -55 -154t-156 -59q-102 0 -156.5 58.5t-54.5 154.5z" />
<glyph unicode="&#x16d;" horiz-adv-x="1310" d="M82 989v43h225v-670q0 -150 87 -243.5t229 -93.5q149 0 258.5 108.5t109.5 243.5v612h-174v43h225v-989h175v-43h-226v238q-41 -115 -145 -189t-238 -74q-156 0 -254 106.5t-98 272.5v635h-174zM416 1423h45q0 -75 43 -122.5t123 -47.5q79 0 121.5 47.5t42.5 122.5h47 q0 -95 -55 -154t-156 -59q-102 0 -156.5 58.5t-54.5 154.5z" />
<glyph unicode="&#x16e;" horiz-adv-x="1462" d="M70 1391v43h419v-43h-190v-922q0 -196 113.5 -319t318.5 -123t318.5 123t113.5 319v922h-190v43h420v-43h-176v-918q0 -144 -55 -255.5t-166 -177t-265 -65.5t-265 65.5t-165.5 177t-54.5 255.5v918h-176zM580 1702q0 65 42.5 108t108.5 43t108 -43t42 -108 q0 -66 -42 -110t-108 -44t-108.5 44t-42.5 110zM627 1702q0 -50 29 -82.5t75 -32.5q45 0 74 32.5t29 82.5q0 48 -29 79t-74 31t-74.5 -31t-29.5 -79z" />
<glyph unicode="&#x16f;" horiz-adv-x="1310" d="M82 989v43h225v-670q0 -150 87 -243.5t229 -93.5q149 0 258.5 108.5t109.5 243.5v612h-174v43h225v-989h175v-43h-226v238q-41 -115 -145 -189t-238 -74q-156 0 -254 106.5t-98 272.5v635h-174zM475 1341q0 65 43 108.5t109 43.5q65 0 107 -43.5t42 -108.5 q0 -66 -41.5 -109.5t-107.5 -43.5t-109 43.5t-43 109.5zM522 1341q0 -50 29.5 -82t75.5 -32q45 0 73.5 32t28.5 82q0 48 -28.5 79.5t-73.5 31.5q-46 0 -75.5 -31.5t-29.5 -79.5z" />
<glyph unicode="&#x170;" horiz-adv-x="1462" d="M70 1391v43h419v-43h-190v-922q0 -196 113.5 -319t318.5 -123t318.5 123t113.5 319v922h-190v43h420v-43h-176v-918q0 -144 -55 -255.5t-166 -177t-265 -65.5t-265 65.5t-165.5 177t-54.5 255.5v918h-176zM559 1587l133 258h58l-144 -258h-47zM786 1587l134 258h57 l-143 -258h-48z" />
<glyph unicode="&#x171;" horiz-adv-x="1310" d="M82 989v43h225v-670q0 -150 87 -243.5t229 -93.5q149 0 258.5 108.5t109.5 243.5v612h-174v43h225v-989h175v-43h-226v238q-41 -115 -145 -189t-238 -74q-156 0 -254 106.5t-98 272.5v635h-174zM455 1206l133 258h57l-143 -258h-47zM682 1206l133 258h57l-143 -258h-47z " />
<glyph unicode="&#x172;" horiz-adv-x="1462" d="M70 1391v43h419v-43h-190v-922q0 -196 113.5 -319t318.5 -123t318.5 123t113.5 319v922h-190v43h420v-43h-176v-918q0 -177 -85 -305.5t-241 -171.5q-73 -40 -117.5 -95.5t-44.5 -115.5q0 -56 35 -90.5t88 -34.5q59 0 115 49l28 -33q-62 -59 -149 -59q-70 0 -119 45.5 t-49 114.5q0 113 119 203q-50 -5 -66 -5q-154 0 -265 65.5t-165.5 177t-54.5 255.5v918h-176z" />
<glyph unicode="&#x173;" horiz-adv-x="1310" d="M82 989v43h225v-670q0 -150 87 -243.5t229 -93.5q149 0 258.5 108.5t109.5 243.5v612h-174v43h225v-989h175v-43h-158q-75 -40 -121.5 -97t-46.5 -118q0 -56 35 -90.5t88 -34.5q58 0 114 49l29 -33q-62 -59 -149 -59q-70 0 -119 45.5t-49 114.5q0 65 42 124t109 99v238 q-41 -115 -145 -189t-238 -74q-156 0 -254 106.5t-98 272.5v635h-174z" />
<glyph unicode="&#x174;" horiz-adv-x="2123" d="M29 1391v43h450v-43h-233l381 -1338l407 1381h62l403 -1379l379 1336h-233v43h448v-43h-164l-399 -1395h-64l-403 1366l-406 -1366h-63l-401 1395h-164zM844 1589l192 250h56l190 -250h-53l-166 217l-166 -217h-53z" />
<glyph unicode="&#x175;" horiz-adv-x="1871" d="M18 989v43h420v-43h-217l332 -936l354 979h58l356 -979l332 936h-217v43h417v-43h-149l-358 -995h-52l-360 977l-356 -977h-52l-358 995h-150zM717 1208l192 250h56l190 -250h-53l-166 217l-166 -217h-53z" />
<glyph unicode="&#x176;" horiz-adv-x="1277" d="M25 1391v43h407v-43h-192l401 -715l403 715h-192v43h401v-43h-155l-432 -760v-588h200v-43h-454v43h200v586l-432 762h-155zM420 1589l192 250h56l190 -250h-53l-166 217l-166 -217h-53z" />
<glyph unicode="&#x177;" horiz-adv-x="1191" d="M18 989v43h406v-43h-205l375 -948l379 948h-205v43h403v-43h-147l-428 -1059q-63 -156 -142.5 -236.5t-185.5 -80.5q-55 0 -100 10v49q54 -12 102 -12q85 0 155 73.5t132 217.5l12 29l-403 1009h-148zM377 1208l192 250h56l190 -250h-53l-166 217l-166 -217h-53z" />
<glyph unicode="&#x178;" horiz-adv-x="1277" d="M25 1391v43h407v-43h-192l401 -715l403 715h-192v43h401v-43h-155l-432 -760v-588h200v-43h-454v43h200v586l-432 762h-155zM410 1712q0 26 17 44t42 18q27 0 45 -18t18 -44q0 -25 -18 -43t-45 -18q-25 0 -42 18t-17 43zM745 1712q0 26 17 44t43 18q27 0 45 -18t18 -44 q0 -25 -18 -43t-45 -18q-26 0 -43 18t-17 43z" />
<glyph unicode="&#x179;" horiz-adv-x="1181" d="M109 0v37l884 1352h-784v-318h-49v363h901v-37l-885 -1352h832v338h49v-383h-948zM520 1587l139 258h64l-152 -258h-51z" />
<glyph unicode="&#x17a;" horiz-adv-x="1062" d="M133 0v35l705 956h-625v-225h-47v266h739v-35l-704 -952h673v262h48v-307h-789zM461 1206l139 258h64l-152 -258h-51z" />
<glyph unicode="&#x17b;" horiz-adv-x="1181" d="M109 0v37l884 1352h-784v-318h-49v363h901v-37l-885 -1352h832v338h49v-383h-948zM528 1720q0 28 18 47t46 19t46.5 -19t18.5 -47q0 -26 -18.5 -44.5t-46.5 -18.5t-46 18.5t-18 44.5z" />
<glyph unicode="&#x17c;" horiz-adv-x="1062" d="M133 0v35l705 956h-625v-225h-47v266h739v-35l-704 -952h673v262h48v-307h-789zM469 1339q0 28 18 47t45 19q28 0 47 -19t19 -47q0 -26 -19 -44.5t-47 -18.5q-27 0 -45 18t-18 45z" />
<glyph unicode="&#x17d;" horiz-adv-x="1181" d="M109 0v37l884 1352h-784v-318h-49v363h901v-37l-885 -1352h832v338h49v-383h-948zM373 1839h53l166 -217l166 217h53l-193 -250h-55z" />
<glyph unicode="&#x17e;" horiz-adv-x="1062" d="M133 0v35l705 956h-625v-225h-47v266h739v-35l-704 -952h673v262h48v-307h-789zM313 1458h54l165 -217l166 217h54l-193 -250h-55z" />
<glyph unicode="&#x192;" horiz-adv-x="927" d="M-82 -373l8 47q50 -16 113 -16q203 0 244 276l120 846h-172v43h179l39 291q26 175 107 253.5t192 78.5q53 0 120 -16l-6 -48q-65 17 -112 17q-209 0 -252 -309l-37 -267h250v-43h-254l-125 -868q-22 -153 -102 -227t-189 -74q-73 0 -123 16z" />
<glyph unicode="&#x1fa;" horiz-adv-x="1437" d="M102 0v43h158l490 1360q-10 -2 -31 -2q-66 0 -108 39.5t-42 99.5q0 59 42 98t108 39q65 0 106 -39t41 -98q0 -66 -47 -104l502 -1393h158v-43h-422v43h209l-168 475h-617l-170 -475h209v-43h-418zM498 563h583l-293 823zM614 1540q0 -44 29.5 -73t75.5 -29 q45 0 73.5 28.5t28.5 73.5q0 43 -28.5 70.5t-73.5 27.5q-46 0 -75.5 -27.5t-29.5 -70.5zM662 1720l135 176h65l-151 -176h-49z" />
<glyph unicode="&#x1fb;" horiz-adv-x="1228" d="M150 301q0 140 114 231t291 91q131 0 225.5 -54.5t137.5 -138.5v264q0 144 -91.5 229t-251.5 85q-86 0 -178.5 -29t-165.5 -74l-24 41q180 109 377 109q179 0 282 -95.5t103 -257.5v-659h174v-43h-223v182q-37 -90 -136.5 -147.5t-240.5 -57.5q-169 0 -281 91.5 t-112 232.5zM203 303q0 -118 96 -199t258 -81q154 0 258.5 82t104.5 200q0 111 -104 192t-253 81q-158 0 -259 -79t-101 -196zM463 1292q0 65 42.5 108.5t108.5 43.5q65 0 107.5 -43.5t42.5 -108.5q0 -66 -42 -109.5t-108 -43.5t-108.5 43.5t-42.5 109.5zM510 1292 q0 -50 29 -82t75 -32t74.5 32t28.5 82q0 48 -29 79.5t-74 31.5t-74.5 -31.5t-29.5 -79.5zM543 1507l139 258h63l-151 -258h-51z" />
<glyph unicode="&#x1fc;" horiz-adv-x="1835" d="M0 0v43h147l799 1391h719v-334h-49v291h-584v-641h516v-48h-516v-659h594v293h49v-336h-899v43h203v659h-399l-377 -659h198v-43h-401zM604 748h375v651zM1067 1587l139 258h64l-152 -258h-51z" />
<glyph unicode="&#x1fd;" horiz-adv-x="1959" d="M150 301q0 143 112.5 232.5t290.5 89.5q133 0 229 -50.5t138 -130.5v211q0 153 -94.5 254t-250.5 101q-177 0 -348 -103l-24 41q175 109 381 109q150 0 250 -89.5t124 -228.5q53 144 169.5 232t261.5 88q132 0 234.5 -67t157 -179t54.5 -248v-33h-866v-10 q0 -224 119 -360.5t313 -136.5q116 0 218 58.5t165 162.5l39 -27q-67 -115 -179.5 -178.5t-246.5 -63.5q-151 0 -265 82t-169 224q-21 -134 -134 -220t-280 -86q-174 0 -286.5 90t-112.5 236zM203 303q0 -119 94.5 -199.5t259.5 -80.5q154 0 258.5 86.5t104.5 209.5 q0 106 -103 182.5t-256 76.5q-161 0 -259.5 -78t-98.5 -197zM909 1206l140 258h63l-151 -258h-52zM971 578h811q0 119 -48.5 217t-140 156.5t-209.5 58.5q-156 0 -276 -121.5t-137 -310.5z" />
<glyph unicode="&#x1fe;" horiz-adv-x="1605" d="M133 729q0 206 84 371.5t237.5 260.5t348.5 95q255 0 438 -162l137 166l37 -30l-139 -170q95 -99 146 -236t51 -295q0 -209 -83.5 -380t-237.5 -271.5t-349 -100.5q-262 0 -441 173l-145 -177l-37 33l148 178q-93 104 -144 244.5t-51 300.5zM190 729q0 -148 44.5 -277.5 t127.5 -224.5l844 1024q-164 154 -403 154q-181 0 -322 -90t-216 -243.5t-75 -342.5zM397 193q164 -164 406 -164q181 0 322 94.5t215.5 253t74.5 352.5q0 145 -45 271t-129 217zM731 1587l139 258h64l-152 -258h-51z" />
<glyph unicode="&#x1ff;" horiz-adv-x="1290" d="M125 526q0 114 40.5 213.5t110 169t165.5 109t204 39.5q187 0 322 -107l94 113l37 -31l-94 -112q76 -72 118.5 -173.5t42.5 -220.5q0 -154 -67.5 -280t-187 -198.5t-265.5 -72.5q-185 0 -326 115l-98 -119l-37 31l101 121q-76 76 -118 179.5t-42 223.5zM180 526 q0 -217 137 -364l619 749q-123 99 -291 99q-130 0 -236 -61t-167.5 -172t-61.5 -251zM352 129q122 -106 293 -106q200 0 332.5 144t132.5 359q0 219 -139 355zM573 1206l140 258h63l-151 -258h-52z" />
<glyph unicode="&#x218;" horiz-adv-x="1107" d="M156 -8v391h41q34 -168 133 -262t248 -94q146 0 236.5 91t90.5 236q0 61 -25 113.5t-67.5 91t-97 73t-115 65t-121.5 61.5t-115.5 67t-97 76.5t-67.5 96t-25 120.5q0 144 96.5 242t245.5 98q122 0 214 -72.5t134 -185.5v234h49v-369h-41q-32 153 -123 247.5t-225 94.5 q-130 0 -212.5 -81.5t-82.5 -203.5q0 -74 40.5 -135.5t105 -105t142.5 -83t156 -81.5t142.5 -89t105 -115t40.5 -151q0 -171 -105 -279t-272 -108q-135 0 -234.5 71.5t-144.5 193.5v-248h-49zM500 -371q74 64 80 146q-3 0 -10 -1t-11 -1q-23 0 -39 17.5t-16 43.5 q0 25 17.5 43.5t43.5 18.5q28 0 47 -24t19 -60q0 -118 -107 -207z" />
<glyph unicode="&#x219;" horiz-adv-x="983" d="M133 -8v315h39q31 -130 126.5 -206t229.5 -76q115 0 196 68.5t81 172.5q0 61 -36 107.5t-93.5 74.5t-127 52t-139 48.5t-126.5 54.5t-92.5 79.5t-34.5 114.5q1 114 82 186t200 72q111 0 200.5 -53.5t131.5 -139.5v170h47v-274h-39q-26 113 -121 182.5t-215 69.5 q-98 0 -166.5 -59.5t-68.5 -149.5q0 -56 36 -98t93 -68.5t126.5 -50t138.5 -49t126 -57t93 -83.5t36 -121q0 -131 -94.5 -214t-231.5 -83q-122 0 -214.5 60.5t-135.5 159.5v-205h-47zM440 -371q74 64 80 146q-3 0 -9.5 -1t-10.5 -1q-23 0 -39.5 17.5t-16.5 43.5 q0 25 18 43.5t44 18.5q28 0 46.5 -23.5t18.5 -60.5q0 -119 -106 -207z" />
<glyph unicode="&#x21a;" horiz-adv-x="1206" d="M78 1069v365h1050v-365h-49v322h-448v-1348h200v-43h-454v43h201v1348h-451v-322h-49zM549 -371q74 64 80 146q-3 0 -10 -1t-11 -1q-23 0 -39 17.5t-16 43.5q0 25 17.5 43.5t43.5 18.5q28 0 47 -24t19 -60q0 -118 -107 -207z" />
<glyph unicode="&#x21b;" horiz-adv-x="688" d="M82 989v43h174v230h51v-230h254v-43h-254v-739q0 -94 45 -150.5t123 -56.5q57 0 119 16v-47q-67 -18 -123 -18q-97 0 -156 67.5t-59 186.5v741h-174zM371 -371q74 64 80 146q-3 0 -10 -1t-11 -1q-23 0 -39 17.5t-16 43.5q0 25 17.5 43.5t43.5 18.5q28 0 47 -24t19 -60 q0 -118 -107 -207z" />
<glyph unicode="&#x237;" horiz-adv-x="528" d="M6 -332q42 -10 86 -10q78 0 129 64t51 176v1091h-174v43h226v-1138q0 -130 -66 -206.5t-164 -76.5q-50 0 -88 10v47z" />
<glyph unicode="&#x2c6;" horiz-adv-x="643" d="M102 1208l193 250h55l191 -250h-54l-165 217l-166 -217h-54z" />
<glyph unicode="&#x2c7;" horiz-adv-x="643" d="M102 1458h54l166 -217l165 217h54l-193 -250h-55z" />
<glyph unicode="&#x2d8;" horiz-adv-x="704" d="M141 1423h45q0 -75 43 -122.5t123 -47.5q79 0 121.5 47.5t42.5 122.5h47q0 -95 -55 -154t-156 -59q-102 0 -156.5 58.5t-54.5 154.5z" />
<glyph unicode="&#x2d9;" horiz-adv-x="415" d="M143 1339q0 28 18 47t46 19t46.5 -19t18.5 -47q0 -26 -18.5 -44.5t-46.5 -18.5q-27 0 -45.5 18t-18.5 45z" />
<glyph unicode="&#x2da;" horiz-adv-x="575" d="M137 1341q0 65 43 108.5t109 43.5q65 0 107 -43.5t42 -108.5q0 -66 -41.5 -109.5t-107.5 -43.5t-109 43.5t-43 109.5zM184 1341q0 -50 29.5 -82t75.5 -32q45 0 73.5 32t28.5 82q0 48 -28.5 79.5t-73.5 31.5q-46 0 -75.5 -31.5t-29.5 -79.5z" />
<glyph unicode="&#x2db;" horiz-adv-x="618" d="M164 -223q0 75 54.5 141t137.5 105l35 -19q-78 -40 -127 -98.5t-49 -120.5q0 -56 35 -90.5t88 -34.5q59 0 115 49l28 -33q-62 -59 -149 -59q-70 0 -119 45.5t-49 114.5z" />
<glyph unicode="&#x2dc;" horiz-adv-x="849" d="M141 1239q3 69 44 112.5t104 43.5q35 0 75 -17.5t69 -38t65.5 -38t66.5 -17.5q41 0 67.5 31.5t29.5 77.5h47q-3 -70 -44 -113t-104 -43q-35 0 -74.5 17.5t-69 38t-66.5 38t-68 17.5q-40 0 -66 -31.5t-29 -77.5h-47z" />
<glyph unicode="&#x2dd;" horiz-adv-x="663" d="M123 1206l133 258h57l-143 -258h-47zM350 1206l133 258h58l-144 -258h-47z" />
<glyph unicode="&#x326;" horiz-adv-x="0" d="M-274 -371q73 63 79 146q-3 0 -9.5 -1t-10.5 -1q-23 0 -39 17.5t-16 43.5q0 25 17.5 43.5t43.5 18.5q28 0 47 -24t19 -60q0 -118 -107 -207z" />
<glyph unicode="&#x1e80;" horiz-adv-x="2123" d="M29 1391v43h450v-43h-233l381 -1338l407 1381h62l403 -1379l379 1336h-233v43h448v-43h-164l-399 -1395h-64l-403 1366l-406 -1366h-63l-401 1395h-164zM932 1845h63l140 -258h-52z" />
<glyph unicode="&#x1e81;" horiz-adv-x="1871" d="M18 989v43h420v-43h-217l332 -936l354 979h58l356 -979l332 936h-217v43h417v-43h-149l-358 -995h-52l-360 977l-356 -977h-52l-358 995h-150zM805 1464h63l140 -258h-52z" />
<glyph unicode="&#x1e82;" horiz-adv-x="2123" d="M29 1391v43h450v-43h-233l381 -1338l407 1381h62l403 -1379l379 1336h-233v43h448v-43h-164l-399 -1395h-64l-403 1366l-406 -1366h-63l-401 1395h-164zM991 1587l139 258h64l-152 -258h-51z" />
<glyph unicode="&#x1e83;" horiz-adv-x="1871" d="M18 989v43h420v-43h-217l332 -936l354 979h58l356 -979l332 936h-217v43h417v-43h-149l-358 -995h-52l-360 977l-356 -977h-52l-358 995h-150zM864 1206l140 258h63l-152 -258h-51z" />
<glyph unicode="&#x1e84;" horiz-adv-x="2123" d="M29 1391v43h450v-43h-233l381 -1338l407 1381h62l403 -1379l379 1336h-233v43h448v-43h-164l-399 -1395h-64l-403 1366l-406 -1366h-63l-401 1395h-164zM834 1712q0 26 17 44t42 18q27 0 45 -18t18 -44q0 -25 -18 -43t-45 -18q-25 0 -42 18t-17 43zM1169 1712q0 26 17 44 t43 18q27 0 45 -18t18 -44q0 -25 -18 -43t-45 -18q-26 0 -43 18t-17 43z" />
<glyph unicode="&#x1e85;" horiz-adv-x="1871" d="M18 989v43h420v-43h-217l332 -936l354 979h58l356 -979l332 936h-217v43h417v-43h-149l-358 -995h-52l-360 977l-356 -977h-52l-358 995h-150zM707 1331q0 26 17 44t42 18q28 0 45.5 -17.5t17.5 -44.5q0 -25 -18 -43t-45 -18q-25 0 -42 18t-17 43zM1042 1331q0 26 17 44 t43 18q28 0 45.5 -17.5t17.5 -44.5q0 -25 -18 -43t-45 -18q-26 0 -43 18t-17 43z" />
<glyph unicode="&#x1ef2;" horiz-adv-x="1277" d="M25 1391v43h407v-43h-192l401 -715l403 715h-192v43h401v-43h-155l-432 -760v-588h200v-43h-454v43h200v586l-432 762h-155zM508 1845h63l140 -258h-52z" />
<glyph unicode="&#x1ef3;" horiz-adv-x="1191" d="M18 989v43h406v-43h-205l375 -948l379 948h-205v43h403v-43h-147l-428 -1059q-63 -156 -142.5 -236.5t-185.5 -80.5q-55 0 -100 10v49q54 -12 102 -12q85 0 155 73.5t132 217.5l12 29l-403 1009h-148zM465 1464h63l140 -258h-52z" />
<glyph unicode="&#x2000;" horiz-adv-x="948" />
<glyph unicode="&#x2001;" horiz-adv-x="1896" />
<glyph unicode="&#x2002;" horiz-adv-x="948" />
<glyph unicode="&#x2003;" horiz-adv-x="1896" />
<glyph unicode="&#x2004;" horiz-adv-x="632" />
<glyph unicode="&#x2005;" horiz-adv-x="474" />
<glyph unicode="&#x2006;" horiz-adv-x="316" />
<glyph unicode="&#x2007;" horiz-adv-x="316" />
<glyph unicode="&#x2008;" horiz-adv-x="237" />
<glyph unicode="&#x2009;" horiz-adv-x="379" />
<glyph unicode="&#x200a;" horiz-adv-x="105" />
<glyph unicode="&#x2010;" horiz-adv-x="751" d="M115 573v54h522v-54h-522z" />
<glyph unicode="&#x2011;" horiz-adv-x="751" d="M115 573v54h522v-54h-522z" />
<glyph unicode="&#x2012;" horiz-adv-x="751" d="M115 573v54h522v-54h-522z" />
<glyph unicode="&#x2013;" horiz-adv-x="1210" d="M115 578v45h981v-45h-981z" />
<glyph unicode="&#x2014;" horiz-adv-x="1769" d="M115 578v45h1540v-45h-1540z" />
<glyph unicode="&#x2018;" horiz-adv-x="346" d="M102 1282q0 117 111 223l31 -28q-75 -75 -84 -156q12 4 22 4q26 0 44 -20t18 -48q0 -27 -20 -46t-48 -19q-31 0 -52.5 26t-21.5 64z" />
<glyph unicode="&#x2019;" horiz-adv-x="346" d="M102 1219q75 72 84 155q-9 -6 -22 -6q-26 0 -44 20t-18 48q0 29 20 48t48 19q31 0 52.5 -26.5t21.5 -65.5q0 -118 -111 -221z" />
<glyph unicode="&#x201a;" horiz-adv-x="346" d="M102 68q0 27 20 46t48 19q30 0 52 -26t22 -64q0 -57 -30.5 -116t-80.5 -107l-31 28q71 68 84 156q-12 -4 -22 -4q-26 0 -44 20t-18 48z" />
<glyph unicode="&#x201c;" horiz-adv-x="589" d="M102 1282q0 117 113 221l31 -28q-74 -71 -86 -156q12 6 22 6q26 0 44 -20t18 -48q0 -29 -19 -47t-47 -18q-31 0 -53.5 25.5t-22.5 64.5zM346 1282q0 118 111 221l30 -28q-75 -72 -84 -156q9 6 23 6q26 0 43.5 -20t17.5 -48q0 -29 -19.5 -47t-47.5 -18q-31 0 -52.5 25.5 t-21.5 64.5z" />
<glyph unicode="&#x201d;" horiz-adv-x="589" d="M102 1221q75 72 84 155q-9 -6 -22 -6q-26 0 -44 20t-18 48q0 29 20 47t48 18q31 0 52.5 -25.5t21.5 -64.5q0 -118 -111 -221zM344 1221q74 71 86 155q-12 -6 -22 -6q-26 0 -44 20t-18 48q0 29 19 47t47 18q31 0 53 -25.5t22 -64.5q0 -117 -112 -221z" />
<glyph unicode="&#x201e;" horiz-adv-x="567" d="M102 70q0 27 20 46t48 19q30 0 52 -26t22 -64q0 -57 -30.5 -116t-80.5 -107l-31 28q71 68 84 156q-12 -4 -22 -4q-26 0 -44 20t-18 48zM324 70q0 28 19.5 46.5t47.5 18.5q31 0 52.5 -26t21.5 -64q0 -59 -30 -117.5t-81 -105.5l-30 28q75 71 84 156q-12 -4 -23 -4 q-26 0 -43.5 20t-17.5 48z" />
<glyph unicode="&#x2020;" horiz-adv-x="901" d="M139 971v45l289 -4l-2 422h49l-2 -422l289 4v-45l-289 6l2 -1086h-49l2 1086z" />
<glyph unicode="&#x2021;" horiz-adv-x="899" d="M139 432v43l289 -4v506l-289 -4v43l289 -4l-2 422h49l-4 -422l289 4v-43l-289 4v-506l289 4v-43l-289 4l4 -545h-49l2 545z" />
<glyph unicode="&#x2022;" horiz-adv-x="854" d="M217 666q0 84 64.5 147.5t146.5 63.5q85 0 147 -63t62 -148t-62 -147t-147 -62q-83 0 -147 62.5t-64 146.5z" />
<glyph unicode="&#x2026;" horiz-adv-x="1302" d="M119 68q0 30 23 52.5t53 22.5q31 0 53 -22t22 -53q0 -30 -22.5 -53t-52.5 -23q-29 0 -52.5 23.5t-23.5 52.5zM575 68q0 30 23 52.5t53 22.5q31 0 52.5 -22t21.5 -53q0 -30 -22 -53t-52 -23q-29 0 -52.5 23.5t-23.5 52.5zM1032 68q0 30 23 52.5t53 22.5q31 0 52.5 -22 t21.5 -53q0 -30 -22 -53t-52 -23q-29 0 -52.5 23.5t-23.5 52.5z" />
<glyph unicode="&#x202f;" horiz-adv-x="379" />
<glyph unicode="&#x2030;" horiz-adv-x="2066" d="M129 1159q0 132 60 207.5t173 75.5q115 0 174.5 -75.5t59.5 -207.5q0 -136 -59 -214.5t-175 -78.5q-115 0 -174 79t-59 214zM178 0l1012 1434h57l-1011 -1434h-58zM180 1159q0 -248 182 -248q185 0 185 248q0 113 -45.5 175.5t-139.5 62.5q-182 0 -182 -238zM838 285 q0 132 60 207t173 75q115 0 174.5 -75t59.5 -207q0 -136 -59 -214.5t-175 -78.5q-115 0 -174 79t-59 214zM889 285q0 -248 182 -248q184 0 184 248q0 237 -184 237q-182 0 -182 -237zM1470 285q0 132 60.5 207t173.5 75q115 0 174 -75t59 -207q0 -136 -58.5 -214.5 t-174.5 -78.5q-115 0 -174.5 79t-59.5 214zM1522 285q0 -248 182 -248q184 0 184 248q0 237 -184 237q-182 0 -182 -237z" />
<glyph unicode="&#x2039;" horiz-adv-x="503" d="M109 590l270 360h55l-270 -360l270 -359h-55z" />
<glyph unicode="&#x203a;" horiz-adv-x="503" d="M72 231l268 361l-268 358h53l270 -358l-270 -361h-53z" />
<glyph unicode="&#x2044;" horiz-adv-x="858" d="M-10 -84l825 1602h53l-825 -1602h-53z" />
<glyph unicode="&#x205f;" horiz-adv-x="474" />
<glyph unicode="&#x2074;" horiz-adv-x="776" d="M82 897v29l381 512h45v-500h147v-41h-147v-201h147v-41h-358v41h162v201h-377zM143 938h316v426z" />
<glyph unicode="&#x20ac;" horiz-adv-x="1341" d="M57 575l9 43h200q-4 78 -4 117q0 41 4 111h-209l9 43h204q32 260 161.5 413.5t336.5 153.5q133 0 234 -68.5t155 -187.5v234h49v-342h-41q-43 146 -148 231.5t-245 85.5q-188 0 -304 -139.5t-144 -380.5h624l-8 -43h-621q-4 -70 -4 -109q0 -41 4 -119h578l-8 -43h-565 q31 -249 150.5 -397.5t322.5 -148.5q131 0 236.5 74.5t156.5 195.5l43 -23q-57 -132 -173 -213t-261 -81q-154 0 -268.5 78t-177.5 209t-83 306h-213z" />
<glyph unicode="&#x2116;" horiz-adv-x="2390" d="M117 0v43h184v1348h-184v43h241l922 -1354v1311h-186v43h422v-43h-185v-1391h-61l-918 1356v-1313h187v-43h-422zM1640 1122q0 139 89.5 230.5t226.5 91.5q138 0 227.5 -91t89.5 -231q0 -145 -90 -241.5t-227 -96.5t-226.5 96.5t-89.5 241.5zM1663 578v43h588v-43h-588z M1692 1120q0 -123 74.5 -207t189.5 -84q117 0 191.5 84t74.5 207q0 121 -74 200t-192 79q-116 0 -190 -79t-74 -200z" />
<glyph unicode="&#x2122;" horiz-adv-x="1832" d="M121 1280v201h549v-201h-39v166h-215v-617h133v-34h-307v34h133v617h-215v-166h-39zM764 795v34h113v617h-113v35h172l287 -545l288 545h170v-35h-110v-617h110v-34h-272v34h123v611l-293 -549h-35l-291 549v-611h113v-34h-262z" />
<glyph unicode="&#x2212;" horiz-adv-x="1148" d="M123 623v45h903v-45h-903z" />
<glyph unicode="&#x25fc;" horiz-adv-x="1034" d="M0 0v1034h1034v-1034h-1034z" />
<glyph horiz-adv-x="751" d="M115 696v54h522v-54h-522z" />
<glyph horiz-adv-x="1210" d="M115 700v45h981v-45h-981z" />
<glyph horiz-adv-x="1769" d="M115 700v45h1540v-45h-1540z" />
<glyph horiz-adv-x="784" d="M109 707l270 360h55l-270 -360l270 -359h-55zM387 707l270 360h56l-271 -360l271 -359h-56z" />
<glyph horiz-adv-x="784" d="M72 348l270 361l-270 358h55l270 -358l-270 -361h-55zM350 348l271 361l-271 358h56l270 -358l-270 -361h-56z" />
<glyph horiz-adv-x="503" d="M109 715l270 362h55l-270 -362l270 -359h-55z" />
<glyph horiz-adv-x="503" d="M109 356l270 363l-270 358h55l270 -358l-270 -363h-55z" />
<glyph horiz-adv-x="559" d="M145 717q0 233 86 465.5t240 431.5l31 -27q-142 -196 -221.5 -420.5t-79.5 -449.5q0 -226 79.5 -451.5t221.5 -421.5l-31 -26q-154 199 -240 431.5t-86 467.5z" />
<glyph horiz-adv-x="559" d="M57 -156q143 197 223 422.5t80 450.5q0 224 -80 448.5t-223 421.5l31 27q155 -198 240.5 -430.5t85.5 -466.5q0 -236 -85.5 -468.5t-240.5 -430.5z" />
<glyph horiz-adv-x="536" d="M221 -186v1796h238v-45h-187v-1706h187v-45h-238z" />
<glyph horiz-adv-x="536" d="M78 -141h186v1706h-186v45h237v-1796h-237v45z" />
<glyph horiz-adv-x="579" d="M137 684v57q146 12 146 226v422q0 106 56 164.5t163 58.5v-45q-83 0 -125.5 -48t-42.5 -124v-434q0 -108 -39.5 -172t-112.5 -76q73 -12 112.5 -76t39.5 -172v-432q0 -76 42.5 -124t125.5 -48v-45q-107 0 -163 58.5t-56 164.5v420q0 213 -146 225z" />
<glyph horiz-adv-x="636" d="M295 -311v1976h49v-1976h-49z" />
<glyph horiz-adv-x="579" d="M78 -139q83 0 125.5 48t42.5 124v434q0 108 39.5 172t111.5 76q-72 12 -111.5 76t-39.5 172v432q0 76 -42.5 124t-125.5 48v45q107 0 163 -58.5t56 -164.5v-420q0 -214 145 -226v-57q-145 -12 -145 -225v-422q0 -106 -56 -164.5t-163 -58.5v45z" />
<glyph horiz-adv-x="718" d="M49 -160l621 1757h49l-621 -1757h-49z" />
<glyph horiz-adv-x="718" d="M0 1597h49l621 -1757h-49z" />
<glyph horiz-adv-x="546" d="M203 1415q0 31 19.5 51.5t49.5 20.5q29 0 49.5 -20.5t20.5 -51.5q0 -29 -20 -48t-50 -19q-31 0 -50 19t-19 48zM244 -2l4 1155h47l4 -1155h-55z" />
<glyph horiz-adv-x="872" d="M111 350q0 67 21 127t54.5 105.5t74.5 87t81.5 81t74 79t54.5 88.5t21 102v119h51v-121q0 -59 -21 -112t-54 -94t-73 -80.5t-80.5 -79.5t-73.5 -82.5t-54 -98t-21 -117.5q0 -143 86 -235t227 -92q79 0 144 34t102.5 79.5t62.5 103.5l48 -21q-43 -103 -134.5 -173 t-224.5 -70q-163 0 -264.5 106t-101.5 264zM451 1409q0 30 19.5 50t49.5 20t50 -20t20 -50t-20 -50t-50 -20t-49.5 20t-19.5 50z" />
<glyph horiz-adv-x="468" d="M160 721q0 30 23 53t53 23t51.5 -22.5t21.5 -53.5t-21.5 -53.5t-51.5 -22.5t-53 23t-23 53z" />
<glyph horiz-adv-x="854" d="M217 731q0 84 64.5 147.5t146.5 63.5q85 0 147 -63t62 -148t-62 -147t-147 -62q-83 0 -147 62.5t-64 146.5z" />
<glyph horiz-adv-x="1144" d="M156 727q0 140 10.5 245t38 199t74 154t120 94.5t174.5 34.5t174.5 -34.5t119.5 -94.5t73.5 -154t38 -199t10.5 -245q0 -143 -10.5 -251t-38 -204.5t-73.5 -157.5t-119.5 -96.5t-174.5 -35.5q-84 0 -149.5 23.5t-111 70.5t-76.5 109.5t-48 149.5t-24.5 180.5t-7.5 211.5z M209 727q0 -133 8 -230.5t31 -190t62.5 -150.5t105.5 -92.5t157 -34.5q76 0 134 23t97.5 68.5t66 104t40.5 141.5t19.5 167.5t5.5 193.5q0 107 -5.5 189t-19.5 163t-40.5 138t-66 101.5t-97.5 66.5t-134 22q-66 0 -118 -17.5t-90 -47.5t-66 -78t-45 -102t-27 -127t-14 -145 t-4 -163z" />
<glyph horiz-adv-x="1144" d="M178 1141l457 301l49 -10v-1387h360v-45h-804v45h393v1337l-428 -282z" />
<glyph horiz-adv-x="1144" d="M164 0v23q0 97 38.5 189.5t100 167t136 146.5t149 140t136 133.5t100 139.5t38.5 148q0 140 -83 231t-222 91q-123 0 -215.5 -83.5t-126.5 -203.5l-45 19q39 135 142.5 225t246.5 90q160 0 259.5 -105t99.5 -259q0 -70 -29.5 -140t-78 -128.5t-111 -121.5t-127.5 -119 t-128 -120.5t-112.5 -126.5t-81 -138t-33.5 -153h662v303h49v-348h-764z" />
<glyph horiz-adv-x="1144" d="M135 279l49 18q37 -127 129.5 -200.5t223.5 -73.5q157 0 262.5 107t105.5 269q0 165 -115 264t-319 99h-61l-11 26l465 603h-626v-246h-50v289h730v-48l-447 -579h23q207 0 337 -112.5t130 -293.5q0 -184 -121.5 -305t-302.5 -121q-151 0 -257 83t-145 221z" />
<glyph horiz-adv-x="1144" d="M109 436v37l659 965h51v-957h207v-45h-207v-393h207v-43h-494v43h236v393h-659zM170 481h598v879z" />
<glyph horiz-adv-x="1144" d="M141 274l49 17q41 -122 133.5 -195t235.5 -73q164 0 268.5 118t104.5 293q0 174 -105 287t-276 113q-84 0 -162.5 -35t-130.5 -84l-45 16l43 703h639v-263h-49v220h-543l-41 -621q55 47 135 79t162 32q186 0 307 -127t121 -316q0 -198 -120.5 -330.5t-307.5 -132.5 q-161 0 -267.5 82t-150.5 217z" />
<glyph horiz-adv-x="1144" d="M156 551v76q0 192 28 342t86 260t151.5 168.5t219.5 58.5q167 0 303 -90l-24 -45q-58 40 -132.5 64t-148.5 24q-432 0 -432 -807q31 132 137.5 212.5t249.5 80.5q187 0 299.5 -126t112.5 -320q0 -213 -107.5 -343.5t-308.5 -130.5q-212 0 -323 151t-111 425zM213 463 q0 -117 40.5 -215t128 -161.5t208.5 -63.5t203.5 56.5t119.5 149.5t37 217q0 178 -96 290t-266 112q-100 0 -185 -47.5t-137.5 -137t-52.5 -200.5z" />
<glyph horiz-adv-x="1144" d="M150 1085v349h874v-35l-588 -1399h-59l590 1389h-768v-304h-49z" />
<glyph horiz-adv-x="1144" d="M154 389q0 82 27 150t72.5 112.5t99 72t112.5 38.5q-107 24 -184.5 113t-77.5 227q0 156 102.5 254t265.5 98q165 0 269 -98t104 -254q0 -138 -77.5 -227t-186.5 -113q59 -11 112.5 -38.5t99 -72t72.5 -112.5t27 -150q0 -178 -114.5 -296t-305.5 -118q-189 0 -303 118 t-114 296zM209 389q0 -157 97 -261.5t265 -104.5q169 0 267 104.5t98 261.5t-102 251.5t-263 94.5q-160 0 -261 -94.5t-101 -251.5zM256 1102q0 -139 88 -229.5t227 -90.5q140 0 230 90.5t90 229.5q0 136 -87.5 220.5t-232.5 84.5q-143 0 -229 -84.5t-86 -220.5z" />
<glyph horiz-adv-x="1144" d="M150 1020q0 194 112.5 314t300.5 120q193 0 299.5 -138t106.5 -382v-78q0 -203 -24 -359t-76.5 -276t-143 -183t-217.5 -63q-89 0 -171.5 29.5t-139.5 75.5l26 41q54 -42 130.5 -70t152.5 -28q112 0 193 57.5t129 170t70 264.5t22 353q-24 -133 -122 -214t-249 -81 q-121 0 -212.5 60t-139 160.5t-47.5 226.5zM205 1020q0 -173 93 -286t257 -113q161 0 258.5 113t97.5 280q0 168 -95 280.5t-251 112.5q-169 0 -264.5 -107.5t-95.5 -279.5z" />
</font>
</defs>
</svg>
