<svg xmlns="http://www.w3.org/2000/svg" version="1.1" width="1024" height="843">
<rect x="0" y="0" width="1024" height="843" fill="#30282a" />
<g transform="scale(4.000000) translate(0.5 0.5)">
<polygon fill="#ffc9d0" fill-opacity="0.501961" points="119,104 264,-16 90,5" />
<polygon fill="#ffffff" fill-opacity="0.501961" points="213,124 271,160 214,226" />
<polygon fill="#000000" fill-opacity="0.501961" points="168,226 271,19 -16,164" />
<polygon fill="#000000" fill-opacity="0.501961" points="146,219 271,61 171,22" />
<polygon fill="#ffffff" fill-opacity="0.501961" points="150,17 217,35 237,-15" />
<polygon fill="#fff1d9" fill-opacity="0.501961" points="165,36 63,108 168,78" />
<polygon fill="#000000" fill-opacity="0.501961" points="-16,103 264,108 7,226" />
<polygon fill="#b71610" fill-opacity="0.501961" points="150,-11 29,121 147,60" />
<polygon fill="#daa5c4" fill-opacity="0.501961" points="269,211 170,219 252,147" />
<polygon fill="#22649e" fill-opacity="0.501961" points="150,-16 86,63 24,6" />
<polygon fill="#000000" fill-opacity="0.501961" points="-16,226 118,82 236,177" />
<polygon fill="#dcf6fb" fill-opacity="0.501961" points="230,185 249,140 204,127" />
<polygon fill="#000000" fill-opacity="0.501961" points="171,20 271,95 161,155" />
<polygon fill="#000000" fill-opacity="0.501961" points="3,-16 90,226 -16,213" />
<polygon fill="#000000" fill-opacity="0.501961" points="185,86 249,-16 271,166" />
<polygon fill="#ffffff" fill-opacity="0.501961" points="219,34 178,21 230,-16" />
<polygon fill="#a57c92" fill-opacity="0.501961" points="271,196 166,226 234,159" />
<polygon fill="#f2ffff" fill-opacity="0.501961" points="168,23 163,79 150,14" />
<polygon fill="#964036" fill-opacity="0.501961" points="160,-3 71,110 32,91" />
<polygon fill="#f01314" fill-opacity="0.501961" points="177,22 183,5 135,-16" />
<polygon fill="#000000" fill-opacity="0.501961" points="251,149 230,-16 271,6" />
<polygon fill="#d6eadd" fill-opacity="0.501961" points="89,93 135,65 156,83" />
<polygon fill="#d7f0d8" fill-opacity="0.501961" points="182,210 224,172 208,205" />
<polygon fill="#000000" fill-opacity="0.501961" points="226,175 114,88 70,226" />
<polygon fill="#000000" fill-opacity="0.501961" points="-7,34 46,0 -4,-14" />
<polygon fill="#895772" fill-opacity="0.501961" points="245,226 251,173 213,156" />
<polygon fill="#6e7ba4" fill-opacity="0.501961" points="5,28 105,-6 70,-16" />
<polygon fill="#e0fff6" fill-opacity="0.501961" points="245,140 268,182 204,135" />
<polygon fill="#000000" fill-opacity="0.501961" points="172,28 157,162 265,46" />
<polygon fill="#0963ae" fill-opacity="0.501961" points="147,-16 82,-16 101,41" />
<polygon fill="#000000" fill-opacity="0.501961" points="164,226 220,169 -16,181" />
<polygon fill="#000000" fill-opacity="0.501961" points="1,226 255,107 -16,107" />
<polygon fill="#f9ffff" fill-opacity="0.501961" points="232,10 180,-16 206,35" />
<polygon fill="#000000" fill-opacity="0.501961" points="110,91 13,159 213,88" />
<polygon fill="#0d1611" fill-opacity="0.501961" points="-16,44 81,21 51,81" />
<polygon fill="#6f4f46" fill-opacity="0.501961" points="134,33 79,31 47,88" />
<polygon fill="#000000" fill-opacity="0.501961" points="259,146 238,-16 203,119" />
<polygon fill="#609ebc" fill-opacity="0.501961" points="250,161 235,194 226,158" />
<polygon fill="#d8f3ef" fill-opacity="0.501961" points="162,48 132,91 169,68" />
<polygon fill="#000000" fill-opacity="0.501961" points="217,166 168,38 167,226" />
<polygon fill="#d6927a" fill-opacity="0.501961" points="96,101 59,108 131,60" />
<polygon fill="#a53238" fill-opacity="0.501961" points="148,67 152,-13 93,55" />
<polygon fill="#651e19" fill-opacity="0.501961" points="60,109 33,102 106,61" />
<polygon fill="#db8986" fill-opacity="0.501961" points="229,159 228,203 214,148" />
<polygon fill="#da806c" fill-opacity="0.501961" points="38,89 66,73 52,90" />
<polygon fill="#2a425b" fill-opacity="0.501961" points="64,54 116,-16 30,17" />
<polygon fill="#000000" fill-opacity="0.501961" points="160,77 271,135 139,119" />
<polygon fill="#000000" fill-opacity="0.501961" points="43,157 -11,93 40,92" />
<polygon fill="#ffffff" fill-opacity="0.501961" points="266,155 242,148 271,196" />
<polygon fill="#9a3d36" fill-opacity="0.501961" points="242,172 251,183 234,214" />
<polygon fill="#000000" fill-opacity="0.501961" points="166,106 172,20 230,59" />
<polygon fill="#000000" fill-opacity="0.501961" points="66,-15 -2,33 1,-16" />
<polygon fill="#ffffff" fill-opacity="0.501961" points="222,134 235,134 234,152" />
<polygon fill="#f5ab96" fill-opacity="0.501961" points="182,27 173,19 198,-16" />
<polygon fill="#292821" fill-opacity="0.501961" points="76,32 8,99 68,69" />
<polygon fill="#82abe5" fill-opacity="0.501961" points="33,11 101,-16 69,-16" />
<polygon fill="#fa7f7a" fill-opacity="0.501961" points="149,73 152,49 137,45" />
<polygon fill="#d62b1e" fill-opacity="0.501961" points="122,61 108,82 78,91" />
<polygon fill="#9cccd7" fill-opacity="0.501961" points="205,132 227,131 214,156" />
<polygon fill="#000000" fill-opacity="0.501961" points="252,152 269,6 221,22" />
<polygon fill="#ae3e33" fill-opacity="0.501961" points="79,105 47,110 40,99" />
<polygon fill="#8fbdb9" fill-opacity="0.501961" points="98,99 76,106 112,80" />
<polygon fill="#e6fbf7" fill-opacity="0.501961" points="230,-16 178,-8 227,20" />
<polygon fill="#6b2d2f" fill-opacity="0.501961" points="125,20 100,43 149,40" />
<polygon fill="#e3cdb6" fill-opacity="0.501961" points="109,74 139,65 150,87" />
<polygon fill="#0a0b06" fill-opacity="0.501961" points="46,60 -16,67 27,17" />
<polygon fill="#82775e" fill-opacity="0.501961" points="-7,37 19,20 8,33" />
<polygon fill="#000000" fill-opacity="0.501961" points="219,175 43,226 -16,84" />
<polygon fill="#e5ffff" fill-opacity="0.501961" points="182,25 221,27 204,33" />
<polygon fill="#2a1f1f" fill-opacity="0.501961" points="106,74 93,66 73,83" />
<polygon fill="#ced2c9" fill-opacity="0.501961" points="153,3 172,21 154,50" />
<polygon fill="#cd333c" fill-opacity="0.501961" points="135,-4 155,10 128,29" />
<polygon fill="#b66191" fill-opacity="0.501961" points="195,206 232,226 258,191" />
<polygon fill="#88c0cc" fill-opacity="0.501961" points="234,163 240,141 241,186" />
<polygon fill="#b07872" fill-opacity="0.501961" points="21,18 44,12 42,5" />
<polygon fill="#000000" fill-opacity="0.501961" points="196,109 168,226 215,161" />
<polygon fill="#5c4c3d" fill-opacity="0.501961" points="40,83 11,91 44,92" />
<polygon fill="#96c5c6" fill-opacity="0.501961" points="158,78 112,85 132,90" />
<polygon fill="#000000" fill-opacity="0.501961" points="45,226 205,85 108,91" />
<polygon fill="#26508c" fill-opacity="0.501961" points="31,25 63,-7 128,-16" />
<polygon fill="#000000" fill-opacity="0.501961" points="243,120 250,149 271,150" />
<polygon fill="#922218" fill-opacity="0.501961" points="65,77 83,93 41,94" />
<polygon fill="#d94326" fill-opacity="0.501961" points="115,56 128,65 103,77" />
<polygon fill="#000000" fill-opacity="0.501961" points="271,-11 243,66 231,-9" />
<polygon fill="#c1a193" fill-opacity="0.501961" points="148,15 160,12 149,27" />
<polygon fill="#b24f4a" fill-opacity="0.501961" points="104,48 105,59 72,73" />
<polygon fill="#e8ece5" fill-opacity="0.501961" points="169,48 151,83 157,28" />
<polygon fill="#60637c" fill-opacity="0.501961" points="249,175 234,196 247,160" />
<polygon fill="#e7c7f0" fill-opacity="0.501961" points="211,209 221,204 221,197" />
<polygon fill="#710006" fill-opacity="0.501961" points="242,214 258,198 271,198" />
<polygon fill="#bad0c6" fill-opacity="0.501961" points="220,198 220,177 192,201" />
<polygon fill="#000000" fill-opacity="0.501961" points="207,35 176,32 157,130" />
<polygon fill="#3672ba" fill-opacity="0.501961" points="116,28 99,17 146,-16" />
<polygon fill="#f2e1d7" fill-opacity="0.501961" points="118,85 102,86 133,68" />
<polygon fill="#6a6060" fill-opacity="0.501961" points="98,51 69,77 85,36" />
<polygon fill="#a7b3a7" fill-opacity="0.501961" points="87,104 74,100 109,88" />
<polygon fill="#af5964" fill-opacity="0.501961" points="150,55 154,34 143,13" />
<polygon fill="#e1cec2" fill-opacity="0.501961" points="157,57 156,82 147,54" />
<polygon fill="#000000" fill-opacity="0.501961" points="167,226 214,110 -16,108" />
<polygon fill="#000000" fill-opacity="0.501961" points="159,76 153,90 177,107" />
<polygon fill="#f5fffa" fill-opacity="0.501961" points="179,13 220,10 218,31" />
<polygon fill="#dce8da" fill-opacity="0.501961" points="252,152 237,174 241,148" />
<polygon fill="#300f0f" fill-opacity="0.501961" points="61,100 46,93 71,94" />
<polygon fill="#f4b7a4" fill-opacity="0.501961" points="185,12 200,9 179,-16" />
<polygon fill="#820102" fill-opacity="0.501961" points="134,-4 148,8 150,-16" />
<polygon fill="#df5770" fill-opacity="0.501961" points="223,206 230,188 225,167" />
<polygon fill="#000000" fill-opacity="0.501961" points="45,1 3,-15 -9,32" />
<polygon fill="#d9eaf1" fill-opacity="0.501961" points="217,129 216,139 242,140" />
<polygon fill="#955f52" fill-opacity="0.501961" points="216,195 192,216 214,206" />
<polygon fill="#000000" fill-opacity="0.501961" points="3,226 -16,100 42,90" />
<polygon fill="#25577d" fill-opacity="0.501961" points="99,-16 99,44 74,-7" />
<polygon fill="#335e65" fill-opacity="0.501961" points="230,12 227,12 227,22" />
<polygon fill="#293039" fill-opacity="0.501961" points="65,14 81,62 33,32" />
<polygon fill="#e6f8f8" fill-opacity="0.501961" points="232,9 212,-16 221,16" />
<polygon fill="#722f30" fill-opacity="0.501961" points="123,58 143,64 126,51" />
<polygon fill="#de3b3f" fill-opacity="0.501961" points="168,15 184,7 161,2" />
<polygon fill="#ba3326" fill-opacity="0.501961" points="67,103 74,88 100,81" />
<polygon fill="#609e91" fill-opacity="0.501961" points="127,88 133,91 138,89" />
<polygon fill="#a62b25" fill-opacity="0.501961" points="110,42 97,85 112,75" />
<polygon fill="#000000" fill-opacity="0.501961" points="167,31 269,41 202,133" />
<polygon fill="#5e4455" fill-opacity="0.501961" points="47,18 20,20 45,8" />
<polygon fill="#d0dddb" fill-opacity="0.501961" points="222,27 221,31 209,33" />
<polygon fill="#75a2b0" fill-opacity="0.501961" points="167,55 169,30 162,30" />
<polygon fill="#fcffff" fill-opacity="0.501961" points="271,178 271,155 243,150" />
<polygon fill="#000000" fill-opacity="0.501961" points="200,114 223,27 258,147" />
<polygon fill="#efdbc8" fill-opacity="0.501961" points="156,81 114,72 143,68" />
<polygon fill="#489adf" fill-opacity="0.501961" points="235,192 241,178 236,166" />
<polygon fill="#aa573d" fill-opacity="0.501961" points="235,205 249,170 249,188" />
<polygon fill="#7f8878" fill-opacity="0.501961" points="96,94 86,88 106,88" />
<polygon fill="#000000" fill-opacity="0.501961" points="117,91 223,109 45,126" />
<polygon fill="#b09dbf" fill-opacity="0.501961" points="249,200 271,160 253,177" />
<polygon fill="#532624" fill-opacity="0.501961" points="52,90 88,84 98,62" />
<polygon fill="#c32717" fill-opacity="0.501961" points="43,90 53,87 48,98" />
<polygon fill="#845e8c" fill-opacity="0.501961" points="227,187 236,201 234,162" />
<polygon fill="#000000" fill-opacity="0.501961" points="-16,210 152,83 187,226" />
<polygon fill="#d2ddd7" fill-opacity="0.501961" points="110,81 107,91 99,97" />
<polygon fill="#000000" fill-opacity="0.501961" points="218,175 197,114 170,215" />
<polygon fill="#000807" fill-opacity="0.501961" points="111,88 106,96 115,95" />
<polygon fill="#744b55" fill-opacity="0.501961" points="154,49 146,30 135,37" />
<polygon fill="#f19065" fill-opacity="0.501961" points="109,82 133,65 109,73" />
<polygon fill="#191a15" fill-opacity="0.501961" points="74,50 -9,98 32,36" />
<polygon fill="#ebc894" fill-opacity="0.501961" points="222,174 222,159 226,171" />
<polygon fill="#f3857f" fill-opacity="0.501961" points="180,21 174,9 186,20" />
<polygon fill="#957d83" fill-opacity="0.501961" points="64,78 46,86 64,71" />
<polygon fill="#504c40" fill-opacity="0.501961" points="93,25 72,35 72,63" />
<polygon fill="#c0a0c8" fill-opacity="0.501961" points="226,226 239,226 225,194" />
<polygon fill="#fffcef" fill-opacity="0.501961" points="242,160 247,154 246,141" />
<polygon fill="#b5beb3" fill-opacity="0.501961" points="217,163 210,141 239,160" />
<polygon fill="#cd7469" fill-opacity="0.501961" points="64,107 53,101 60,101" />
<polygon fill="#deebed" fill-opacity="0.501961" points="155,29 166,56 165,36" />
<polygon fill="#a0b7b4" fill-opacity="0.501961" points="146,86 110,89 133,79" />
<polygon fill="#b43845" fill-opacity="0.501961" points="136,40 115,38 146,67" />
<polygon fill="#8ba9a4" fill-opacity="0.501961" points="191,27 195,31 183,27" />
<polygon fill="#fff6f5" fill-opacity="0.501961" points="226,133 237,149 228,155" />
<polygon fill="#e33d4c" fill-opacity="0.501961" points="142,21 149,20 137,1" />
<polygon fill="#23231c" fill-opacity="0.501961" points="-6,39 30,16 39,26" />
<polygon fill="#355082" fill-opacity="0.501961" points="40,29 54,13 34,17" />
<polygon fill="#5f5d76" fill-opacity="0.501961" points="219,157 218,171 221,163" />
<polygon fill="#845679" fill-opacity="0.501961" points="223,176 221,186 218,165" />
<polygon fill="#c15244" fill-opacity="0.501961" points="60,87 67,91 72,89" />
<polygon fill="#000000" fill-opacity="0.501961" points="222,24 254,102 263,-5" />
<polygon fill="#a23165" fill-opacity="0.501961" points="224,226 225,205 186,226" />
<polygon fill="#60405c" fill-opacity="0.501961" points="237,194 242,177 243,198" />
<polygon fill="#000000" fill-opacity="0.501961" points="173,25 271,59 229,132" />
<polygon fill="#9ba194" fill-opacity="0.501961" points="253,178 248,155 241,170" />
<polygon fill="#cde1e1" fill-opacity="0.501961" points="155,82 157,65 138,81" />
<polygon fill="#ad9285" fill-opacity="0.501961" points="154,18 161,20 152,1" />
<polygon fill="#7fa29f" fill-opacity="0.501961" points="241,147 237,152 241,138" />
<polygon fill="#e0c7bb" fill-opacity="0.501961" points="213,197 200,195 184,209" />
<polygon fill="#c1857b" fill-opacity="0.501961" points="179,220 204,199 197,223" />
<polygon fill="#944c33" fill-opacity="0.501961" points="85,68 72,68 61,80" />
<polygon fill="#2b69a1" fill-opacity="0.501961" points="88,-15 103,39 136,-16" />
<polygon fill="#d99d8e" fill-opacity="0.501961" points="152,57 151,26 156,40" />
<polygon fill="#29495a" fill-opacity="0.501961" points="109,-2 67,21 75,36" />
<polygon fill="#000000" fill-opacity="0.501961" points="210,130 235,33 168,39" />
<polygon fill="#000000" fill-opacity="0.501961" points="59,-13 -12,-3 -9,39" />
<polygon fill="#000000" fill-opacity="0.501961" points="254,23 257,-16 231,2" />
<polygon fill="#383d2f" fill-opacity="0.501961" points="-2,91 24,92 17,86" />
<polygon fill="#decebf" fill-opacity="0.501961" points="146,71 119,88 118,72" />
<polygon fill="#b4373b" fill-opacity="0.501961" points="148,1 166,7 181,-11" />
<polygon fill="#417576" fill-opacity="0.501961" points="113,91 122,89 110,88" />
<polygon fill="#e9f4f6" fill-opacity="0.501961" points="216,32 221,15 182,24" />
<polygon fill="#db9080" fill-opacity="0.501961" points="148,61 140,68 154,67" />
<polygon fill="#262623" fill-opacity="0.501961" points="43,84 71,63 59,48" />
<polygon fill="#67b3c5" fill-opacity="0.501961" points="207,134 213,130 215,142" />
<polygon fill="#a487cb" fill-opacity="0.501961" points="212,226 187,226 216,204" />
<polygon fill="#283f3f" fill-opacity="0.501961" points="171,49 166,60 168,42" />
<polygon fill="#d5658a" fill-opacity="0.501961" points="232,201 222,193 222,171" />
<polygon fill="#ebf3e4" fill-opacity="0.501961" points="259,184 246,151 271,161" />
<polygon fill="#b07a77" fill-opacity="0.501961" points="178,-11 186,10 152,-16" />
<polygon fill="#c94f4f" fill-opacity="0.501961" points="225,182 227,171 229,190" />
<polygon fill="#758dc5" fill-opacity="0.501961" points="232,173 233,157 226,174" />
<polygon fill="#836255" fill-opacity="0.501961" points="27,14 15,23 41,13" />
<polygon fill="#7bb6e3" fill-opacity="0.501961" points="62,-16 66,-8 42,6" />
<polygon fill="#ea6541" fill-opacity="0.501961" points="124,61 107,74 133,64" />
<polygon fill="#90b4bf" fill-opacity="0.501961" points="225,14 229,17 221,22" />
<polygon fill="#a54045" fill-opacity="0.501961" points="132,6 152,34 132,35" />
<polygon fill="#7f63a9" fill-opacity="0.501961" points="243,204 249,208 251,193" />
<polygon fill="#7596a2" fill-opacity="0.501961" points="198,32 210,33 204,35" />
<polygon fill="#000000" fill-opacity="0.501961" points="225,131 171,21 268,117" />
</g>
</svg>