<svg xmlns="http://www.w3.org/2000/svg" version="1.1" width="1024" height="932">
<rect x="0" y="0" width="1024" height="932" fill="#7d778a" />
<g transform="scale(4.000000) translate(0.5 0.5)">
<polygon fill="#c9ddff" fill-opacity="0.501961" points="-16,79 271,204 116,38" />
<polygon fill="#ff2405" fill-opacity="0.501961" points="100,248 29,100 137,133" />
<polygon fill="#1a334a" fill-opacity="0.501961" points="271,-14 -15,-16 271,82" />
<polygon fill="#334045" fill-opacity="0.501961" points="101,248 -16,229 14,90" />
<polygon fill="#aacbf8" fill-opacity="0.501961" points="12,1 145,121 -16,88" />
<polygon fill="#4b494d" fill-opacity="0.501961" points="109,228 271,242 125,141" />
<polygon fill="#7998bd" fill-opacity="0.501961" points="271,207 -15,-7 240,95" />
<polygon fill="#ff3b2a" fill-opacity="0.501961" points="77,248 75,169 163,248" />
<polygon fill="#ff7965" fill-opacity="0.501961" points="127,125 110,158 173,118" />
<polygon fill="#ff9896" fill-opacity="0.501961" points="34,107 55,91 125,134" />
<polygon fill="#5e7087" fill-opacity="0.501961" points="64,2 271,81 84,62" />
<polygon fill="#1b1419" fill-opacity="0.501961" points="112,178 131,144 116,221" />
<polygon fill="#506472" fill-opacity="0.501961" points="-16,84 44,105 7,248" />
<polygon fill="#bbdbff" fill-opacity="0.501961" points="118,72 116,137 77,99" />
<polygon fill="#455764" fill-opacity="0.501961" points="70,248 -16,108 73,171" />
<polygon fill="#e54337" fill-opacity="0.501961" points="113,200 92,111 35,138" />
<polygon fill="#00232f" fill-opacity="0.501961" points="66,146 62,118 53,132" />
<polygon fill="#caffff" fill-opacity="0.501961" points="67,117 56,112 89,97" />
<polygon fill="#c9f2ff" fill-opacity="0.501961" points="264,193 221,189 198,168" />
<polygon fill="#6d809b" fill-opacity="0.501961" points="-16,-15 -16,38 114,26" />
<polygon fill="#8a9fbf" fill-opacity="0.501961" points="228,222 144,66 221,105" />
<polygon fill="#5f717f" fill-opacity="0.501961" points="228,188 139,150 120,219" />
<polygon fill="#ff5948" fill-opacity="0.501961" points="66,98 41,142 42,100" />
<polygon fill="#bcd8ff" fill-opacity="0.501961" points="71,66 -10,81 40,106" />
<polygon fill="#7d879a" fill-opacity="0.501961" points="13,155 19,214 -16,215" />
<polygon fill="#ff5648" fill-opacity="0.501961" points="113,131 103,201 129,142" />
<polygon fill="#ff8375" fill-opacity="0.501961" points="118,146 146,116 163,128" />
<polygon fill="#f9493b" fill-opacity="0.501961" points="141,223 141,248 73,218" />
<polygon fill="#95b2dd" fill-opacity="0.501961" points="176,101 108,137 101,114" />
<polygon fill="#5b6c7e" fill-opacity="0.501961" points="271,73 262,118 119,32" />
<polygon fill="#b1d5ff" fill-opacity="0.501961" points="145,148 226,184 188,153" />
<polygon fill="#869bc1" fill-opacity="0.501961" points="230,129 140,139 271,197" />
<polygon fill="#8897b6" fill-opacity="0.501961" points="76,91 151,43 67,46" />
<polygon fill="#9096aa" fill-opacity="0.501961" points="139,148 132,180 148,192" />
<polygon fill="#4e5965" fill-opacity="0.501961" points="-16,102 35,101 50,175" />
<polygon fill="#33292e" fill-opacity="0.501961" points="116,209 152,223 114,219" />
<polygon fill="#e0493f" fill-opacity="0.501961" points="78,248 120,145 75,110" />
<polygon fill="#d2edff" fill-opacity="0.501961" points="55,113 112,110 106,91" />
<polygon fill="#6b7899" fill-opacity="0.501961" points="178,-16 136,3 147,27" />
<polygon fill="#2c0e0e" fill-opacity="0.501961" points="145,248 169,245 141,218" />
<polygon fill="#51616f" fill-opacity="0.501961" points="230,248 139,163 205,176" />
<polygon fill="#3e475b" fill-opacity="0.501961" points="149,29 205,-16 269,70" />
<polygon fill="#627c91" fill-opacity="0.501961" points="67,120 57,112 62,136" />
<polygon fill="#8896ab" fill-opacity="0.501961" points="148,199 163,188 181,210" />
<polygon fill="#98add3" fill-opacity="0.501961" points="66,70 178,130 146,73" />
<polygon fill="#e9ffff" fill-opacity="0.501961" points="217,176 238,185 216,185" />
<polygon fill="#485360" fill-opacity="0.501961" points="79,239 70,166 -16,238" />
<polygon fill="#ff8b86" fill-opacity="0.501961" points="153,116 114,133 144,136" />
<polygon fill="#d84a42" fill-opacity="0.501961" points="78,242 69,125 129,248" />
<polygon fill="#515660" fill-opacity="0.501961" points="221,248 117,174 163,248" />
<polygon fill="#748099" fill-opacity="0.501961" points="47,33 102,7 108,60" />
<polygon fill="#ff7766" fill-opacity="0.501961" points="105,138 78,110 99,118" />
<polygon fill="#99b3df" fill-opacity="0.501961" points="85,82 25,86 37,103" />
<polygon fill="#2d100d" fill-opacity="0.501961" points="57,119 59,144 68,148" />
<polygon fill="#808fac" fill-opacity="0.501961" points="211,157 166,122 244,82" />
<polygon fill="#320000" fill-opacity="0.501961" points="108,134 104,145 110,138" />
<polygon fill="#424a59" fill-opacity="0.501961" points="140,32 118,-16 108,41" />
<polygon fill="#8097a6" fill-opacity="0.501961" points="208,178 224,221 240,196" />
<polygon fill="#5a747f" fill-opacity="0.501961" points="258,209 217,248 238,190" />
<polygon fill="#8aa0c5" fill-opacity="0.501961" points="-16,87 -1,26 81,51" />
<polygon fill="#664f55" fill-opacity="0.501961" points="116,186 122,220 133,153" />
<polygon fill="#90818f" fill-opacity="0.501961" points="126,216 125,190 139,197" />
<polygon fill="#ff8072" fill-opacity="0.501961" points="63,96 70,105 47,115" />
<polygon fill="#98b4dc" fill-opacity="0.501961" points="147,153 131,142 168,128" />
<polygon fill="#7b89a5" fill-opacity="0.501961" points="5,-4 72,24 -16,36" />
<polygon fill="#4e576a" fill-opacity="0.501961" points="227,81 219,-16 194,74" />
<polygon fill="#d73d30" fill-opacity="0.501961" points="40,135 56,123 57,160" />
<polygon fill="#e0fdff" fill-opacity="0.501961" points="8,81 -16,81 33,98" />
<polygon fill="#545e6c" fill-opacity="0.501961" points="54,239 74,179 37,137" />
<polygon fill="#bcddff" fill-opacity="0.501961" points="84,104 74,89 66,118" />
<polygon fill="#513f48" fill-opacity="0.501961" points="137,146 126,175 127,142" />
<polygon fill="#251214" fill-opacity="0.501961" points="121,200 113,179 116,213" />
<polygon fill="#6e7b92" fill-opacity="0.501961" points="132,40 167,85 237,90" />
<polygon fill="#90a1c0" fill-opacity="0.501961" points="242,116 186,88 126,94" />
<polygon fill="#a0b7df" fill-opacity="0.501961" points="166,114 116,101 104,130" />
<polygon fill="#4a5263" fill-opacity="0.501961" points="99,-16 32,3 80,20" />
<polygon fill="#e9483d" fill-opacity="0.501961" points="69,117 108,141 81,111" />
<polygon fill="#636f8e" fill-opacity="0.501961" points="243,21 264,-16 236,4" />
<polygon fill="#515864" fill-opacity="0.501961" points="-16,87 41,111 38,232" />
<polygon fill="#ff8d86" fill-opacity="0.501961" points="120,156 138,125 126,127" />
<polygon fill="#f85247" fill-opacity="0.501961" points="121,248 110,191 105,221" />
<polygon fill="#ba1508" fill-opacity="0.501961" points="103,135 109,142 105,153" />
<polygon fill="#6b7687" fill-opacity="0.501961" points="-16,192 11,176 29,226" />
<polygon fill="#ff7f74" fill-opacity="0.501961" points="152,119 161,128 125,143" />
<polygon fill="#7c8496" fill-opacity="0.501961" points="60,220 56,205 50,215" />
<polygon fill="#6c7e96" fill-opacity="0.501961" points="234,62 248,154 271,146" />
<polygon fill="#ff8b83" fill-opacity="0.501961" points="68,108 41,103 61,95" />
<polygon fill="#82a0b3" fill-opacity="0.501961" points="246,220 271,238 257,207" />
<polygon fill="#b5ceff" fill-opacity="0.501961" points="233,183 248,196 271,196" />
<polygon fill="#556573" fill-opacity="0.501961" points="162,219 237,246 205,186" />
<polygon fill="#6b5158" fill-opacity="0.501961" points="116,196 124,215 125,165" />
<polygon fill="#b2caf9" fill-opacity="0.501961" points="43,64 12,76 77,102" />
<polygon fill="#636f83" fill-opacity="0.501961" points="104,11 97,40 124,43" />
<polygon fill="#5a4f57" fill-opacity="0.501961" points="138,193 163,235 131,213" />
<polygon fill="#9bb1d7" fill-opacity="0.501961" points="124,96 156,114 107,134" />
<polygon fill="#75829e" fill-opacity="0.501961" points="203,136 230,122 196,108" />
<polygon fill="#93a7cf" fill-opacity="0.501961" points="11,62 -15,72 11,86" />
<polygon fill="#ff5a4d" fill-opacity="0.501961" points="140,237 140,223 125,223" />
<polygon fill="#dc4a3f" fill-opacity="0.501961" points="43,136 101,162 73,172" />
<polygon fill="#c3ddff" fill-opacity="0.501961" points="101,89 75,102 102,120" />
<polygon fill="#c6e0ff" fill-opacity="0.501961" points="156,149 157,155 142,144" />
<polygon fill="#454e59" fill-opacity="0.501961" points="55,222 34,245 15,173" />
<polygon fill="#9cb6df" fill-opacity="0.501961" points="159,107 173,141 163,138" />
<polygon fill="#6b778f" fill-opacity="0.501961" points="19,28 6,16 52,-16" />
<polygon fill="#2d2023" fill-opacity="0.501961" points="114,177 123,166 113,196" />
<polygon fill="#5b616c" fill-opacity="0.501961" points="140,167 172,167 145,151" />
<polygon fill="#3f475a" fill-opacity="0.501961" points="162,-16 223,52 185,49" />
<polygon fill="#e0483f" fill-opacity="0.501961" points="41,101 43,143 57,118" />
<polygon fill="#9fb4dc" fill-opacity="0.501961" points="82,97 121,72 29,92" />
<polygon fill="#ff5548" fill-opacity="0.501961" points="110,167 123,156 108,184" />
<polygon fill="#c4e3ff" fill-opacity="0.501961" points="174,163 183,161 159,153" />
<polygon fill="#3d4557" fill-opacity="0.501961" points="217,64 271,29 269,-6" />
<polygon fill="#3e444f" fill-opacity="0.501961" points="-13,248 56,248 11,218" />
<polygon fill="#d8463d" fill-opacity="0.501961" points="135,222 83,216 72,248" />
<polygon fill="#97abd1" fill-opacity="0.501961" points="200,167 153,146 201,147" />
<polygon fill="#555d6d" fill-opacity="0.501961" points="182,55 177,32 101,26" />
<polygon fill="#ff887b" fill-opacity="0.501961" points="83,110 103,134 97,117" />
<polygon fill="#c6e2ff" fill-opacity="0.501961" points="62,117 105,99 74,98" />
<polygon fill="#3a4255" fill-opacity="0.501961" points="92,-12 117,17 138,2" />
<polygon fill="#8a9bbc" fill-opacity="0.501961" points="271,201 224,131 192,146" />
<polygon fill="#8190ac" fill-opacity="0.501961" points="85,58 17,17 56,15" />
<polygon fill="#e45148" fill-opacity="0.501961" points="65,123 77,111 105,139" />
<polygon fill="#24191e" fill-opacity="0.501961" points="115,198 115,218 123,219" />
<polygon fill="#535c69" fill-opacity="0.501961" points="-16,179 41,136 -11,77" />
<polygon fill="#4f5864" fill-opacity="0.501961" points="71,170 -8,136 73,225" />
<polygon fill="#78849c" fill-opacity="0.501961" points="191,56 184,76 144,67" />
<polygon fill="#8797b6" fill-opacity="0.501961" points="199,120 160,86 127,87" />
<polygon fill="#ff5c52" fill-opacity="0.501961" points="112,218 110,182 105,198" />
<polygon fill="#b9d2ff" fill-opacity="0.501961" points="68,84 23,81 64,63" />
<polygon fill="#555965" fill-opacity="0.501961" points="138,156 152,191 170,186" />
<polygon fill="#8a757f" fill-opacity="0.501961" points="120,214 128,205 132,217" />
<polygon fill="#6b768a" fill-opacity="0.501961" points="234,63 203,99 260,77" />
<polygon fill="#7b88a1" fill-opacity="0.501961" points="147,51 129,74 100,58" />
<polygon fill="#d84940" fill-opacity="0.501961" points="121,140 72,175 85,248" />
<polygon fill="#879abb" fill-opacity="0.501961" points="80,83 98,61 73,59" />
<polygon fill="#4e5870" fill-opacity="0.501961" points="251,12 196,15 226,45" />
<polygon fill="#d9e6ff" fill-opacity="0.501961" points="59,110 71,110 66,119" />
<polygon fill="#8f8696" fill-opacity="0.501961" points="60,114 68,117 63,129" />
<polygon fill="#deffff" fill-opacity="0.501961" points="226,186 219,176 237,187" />
<polygon fill="#ff8680" fill-opacity="0.501961" points="152,118 132,140 113,134" />
<polygon fill="#9f170b" fill-opacity="0.501961" points="61,146 54,135 55,126" />
<polygon fill="#4d6c7b" fill-opacity="0.501961" points="38,106 29,101 41,125" />
<polygon fill="#8f9bb3" fill-opacity="0.501961" points="213,184 238,190 212,191" />
<polygon fill="#afc2e9" fill-opacity="0.501961" points="150,108 166,123 145,116" />
<polygon fill="#401213" fill-opacity="0.501961" points="122,159 129,155 128,146" />
<polygon fill="#7f8ea1" fill-opacity="0.501961" points="236,223 250,221 235,214" />
<polygon fill="#8596b7" fill-opacity="0.501961" points="-16,-5 28,59 -16,60" />
<polygon fill="#8497b9" fill-opacity="0.501961" points="271,158 265,192 197,165" />
<polygon fill="#4a5969" fill-opacity="0.501961" points="247,90 253,80 271,97" />
<polygon fill="#99aed2" fill-opacity="0.501961" points="191,104 199,95 175,91" />
<polygon fill="#a5b8db" fill-opacity="0.501961" points="152,84 133,78 153,72" />
<polygon fill="#ff8882" fill-opacity="0.501961" points="54,119 63,99 51,104" />
<polygon fill="#7a8b99" fill-opacity="0.501961" points="167,177 182,168 172,161" />
<polygon fill="#616b81" fill-opacity="0.501961" points="71,33 69,19 101,3" />
<polygon fill="#ff8276" fill-opacity="0.501961" points="153,120 161,124 156,132" />
<polygon fill="#54545b" fill-opacity="0.501961" points="117,178 127,192 135,154" />
<polygon fill="#404a5f" fill-opacity="0.501961" points="186,-16 149,40 235,1" />
<polygon fill="#7e8c9d" fill-opacity="0.501961" points="238,191 228,219 207,186" />
<polygon fill="#8d8c9d" fill-opacity="0.501961" points="63,163 56,160 63,168" />
<polygon fill="#728099" fill-opacity="0.501961" points="94,50 52,32 105,14" />
<polygon fill="#5b6978" fill-opacity="0.501961" points="268,229 206,215 195,248" />
<polygon fill="#9db8e0" fill-opacity="0.501961" points="128,124 95,116 108,128" />
<polygon fill="#e04e44" fill-opacity="0.501961" points="67,120 115,174 91,117" />
<polygon fill="#616a74" fill-opacity="0.501961" points="242,222 256,204 237,195" />
<polygon fill="#88848f" fill-opacity="0.501961" points="132,142 136,153 149,157" />
<polygon fill="#3c4558" fill-opacity="0.501961" points="80,10 12,-16 92,-16" />
<polygon fill="#ff6e62" fill-opacity="0.501961" points="123,143 114,167 122,157" />
<polygon fill="#6f7c8d" fill-opacity="0.501961" points="-16,197 14,194 12,159" />
<polygon fill="#505a66" fill-opacity="0.501961" points="13,149 71,171 74,193" />
<polygon fill="#59636f" fill-opacity="0.501961" points="197,244 157,170 209,179" />
<polygon fill="#616f85" fill-opacity="0.501961" points="68,15 14,-16 27,7" />
<polygon fill="#5d7285" fill-opacity="0.501961" points="110,138 107,132 113,128" />
<polygon fill="#9eb0d3" fill-opacity="0.501961" points="33,89 45,92 39,108" />
<polygon fill="#9bb0d5" fill-opacity="0.501961" points="109,82 95,64 30,102" />
<polygon fill="#9cb1d4" fill-opacity="0.501961" points="31,35 46,45 18,46" />
<polygon fill="#120502" fill-opacity="0.501961" points="65,142 56,131 58,137" />
<polygon fill="#8da1c6" fill-opacity="0.501961" points="183,159 143,141 175,133" />
<polygon fill="#8897b4" fill-opacity="0.501961" points="121,41 139,53 102,56" />
<polygon fill="#ff7e74" fill-opacity="0.501961" points="69,105 55,111 68,99" />
<polygon fill="#7d8ca5" fill-opacity="0.501961" points="243,93 221,117 242,163" />
<polygon fill="#5e687b" fill-opacity="0.501961" points="200,54 183,82 234,81" />
<polygon fill="#2c1c1f" fill-opacity="0.501961" points="160,248 142,234 143,223" />
<polygon fill="#808f9c" fill-opacity="0.501961" points="9,98 22,97 6,92" />
<polygon fill="#6e120d" fill-opacity="0.501961" points="110,138 106,134 106,150" />
<polygon fill="#a3b8e1" fill-opacity="0.501961" points="57,55 71,91 71,50" />
<polygon fill="#545e75" fill-opacity="0.501961" points="167,0 121,40 161,24" />
<polygon fill="#8897b6" fill-opacity="0.501961" points="45,34 64,42 44,62" />
<polygon fill="#7d8596" fill-opacity="0.501961" points="133,166 132,184 151,193" />
<polygon fill="#646e83" fill-opacity="0.501961" points="134,34 162,68 177,59" />
<polygon fill="#2e1616" fill-opacity="0.501961" points="119,169 115,187 112,181" />
<polygon fill="#75829a" fill-opacity="0.501961" points="252,100 200,78 199,98" />
<polygon fill="#90a0bf" fill-opacity="0.501961" points="230,103 206,100 210,117" />
<polygon fill="#e24c41" fill-opacity="0.501961" points="121,145 115,132 96,170" />
<polygon fill="#656e7c" fill-opacity="0.501961" points="29,218 -16,184 -16,215" />
<polygon fill="#dffaff" fill-opacity="0.501961" points="-11,81 10,84 24,96" />
<polygon fill="#c7e3ff" fill-opacity="0.501961" points="118,103 101,94 74,111" />
<polygon fill="#7a88a4" fill-opacity="0.501961" points="8,-14 37,29 -16,30" />
<polygon fill="#63708d" fill-opacity="0.501961" points="158,14 135,16 161,-16" />
<polygon fill="#808a9d" fill-opacity="0.501961" points="170,207 147,192 168,194" />
<polygon fill="#535c69" fill-opacity="0.501961" points="-16,153 12,95 57,164" />
</g>
</svg>