<svg xmlns="http://www.w3.org/2000/svg" version="1.1" width="1024" height="868">
<rect x="0" y="0" width="1024" height="868" fill="#c1bfbe" />
<g transform="scale(4.000000) translate(0.5 0.5)">
<polygon fill="#000000" fill-opacity="0.501961" points="49,64 271,147 235,32" />
<polygon fill="#ffffff" fill-opacity="0.501961" points="271,217 -7,-16 -5,232" />
<polygon fill="#000000" fill-opacity="0.501961" points="133,21 87,90 271,72" />
<polygon fill="#ffffff" fill-opacity="0.501961" points="42,-7 271,-1 263,62" />
<polygon fill="#080605" fill-opacity="0.501961" points="271,134 271,53 120,101" />
<polygon fill="#fffffd" fill-opacity="0.501961" points="-16,-7 104,2 83,156" />
<polygon fill="#544f47" fill-opacity="0.501961" points="40,123 82,149 77,188" />
<polygon fill="#000000" fill-opacity="0.501961" points="92,57 185,38 137,25" />
<polygon fill="#fefcfa" fill-opacity="0.501961" points="239,150 79,232 91,82" />
<polygon fill="#fcf9f7" fill-opacity="0.501961" points="128,19 271,65 253,-16" />
<polygon fill="#f0ecea" fill-opacity="0.501961" points="189,-16 -16,138 -16,-8" />
<polygon fill="#f1eeec" fill-opacity="0.501961" points="196,117 -16,222 271,215" />
<polygon fill="#2e2d2b" fill-opacity="0.501961" points="264,60 109,88 263,137" />
<polygon fill="#b8b4af" fill-opacity="0.501961" points="41,119 89,202 43,183" />
<polygon fill="#c8c5c4" fill-opacity="0.501961" points="256,139 225,172 197,119" />
<polygon fill="#141210" fill-opacity="0.501961" points="96,58 94,87 121,36" />
<polygon fill="#f1eeec" fill-opacity="0.501961" points="-9,232 -16,56 125,6" />
<polygon fill="#f7f7f5" fill-opacity="0.501961" points="77,116 84,199 196,119" />
<polygon fill="#2f2e2d" fill-opacity="0.501961" points="145,27 131,104 251,60" />
<polygon fill="#e6e3e2" fill-opacity="0.501961" points="-10,-16 196,-8 -6,103" />
<polygon fill="#635f5a" fill-opacity="0.501961" points="78,151 61,140 81,183" />
<polygon fill="#2d2a28" fill-opacity="0.501961" points="181,114 95,82 103,52" />
<polygon fill="#827e78" fill-opacity="0.501961" points="118,104 134,96 153,109" />
<polygon fill="#fcfaf9" fill-opacity="0.501961" points="262,61 238,31 189,38" />
<polygon fill="#f1f0ef" fill-opacity="0.501961" points="-16,107 92,52 100,131" />
<polygon fill="#e5e3e2" fill-opacity="0.501961" points="73,72 271,185 210,209" />
<polygon fill="#484846" fill-opacity="0.501961" points="109,50 170,49 221,84" />
<polygon fill="#111212" fill-opacity="0.501961" points="122,40 179,40 229,70" />
<polygon fill="#333230" fill-opacity="0.501961" points="257,72 184,113 257,138" />
<polygon fill="#a8a4a1" fill-opacity="0.501961" points="53,167 83,186 42,120" />
<polygon fill="#b5b2af" fill-opacity="0.501961" points="270,143 202,121 271,184" />
<polygon fill="#4a4b49" fill-opacity="0.501961" points="226,72 176,69 265,99" />
<polygon fill="#f0eeed" fill-opacity="0.501961" points="-16,137 77,78 132,97" />
<polygon fill="#f8f9f7" fill-opacity="0.501961" points="33,112 82,149 187,139" />
<polygon fill="#3f403d" fill-opacity="0.501961" points="129,53 127,33 103,49" />
<polygon fill="#f1eeec" fill-opacity="0.501961" points="-16,222 60,232 7,41" />
<polygon fill="#eeeceb" fill-opacity="0.501961" points="145,232 201,120 156,111" />
<polygon fill="#131515" fill-opacity="0.501961" points="203,55 264,70 267,91" />
<polygon fill="#161816" fill-opacity="0.501961" points="237,90 200,89 271,113" />
<polygon fill="#e8e4e3" fill-opacity="0.501961" points="85,62 -16,9 188,-16" />
<polygon fill="#f4f2f1" fill-opacity="0.501961" points="184,191 271,216 102,215" />
<polygon fill="#383534" fill-opacity="0.501961" points="262,135 152,72 139,103" />
<polygon fill="#d8d5d4" fill-opacity="0.501961" points="271,183 146,183 229,159" />
<polygon fill="#302e2d" fill-opacity="0.501961" points="97,55 95,79 166,109" />
<polygon fill="#4c4d4a" fill-opacity="0.501961" points="162,32 176,44 204,45" />
<polygon fill="#e9e6e5" fill-opacity="0.501961" points="226,-16 271,65 138,20" />
<polygon fill="#c9c6c5" fill-opacity="0.501961" points="112,101 162,111 119,115" />
<polygon fill="#e0dcd8" fill-opacity="0.501961" points="77,198 24,157 36,200" />
<polygon fill="#58544f" fill-opacity="0.501961" points="77,150 79,166 69,142" />
<polygon fill="#edebea" fill-opacity="0.501961" points="90,117 95,55 -16,60" />
</g>
</svg>