<svg xmlns="http://www.w3.org/2000/svg" version="1.1" width="1024" height="924">
<rect x="0" y="0" width="1024" height="924" fill="#a36863" />
<g transform="scale(4.000000) translate(0.5 0.5)">
<polygon fill="#ffd9f9" fill-opacity="0.501961" points="271,220 -15,246 19,97" />
<polygon fill="#1f1700" fill-opacity="0.501961" points="224,176 214,-16 -16,47" />
<polygon fill="#5d350b" fill-opacity="0.501961" points="-16,-12 219,3 14,140" />
<polygon fill="#000000" fill-opacity="0.501961" points="238,139 206,1 128,-16" />
<polygon fill="#feb5c1" fill-opacity="0.501961" points="133,79 -16,205 237,246" />
<polygon fill="#ff617b" fill-opacity="0.501961" points="258,209 202,-15 269,-2" />
<polygon fill="#ff5469" fill-opacity="0.501961" points="271,223 227,123 215,242" />
<polygon fill="#462703" fill-opacity="0.501961" points="-16,57 42,116 164,127" />
<polygon fill="#1b0c08" fill-opacity="0.501961" points="212,13 221,215 181,149" />
<polygon fill="#906038" fill-opacity="0.501961" points="15,43 195,164 140,-16" />
<polygon fill="#7dcbd4" fill-opacity="0.501961" points="91,107 151,116 131,83" />
<polygon fill="#a8ffff" fill-opacity="0.501961" points="29,100 24,115 -16,85" />
<polygon fill="#ffdfe9" fill-opacity="0.501961" points="176,246 48,184 139,164" />
<polygon fill="#f28fa4" fill-opacity="0.501961" points="93,113 42,246 -16,137" />
<polygon fill="#050f0a" fill-opacity="0.501961" points="213,18 196,175 163,-16" />
<polygon fill="#220900" fill-opacity="0.501961" points="160,101 119,124 147,131" />
<polygon fill="#ff8ba1" fill-opacity="0.501961" points="210,185 202,129 214,154" />
<polygon fill="#0e0600" fill-opacity="0.501961" points="-2,46 -3,95 50,60" />
<polygon fill="#000000" fill-opacity="0.501961" points="148,52 113,42 85,58" />
<polygon fill="#250b00" fill-opacity="0.501961" points="53,109 -3,121 0,137" />
<polygon fill="#180c00" fill-opacity="0.501961" points="152,87 132,71 95,89" />
<polygon fill="#ffffff" fill-opacity="0.501961" points="130,87 146,95 141,112" />
<polygon fill="#ff6874" fill-opacity="0.501961" points="218,111 271,203 232,246" />
<polygon fill="#000000" fill-opacity="0.501961" points="120,99 134,98 125,111" />
<polygon fill="#814525" fill-opacity="0.501961" points="112,118 57,-16 29,117" />
<polygon fill="#ff6974" fill-opacity="0.501961" points="194,-16 271,-12 271,119" />
<polygon fill="#0d1008" fill-opacity="0.501961" points="251,115 179,76 183,107" />
<polygon fill="#ee97a8" fill-opacity="0.501961" points="63,116 228,246 166,143" />
<polygon fill="#ff737f" fill-opacity="0.501961" points="206,160 209,138 198,115" />
<polygon fill="#000000" fill-opacity="0.501961" points="224,150 217,196 206,110" />
<polygon fill="#ffffff" fill-opacity="0.501961" points="103,101 117,112 116,92" />
<polygon fill="#a86631" fill-opacity="0.501961" points="153,136 168,33 191,156" />
<polygon fill="#15878e" fill-opacity="0.501961" points="-16,113 22,119 9,95" />
<polygon fill="#f49eb1" fill-opacity="0.501961" points="41,121 -14,141 16,246" />
<polygon fill="#f4656f" fill-opacity="0.501961" points="253,246 271,64 212,215" />
<polygon fill="#1f1c15" fill-opacity="0.501961" points="201,15 240,138 195,83" />
<polygon fill="#000400" fill-opacity="0.501961" points="164,106 125,79 149,86" />
<polygon fill="#000000" fill-opacity="0.501961" points="190,167 208,191 199,125" />
<polygon fill="#6f3a18" fill-opacity="0.501961" points="-16,61 83,14 -16,-16" />
<polygon fill="#ff737e" fill-opacity="0.501961" points="210,162 214,185 205,200" />
<polygon fill="#040400" fill-opacity="0.501961" points="150,50 123,44 171,71" />
<polygon fill="#a36037" fill-opacity="0.501961" points="96,25 136,-10 172,65" />
<polygon fill="#000000" fill-opacity="0.501961" points="218,208 217,174 210,202" />
<polygon fill="#472916" fill-opacity="0.501961" points="65,116 29,122 30,62" />
<polygon fill="#10170e" fill-opacity="0.501961" points="224,35 192,-13 198,13" />
<polygon fill="#ffffff" fill-opacity="0.501961" points="31,103 27,112 13,93" />
<polygon fill="#ff6871" fill-opacity="0.501961" points="229,105 217,31 271,116" />
<polygon fill="#b8617b" fill-opacity="0.501961" points="35,224 51,200 74,246" />
<polygon fill="#1a1811" fill-opacity="0.501961" points="232,125 128,-16 218,47" />
<polygon fill="#050200" fill-opacity="0.501961" points="20,105 8,101 5,113" />
</g>
</svg>