<svg xmlns="http://www.w3.org/2000/svg" viewBox="0 0 900 400"><defs><style>.a{fill:#1d1d1b;}.b{fill:none;stroke:#ccc;stroke-miterlimit:10;stroke-width:5px;}.c{fill:#ccc;}</style></defs><title>poe-logo-old-to-new</title><path d="M188.28,36a164,164,0,1,1-164,164h0a164,164,0,0,1,164-164m0-11.29C91.64,24.72,13,103.36,13,200S91.64,375.28,188.28,375.28,363.57,296.64,363.57,200,284.93,24.72,188.28,24.72Zm31.52,98a71,71,0,0,0-43.89,15.41c-7.76-9-19.14-12.65-30-12.65H98.38a5.65,5.65,0,0,0-5.64,5.65V272.4A5.65,5.65,0,0,0,104,273a5,5,0,0,0,0-.55V212.34h42.24c4.9,38.6,36,68.47,73.54,68.47,41,0,74.32-35.46,74.32-79.08S260.82,122.67,219.8,122.67Zm-45.38,46c0,20-9.71,27.66-17.52,30.61A70.14,70.14,0,0,1,173,156.66a45.46,45.46,0,0,1,1.48,12ZM104,136.73h41.85c5.25,0,15,1.2,21.61,9a81.44,81.44,0,0,0-21.93,55.38H104ZM219.8,269.51c-31.86,0-58.21-25.59-62.38-58.66,13-3.72,28.29-15.16,28.29-42.24a52.92,52.92,0,0,0-3.85-20.87A59.88,59.88,0,0,1,219.8,134c34.77,0,63,30.4,63,67.76S254.59,269.51,219.8,269.51Z"/><path class="a" d="M693.26,365.51H635.74V35.84H883V175.78H718.15V118.25H825.48V93.36H693.26Z"/><path class="a" d="M883,200.66V365.51H718.15V200.66Zm-57.52,57.53H775.7V308h49.78Z"/><line class="b" x1="454.57" y1="201.97" x2="492.14" y2="201.97"/><polygon class="c" points="487.76 216.93 513.66 201.97 487.76 187.01 487.76 216.93"/></svg>