<svg xmlns="http://www.w3.org/2000/svg" viewBox="0 0 300 300"><title>logo-old</title><path d="M150,25.13A124.87,124.87,0,1,1,25.13,150,124.87,124.87,0,0,1,150,25.13m0-8.6C76.41,16.53,16.53,76.41,16.53,150S76.41,283.47,150,283.47,283.47,223.59,283.47,150,223.59,16.53,150,16.53Zm24,74.59a54,54,0,0,0-33.42,11.73C134.67,96,126,93.22,117.7,93.22H81.54a4.3,4.3,0,0,0-4.29,4.3V205.13a4.3,4.3,0,1,0,8.59,0V159.4H118c3.73,29.39,27.39,52.13,56,52.13,31.21,0,56.59-27,56.59-60.21S205.23,91.12,174,91.12Zm-34.56,35c0,15.22-7.39,21.06-13.34,23.31A53.43,53.43,0,0,1,138.33,117,34.91,34.91,0,0,1,139.46,126.1ZM85.84,101.82H117.7c4,0,11.43.92,16.46,6.82a62,62,0,0,0-16.7,42.17H85.84ZM174,202.93c-24.26,0-44.33-19.49-47.5-44.67,9.89-2.83,21.54-11.54,21.54-32.16a40.28,40.28,0,0,0-2.93-15.89A45.6,45.6,0,0,1,174,99.72c26.47,0,48,23.15,48,51.6S200.49,202.93,174,202.93Z"/></svg>