<svg xmlns="http://www.w3.org/2000/svg" viewBox="0 0 512 165.69"><title>Artboard 1</title><path d="M142,10.31c0,2.53,0,47.23,0,49.4,0,2.33-3.64,3.18-4.09,0C136,46,131.94,36,124.09,29.4c-8.49-7.07-19-11.32-29.67-11.32a42.23,42.23,0,0,0-24.49,7.68A44.65,44.65,0,0,0,53.64,45.83,91,91,0,0,0,47,81.15,118.22,118.22,0,0,0,51.85,116Q56.68,131.71,67,139.74t26.69,8a53.42,53.42,0,0,0,24.65-5.88c10.24-5.22,17.72-11.53,23.6-20.29a3.64,3.64,0,0,1,4.64-.87,3.33,3.33,0,0,1,1,4.16C142.25,135.14,130.21,146.17,117,152c-8.63,3.82-18.77,5.62-30.33,5.62q-22.8,0-40.52-9.14A64.69,64.69,0,0,1,18.8,122.24,73.38,73.38,0,0,1,9.18,85.77,75.64,75.64,0,0,1,19.85,47.09a75.18,75.18,0,0,1,28.8-28.38A78,78,0,0,1,87.17,8.62a83.54,83.54,0,0,1,28,4.54c6,2.11,9.35,5.06,14.51,5,5.42-.09,7.76-5,8.22-7.83C138.26,8.16,142,8.22,142,10.31Z"/><path d="M193.62,18.46a4,4,0,0,1,4,4V130.73q0,10.4,2.42,13.29c1.61,1.93,4.39,3.16,8.82,3.31s4.54,6.78,0,6.78H156.42c-4.45,0-5.06-6.41,0-6.78s7.57-1.4,9.67-3.78q2.1-2.42,2.1-12.82V42c0-6.86.05-12.73-2.32-15.85-1.52-2-5-3.55-9.45-3.77a2,2,0,1,1,0-3.89Z"/><path d="M273.77,139.8c-11.12,10.89-22.74,17.32-32.27,17.32a18.91,18.91,0,0,1-14-5.61,19.13,19.13,0,0,1-5.57-14q0-11.43,9.67-20.56t42.15-24.3v-10c0-9.5.25-14.28-2.77-17.77-2.76-3.2-7.78-3.8-10.58-3.8q-6.83,0-11.24,3.09-2.75,1.92-2.74,4.49,0,2.23,2.95,5.55,4,4.59,4,8.86a11.91,11.91,0,0,1-3.84,8.92,13.86,13.86,0,0,1-10,3.68,15.89,15.89,0,0,1-11.09-4A12.49,12.49,0,0,1,224,82q0-7.68,6-14.68c4-4.66,15.09-13,30.94-14.65,14.76-1.52,25.94,2.77,31.37,6.79s7.87,7.77,9.37,12.5c1.35,4.24,1.47,9.87,1.47,20.61v38.77c0,5.47.07,7.16.28,8.37.26,1.42.85,2.41,2.33,2.67,1.76.31,4-1.47,5.86-4,1.37-1.82,3.16-1.14,4.22-.55a3.42,3.42,0,0,1,.93,4.52,32.28,32.28,0,0,1-11.25,11.13,25.27,25.27,0,0,1-12.77,3.58q-8.42,0-13.14-4C276.4,150.44,274.47,145.21,273.77,139.8Zm0-7.7V99.77q-12.72,7.59-18.92,16.23a20,20,0,0,0-4.1,11.64,12.33,12.33,0,0,0,3.47,8.65,9.45,9.45,0,0,0,7.36,2.88C265.08,139.17,270.4,136.17,273.77,132.1Z"/><path d="M410.61,55.83a2,2,0,0,1,2,2v72c0,9.2.3,11.88,1.65,13.75,1.46,2,4.85,3.3,8.69,3.8s4.26,6.78,0,6.78h-35a4,4,0,0,1-4-4V139.77a40.25,40.25,0,0,1-13.73,13.44A31,31,0,0,1,355,157.05a23.07,23.07,0,0,1-14.47-5A25,25,0,0,1,332,140q-2.14-6.83-2.15-23.86v-39q0-11.15-2-13.88c-1.33-1.82-5-3.15-8.35-3.57-2.38-.3-2.71-3.66,0-3.89,3.22-.26,37,0,37,0a2,2,0,0,1,2,2V123q0,10.52,1,13.56a9,9,0,0,0,3.07,4.63,7.9,7.9,0,0,0,4.87,1.57,11.67,11.67,0,0,0,6.66-2c2.73-1.82,6.14-4.47,9.84-12.15V77.17q0-11.15-2-13.88c-1.33-1.82-4.67-3.17-8.35-3.57a2,2,0,0,1,0-3.89C376.3,55.56,410.61,55.83,410.61,55.83Z"/><path d="M497.77,53.1V86.63c0,1.78-2.92,2.51-3.57,0-2.93-11.4-7.13-16.75-11.72-20.39s-9.16-5.47-13.72-5.47a10.32,10.32,0,0,0-7.35,2.89,9,9,0,0,0-3.05,6.68,8.64,8.64,0,0,0,2.1,5.46q3.36,4.32,18.82,14.77t20.33,17.76a28.74,28.74,0,0,1,4.89,16.35,34.55,34.55,0,0,1-4.1,16.08,28.75,28.75,0,0,1-11.56,12.08,33,33,0,0,1-16.5,4.21c-10.77,0-16.26-7.65-21.13-8.2-4.32-.49-7.47,1.19-8.77,5.26H437V118.79c0-2.55,4.83-3.5,5.58,0a50,50,0,0,0,9.8,19.69c6,7,13.94,10.91,20.25,9.94,6.85-1,9.13-5.52,9.2-9.5a13.5,13.5,0,0,0-3.05-9.09q-3.15-3.69-14.08-11.14c-10.73-7.43-17.73-12.43-20.88-16.36-4.63-5.74-8.58-12.59-8.82-19.53-.31-9.29,4.25-16.22,9.13-21.1,5.6-5.59,13.42-8.81,23.3-8.81a33.09,33.09,0,0,1,15.45,3.89,11.53,11.53,0,0,0,4.62,1.57c2.83.23,5.76-2.09,6.73-5.25C494.82,51.09,497.77,51.27,497.77,53.1Z"/></svg>